<svg width="39" height="35" viewBox="0 0 39 35" fill="none" xmlns="http://www.w3.org/2000/svg">
<g clip-path="url(#clip0_565_2135)">
<path d="M21.0635 10.5158L20.9842 9.85036C20.8986 9.13124 20.9617 8.40411 21.1703 7.70555C21.8476 5.43741 24.4453 4.09143 26.9727 4.69914C29.5001 5.30691 31 7.63821 30.3227 9.90642L30.313 9.93916C29.5193 12.5974 28.2889 15.1347 26.6622 17.4676C25.8903 18.5746 24.4037 19.0997 22.9981 18.7616C21.2316 18.3369 20.1833 16.7073 20.6566 15.122L20.6671 15.0871C21.1114 13.5982 21.2458 12.0485 21.0635 10.5158Z" fill="#FFCC9C"/>
<path d="M21.7617 1.7498C21.7617 2.03232 21.8868 2.30326 22.1094 2.50303C22.332 2.7028 22.6339 2.81503 22.9487 2.81503C23.2635 2.81503 23.5654 2.7028 23.788 2.50303C24.0106 2.30326 24.1357 2.03232 24.1357 1.7498C24.1357 1.46728 24.0106 1.19634 23.788 0.996569C23.5654 0.7968 23.2635 0.68457 22.9487 0.68457C22.6339 0.68457 22.332 0.7968 22.1094 0.996569C21.8868 1.19634 21.7617 1.46728 21.7617 1.7498Z" fill="#FFCC9C"/>
<path d="M17.9346 13.629L18.0138 12.9636C18.0994 12.2445 18.0363 11.5174 17.8277 10.8188C17.1505 8.55069 14.5527 7.20471 12.0253 7.81242C9.49796 8.42019 7.99808 10.7515 8.67531 13.0197L8.68506 13.0524C9.47872 15.7107 10.7091 18.248 12.3358 20.5808C13.1077 21.6878 14.5944 22.213 15.9999 21.8749C17.7665 21.4501 18.8147 19.8206 18.3414 18.2352L18.331 18.2004C17.8866 16.7115 17.7522 15.1617 17.9346 13.629Z" fill="#FFCC9C"/>
<path d="M14.8623 4.86259C14.8623 5.14511 14.9874 5.41606 15.21 5.61583C15.4326 5.8156 15.7345 5.92782 16.0493 5.92782C16.3641 5.92782 16.666 5.8156 16.8886 5.61583C17.1112 5.41606 17.2362 5.14511 17.2362 4.86259C17.2362 4.58008 17.1112 4.30913 16.8886 4.10936C16.666 3.90959 16.3641 3.79736 16.0493 3.79736C15.7345 3.79736 15.4326 3.90959 15.21 4.10936C14.9874 4.30913 14.8623 4.58008 14.8623 4.86259Z" fill="#FFCC9C"/>
<path d="M6.20703 20.1175L4.40772 18.9702L4.40726 18.9695V10.3679C4.40726 9.46468 3.59132 8.73242 2.58487 8.73242H2.58403C1.57759 8.73242 0.761719 9.46475 0.761719 10.368L0.762557 24.7037C0.762616 26.3158 1.25966 27.8964 2.19868 29.2706L5.6458 34.3158H14.3968V30.4304C14.3968 29.1968 14.1016 27.9776 13.5313 26.8552C12.9611 25.7328 12.1289 24.7333 11.0911 23.9244L7.35279 21.0104L7.45417 20.9714L6.20703 20.1175ZM33.2172 19.7863L34.5916 18.9702L34.5921 18.9695V10.3679C34.5921 9.46468 35.408 8.73242 36.4144 8.73242H36.4153C37.4218 8.73242 38.2377 9.46468 38.2376 10.368L38.2368 24.7036C38.2367 26.3157 37.7397 27.8963 36.8006 29.2705L33.3535 34.3157H24.6028V30.4304C24.6028 29.1968 24.8979 27.9776 25.4682 26.8551C26.0385 25.7327 26.8707 24.7333 27.9084 23.9244L31.6467 21.0105L31.5453 20.9715L33.2172 19.7863Z" fill="#FFD4AC"/>
<path d="M37.046 20.4469C36.8303 19.7408 36.2771 19.1695 35.5281 18.8794C35.4707 18.8572 35.4125 18.8368 35.3535 18.8184V10.3684C35.3535 9.84352 35.8294 9.41649 36.4151 9.41649C36.6985 9.41649 36.9648 9.51554 37.1652 9.69532C37.264 9.78352 37.3423 9.88844 37.3957 10.004C37.449 10.1195 37.4763 10.2434 37.4759 10.3685L37.4758 12.5103C37.4758 12.8878 37.8168 13.1938 38.2375 13.1938C38.6581 13.1938 38.9992 12.8878 38.9992 12.5103L38.9993 10.3685C38.9993 9.74898 38.7306 9.16664 38.2425 8.72859C37.7544 8.29055 37.1055 8.04932 36.4144 8.04932C34.9894 8.04932 33.8303 9.08966 33.8303 10.3683V18.7562C33.4254 18.8454 33.042 19.0179 32.7177 19.2706L27.4088 23.4087C26.2884 24.2816 25.3901 25.3603 24.7745 26.5718C24.1589 27.7832 23.8405 29.0993 23.8408 30.4308V34.3161C23.8408 34.6936 24.1818 34.9997 24.6025 34.9997C25.0232 34.9997 25.3642 34.6936 25.3642 34.3161V30.4308C25.364 29.295 25.6356 28.1724 26.1607 27.139C26.6857 26.1056 27.452 25.1855 28.4077 24.4409L33.7165 20.3028C34.0477 20.0447 34.5219 19.9786 34.9245 20.1347C35.0828 20.1956 35.2237 20.2878 35.3367 20.4044C35.4496 20.5211 35.5317 20.6592 35.5769 20.8083C35.6228 20.9573 35.6306 21.1136 35.5997 21.2657C35.5689 21.4177 35.5001 21.5615 35.3985 21.6864L30.9288 27.209C30.6816 27.5145 30.7571 27.942 31.0975 28.1638C31.4379 28.3856 31.9143 28.3179 32.1614 28.0125L36.6311 22.4899C37.1105 21.8975 37.2618 21.1528 37.046 20.4469Z" fill="#414141"/>
<path d="M38.2373 16.8168C37.8166 16.8168 37.4756 17.1229 37.4756 17.5004L37.4751 24.7042C37.4752 26.1902 37.0171 27.6472 36.1514 28.9138L32.7043 33.959C32.4844 34.2809 32.5968 34.7017 32.9554 34.8992C33.075 34.9652 33.2126 35.0001 33.3529 35.0001C33.4833 35.0002 33.6116 34.9703 33.7255 34.9132C33.8393 34.856 33.9349 34.7736 34.003 34.6738L37.4501 29.6286C38.4627 28.1469 38.9987 26.4426 38.9986 24.7044L38.9991 17.5005C38.999 17.1229 38.658 16.8168 38.2373 16.8168ZM38.2378 14.1385C38.0367 14.1385 37.8402 14.2109 37.6985 14.3388C37.5561 14.4672 37.4759 14.6409 37.4753 14.8221C37.4753 15.0018 37.5568 15.1782 37.6985 15.3054C37.8402 15.4325 38.0367 15.5056 38.2378 15.5056C38.4381 15.5056 38.6339 15.4325 38.7756 15.3054C38.918 15.1782 38.9995 15.0018 38.9995 14.8221C38.9995 14.6416 38.918 14.4659 38.7756 14.3388C38.6347 14.2109 38.4381 14.1385 38.2378 14.1385ZM11.5905 23.4088L6.28159 19.2707C5.95733 19.018 5.57388 18.8455 5.16904 18.7562V10.3685C5.16904 9.08972 4.00979 8.0495 2.5841 8.0495C1.89384 8.0495 1.24486 8.29074 0.756834 8.72878C0.268731 9.16669 0 9.7491 0 10.3686L0.000837891 24.7042C0.000706653 26.4424 0.53665 28.1468 1.54932 29.6284L4.99636 34.6736C5.06447 34.7735 5.16003 34.8559 5.27386 34.913C5.38769 34.9702 5.51597 35.0001 5.6464 34.9999C5.78673 34.9999 5.92431 34.965 6.04386 34.899C6.40247 34.7016 6.51498 34.2807 6.29499 33.9589L2.84796 28.9138C1.98227 27.6471 1.52412 26.1901 1.52426 24.7042L1.52342 10.3685C1.52302 10.2434 1.55028 10.1195 1.60361 10.004C1.65694 9.88845 1.73529 9.78355 1.83412 9.69537C1.9325 9.60663 2.04953 9.53628 2.17843 9.48842C2.30732 9.44056 2.44552 9.41612 2.58501 9.41654C3.16985 9.41654 3.64569 9.84357 3.64569 10.3684V18.8184C3.58672 18.8369 3.52849 18.8573 3.47111 18.8794C2.72212 19.1695 2.16889 19.7409 1.95317 20.4469C1.73746 21.1529 1.88873 21.8976 2.36815 22.4898L6.83794 28.0125C7.08519 28.3179 7.56156 28.3857 7.9019 28.1638C8.24223 27.942 8.31771 27.5145 8.07054 27.209L3.60075 21.6863C3.49921 21.5615 3.43043 21.4177 3.39955 21.2656C3.36868 21.1136 3.3765 20.9572 3.42244 20.8083C3.46758 20.6591 3.54972 20.5211 3.66269 20.4044C3.77566 20.2878 3.91656 20.1956 4.07484 20.1347C4.47748 19.9786 4.95164 20.0447 5.28276 20.3028L10.5916 24.4409C11.5473 25.1854 12.3136 26.1056 12.8387 27.139C13.3638 28.1724 13.6354 29.295 13.6351 30.4308V34.3161C13.6351 34.6936 13.9761 34.9997 14.3968 34.9997C14.8175 34.9997 15.1585 34.6936 15.1585 34.3161V30.4308C15.1587 29.0993 14.8403 27.7833 14.2247 26.5719C13.6091 25.3604 12.7108 24.2817 11.5905 23.4088ZM27.3083 17.8307C28.9754 15.4404 30.2362 12.8404 31.0491 10.1165L31.0588 10.0839C31.439 8.81047 31.2439 7.48056 30.5094 6.33883C29.775 5.19718 28.5892 4.38063 27.1702 4.03939C25.7514 3.69814 24.2695 3.87335 22.9972 4.53239C21.7251 5.19157 20.8152 6.25578 20.435 7.52909C20.2015 8.30885 20.131 9.12069 20.2272 9.92349L20.3064 10.5889C20.48 12.038 20.3528 13.5035 19.9313 14.911L19.9211 14.9455C19.6395 15.8887 19.784 16.8737 20.328 17.7193C20.872 18.5649 21.7503 19.1698 22.8012 19.4225C23.1491 19.5064 23.5077 19.549 23.868 19.5492C25.2452 19.5491 26.5477 18.9213 27.3083 17.8307ZM21.6472 17.0358C21.3067 16.5064 21.2163 15.8898 21.3926 15.2991L21.4029 15.2645C21.873 13.6946 22.0148 12.06 21.8211 10.4437L21.7419 9.77829C21.6657 9.14283 21.7215 8.5002 21.9064 7.88298C22.3818 6.29064 23.9922 5.23799 25.7477 5.23799C26.0873 5.23799 26.4325 5.27743 26.7758 5.36001C28.8935 5.86921 30.1546 7.8296 29.5872 9.73017L29.5775 9.76284C28.8037 12.3556 27.6036 14.8304 26.0167 17.1056C25.4185 17.9634 24.2848 18.3639 23.1953 18.102C22.5376 17.9437 21.9878 17.565 21.6472 17.0358ZM26.5245 2.70168C26.7256 2.70168 26.9213 2.62922 27.063 2.50139C27.2054 2.37424 27.2862 2.19856 27.2862 2.0181C27.2862 1.83831 27.2054 1.66195 27.063 1.5348C26.9198 1.40715 26.7263 1.33541 26.5245 1.33519C26.3241 1.33519 26.1276 1.40765 25.9859 1.5348C25.8436 1.66329 25.7634 1.83693 25.7628 2.0181C25.7628 2.19856 25.8443 2.37424 25.9859 2.50139C26.1276 2.62922 26.3241 2.70168 26.5245 2.70168ZM29.013 3.4474C29.2133 3.4474 29.4098 3.37494 29.5515 3.24711C29.6932 3.11997 29.7747 2.94429 29.7747 2.76382C29.7747 2.58404 29.6932 2.40767 29.5515 2.28052C29.4098 2.15338 29.2133 2.08023 29.013 2.08023C28.8126 2.08023 28.6161 2.15338 28.4744 2.28052C28.3321 2.40901 28.2519 2.58265 28.2513 2.76382C28.2513 2.94429 28.3328 3.11997 28.4744 3.24711C28.6174 3.37514 28.811 3.44715 29.013 3.4474ZM30.7595 4.82011C30.9598 4.82011 31.1563 4.74697 31.298 4.61982C31.4397 4.49267 31.5212 4.31631 31.5212 4.13653C31.5212 3.95606 31.4397 3.78038 31.298 3.65323C31.1551 3.52523 30.9614 3.45323 30.7595 3.45294C30.5584 3.45294 30.3626 3.5254 30.221 3.65323C30.0785 3.78164 29.9983 3.95533 29.9978 4.13653C29.9978 4.31631 30.0793 4.49267 30.221 4.61982C30.3626 4.74697 30.5584 4.82011 30.7595 4.82011ZM31.5471 6.55027C31.6888 6.67741 31.8853 6.75056 32.0856 6.75056C32.2867 6.75056 32.4825 6.67741 32.6242 6.55027C32.7667 6.42189 32.8469 6.24818 32.8473 6.06697C32.8473 5.8865 32.7666 5.71082 32.6242 5.58368C32.4832 5.45585 32.2867 5.38339 32.0856 5.38339C31.8853 5.38339 31.6888 5.45585 31.5471 5.58368C31.4045 5.71201 31.3243 5.88575 31.3239 6.06697C31.3246 6.24814 31.4048 6.42176 31.5471 6.55027ZM21.9747 3.26455C22.275 3.42013 22.6081 3.49963 22.9459 3.49956C23.1151 3.49956 23.2855 3.4796 23.4535 3.4392C23.9563 3.31827 24.3765 3.02891 24.6367 2.62437C24.897 2.21982 24.9662 1.74849 24.8314 1.29732C24.5533 0.36587 23.4827 -0.188723 22.4448 0.0607176C21.942 0.181644 21.5218 0.471005 21.2616 0.875551C21.0013 1.2801 20.9322 1.75143 21.0669 2.2026C21.2015 2.65383 21.5239 3.03096 21.9747 3.26455ZM22.5807 1.55914C22.6085 1.51564 22.6457 1.47752 22.69 1.44699C22.7344 1.41646 22.785 1.39412 22.839 1.38127C22.8749 1.37262 22.9118 1.36823 22.9489 1.36821C23.0425 1.36832 23.1335 1.39609 23.2078 1.44723C23.2821 1.49836 23.3355 1.57003 23.3599 1.65115C23.3745 1.69954 23.3782 1.75005 23.371 1.79975C23.3637 1.84946 23.3454 1.89737 23.3174 1.94071C23.2896 1.98421 23.2524 2.02233 23.2081 2.05286C23.1637 2.08339 23.1131 2.10573 23.0591 2.11858C23.0052 2.13172 22.9489 2.13511 22.8935 2.12856C22.8381 2.12201 22.7847 2.10566 22.7364 2.08044C22.6879 2.05547 22.6455 2.02213 22.6115 1.98235C22.5774 1.94256 22.5525 1.89711 22.5382 1.84863C22.5236 1.80026 22.5198 1.74976 22.5271 1.70006C22.5344 1.65037 22.5526 1.60247 22.5807 1.55914Z" fill="#414141"/>
<path d="M19.0672 18.0234C18.6458 16.616 18.5187 15.1507 18.6922 13.7017L18.7714 13.0363C18.8677 12.2335 18.7972 11.4217 18.5636 10.642C17.7788 8.01343 14.7575 6.44788 11.8285 7.15225C10.4096 7.49342 9.22372 8.3101 8.48928 9.45169C7.75477 10.5933 7.55969 11.9233 7.93986 13.1966L7.94969 13.2295C8.76256 15.9534 10.0234 18.5533 11.6905 20.9435C12.4511 22.0342 13.7534 22.6621 15.1306 22.6621C15.484 22.6621 15.8422 22.6208 16.1975 22.5354C17.2484 22.2827 18.1267 21.6778 18.6707 20.8322C19.2147 19.9866 19.3592 19.0017 19.0777 18.0589L19.0672 18.0234ZM17.3515 20.1486C17.0109 20.6779 16.4611 21.0565 15.8033 21.2148C14.714 21.4766 13.5802 21.0763 12.9819 20.2183C11.3951 17.9432 10.195 15.4684 9.42123 12.8757L9.41141 12.8428C8.84401 10.9425 10.1052 8.982 12.2228 8.4728C12.5605 8.39129 12.9086 8.3499 13.2583 8.34968C13.9472 8.34968 14.6272 8.51183 15.2399 8.82929C16.1596 9.30581 16.8174 10.0753 17.0923 10.9959C17.2772 11.6131 17.333 12.2557 17.2568 12.8912L17.1776 13.5566C16.9845 15.1792 17.1252 16.8011 17.5957 18.3769L17.6062 18.4122C17.7824 19.0025 17.6919 19.6192 17.3515 20.1486ZM12.4742 5.81515C12.6746 5.81515 12.8711 5.74201 13.0128 5.61486C13.1544 5.48703 13.2359 5.31135 13.2359 5.13157C13.2359 4.9511 13.1544 4.77542 13.0128 4.64827C12.8698 4.52028 12.6762 4.44827 12.4742 4.44798C12.2739 4.44798 12.0774 4.52044 11.9357 4.64827C11.7933 4.77669 11.7131 4.95037 11.7125 5.13157C11.7125 5.31135 11.794 5.48703 11.9357 5.61486C12.0789 5.74257 12.2724 5.81452 12.4742 5.81515ZM9.98573 6.56088C10.1861 6.56088 10.3826 6.48773 10.5243 6.36059C10.6666 6.23183 10.7468 6.05798 10.7474 5.87661C10.7474 5.69683 10.6659 5.52114 10.5243 5.39331C10.3826 5.26617 10.1861 5.19302 9.98573 5.19302C9.78541 5.19302 9.58888 5.26617 9.44721 5.39331C9.30553 5.52046 9.22403 5.69683 9.22403 5.87661C9.2247 6.05798 9.30487 6.23183 9.44721 6.36059C9.59038 6.48831 9.78386 6.56027 9.98573 6.56088ZM8.23921 7.93283C8.43954 7.93283 8.63606 7.85969 8.77774 7.73254C8.91942 7.6054 9.00092 7.42903 9.00092 7.24925C9.00092 7.06947 8.91942 6.8931 8.77774 6.76595C8.63606 6.63881 8.43954 6.56566 8.23921 6.56566C8.03888 6.56566 7.84236 6.63881 7.70068 6.76595C7.55901 6.8931 7.4775 7.06947 7.4775 7.24925C7.4775 7.42903 7.55901 7.6054 7.70068 7.73254C7.84387 7.86024 8.03734 7.9322 8.23921 7.93283ZM6.91308 9.86321C7.11341 9.86321 7.30993 9.79007 7.45161 9.66292C7.59328 9.53577 7.67479 9.35941 7.67479 9.17962C7.67479 8.99984 7.59328 8.82348 7.45161 8.69633C7.30863 8.56833 7.11502 8.49632 6.91308 8.49604C6.71275 8.49604 6.51623 8.5685 6.37455 8.69633C6.23211 8.82348 6.15137 8.99984 6.15137 9.17962C6.15137 9.35941 6.23211 9.53577 6.37455 9.66292C6.51623 9.79007 6.71275 9.86321 6.91308 9.86321ZM15.5453 6.55206C15.7132 6.59246 15.8836 6.61242 16.0528 6.61242C16.3905 6.61242 16.7237 6.53292 17.024 6.37734C17.4748 6.14375 17.7972 5.76662 17.932 5.31545C18.0667 4.86429 17.9975 4.39296 17.7373 3.98841C17.477 3.58386 17.0568 3.29443 16.554 3.17358C15.5161 2.92393 14.4455 3.4788 14.1674 4.41018C14.0327 4.86142 14.1019 5.33268 14.3621 5.73729C14.6223 6.14177 15.0426 6.43113 15.5453 6.55206ZM15.6388 4.76401C15.6632 4.68287 15.7166 4.6112 15.7909 4.56004C15.8652 4.50889 15.9562 4.48111 16.0498 4.481C16.0861 4.481 16.123 4.48524 16.1597 4.49406C16.2137 4.5069 16.2644 4.52924 16.3087 4.55977C16.353 4.5903 16.3902 4.62842 16.418 4.67193C16.446 4.71529 16.4643 4.76321 16.4716 4.81293C16.4788 4.86264 16.4751 4.91316 16.4605 4.96156C16.4462 5.01004 16.4213 5.05549 16.3873 5.09528C16.3533 5.13507 16.3108 5.16841 16.2623 5.19337C16.214 5.21853 16.1606 5.23485 16.1052 5.2414C16.0498 5.24794 15.9936 5.24458 15.9396 5.23151C15.8856 5.21866 15.835 5.19633 15.7906 5.1658C15.7463 5.13527 15.7091 5.09715 15.6813 5.05364C15.6533 5.01028 15.6351 4.96236 15.6278 4.91264C15.6205 4.86293 15.6242 4.81241 15.6388 4.76401ZM9.14031 29.1892C8.93998 29.1892 8.74346 29.2623 8.60179 29.3895C8.46011 29.5166 8.37861 29.693 8.37861 29.8728C8.37861 30.0526 8.46011 30.2289 8.60179 30.356C8.74495 30.4837 8.93843 30.5557 9.14031 30.5564C9.34064 30.5564 9.53716 30.4832 9.67884 30.356C9.82052 30.2289 9.90202 30.0526 9.90202 29.8728C9.90202 29.693 9.82052 29.5166 9.67884 29.3895C9.53567 29.2618 9.34219 29.1898 9.14031 29.1892Z" fill="#414141"/>
</g>
<defs>
<clipPath id="clip0_565_2135">
<rect width="39" height="35" fill="white"/>
</clipPath>
</defs>
</svg>
