<svg class="svg-icon" style="width: 1em;height: 1em;vertical-align: middle;fill: currentColor;overflow: hidden;" viewBox="0 0 1024 1024" version="1.1" xmlns="http://www.w3.org/2000/svg"><path d="M512 1024a512 512 0 1 1 512-512 512 512 0 0 1-512 512z m0-938.666667a426.666667 426.666667 0 1 0 426.666667 426.666667A426.666667 426.666667 0 0 0 512 85.333333z m-3.413333 611.541334a34.944 34.944 0 0 1-9.386667 16.682666 38.058667 38.058667 0 0 1-30.72 11.050667 38.954667 38.954667 0 0 1-40.106667-27.946667L308.053333 576.426667a38.4 38.4 0 0 1 54.186667-54.229334l93.013333 93.184 190.293334-337.365333a42.666667 42.666667 0 0 1 58.88-16.426667 44.842667 44.842667 0 0 1 15.36 60.458667z"  /></svg>