<svg width="29" height="29" viewBox="0 0 29 29" fill="none" xmlns="http://www.w3.org/2000/svg">
<path d="M14.5004 27.0649C12.859 27.0677 11.2332 26.7462 9.71633 26.119C8.19949 25.4918 6.82147 24.5711 5.66136 23.4099C0.787359 18.5359 0.787359 10.6059 5.66136 5.73195C8.02236 3.37095 11.1614 2.06995 14.5004 2.06995C17.8394 2.06995 20.9784 3.36995 23.3394 5.73195C28.2134 10.6059 28.2134 18.5359 23.3394 23.4099C22.1793 24.5711 20.8012 25.4918 19.2844 26.119C17.7675 26.7462 16.1418 27.0677 14.5004 27.0649ZM14.5004 4.06995C13.1208 4.06614 11.7542 4.33605 10.4797 4.86406C9.20517 5.39206 8.04806 6.16766 7.07536 7.14595C2.98236 11.2399 2.98236 17.9009 7.07536 21.9959C11.1694 26.0889 17.8304 26.0889 21.9254 21.9959C26.0184 17.9019 26.0184 11.2409 21.9254 7.14595C20.9525 6.16784 19.7954 5.39236 18.5209 4.86437C17.2464 4.33638 15.8799 4.06636 14.5004 4.06995Z" fill="#71FF65"/>
<path d="M13.0007 19.369C12.8693 19.3691 12.7393 19.3433 12.6179 19.293C12.4966 19.2428 12.3864 19.169 12.2937 19.076L8.05066 14.833C7.95782 14.7401 7.88417 14.6299 7.83392 14.5086C7.78367 14.3873 7.75781 14.2573 7.75781 14.126C7.75781 13.9947 7.78367 13.8647 7.83392 13.7434C7.88417 13.6221 7.95782 13.5118 8.05066 13.419C8.14351 13.3261 8.25373 13.2525 8.37504 13.2023C8.49634 13.152 8.62636 13.1261 8.75766 13.1261C8.88896 13.1261 9.01898 13.152 9.14029 13.2023C9.26159 13.2525 9.37182 13.3261 9.46466 13.419L13.0007 16.955L19.5387 10.417C19.6315 10.3241 19.7417 10.2505 19.863 10.2003C19.9843 10.15 20.1144 10.1241 20.2457 10.1241C20.377 10.1241 20.507 10.15 20.6283 10.2003C20.7496 10.2505 20.8598 10.3241 20.9527 10.417C21.0455 10.5098 21.1192 10.6201 21.1694 10.7414C21.2196 10.8627 21.2455 10.9927 21.2455 11.124C21.2455 11.2553 21.2196 11.3853 21.1694 11.5066C21.1192 11.6279 21.0455 11.7382 20.9527 11.831L13.7077 19.076C13.6149 19.169 13.5047 19.2428 13.3834 19.293C13.2621 19.3433 13.132 19.3691 13.0007 19.369Z" fill="#71FF65"/>
</svg>
