<svg width="24" height="25" viewBox="0 0 24 25" fill="none" xmlns="http://www.w3.org/2000/svg">
<path d="M12 20.283C13.9891 20.283 15.8968 19.4928 17.3033 18.0863C18.7098 16.6798 19.5 14.7721 19.5 12.783C19.5 10.7939 18.7098 8.88624 17.3033 7.47972C15.8968 6.0732 13.9891 5.28302 12 5.28302C10.0109 5.28302 8.10322 6.0732 6.6967 7.47972C5.29018 8.88624 4.5 10.7939 4.5 12.783C4.5 14.7721 5.29018 16.6798 6.6967 18.0863C8.10322 19.4928 10.0109 20.283 12 20.283ZM12 21.783C10.8181 21.783 9.64778 21.5502 8.55585 21.0979C7.46392 20.6456 6.47177 19.9827 5.63604 19.147C4.80031 18.3113 4.13738 17.3191 3.68508 16.2272C3.23279 15.1352 3 13.9649 3 12.783C3 11.6011 3.23279 10.4308 3.68508 9.33887C4.13738 8.24694 4.80031 7.25479 5.63604 6.41906C6.47177 5.58333 7.46392 4.9204 8.55585 4.4681C9.64778 4.01581 10.8181 3.78302 12 3.78302C14.3869 3.78302 16.6761 4.73123 18.364 6.41906C20.0518 8.10689 21 10.3961 21 12.783C21 15.17 20.0518 17.4592 18.364 19.147C16.6761 20.8348 14.3869 21.783 12 21.783Z" fill="#777777"/>
<path d="M6.85101 20.109L8.15001 20.859L7.02501 22.8075C6.97612 22.8935 6.91071 22.969 6.83254 23.0296C6.75437 23.0902 6.66498 23.1347 6.56953 23.1606C6.47407 23.1866 6.37444 23.1933 6.27635 23.1806C6.17827 23.1678 6.08367 23.1358 5.99801 23.0864C5.91236 23.0369 5.83733 22.971 5.77725 22.8924C5.71716 22.8138 5.67322 22.7242 5.64794 22.6285C5.62265 22.5329 5.61654 22.4332 5.62994 22.3352C5.64334 22.2372 5.67599 22.1429 5.72601 22.0575L6.85101 20.109ZM17.15 20.109L15.851 20.859L16.976 22.8075C17.0249 22.8935 17.0903 22.969 17.1685 23.0296C17.2466 23.0902 17.336 23.1347 17.4315 23.1606C17.5269 23.1866 17.6266 23.1933 17.7247 23.1806C17.8228 23.1678 17.9173 23.1358 18.003 23.0864C18.0887 23.0369 18.1637 22.971 18.2238 22.8924C18.2839 22.8138 18.3278 22.7242 18.3531 22.6285C18.3784 22.5329 18.3845 22.4332 18.3711 22.3352C18.3577 22.2372 18.325 22.1429 18.275 22.0575L17.15 20.109ZM12.0005 12.783H15.7505C15.9494 12.783 16.1402 12.862 16.2808 13.0027C16.4215 13.1434 16.5005 13.3341 16.5005 13.533C16.5005 13.7319 16.4215 13.9227 16.2808 14.0634C16.1402 14.204 15.9494 14.283 15.7505 14.283H11.2505C11.0516 14.283 10.8608 14.204 10.7202 14.0634C10.5795 13.9227 10.5005 13.7319 10.5005 13.533V8.28303C10.5005 8.08412 10.5795 7.89335 10.7202 7.7527C10.8608 7.61205 11.0516 7.53303 11.2505 7.53303C11.4494 7.53303 11.6402 7.61205 11.7808 7.7527C11.9215 7.89335 12.0005 8.08412 12.0005 8.28303V12.783ZM2.12151 8.10153C1.64287 7.38026 1.4285 6.51561 1.51477 5.65428C1.60104 4.79295 1.98265 3.988 2.59483 3.37599C3.20702 2.76398 4.01208 2.38261 4.87344 2.29658C5.73479 2.21056 6.59938 2.42518 7.32051 2.90403L6.22251 4.00203C5.80265 3.80151 5.33095 3.73608 4.87236 3.81476C4.41377 3.89344 3.99086 4.11236 3.66185 4.44137C3.33284 4.77038 3.11392 5.19329 3.03524 5.65188C2.95656 6.11047 3.02199 6.58217 3.22251 7.00203L2.12301 8.10153H2.12151ZM21.698 8.10153C22.176 7.38037 22.3899 6.51612 22.3035 5.65527C22.2171 4.79441 21.8357 3.98992 21.2239 3.37815C20.6121 2.76637 19.8076 2.38496 18.9468 2.29855C18.0859 2.21214 17.2217 2.42605 16.5005 2.90403L17.5985 4.00203C18.0184 3.80151 18.4901 3.73608 18.9487 3.81476C19.4072 3.89344 19.8302 4.11236 20.1592 4.44137C20.4882 4.77038 20.7071 5.19329 20.7858 5.65188C20.8645 6.11047 20.799 6.58217 20.5985 7.00203L21.698 8.10153Z" fill="#777777"/>
</svg>
