<svg width="27" height="28" viewBox="0 0 27 28" fill="none" xmlns="http://www.w3.org/2000/svg">
<path d="M13.5 22.4347C15.7378 22.4347 17.8839 21.5458 19.4662 19.9635C21.0486 18.3811 21.9375 16.235 21.9375 13.9972C21.9375 11.7595 21.0486 9.61336 19.4662 8.03102C17.8839 6.44869 15.7378 5.55974 13.5 5.55974C11.2622 5.55974 9.11612 6.44869 7.53379 8.03102C5.95145 9.61336 5.0625 11.7595 5.0625 13.9972C5.0625 16.235 5.95145 18.3811 7.53379 19.9635C9.11612 21.5458 11.2622 22.4347 13.5 22.4347ZM13.5 24.1222C12.1704 24.1222 10.8538 23.8603 9.62533 23.3515C8.39691 22.8427 7.28074 22.0969 6.34054 21.1567C5.40035 20.2165 4.65455 19.1003 4.14572 17.8719C3.63689 16.6435 3.375 15.3269 3.375 13.9972C3.375 12.6676 3.63689 11.351 4.14572 10.1226C4.65455 8.89415 5.40035 7.77798 6.34054 6.83778C7.28074 5.89759 8.39691 5.15179 9.62533 4.64296C10.8538 4.13413 12.1704 3.87224 13.5 3.87224C16.1853 3.87224 18.7606 4.93898 20.6595 6.83778C22.5583 8.73659 23.625 11.3119 23.625 13.9972C23.625 16.6826 22.5583 19.2579 20.6595 21.1567C18.7606 23.0555 16.1853 24.1222 13.5 24.1222Z" fill="#777777"/>
<path d="M7.70678 22.239L9.16815 23.0827L7.90253 25.2748C7.84753 25.3715 7.77394 25.4564 7.686 25.5246C7.59806 25.5928 7.4975 25.6429 7.39011 25.672C7.28272 25.7012 7.17063 25.7088 7.06029 25.6945C6.94994 25.6801 6.84352 25.6441 6.74716 25.5885C6.65079 25.5328 6.56638 25.4587 6.49879 25.3703C6.4312 25.2819 6.38176 25.181 6.35332 25.0734C6.32488 24.9659 6.31799 24.8537 6.33307 24.7435C6.34814 24.6332 6.38487 24.527 6.44115 24.4311L7.70678 22.239ZM19.2931 22.239L17.8318 23.0827L19.0974 25.2748C19.1524 25.3715 19.226 25.4564 19.3139 25.5246C19.4019 25.5928 19.5024 25.6429 19.6098 25.672C19.7172 25.7012 19.8293 25.7088 19.9396 25.6945C20.05 25.6801 20.1564 25.6441 20.2528 25.5885C20.3491 25.5328 20.4335 25.4587 20.5011 25.3703C20.5687 25.2819 20.6182 25.181 20.6466 25.0734C20.6751 24.9659 20.6819 24.8537 20.6669 24.7435C20.6518 24.6332 20.6151 24.527 20.5588 24.4311L19.2931 22.239ZM13.5 13.9972H17.7187C17.9425 13.9972 18.1571 14.0861 18.3153 14.2444C18.4736 14.4026 18.5625 14.6172 18.5625 14.841C18.5625 15.0648 18.4736 15.2794 18.3153 15.4376C18.1571 15.5958 17.9425 15.6847 17.7187 15.6847H12.6562C12.4324 15.6847 12.2178 15.5958 12.0596 15.4376C11.9014 15.2794 11.8125 15.0648 11.8125 14.841V8.93474C11.8125 8.71096 11.9014 8.49635 12.0596 8.33812C12.2178 8.17988 12.4324 8.09099 12.6562 8.09099C12.88 8.09099 13.0946 8.17988 13.2528 8.33812C13.4111 8.49635 13.5 8.71096 13.5 8.93474V13.9972ZM2.38609 8.73055C1.84762 7.91912 1.60645 6.94639 1.70351 5.9774C1.80056 5.0084 2.22987 4.10283 2.91858 3.41432C3.60729 2.72581 4.51298 2.29676 5.48201 2.19999C6.45103 2.10321 7.42369 2.34466 8.23496 2.88336L6.99971 4.11861C6.52737 3.89303 5.99671 3.81942 5.4808 3.90794C4.96488 3.99645 4.4891 4.24274 4.11897 4.61287C3.74884 4.983 3.50255 5.45879 3.41404 5.9747C3.32552 6.49061 3.39913 7.02127 3.62471 7.49361L2.38778 8.73055H2.38609ZM24.4097 8.73055C24.9474 7.91925 25.188 6.94696 25.0908 5.97851C24.9936 5.01005 24.5645 4.10499 23.8763 3.41675C23.188 2.7285 22.283 2.29941 21.3145 2.2022C20.346 2.10499 19.3738 2.34564 18.5625 2.88336L19.7977 4.11861C20.2701 3.89303 20.8007 3.81942 21.3166 3.90794C21.8325 3.99645 22.3083 4.24274 22.6785 4.61287C23.0486 4.983 23.2949 5.45879 23.3834 5.9747C23.4719 6.49061 23.3983 7.02127 23.1727 7.49361L24.4097 8.73055Z" fill="#777777"/>
</svg>
