<svg width="27" height="28" viewBox="0 0 27 28" fill="none" xmlns="http://www.w3.org/2000/svg">
<path d="M13.5 22.7205C15.7378 22.7205 17.8839 21.8316 19.4662 20.2492C21.0486 18.6669 21.9375 16.5208 21.9375 14.283C21.9375 12.0453 21.0486 9.89914 19.4662 8.31681C17.8839 6.73447 15.7378 5.84552 13.5 5.84552C11.2622 5.84552 9.11612 6.73447 7.53379 8.31681C5.95145 9.89914 5.0625 12.0453 5.0625 14.283C5.0625 16.5208 5.95145 18.6669 7.53379 20.2492C9.11612 21.8316 11.2622 22.7205 13.5 22.7205ZM13.5 24.408C12.1704 24.408 10.8538 24.1461 9.62533 23.6373C8.39691 23.1285 7.28074 22.3827 6.34054 21.4425C5.40035 20.5023 4.65455 19.3861 4.14572 18.1577C3.63689 16.9293 3.375 15.6127 3.375 14.283C3.375 12.9534 3.63689 11.6368 4.14572 10.4083C4.65455 9.17993 5.40035 8.06376 6.34054 7.12356C7.28074 6.18337 8.39691 5.43757 9.62533 4.92874C10.8538 4.41991 12.1704 4.15802 13.5 4.15802C16.1853 4.15802 18.7606 5.22476 20.6595 7.12356C22.5583 9.02237 23.625 11.5977 23.625 14.283C23.625 16.9683 22.5583 19.5437 20.6595 21.4425C18.7606 23.3413 16.1853 24.408 13.5 24.408Z" fill="#777777"/>
<path d="M7.70592 22.5248L9.1673 23.3685L7.90167 25.5606C7.84667 25.6573 7.77309 25.7422 7.68514 25.8104C7.5972 25.8786 7.49664 25.9287 7.38926 25.9579C7.28187 25.987 7.16978 25.9946 7.05943 25.9803C6.94909 25.966 6.84267 25.9299 6.7463 25.8743C6.64994 25.8186 6.56553 25.7445 6.49794 25.6561C6.43034 25.5677 6.3809 25.4668 6.35246 25.3592C6.32402 25.2517 6.31714 25.1395 6.33221 25.0293C6.34729 24.919 6.38402 24.8129 6.4403 24.7169L7.70592 22.5248ZM19.2923 22.5248L17.8309 23.3685L19.0965 25.5606C19.1515 25.6573 19.2251 25.7422 19.3131 25.8104C19.401 25.8786 19.5016 25.9287 19.609 25.9579C19.7163 25.987 19.8284 25.9946 19.9388 25.9803C20.0491 25.966 20.1556 25.9299 20.2519 25.8743C20.3483 25.8186 20.4327 25.7445 20.5003 25.6561C20.5679 25.5677 20.6173 25.4668 20.6458 25.3592C20.6742 25.2517 20.6811 25.1395 20.666 25.0293C20.6509 24.919 20.6142 24.8129 20.5579 24.7169L19.2923 22.5248ZM13.4991 14.283H17.7179C17.9416 14.283 18.1562 14.3719 18.3145 14.5302C18.4727 14.6884 18.5616 14.903 18.5616 15.1268C18.5616 15.3506 18.4727 15.5652 18.3145 15.7234C18.1562 15.8817 17.9416 15.9705 17.7179 15.9705H12.6554C12.4316 15.9705 12.217 15.8817 12.0587 15.7234C11.9005 15.5652 11.8116 15.3506 11.8116 15.1268V9.22055C11.8116 8.99677 11.9005 8.78216 12.0587 8.62392C12.217 8.46569 12.4316 8.3768 12.6554 8.3768C12.8791 8.3768 13.0937 8.46569 13.252 8.62392C13.4102 8.78216 13.4991 8.99677 13.4991 9.22055V14.283ZM2.38523 9.01636C1.84676 8.20493 1.60559 7.2322 1.70265 6.2632C1.79971 5.29421 2.22901 4.38864 2.91772 3.70012C3.60643 3.01161 4.51213 2.58257 5.48115 2.48579C6.45017 2.38902 7.42284 2.63046 8.23411 3.16917L6.99886 4.40442C6.52651 4.17883 5.99585 4.10523 5.47994 4.19375C4.96403 4.28226 4.48825 4.52854 4.11812 4.89868C3.74798 5.26881 3.5017 5.74459 3.41318 6.2605C3.32467 6.77641 3.39827 7.30708 3.62386 7.77942L2.38692 9.01636H2.38523ZM24.4088 9.01636C24.9465 8.20505 25.1872 7.23277 25.09 6.26431C24.9928 5.29585 24.5637 4.3908 23.8754 3.70255C23.1872 3.01431 22.2821 2.58521 21.3137 2.488C20.3452 2.39079 19.3729 2.63145 18.5616 3.16917L19.7969 4.40442C20.2692 4.17883 20.7999 4.10523 21.3158 4.19375C21.8317 4.28226 22.3075 4.52854 22.6776 4.89868C23.0477 5.26881 23.294 5.74459 23.3825 6.2605C23.4711 6.77641 23.3974 7.30708 23.1719 7.77942L24.4088 9.01636Z" fill="#777777"/>
</svg>
