<svg width="67" height="67" viewBox="0 0 67 67" fill="none" xmlns="http://www.w3.org/2000/svg">
<path d="M52.0095 46.3137H57.4532V44.555H52.0095V41.7912H58.1232V39.9487H45.9795C46.147 39.4462 46.3982 38.7762 46.6495 38.0225L44.7232 37.6875C44.0532 40.2 42.7132 42.21 40.7032 43.7175L41.9595 45.3087C43.2157 44.3875 44.3045 43.1312 45.142 41.7912H50.167V44.555H44.2207V50.25H41.0382V52.0925H50.167V56.4475H52.0932V52.0925H58.877V50.25H52.0932V46.3137H52.0095ZM50.167 50.1662H46.147V46.3137H50.167V50.1662ZM35.1757 47.57C34.8407 47.3187 34.422 47.3187 34.087 47.57L31.4907 49.4125C31.9095 46.6487 32.412 40.0325 29.5645 33.2487C29.732 33.4162 29.8157 33.5837 29.9832 33.7512C30.2345 34.0862 30.6532 34.17 31.072 34.0862C31.4907 34.0025 31.742 33.6675 31.742 33.2487C32.1607 28.7262 31.4907 25.46 29.5645 23.6175L29.4807 23.5337C33.3332 23.45 38.6932 24.2037 41.0382 24.6225C41.457 24.7062 41.8757 24.5387 42.0432 24.2037C42.2945 23.8687 42.2945 23.45 42.0432 23.115C37.6045 16.5825 31.072 17.0012 26.717 18.2575C31.9095 12.5625 31.3232 11.6412 30.9882 11.1387C30.8207 10.8875 30.5695 10.72 30.2345 10.72C24.1207 10.2175 20.5195 14.405 18.9282 16.75C17.337 14.07 16.332 13.3162 15.2432 13.735C14.7407 13.9025 13.5682 14.405 14.657 19.765C13.5682 19.6812 12.5632 19.9325 11.5582 20.435C8.37572 22.2775 7.62197 27.0512 7.53822 27.2187C7.45447 27.7212 7.78947 28.2237 8.29197 28.3912C8.79447 28.475 9.29697 28.2237 9.46447 27.7212C9.71572 26.8837 10.7207 26.465 11.8095 26.2975C5.86322 32.83 10.8882 40.2 10.972 40.2837C11.2232 40.6187 11.5582 40.7862 11.977 40.7025C12.3957 40.6187 12.647 40.2837 12.7307 39.9487C13.4845 36.515 15.2432 31.0712 17.2532 28.81C18.9282 41.9587 23.6182 42.3775 24.2045 42.3775C24.707 42.3775 25.2095 41.9587 25.2095 41.4562C25.5445 35.6775 25.2095 31.7412 24.6232 29.0612C29.732 35.9287 29.8995 43.885 29.5645 47.8212L27.6382 44.8062C27.4707 44.555 27.1357 44.3037 26.717 44.3875C26.382 44.3875 26.047 44.6387 25.8795 44.9737L24.037 48.575L21.692 45.9787C21.4407 45.6437 20.9382 45.56 20.6032 45.7275C20.1845 45.895 19.9332 46.23 19.9332 46.6487V48.9937L17.002 48.24C16.667 48.1562 16.2482 48.24 15.997 48.4912C15.7457 48.7425 15.662 49.1612 15.7457 49.4962L17.2532 54.3537C17.4207 54.7725 17.7557 55.0237 18.1745 55.0237H33.5007C34.0032 55.0237 34.422 54.6887 34.5057 54.1862L35.5945 48.575C35.762 48.24 35.5945 47.8212 35.1757 47.57ZM22.697 23.8687C22.6132 23.785 22.5295 23.785 22.4457 23.785C22.2782 23.7012 22.1107 23.7012 21.9432 23.6175C21.5245 23.45 21.022 23.7012 20.7707 24.12C20.5195 24.5387 20.687 25.125 21.022 25.3762C21.022 25.3762 23.8695 27.8887 23.367 39.7812C22.1107 38.7762 20.017 35.6775 19.0957 26.7162C19.0957 26.3812 18.8445 26.13 18.5932 25.9625C18.4257 25.8787 18.2582 25.795 18.0907 25.795C17.9232 25.795 17.8395 25.795 17.672 25.8787C14.657 27.2187 12.4795 33.165 11.4745 36.7662C10.5532 34.17 10.1345 29.7312 15.0757 25.9625C15.4107 25.7112 15.5782 25.2925 15.4107 24.8737C15.327 24.455 14.992 24.2037 14.5732 24.12C14.4057 24.12 12.3957 23.8687 10.4695 24.455C10.8882 23.5337 11.5582 22.6125 12.3957 22.11C13.2332 21.6075 14.2382 21.5237 15.4107 21.9425C15.7457 22.0262 16.1645 21.9425 16.4157 21.775C16.667 21.5237 16.8345 21.1887 16.7507 20.77C16.4157 19.095 16.1645 17.3362 16.0807 16.2475C16.4995 16.75 17.0857 17.6712 17.8395 19.095C18.007 19.43 18.4257 19.5975 18.7607 19.5975C19.0957 19.5975 19.4307 19.3462 19.5982 19.0112C19.7657 18.76 22.6132 12.8975 28.5595 12.5625C27.4707 14.2375 24.4557 17.5037 21.7757 20.1837C21.4407 20.5187 21.357 21.105 21.692 21.5237C22.027 21.9425 22.5295 22.0262 23.032 21.775C23.4507 21.5237 32.412 16.1637 38.6095 22.1937C34.757 21.6075 27.8895 20.9375 25.042 22.11C24.6232 22.2775 24.372 22.78 24.4557 23.2825C24.6232 23.785 25.042 24.0362 25.5445 24.0362C25.5445 24.0362 26.8845 23.8687 28.057 24.9575C29.062 25.9625 29.6482 27.6375 29.732 29.8987C28.392 27.805 26.9682 25.5437 22.697 23.8687ZM32.747 53.0975H19.012L18.2582 50.585L20.687 51.1712C21.022 51.255 21.2732 51.1712 21.5245 51.0037C21.7757 50.8362 21.9432 50.5012 21.9432 50.25V49.245L23.4507 51.0037C23.702 51.255 24.037 51.3387 24.2882 51.3387C24.6232 51.255 24.8745 51.0875 25.042 50.8362L26.8007 47.3187L29.1457 50.6687C29.2295 50.92 29.397 51.1712 29.6482 51.3387L29.8157 51.59C30.1507 52.0087 30.737 52.1762 31.2395 51.8412L33.1657 50.5012L32.747 53.0975ZM59.212 23.8687C58.7932 23.1987 58.0395 22.78 57.4532 22.9475L54.857 23.115C54.6895 21.2725 54.522 19.5975 53.517 17.9225C52.0095 15.3262 48.9945 13.4 45.2257 12.6462L43.132 12.1437C42.3782 12.06 41.7082 12.395 41.3732 13.065C41.3732 13.065 41.3732 13.1487 41.2895 13.1487C40.9545 13.9025 41.3732 14.8237 42.0432 15.1587L43.3832 15.8287C45.9795 17.1687 47.7382 19.095 47.9057 20.8537C47.9895 21.5237 47.9895 22.78 47.9057 23.45L45.812 23.6175C44.9745 23.6175 44.3045 24.2037 44.137 24.8737C43.8857 25.5437 44.0532 26.2975 44.5557 26.8L44.6395 26.8837L50.9207 31.6575C51.2557 31.9925 51.7582 32.16 52.177 32.16H52.2607C52.847 32.16 53.2657 31.825 53.6007 31.49L59.0445 25.9625C59.4632 25.3762 59.6307 24.5387 59.212 23.8687ZM52.0932 30.0662L46.147 25.5437L48.492 25.3762C49.162 25.3762 49.7482 24.8737 49.7482 24.12L49.832 23.5337C49.9157 22.6962 49.9157 21.44 49.832 20.6025C49.6645 18.5087 48.0732 16.415 45.6445 14.74C48.4082 15.4937 50.6695 17.0012 51.7582 18.8437C52.5957 20.1837 52.7632 21.6912 52.847 23.45L52.9307 24.12C53.0145 24.6225 53.4332 25.0412 54.0195 25.0412L57.2857 24.79L52.0932 30.0662Z" fill="#5F57C1"/>
</svg>
