<svg width="24" height="25" viewBox="0 0 24 25" fill="none" xmlns="http://www.w3.org/2000/svg">
<path d="M13.4531 15.6856C13.4178 15.6507 13.3702 15.6311 13.3207 15.6311C13.2711 15.6311 13.2235 15.6507 13.1882 15.6856L10.4648 18.409C9.20386 19.6699 7.07573 19.8035 5.68355 18.409C4.28901 17.0145 4.42261 14.8887 5.68355 13.6278L8.40698 10.9043C8.47964 10.8317 8.47964 10.7121 8.40698 10.6395L7.47417 9.70666C7.43893 9.67177 7.39134 9.65219 7.34175 9.65219C7.29216 9.65219 7.24457 9.67177 7.20933 9.70666L4.48589 12.4301C2.50308 14.4129 2.50308 17.6215 4.48589 19.602C6.4687 21.5824 9.6773 21.5848 11.6578 19.602L14.3812 16.8785C14.4539 16.8059 14.4539 16.6863 14.3812 16.6137L13.4531 15.6856ZM19.514 4.57619C17.5312 2.59338 14.3226 2.59338 12.3421 4.57619L9.61636 7.29963C9.58146 7.33487 9.56189 7.38246 9.56189 7.43205C9.56189 7.48164 9.58146 7.52923 9.61636 7.56447L10.5468 8.49494C10.6195 8.5676 10.739 8.5676 10.8117 8.49494L13.5351 5.7715C14.796 4.51057 16.9242 4.37697 18.3164 5.7715C19.7109 7.16603 19.5773 9.29182 18.3164 10.5528L15.5929 13.2762C15.558 13.3114 15.5385 13.359 15.5385 13.4086C15.5385 13.4582 15.558 13.5058 15.5929 13.541L16.5257 14.4738C16.5984 14.5465 16.7179 14.5465 16.7906 14.4738L19.514 11.7504C21.4945 9.7676 21.4945 6.559 19.514 4.57619ZM14.2992 8.81603C14.2639 8.78114 14.2163 8.76157 14.1667 8.76157C14.1172 8.76157 14.0696 8.78114 14.0343 8.81603L8.72573 14.1223C8.69084 14.1575 8.67126 14.2051 8.67126 14.2547C8.67126 14.3043 8.69084 14.3519 8.72573 14.3871L9.65386 15.3153C9.72651 15.3879 9.84605 15.3879 9.9187 15.3153L15.225 10.009C15.2976 9.93635 15.2976 9.81682 15.225 9.74416L14.2992 8.81603Z" fill="#777777"/>
</svg>
