<svg width="18" height="19" viewBox="0 0 18 19" fill="none" xmlns="http://www.w3.org/2000/svg">
<path d="M10.0907 12.1965C10.0643 12.1703 10.0286 12.1557 9.99141 12.1557C9.95421 12.1557 9.91852 12.1703 9.89209 12.1965L7.84951 14.2391C6.90381 15.1848 5.30771 15.285 4.26357 14.2391C3.21768 13.1932 3.31787 11.5989 4.26357 10.6532L6.30615 8.61057C6.36064 8.55608 6.36064 8.46643 6.30615 8.41194L5.60654 7.71233C5.58011 7.68616 5.54442 7.67148 5.50723 7.67148C5.47003 7.67148 5.43434 7.68616 5.40791 7.71233L3.36533 9.75491C1.87822 11.242 1.87822 13.6485 3.36533 15.1338C4.85244 16.6192 7.25889 16.6209 8.74424 15.1338L10.7868 13.0912C10.8413 13.0367 10.8413 12.9471 10.7868 12.8926L10.0907 12.1965ZM14.6364 3.86448C13.1493 2.37737 10.7429 2.37737 9.25752 3.86448L7.21318 5.90706C7.18701 5.93349 7.17233 5.96918 7.17233 6.00637C7.17233 6.04357 7.18701 6.07926 7.21318 6.10569L7.91104 6.80354C7.96553 6.85803 8.05518 6.85803 8.10967 6.80354L10.1522 4.76096C11.0979 3.81526 12.694 3.71506 13.7382 4.76096C14.7841 5.80686 14.6839 7.4012 13.7382 8.3469L11.6956 10.3895C11.6694 10.4159 11.6548 10.4516 11.6548 10.4888C11.6548 10.526 11.6694 10.5617 11.6956 10.5881L12.3952 11.2877C12.4497 11.3422 12.5394 11.3422 12.5938 11.2877L14.6364 9.24514C16.1218 7.75803 16.1218 5.35159 14.6364 3.86448ZM10.7253 7.04436C10.6989 7.01819 10.6632 7.00351 10.626 7.00351C10.5888 7.00351 10.5531 7.01819 10.5267 7.04436L6.54521 11.024C6.51904 11.0505 6.50436 11.0862 6.50436 11.1234C6.50436 11.1606 6.51904 11.1963 6.54521 11.2227L7.24131 11.9188C7.2958 11.9733 7.38545 11.9733 7.43994 11.9188L11.4196 7.93909C11.4741 7.8846 11.4741 7.79495 11.4196 7.74045L10.7253 7.04436Z" fill="#777777"/>
</svg>
