<svg width="24" height="25" viewBox="0 0 24 25" fill="none" xmlns="http://www.w3.org/2000/svg">
<path d="M17.4385 21.875H12.1868C11.7569 21.875 11.419 21.4882 11.419 20.996C11.419 20.5038 11.7569 20.117 12.1868 20.117H17.4385C19.5729 20.117 21.3696 18.1833 21.4463 15.8101C21.477 14.5795 21.0932 13.4193 20.3561 12.5403C19.619 11.6613 18.6209 11.1691 17.546 11.1691C17.3617 11.1691 17.1621 11.1867 16.9778 11.2218C16.3636 11.3273 15.7801 10.8527 15.6879 10.1495C15.304 7.54772 13.2771 5.71946 10.943 5.94799C8.83927 6.14137 7.15014 8.02237 6.9198 10.4132C6.84302 11.2394 6.9198 12.0481 7.18085 12.804C7.27298 13.0853 7.24227 13.4017 7.07336 13.6478C6.9198 13.8939 6.65875 14.017 6.39771 13.9994H6.367C6.30557 13.9994 6.25951 13.9818 6.19808 13.9818C5.46101 13.9818 4.77 14.3158 4.26326 14.9311C3.75652 15.5464 3.49547 16.355 3.52618 17.1989C3.58761 18.7986 4.83142 20.117 6.29022 20.117H8.39395C8.82391 20.117 9.16174 20.5038 9.16174 20.996C9.16174 21.4882 8.82391 21.875 8.39395 21.875H6.30557C4.00221 21.875 2.11346 19.8533 2.00596 17.2867C1.94454 15.9507 2.35915 14.685 3.173 13.7181C3.80259 12.9622 4.60109 12.47 5.47636 12.2942C5.35352 11.6086 5.33816 10.923 5.39958 10.2022C5.7067 6.98518 7.9947 4.45374 10.8202 4.19004C13.7685 3.90877 16.4711 6.1941 17.1314 9.44631C17.2696 9.42873 17.4231 9.42873 17.5613 9.42873C19.0508 9.42873 20.4329 10.0967 21.477 11.3273C22.5059 12.5579 23.0433 14.1752 22.9973 15.8804C22.8744 19.1853 20.3868 21.875 17.4385 21.875Z" fill="white"/>
<path d="M11.6252 20.0469C11.2052 20.0469 10.8752 19.7031 10.8752 19.2656V14.625L9.6002 15.7656C9.2852 16.0469 8.8052 16.0156 8.5352 15.6875C8.2652 15.3594 8.2952 14.8594 8.6102 14.5781L11.1302 12.3281C11.3552 12.125 11.6702 12.0781 11.9252 12.2031C12.1952 12.3281 12.3602 12.6094 12.3602 12.9063V19.2656C12.3752 19.7031 12.0452 20.0469 11.6252 20.0469ZM14.5952 15.9375C14.4302 15.9375 14.2652 15.875 14.1152 15.7656L13.1252 14.9219C12.8102 14.6406 12.7652 14.1563 13.0202 13.8281C13.2902 13.5 13.7552 13.4531 14.0702 13.7188L15.0602 14.5625C15.3752 14.8438 15.4202 15.3281 15.1652 15.6563C15.0302 15.8438 14.8052 15.9375 14.5952 15.9375Z" fill="white"/>
</svg>
