<svg width="35" height="33" viewBox="0 0 35 33" fill="none" xmlns="http://www.w3.org/2000/svg">
<g clip-path="url(#clip0_444_1893)">
<path d="M0.632812 14.8081C0.632813 18.3979 2.14526 21.8406 4.83743 24.3789C7.5296 26.9172 11.181 28.3433 14.9883 28.3433C18.7956 28.3433 22.447 26.9172 25.1391 24.3789C27.8313 21.8406 29.3437 18.3979 29.3438 14.8081C29.3437 11.2184 27.8313 7.77564 25.1391 5.2373C22.447 2.69897 18.7956 1.27295 14.9883 1.27295C11.181 1.27295 7.5296 2.69897 4.83743 5.2373C2.14526 7.77564 0.632813 11.2184 0.632812 14.8081Z" fill="#FFE500"/>
<path d="M14.9883 1.27295C12.149 1.27295 9.37356 2.06677 7.01282 3.55403C4.65207 5.0413 2.8121 7.1552 1.72556 9.62843C0.639033 12.1017 0.354746 14.8231 0.908655 17.4487C1.46256 20.0742 2.82979 22.486 4.83744 24.3789C6.84509 26.2718 9.40299 27.5609 12.1877 28.0832C14.9724 28.6054 17.8588 28.3374 20.4819 27.313C23.105 26.2885 25.347 24.5537 26.9244 22.3278C28.5018 20.102 29.3438 17.4851 29.3438 14.8081C29.3438 13.0306 28.9724 11.2706 28.251 9.62843C27.5296 7.98626 26.4722 6.49416 25.1391 5.2373C23.8061 3.98045 22.2236 2.98346 20.4819 2.30325C18.7402 1.62305 16.8735 1.27295 14.9883 1.27295ZM14.9883 26.313C12.3975 26.313 9.86485 25.5886 7.71067 24.2315C5.55649 22.8744 3.87751 20.9454 2.88605 18.6886C1.89459 16.4318 1.63518 13.9485 2.14062 11.5526C2.64606 9.1568 3.89366 6.9561 5.72564 5.2288C7.55762 3.50151 9.8917 2.32521 12.4327 1.84865C14.9738 1.37209 17.6076 1.61667 20.0012 2.55148C22.3948 3.48628 24.4406 5.06932 25.88 7.1004C27.3194 9.13149 28.0877 11.5194 28.0877 13.9622C28.0877 17.2378 26.7075 20.3793 24.2509 22.6955C21.7943 25.0117 18.4625 26.313 14.9883 26.313Z" fill="#EBCB00"/>
<path d="M10.6816 3.97998C10.6816 4.11329 10.793 4.24529 11.0095 4.36846C11.2259 4.49162 11.5431 4.60353 11.943 4.69779C12.3429 4.79205 12.8177 4.86683 13.3402 4.91784C13.8627 4.96886 14.4227 4.99512 14.9883 4.99512C15.5538 4.99512 16.1139 4.96886 16.6364 4.91784C17.1589 4.86683 17.6336 4.79205 18.0335 4.69779C18.4334 4.60353 18.7507 4.49162 18.9671 4.36846C19.1835 4.24529 19.2949 4.11329 19.2949 3.97998C19.2949 3.84667 19.1835 3.71467 18.9671 3.5915C18.7507 3.46834 18.4334 3.35643 18.0335 3.26217C17.6336 3.16791 17.1589 3.09313 16.6364 3.04212C16.1139 2.9911 15.5538 2.96484 14.9883 2.96484C14.4227 2.96484 13.8627 2.9911 13.3402 3.04212C12.8177 3.09313 12.3429 3.16791 11.943 3.26217C11.5431 3.35643 11.2259 3.46834 11.0095 3.5915C10.793 3.71467 10.6816 3.84667 10.6816 3.97998Z" fill="#FFF48C"/>
<path opacity="0.15" d="M3.50391 31.0503C3.50391 31.3195 4.71386 31.5777 6.8676 31.7681C9.02134 31.9585 11.9424 32.0654 14.9883 32.0654C18.0341 32.0654 20.9552 31.9585 23.109 31.7681C25.2627 31.5777 26.4727 31.3195 26.4727 31.0503C26.4727 30.7811 25.2627 30.5229 23.109 30.3325C20.9552 30.1421 18.0341 30.0352 14.9883 30.0352C11.9424 30.0352 9.02134 30.1421 6.8676 30.3325C4.71386 30.5229 3.50391 30.7811 3.50391 31.0503Z" fill="#E8E8E8"/>
<path d="M0.632812 14.8081C0.632813 18.3979 2.14526 21.8406 4.83743 24.3789C7.5296 26.9172 11.181 28.3433 14.9883 28.3433C18.7956 28.3433 22.447 26.9172 25.1391 24.3789C27.8313 21.8406 29.3437 18.3979 29.3438 14.8081C29.3437 11.2184 27.8313 7.77564 25.1391 5.2373C22.447 2.69897 18.7956 1.27295 14.9883 1.27295C11.181 1.27295 7.5296 2.69897 4.83743 5.2373C2.14526 7.77564 0.632813 11.2184 0.632812 14.8081Z" stroke="#45413C" stroke-linecap="round" stroke-linejoin="round"/>
<path d="M25.3955 18.1919C25.3955 18.7536 24.5916 19.207 23.6011 19.207C22.6105 19.207 21.8066 18.7536 21.8066 18.1919C21.8066 17.6302 22.6105 17.1768 23.6011 17.1768C24.5916 17.1768 25.3955 17.6302 25.3955 18.1919Z" fill="#FFAA54"/>
<path d="M4.58008 18.1919C4.58008 18.7536 5.38398 19.207 6.37451 19.207C7.36504 19.207 8.16895 18.7536 8.16895 18.1919C8.16895 17.6302 7.36504 17.1768 6.37451 17.1768C5.38398 17.1768 4.58008 17.6302 4.58008 18.1919Z" fill="#FFAA54"/>
<path d="M4.93945 15.6541C4.93945 15.3399 5.07179 15.0387 5.30736 14.8166C5.54292 14.5945 5.86242 14.4697 6.19556 14.4697C6.5287 14.4697 6.84819 14.5945 7.08376 14.8166C7.31932 15.0387 7.45166 15.3399 7.45166 15.6541" stroke="#45413C" stroke-linecap="round" stroke-linejoin="round"/>
<path d="M22.5234 15.6541C22.5234 15.3399 22.6558 15.0387 22.8913 14.8166C23.1269 14.5945 23.4464 14.4697 23.7795 14.4697C24.1127 14.4697 24.4322 14.5945 24.6677 14.8166C24.9033 15.0387 25.0356 15.3399 25.0356 15.6541" stroke="#45413C" stroke-linecap="round" stroke-linejoin="round"/>
<path d="M30.9003 21.014L34.1589 19.9853C34.2189 19.9651 34.2708 19.9279 34.3075 19.8789C34.3442 19.8298 34.3639 19.7712 34.3639 19.7112C34.3639 19.6512 34.3442 19.5926 34.3075 19.5435C34.2708 19.4945 34.2189 19.4573 34.1589 19.4371L31.4816 18.5979C31.2996 18.5397 31.1347 18.4421 31 18.3128C30.8654 18.1835 30.7648 18.0261 30.7065 17.8535L29.8164 15.3292C29.7944 15.2721 29.7545 15.2227 29.7019 15.1876C29.6493 15.1525 29.5866 15.1334 29.5221 15.1329C29.4584 15.1328 29.3963 15.1518 29.3447 15.1871C29.2931 15.2223 29.2547 15.2721 29.235 15.3292L28.3378 17.8535C28.278 18.0276 28.1753 18.1859 28.038 18.3153C27.9008 18.4447 27.7329 18.5416 27.5482 18.5979L24.871 19.4371C24.811 19.4573 24.7591 19.4945 24.7224 19.5435C24.6857 19.5926 24.666 19.6512 24.666 19.7112C24.666 19.7712 24.6857 19.8298 24.7224 19.8789C24.7591 19.9279 24.811 19.9651 24.871 19.9853L27.5482 20.8312C27.7287 20.8881 27.8927 20.9837 28.0272 21.1105C28.1617 21.2374 28.2632 21.392 28.3234 21.5621L29.2207 24.0864C29.2404 24.1436 29.2788 24.1933 29.3304 24.2286C29.382 24.2638 29.4441 24.2828 29.5078 24.2827C29.5722 24.2822 29.6349 24.2631 29.6875 24.228C29.7401 24.193 29.7801 24.1436 29.8021 24.0864L30.9003 21.014Z" fill="white" stroke="#45413C" stroke-linecap="round" stroke-linejoin="round"/>
<path d="M14.9884 24.9933C21.5919 24.9933 22.4748 22.3946 22.0872 20.256C22.0039 19.9364 21.8491 19.6373 21.6332 19.3787C21.4173 19.1202 21.1452 18.9081 20.8352 18.7569C20.5252 18.6056 20.1845 18.5186 19.8359 18.5017C19.4873 18.4848 19.1389 18.5384 18.8141 18.6589C17.5808 19.046 16.2882 19.2381 14.9884 19.2273C13.6886 19.2381 12.3959 19.046 11.1627 18.6589C10.8378 18.5384 10.4895 18.4848 10.1409 18.5017C9.79229 18.5186 9.45157 18.6056 9.14158 18.7569C8.83159 18.9081 8.5595 19.1202 8.34357 19.3787C8.12763 19.6373 7.97285 19.9364 7.8896 20.256C7.50201 22.3946 8.38487 24.9933 14.9884 24.9933Z" fill="white" stroke="#45413C" stroke-linecap="round" stroke-linejoin="round"/>
<path d="M22.151 20.7501C21.1018 21.2018 19.9902 21.5116 18.8492 21.6705C17.5725 21.8643 16.2808 21.9571 14.9876 21.9479C13.6944 21.9571 12.4027 21.8643 11.126 21.6705C9.98495 21.5116 8.87341 21.2018 7.82422 20.7501" stroke="#45413C" stroke-linecap="round" stroke-linejoin="round"/>
<path d="M11.5998 18.7942L11.126 21.6704L10.6738 24.4383" stroke="#45413C" stroke-linecap="round" stroke-linejoin="round"/>
<path d="M14.9883 24.9933V19.2408" stroke="#45413C" stroke-linecap="round" stroke-linejoin="round"/>
<path d="M18.3828 18.7942L18.8494 21.6704L19.3016 24.4383" stroke="#45413C" stroke-linecap="round" stroke-linejoin="round"/>
</g>
<defs>
<clipPath id="clip0_444_1893">
<rect width="35" height="33" fill="white"/>
</clipPath>
</defs>
</svg>
