<svg width="26" height="27" viewBox="0 0 26 27" fill="none" xmlns="http://www.w3.org/2000/svg">
<path d="M20.5833 15.2182V11.3334C20.5833 7.84827 18.2163 4.91244 15.0096 4.02952C14.6922 3.23002 13.9165 2.66669 13 2.66669C12.0835 2.66669 11.3078 3.23002 10.9904 4.02952C7.78375 4.91352 5.41667 7.84827 5.41667 11.3334V15.2182L3.56742 17.0674C3.46662 17.1679 3.38668 17.2872 3.33221 17.4187C3.27773 17.5501 3.24979 17.6911 3.25 17.8334V20C3.25 20.2873 3.36414 20.5629 3.5673 20.7661C3.77047 20.9692 4.04602 21.0834 4.33333 21.0834H21.6667C21.954 21.0834 22.2295 20.9692 22.4327 20.7661C22.6359 20.5629 22.75 20.2873 22.75 20V17.8334C22.7502 17.6911 22.7223 17.5501 22.6678 17.4187C22.6133 17.2872 22.5334 17.1679 22.4326 17.0674L20.5833 15.2182ZM20.5833 18.9167H5.41667V18.2819L7.26592 16.4326C7.36671 16.3322 7.44665 16.2128 7.50113 16.0814C7.5556 15.9499 7.58354 15.809 7.58333 15.6667V11.3334C7.58333 8.3466 10.0133 5.91669 13 5.91669C15.9868 5.91669 18.4167 8.3466 18.4167 11.3334V15.6667C18.4167 15.9549 18.5304 16.23 18.7341 16.4326L20.5833 18.2819V18.9167ZM13 24.3334C13.6709 24.3342 14.3254 24.126 14.8725 23.7377C15.4197 23.3494 15.8322 22.8003 16.0528 22.1667H9.94717C10.1678 22.8003 10.5804 23.3494 11.1275 23.7377C11.6746 24.126 12.3291 24.3342 13 24.3334Z" fill="black"/>
</svg>
