<svg width="20" height="20" viewBox="0 0 20 20" fill="none" xmlns="http://www.w3.org/2000/svg">
<path d="M15.8333 11.3217V8.33335C15.8333 5.65252 14.0125 3.39419 11.5458 2.71502C11.3017 2.10002 10.705 1.66669 10 1.66669C9.295 1.66669 8.69833 2.10002 8.45417 2.71502C5.9875 3.39502 4.16667 5.65252 4.16667 8.33335V11.3217L2.74417 12.7442C2.66663 12.8214 2.60514 12.9133 2.56324 13.0144C2.52133 13.1155 2.49984 13.2239 2.5 13.3334V15C2.5 15.221 2.5878 15.433 2.74408 15.5893C2.90036 15.7456 3.11232 15.8334 3.33333 15.8334H16.6667C16.8877 15.8334 17.0996 15.7456 17.2559 15.5893C17.4122 15.433 17.5 15.221 17.5 15V13.3334C17.5002 13.2239 17.4787 13.1155 17.4368 13.0144C17.3949 12.9133 17.3334 12.8214 17.2558 12.7442L15.8333 11.3217ZM15.8333 14.1667H4.16667V13.6784L5.58917 12.2559C5.6667 12.1786 5.72819 12.0868 5.7701 11.9857C5.812 11.8845 5.83349 11.7761 5.83333 11.6667V8.33335C5.83333 6.03585 7.7025 4.16669 10 4.16669C12.2975 4.16669 14.1667 6.03585 14.1667 8.33335V11.6667C14.1667 11.8884 14.2542 12.1 14.4108 12.2559L15.8333 13.6784V14.1667ZM10 18.3334C10.5161 18.334 11.0195 18.1739 11.4404 17.8752C11.8613 17.5765 12.1786 17.1541 12.3483 16.6667H7.65167C7.82139 17.1541 8.13873 17.5765 8.55959 17.8752C8.98045 18.1739 9.48392 18.334 10 18.3334Z" fill="#2C2C2C"/>
</svg>
