<svg width="28" height="27" viewBox="0 0 28 27" fill="none" xmlns="http://www.w3.org/2000/svg">
<g id="bx:bell">
<path id="Vector" d="M22.1667 15.2182V11.3333C22.1667 7.84824 19.6175 4.91241 16.1642 4.02949C15.8223 3.22999 14.987 2.66666 14 2.66666C13.013 2.66666 12.1777 3.22999 11.8358 4.02949C8.3825 4.91349 5.83333 7.84824 5.83333 11.3333V15.2182L3.84183 17.0674C3.73328 17.1678 3.6472 17.2872 3.58853 17.4187C3.52987 17.5501 3.49978 17.691 3.5 17.8333V20C3.5 20.2873 3.62292 20.5629 3.84171 20.766C4.0605 20.9692 4.35725 21.0833 4.66667 21.0833H23.3333C23.6428 21.0833 23.9395 20.9692 24.1583 20.766C24.3771 20.5629 24.5 20.2873 24.5 20V17.8333C24.5002 17.691 24.4701 17.5501 24.4115 17.4187C24.3528 17.2872 24.2667 17.1678 24.1582 17.0674L22.1667 15.2182ZM22.1667 18.9167H5.83333V18.2818L7.82483 16.4326C7.93338 16.3321 8.01947 16.2128 8.07814 16.0813C8.1368 15.9499 8.16689 15.8089 8.16667 15.6667V11.3333C8.16667 8.34657 10.7835 5.91666 14 5.91666C17.2165 5.91666 19.8333 8.34657 19.8333 11.3333V15.6667C19.8333 15.9548 19.9558 16.23 20.1752 16.4326L22.1667 18.2818V18.9167ZM14 24.3333C14.7225 24.3342 15.4274 24.126 16.0166 23.7377C16.6058 23.3494 17.0501 22.8003 17.2877 22.1667H10.7123C10.9499 22.8003 11.3942 23.3494 11.9834 23.7377C12.5726 24.126 13.2775 24.3342 14 24.3333Z" fill="black"/>
</g>
</svg>
