<svg width="21" height="21" viewBox="0 0 21 21" fill="none" xmlns="http://www.w3.org/2000/svg">
<path d="M7.55408 13.4497C7.44452 13.4498 7.3374 13.4174 7.24627 13.3566C7.15514 13.2958 7.08411 13.2093 7.04217 13.1081C7.00023 13.0068 6.98926 12.8955 7.01067 12.788C7.03207 12.6806 7.08488 12.5819 7.1624 12.5045L13.5112 6.15572C13.6156 6.05471 13.7556 5.9988 13.9009 6.00002C14.0462 6.00124 14.1852 6.05951 14.288 6.16226C14.3907 6.26501 14.449 6.40402 14.4502 6.54933C14.4514 6.69464 14.3955 6.83461 14.2945 6.93908L7.94576 13.2878C7.89432 13.3392 7.83324 13.38 7.76603 13.4077C7.69883 13.4355 7.6268 13.4498 7.55408 13.4497Z" fill="#FF5A5A"/>
<path d="M14.3299 13.6873C14.183 13.6874 14.0421 13.6292 13.9382 13.5255L7.58942 7.17907C7.48841 7.0746 7.43249 6.93463 7.43372 6.78932C7.43494 6.64401 7.49321 6.505 7.59596 6.40225C7.69871 6.2995 7.83772 6.24123 7.98303 6.24001C8.12834 6.23879 8.26831 6.2947 8.37278 6.39571L14.7208 12.7421C14.7984 12.8195 14.8512 12.9182 14.8726 13.0257C14.894 13.1331 14.883 13.2445 14.8411 13.3457C14.7991 13.4469 14.7281 13.5334 14.637 13.5942C14.5458 13.655 14.4394 13.6874 14.3299 13.6873ZM3.50629 16.8488C3.42459 16.849 3.34388 16.831 3.27002 16.796C3.19616 16.7611 3.13101 16.7102 3.07932 16.6469C2.75942 16.2607 2.46782 15.8519 2.2068 15.4237C2.13098 15.298 2.10798 15.1475 2.14285 15.005C2.17772 14.8624 2.26761 14.7395 2.39287 14.6631C2.51813 14.5866 2.66856 14.5629 2.81126 14.5971C2.95396 14.6312 3.07732 14.7205 3.15436 14.8454C3.38766 15.2291 3.64869 15.5951 3.93537 15.9407C4.02875 16.0542 4.0735 16.1999 4.05989 16.3462C4.04627 16.4925 3.97539 16.6275 3.86268 16.7217C3.7615 16.8028 3.63594 16.8479 3.50629 16.8488Z" fill="#FF5A5A"/>
<path d="M10.9977 20C8.93359 20.0047 6.91937 19.366 5.23507 18.1729C5.12261 18.0916 5.04673 17.9693 5.02387 17.8324C5.00102 17.6955 5.03303 17.5551 5.11298 17.4417C5.19292 17.3283 5.31436 17.2509 5.45095 17.2264C5.58754 17.2019 5.72829 17.2322 5.84267 17.3108C7.34978 18.3771 9.15147 18.9478 10.9977 18.9436C15.9297 18.9436 19.9436 14.9297 19.9436 9.99786C19.9436 5.06603 15.9293 1.053 10.9977 1.053C6.06604 1.053 2.05435 5.06827 2.05435 10.0001C2.05314 10.8513 2.17385 11.6982 2.41282 12.5152C2.45221 12.6497 2.43658 12.7943 2.36935 12.9172C2.30213 13.0401 2.18882 13.1313 2.05435 13.1707C1.91988 13.2101 1.77528 13.1945 1.65234 13.1273C1.5294 13.06 1.4382 12.9467 1.3988 12.8123C1.13294 11.8986 0.998662 10.9517 1.00001 10.0001C1.00001 4.48531 5.4851 0 11.0003 0C16.5156 0 21 4.48531 21 10.0001C21 15.5149 16.5118 20 10.9977 20Z" fill="#FF5A5A"/>
</svg>
