<svg width="22" height="22" viewBox="0 0 22 22" fill="none" xmlns="http://www.w3.org/2000/svg">
<path d="M11 0C9.02219 0 7.08879 0.58649 5.4443 1.6853C3.79981 2.78412 2.51809 4.3459 1.76121 6.17316C1.00433 8.00043 0.8063 10.0111 1.19215 11.9509C1.578 13.8907 2.53041 15.6725 3.92894 17.0711C5.32746 18.4696 7.10929 19.422 9.0491 19.8079C10.9889 20.1937 12.9996 19.9957 14.8268 19.2388C16.6541 18.4819 18.2159 17.2002 19.3147 15.5557C20.4135 13.9112 21 11.9778 21 10C20.997 7.34877 19.9424 4.807 18.0677 2.93229C16.193 1.05759 13.6512 0.00304366 11 0ZM11 19C9.21997 19 7.47991 18.4722 5.99987 17.4832C4.51983 16.4943 3.36628 15.0887 2.68509 13.4441C2.0039 11.7996 1.82567 9.99001 2.17294 8.24419C2.5202 6.49836 3.37737 4.89471 4.63604 3.63604C5.89471 2.37737 7.49836 1.5202 9.24419 1.17293C10.99 0.825665 12.7996 1.0039 14.4442 1.68508C16.0887 2.36627 17.4943 3.51982 18.4832 4.99987C19.4722 6.47991 20 8.21997 20 10C19.9974 12.3861 19.0483 14.6738 17.361 16.361C15.6738 18.0483 13.3861 18.9974 11 19Z" fill="#A7F875"/>
<path d="M17.9236 3.34401L10.7781 11.7102L6.65838 7.85203C6.47382 7.68506 6.22663 7.59267 5.97006 7.59475C5.71348 7.59684 5.46805 7.69324 5.28661 7.8632C5.10518 8.03315 5.00227 8.26305 5.00004 8.50339C4.99781 8.74373 5.09644 8.97528 5.27469 9.14816L10.1675 13.7313C10.351 13.9032 10.5998 13.9998 10.8593 13.9999C10.8776 14.0002 10.8959 13.9996 10.9141 13.9981C11.0514 13.9911 11.1856 13.957 11.3078 13.8981C11.4301 13.8392 11.5377 13.7567 11.6236 13.6562L19.4521 4.4898C19.5324 4.39579 19.5922 4.28788 19.6279 4.17224C19.6637 4.05659 19.6749 3.93547 19.6607 3.81579C19.6465 3.69612 19.6073 3.58023 19.5453 3.47475C19.4833 3.36926 19.3998 3.27625 19.2994 3.20101C19.1991 3.12578 19.0839 3.0698 18.9604 3.03627C18.8369 3.00274 18.7076 2.99231 18.5799 3.00559C18.4521 3.01887 18.3284 3.05559 18.2158 3.11366C18.1032 3.17172 18.0039 3.25 17.9236 3.34401Z" fill="#A7F875"/>
</svg>
