<svg width="64" height="64" viewBox="0 0 64 64" fill="none" xmlns="http://www.w3.org/2000/svg">
<path d="M4 6.66667C4 5.2 5.2 4 6.66667 4H12C13.4667 4 14.6667 5.2 14.6667 6.66667C14.6667 8.13333 13.4667 9.33333 12 9.33333H9.33333V24C9.33333 30.6667 14.6667 36 21.3333 36C28 36 33.3333 30.6667 33.3333 24V9.33333H30.6667C29.2 9.33333 28 8.13333 28 6.66667C28 5.2 29.2 4 30.6667 4H36C37.4667 4 38.6667 5.2 38.6667 6.66667V24C38.6667 32.6667 32.2667 39.8667 24 41.0667V42.6667C24 49.3333 29.3333 54.6667 36 54.6667C42.6667 54.6667 48 49.3333 48 42.6667V40.9333C44.1333 39.7333 41.3333 36.2667 41.3333 32C41.3333 26.8 45.4667 22.6667 50.6667 22.6667C55.8667 22.6667 60 26.8 60 32C60 36.2667 57.2 39.7333 53.3333 40.9333V42.6667C53.3333 52.2667 45.6 60 36 60C26.4 60 18.6667 52.2667 18.6667 42.6667V41.0667C10.4 39.8667 4 32.6667 4 24V6.66667ZM46.6667 32C46.6667 34.2667 48.4 36 50.6667 36C52.9333 36 54.6667 34.2667 54.6667 32C54.6667 29.7333 52.9333 28 50.6667 28C48.4 28 46.6667 29.7333 46.6667 32Z" fill="#2F3CF4"/>
</svg>
