<svg width="21" height="17" viewBox="0 0 21 17" fill="none" xmlns="http://www.w3.org/2000/svg">
<path d="M17.0599 6.02029L10.5 10.8923L3.94015 6.02029C3.82295 5.93307 3.66561 5.88424 3.50177 5.88424C3.33794 5.88424 3.1806 5.93307 3.0634 6.02029C3.00665 6.06266 2.96156 6.11322 2.93079 6.16903C2.90001 6.22483 2.88416 6.28476 2.88416 6.34529C2.88416 6.40583 2.90001 6.46575 2.93079 6.52156C2.96156 6.57736 3.00665 6.62793 3.0634 6.67029L10.042 11.8543C10.1645 11.9453 10.3289 11.9962 10.5 11.9962C10.6712 11.9962 10.8355 11.9453 10.9581 11.8543L17.9366 6.67129C17.9938 6.6289 18.0392 6.57821 18.0702 6.52222C18.1013 6.46622 18.1172 6.40607 18.1172 6.34529C18.1172 6.28452 18.1013 6.22436 18.0702 6.16837C18.0392 6.11238 17.9938 6.06169 17.9366 6.01929C17.8194 5.93207 17.6621 5.88324 17.4983 5.88324C17.3344 5.88324 17.1771 5.93207 17.0599 6.01929V6.02029Z" fill="black"/>
</svg>
