<svg width="24" height="24" viewBox="0 0 24 24" fill="none" xmlns="http://www.w3.org/2000/svg">
<path d="M20.6172 3.5124C20.289 3.16725 19.895 2.89126 19.4585 2.70071C19.022 2.51015 18.5518 2.40887 18.0755 2.40283C17.5992 2.39679 17.1266 2.48612 16.6854 2.66555C16.2442 2.84497 15.8433 3.11088 15.5064 3.4476L4.25644 14.6976C3.86322 15.0907 3.59016 15.5877 3.46924 16.1304L2.41684 20.8704C2.39488 20.9689 2.39812 21.0714 2.42627 21.1683C2.45441 21.2652 2.50654 21.3534 2.57785 21.4249C2.64915 21.4963 2.73732 21.5486 2.83419 21.5769C2.93106 21.6052 3.0335 21.6086 3.13204 21.5868L7.84444 20.5392C8.40537 20.4143 8.91905 20.1321 9.32524 19.7256L20.5548 8.496C21.2131 7.83749 21.588 6.94788 21.5996 6.01689C21.6113 5.08589 21.2588 4.18718 20.6172 3.5124ZM16.3548 4.296C16.5743 4.07333 16.8357 3.8963 17.1239 3.7751C17.4122 3.65389 17.7215 3.59092 18.0342 3.5898C18.3468 3.58868 18.6566 3.64943 18.9457 3.76857C19.2348 3.8877 19.4974 4.06285 19.7185 4.28394C19.9396 4.50502 20.1147 4.76767 20.2339 5.05675C20.353 5.34583 20.4138 5.65562 20.4126 5.96828C20.4115 6.28094 20.3485 6.59029 20.2273 6.8785C20.1061 7.16672 19.9291 7.4281 19.7064 7.6476L18.9012 8.4528L15.5496 5.1024L16.3548 4.296ZM14.7012 5.952L18.0528 9.3024L8.47684 18.8784C8.23198 19.1236 7.92227 19.2938 7.58404 19.3692L3.79204 20.2116L4.64164 16.392C4.71244 16.0716 4.87324 15.7788 5.10484 15.5472L14.7012 5.952Z" fill="#777777"/>
</svg>
