<svg width="61" height="61" viewBox="0 0 61 61" fill="none" xmlns="http://www.w3.org/2000/svg">
<path d="M48.8005 51.85H13.4714C11.9464 51.85 10.9297 50.8333 10.9297 49.3083V33.2958C10.9297 22.1125 20.0797 13.2167 31.0089 13.2167C41.938 13.2167 51.088 22.3667 51.088 33.2958V49.3083C51.3422 50.8333 50.0714 51.85 48.8005 51.85ZM16.013 46.7667H46.0047V33.2958C46.0047 24.9083 39.1422 18.3 31.0089 18.3C22.8755 18.3 16.013 25.1625 16.013 33.2958V46.7667Z" fill="#883939"/>
<path d="M57.1869 59.7291H5.08268C3.55768 59.7291 2.54102 58.7124 2.54102 57.1874C2.54102 51.5958 7.11602 46.7666 12.9618 46.7666H49.5619C55.1535 46.7666 59.9827 51.3416 59.9827 57.1874C59.7285 58.7124 58.7119 59.7291 57.1869 59.7291ZM8.38685 54.6458H54.1369C53.1202 53.1208 51.5952 51.8499 49.5619 51.8499H12.9618C10.9285 51.8499 9.14935 53.1208 8.38685 54.6458Z" fill="#883939"/>
<path d="M19.8254 36.6C18.3004 36.6 17.2837 35.5833 17.2837 34.0583C17.2837 26.1791 23.8921 19.5708 31.7712 19.5708C33.2962 19.5708 34.3129 20.5875 34.3129 22.1125C34.3129 23.6375 33.2962 24.6541 31.7712 24.6541C26.6879 24.6541 22.3671 28.975 22.3671 34.0583C22.3671 35.5833 21.0962 36.6 19.8254 36.6ZM31.2629 12.4541C29.7379 12.4541 28.7212 11.4375 28.7212 9.91246V5.08329C28.7212 3.55829 29.7379 2.54163 31.2629 2.54163C32.7879 2.54163 33.8046 3.55829 33.8046 5.08329V9.91246C33.8046 11.4375 32.5337 12.4541 31.2629 12.4541ZM15.2504 17.7916C14.4879 17.7916 13.9796 17.5375 13.4712 17.0291L9.91289 13.4708C8.89622 12.4541 8.89622 10.9291 9.91289 9.91246C10.9296 8.89579 12.4546 8.89579 13.4712 9.91246L17.0296 13.4708C18.0462 14.4875 18.0462 16.0125 17.0296 17.0291C16.5212 17.5375 15.7587 17.7916 15.2504 17.7916ZM47.0212 17.7916C46.2587 17.7916 45.7504 17.5375 45.2421 17.0291C44.2254 16.0125 44.2254 14.4875 45.2421 13.4708L48.8004 9.91246C49.8171 8.89579 51.3421 8.89579 52.3587 9.91246C53.3754 10.9291 53.3754 12.4541 52.3587 13.4708L48.8004 17.0291C48.2921 17.5375 47.7837 17.7916 47.0212 17.7916Z" fill="#D15959"/>
</svg>
