<svg width="24" height="24" viewBox="0 0 24 24" fill="none" xmlns="http://www.w3.org/2000/svg">
<path fill-rule="evenodd" clip-rule="evenodd" d="M8.5 12C10.4335 12 12 10.4335 12 8.5C12 6.5665 10.4335 5 8.5 5C6.5665 5 5 6.5665 5 8.5C5 10.4335 6.5665 12 8.5 12ZM11 8.5C11 9.8815 9.8815 11 8.5 11C7.1185 11 6 9.8815 6 8.5C6 7.1185 7.1185 6 8.5 6C9.8815 6 11 7.1185 11 8.5ZM2 19V16.2C2 14.072 6.3305 13 8.5 13C9.943 13 12.3425 13.4745 13.7875 14.4185C14.8175 14.14 15.947 14 16.75 14C17.679 14 18.9255 14.187 19.955 14.565C20.468 14.754 20.9595 15.002 21.331 15.323C21.7055 15.6465 22 16.084 22 16.633V19H2ZM3 16.2C3 16.0415 3.073 15.8245 3.383 15.5425C3.6995 15.2545 4.1865 14.9755 4.803 14.7325C6.0385 14.245 7.5385 14 8.5 14C9.4615 14 10.962 14.245 12.1965 14.7325C12.8135 14.9755 13.3005 15.2545 13.6165 15.5425C13.927 15.8245 14 16.0415 14 16.2V18H3V16.2ZM14.6765 15.235C15.433 15.0785 16.1915 15 16.75 15C17.5735 15 18.7015 15.17 19.61 15.504C20.0645 15.671 20.432 15.868 20.6775 16.08C20.92 16.2895 21 16.4735 21 16.6335V18H15V16.2C15 15.85 14.8825 15.5275 14.6765 15.235ZM19.5 10.25C19.5 11.7695 18.2695 13 16.75 13C16.3888 13.0001 16.0312 12.929 15.6975 12.7908C15.3639 12.6526 15.0607 12.4501 14.8053 12.1947C14.5499 11.9393 14.3474 11.6361 14.2092 11.3025C14.071 10.9688 13.9999 10.6112 14 10.25C14 8.7305 15.2305 7.5 16.75 7.5C18.2695 7.5 19.5 8.7305 19.5 10.25ZM16.75 12C17.717 12 18.5 11.217 18.5 10.25C18.5 9.283 17.717 8.5 16.75 8.5C16.5202 8.49987 16.2925 8.54504 16.0801 8.63294C15.8678 8.72084 15.6748 8.84974 15.5123 9.01227C15.3497 9.1748 15.2208 9.36777 15.1329 9.58015C15.045 9.79253 14.9999 10.0201 15 10.25C15 11.217 15.783 12 16.75 12Z" fill="white"/>
</svg>
