<svg width="675" height="454" viewBox="0 0 675 454" fill="none" xmlns="http://www.w3.org/2000/svg">
<path d="M169.416 65.0037H86.8499V185.75H169.416V65.0037Z" fill="#E0E0E0"/>
<path d="M165.276 65.0037H82.71V185.75H165.276V65.0037Z" fill="#F5F5F5"/>
<path d="M155.025 78.0789H92.97V172.665H155.025V78.0789Z" fill="white"/>
<path d="M155.025 172.674C155.025 172.674 155.025 172.511 155.025 172.211C155.025 171.912 155.025 171.449 155.025 170.867C155.025 169.678 155.025 167.935 155.025 165.683C155.025 161.143 155.025 154.542 154.962 146.197C154.962 129.517 154.908 105.891 154.863 78.0971L155.07 78.3059H93.0239L93.2489 78.0789C93.2489 113.763 93.2489 146.66 93.2489 172.674L93.0689 172.493L138.24 172.584L150.714 172.629H153.99H155.124H154.026H150.786H138.348L93.0689 172.72H92.8889V172.538C92.8889 146.524 92.8889 113.627 92.8889 77.9427V77.7157H93.1229H155.169H155.376V78.088C155.376 105.964 155.295 129.626 155.277 146.342C155.277 154.669 155.232 161.252 155.214 165.774C155.214 168.016 155.214 169.742 155.214 170.922C155.214 171.494 155.214 171.939 155.214 172.239C155.214 172.538 155.025 172.674 155.025 172.674Z" fill="#E0E0E0"/>
<path d="M165.519 65.0037C165.092 65.7758 164.598 66.5081 164.043 67.192C163.089 68.4814 161.721 70.2429 160.173 72.1497C158.625 74.0565 157.167 75.7363 156.087 76.9348C155.544 77.6119 154.942 78.238 154.287 78.8053C154.753 78.0688 155.28 77.3732 155.862 76.726L159.84 71.8591L163.8 66.965C164.317 66.2633 164.892 65.6072 165.519 65.0037Z" fill="#E0E0E0"/>
<path d="M155.34 172.366C158.421 177.301 162.044 181.869 166.14 185.986L155.34 172.366Z" fill="white"/>
<path d="M166.167 186.022C165.474 185.517 164.84 184.935 164.277 184.288C162.838 182.812 161.474 181.263 160.191 179.648C158.697 177.75 157.446 175.943 156.591 174.608C156.099 173.904 155.677 173.153 155.331 172.366C155.887 173.014 156.396 173.703 156.852 174.427C157.752 175.716 159.048 177.478 160.533 179.357C162.018 181.237 163.458 182.889 164.502 184.07C165.102 184.679 165.659 185.332 166.167 186.022Z" fill="#E0E0E0"/>
<path d="M82.7009 185.65L93.5009 172.193L82.7009 185.65Z" fill="white"/>
<path d="M93.5189 172.193C91.8899 174.573 90.1417 176.867 88.2809 179.067C86.5397 181.361 84.677 183.558 82.7009 185.65C84.3299 183.27 86.0782 180.976 87.9389 178.776C89.6802 176.482 91.5429 174.285 93.5189 172.193Z" fill="#E0E0E0"/>
<path d="M82.71 65.0037C84.5757 67.024 86.3303 69.1458 87.966 71.3597C89.7176 73.4734 91.3521 75.6832 92.862 77.979C90.9994 75.9584 89.2478 73.8366 87.615 71.623C85.8609 69.509 84.2235 67.2992 82.71 65.0037Z" fill="#E0E0E0"/>
<path d="M135.693 97.2831H114.912V156.803H135.693V97.2831Z" fill="#E0E0E0"/>
<path d="M280.737 47.4067V100.289H205.461L202.752 47.779L280.737 47.4067Z" fill="#E0E0E0"/>
<path d="M202.743 47.7789V100.171H278.019V47.7789L202.743 47.7789Z" fill="white"/>
<path d="M278.379 100.534H202.392V47.416H278.379V100.534ZM203.112 99.8167H277.668V48.1242H203.112V99.8167Z" fill="#E0E0E0"/>
<path d="M269.874 54.2893H210.906V93.6602H269.874V54.2893Z" fill="white"/>
<path d="M269.874 54.2893H268.74H265.5H253.35L210.906 54.48L211.077 54.3075C211.077 66.3385 211.077 79.6679 211.077 93.6783L210.897 93.4968H269.865L269.712 93.642C269.712 81.6655 269.775 71.85 269.793 64.9946C269.793 61.5806 269.793 58.911 269.793 57.0769C269.793 56.1689 269.793 55.4788 269.793 54.9976C269.793 54.5163 269.793 54.2712 269.793 54.2712C269.793 54.2712 269.793 54.4982 269.793 54.9612C269.793 55.4243 269.793 56.1235 269.793 57.0133C269.793 58.8293 269.793 61.4988 269.838 64.9038C269.838 71.7683 269.883 81.6292 269.91 93.642V93.7964H269.766H210.798H210.609V93.6057C210.609 79.5953 210.609 66.2658 210.609 54.2348V54.1168H210.78L253.341 54.1985L265.455 54.253H268.659H269.748L269.874 54.2893Z" fill="#E0E0E0"/>
<path d="M202.752 47.6337C203.217 47.8594 203.653 48.1431 204.048 48.4781C204.813 49.0411 205.848 49.8401 207 50.7481C208.152 51.6561 209.124 52.5641 209.826 53.1725C210.228 53.5014 210.59 53.8762 210.906 54.2893C209.472 53.2776 208.09 52.1927 206.766 51.0387C205.358 49.9907 204.017 48.8534 202.752 47.6337Z" fill="#E0E0E0"/>
<path d="M278.028 47.779C276.79 49.0077 275.467 50.1456 274.068 51.184C272.744 52.3173 271.343 53.355 269.874 54.2893C271.112 53.0606 272.435 51.9227 273.834 50.8843C275.156 49.7485 276.558 48.7107 278.028 47.779Z" fill="#E0E0E0"/>
<path d="M277.965 100.18L269.568 93.3152L277.965 100.18Z" fill="white"/>
<path d="M269.568 93.3152C271.078 94.314 272.521 95.412 273.888 96.6021C275.325 97.701 276.687 98.8962 277.965 100.18C276.454 99.1867 275.013 98.0883 273.654 96.8927C272.21 95.7983 270.845 94.6028 269.568 93.3152Z" fill="#E0E0E0"/>
<path d="M202.752 100.171C203.975 98.9568 205.283 97.834 206.667 96.811C207.976 95.6875 209.363 94.6589 210.816 93.7328C209.597 94.9536 208.288 96.0797 206.901 97.1015C205.593 98.224 204.206 99.2497 202.752 100.171Z" fill="#E0E0E0"/>
<path d="M222.876 66.5564V79.7406H259.983V66.5564H222.876Z" fill="#E0E0E0"/>
<path d="M587.421 284.358C587.421 284.358 580.662 281.18 575.361 297.161C570.06 313.142 568.485 322.14 568.485 322.14C568.485 322.14 566.964 325.554 564.543 323.838C562.122 322.122 558.369 316.792 554.922 318.39C551.475 319.988 550.737 324.419 552.366 330.494C553.995 336.568 557.082 349.998 557.352 351.214C557.622 352.431 557.199 354.293 555.372 353.394C553.545 352.495 542.367 343.188 538.272 348.79C534.177 354.392 541.503 370.582 542.268 372.344C543.033 374.105 542.79 374.977 541.98 375.567C541.17 376.157 537.723 372.67 534.438 370.119C531.153 367.567 526.914 365.27 524.835 368.702C522.756 372.135 523.836 384.928 538.839 403.706L546.354 411.941L557.271 409.662C580.338 403.352 588.654 393.636 588.969 389.623C589.284 385.609 584.469 384.992 580.374 385.083C576.279 385.174 571.428 385.945 571.122 384.983C570.816 384.02 571.122 383.167 572.76 382.259C574.398 381.351 589.725 372.498 589.707 365.552C589.689 358.606 575.226 359.532 573.219 359.196C571.212 358.86 571.968 357.062 572.877 356.254C573.786 355.446 584.118 346.384 588.969 342.434C593.82 338.484 595.89 334.571 593.946 331.129C592.002 327.688 585.936 329.895 582.984 329.849C580.032 329.804 580.779 326.135 580.779 326.135C580.779 326.135 584.739 317.963 589.779 301.846C594.819 285.729 587.277 284.34 587.277 284.34" fill="#EBEBEB"/>
<path d="M544.932 414.221C548.658 402.417 555.624 381.578 561.519 363.645C567.414 345.712 572.733 329.486 576.522 317.718C578.403 311.834 579.924 307.077 581.022 303.771C581.553 302.137 581.922 300.857 582.246 299.976C582.384 299.558 582.492 299.231 582.57 298.995C582.642 298.768 582.687 298.659 582.687 298.659C582.687 298.659 582.687 298.777 582.597 299.004C582.507 299.231 582.435 299.567 582.309 299.994C582.039 300.902 581.652 302.164 581.148 303.808C580.14 307.122 578.655 311.898 576.783 317.791C573.057 329.595 567.783 345.83 561.888 363.754C555.993 381.678 548.982 402.525 545.193 414.293" fill="#E0E0E0"/>
<path d="M559.881 326.045C560.031 326.269 560.16 326.506 560.268 326.753C560.502 327.216 560.817 327.906 561.168 328.75C561.933 330.448 562.968 332.818 563.967 335.452C564.966 338.085 565.911 340.4 566.667 342.198C566.982 343.006 567.261 343.696 567.477 344.241C567.6 344.482 567.691 344.739 567.747 345.004C567.597 344.78 567.468 344.543 567.36 344.295C567.126 343.832 566.811 343.151 566.46 342.298C565.713 340.591 564.75 338.212 563.706 335.579C562.662 332.945 561.726 330.639 561.006 328.85L560.178 326.807C560.047 326.567 559.948 326.311 559.881 326.045Z" fill="#E0E0E0"/>
<path d="M568.8 345.04C568.755 344.949 573.507 342.679 579.411 339.955C585.315 337.231 590.121 335.106 590.211 335.197C590.301 335.288 585.495 337.558 579.591 340.273C573.687 342.988 568.8 345.14 568.8 345.04Z" fill="#E0E0E0"/>
<path d="M558.486 372.171C558.749 372.085 559.021 372.031 559.296 372.008L561.501 371.681C563.355 371.408 565.929 371.018 568.746 370.473C571.563 369.928 574.092 369.374 575.946 368.939L578.115 368.439C578.378 368.357 578.65 368.308 578.925 368.294C578.676 368.408 578.417 368.499 578.151 368.566C577.647 368.721 576.918 368.939 576.009 369.184C574.209 369.674 571.653 370.282 568.809 370.818C565.965 371.354 563.409 371.726 561.528 371.926C560.628 372.035 559.836 372.108 559.305 372.144C559.033 372.177 558.759 372.186 558.486 372.171Z" fill="#E0E0E0"/>
<path d="M546.696 356.762C546.89 356.926 547.066 357.112 547.218 357.316L548.541 358.914C549.648 360.267 551.151 362.156 552.798 364.253C554.445 366.351 555.93 368.258 556.983 369.656L558.216 371.318C558.377 371.515 558.519 371.728 558.639 371.953C558.442 371.793 558.266 371.606 558.117 371.399L556.794 369.81C555.687 368.448 554.184 366.569 552.528 364.471C550.872 362.374 549.405 360.458 548.352 359.069L547.119 357.407C546.953 357.21 546.811 356.993 546.696 356.762Z" fill="#E0E0E0"/>
<path d="M534.6 379.544C534.843 379.759 535.063 380 535.257 380.261C535.707 380.788 536.274 381.478 536.958 382.295C538.389 384.02 540.333 386.427 542.475 389.096C544.617 391.766 546.534 394.19 547.875 395.961L549.495 398.058C549.701 398.311 549.885 398.581 550.044 398.866C549.806 398.645 549.587 398.405 549.387 398.149L547.686 396.115C546.264 394.381 544.311 391.984 542.169 389.314C540.027 386.645 538.11 384.22 536.769 382.45C536.121 381.605 535.572 380.897 535.158 380.343C534.946 380.096 534.759 379.828 534.6 379.544Z" fill="#E0E0E0"/>
<path d="M549.9 398.294C550.23 398.193 550.567 398.117 550.908 398.067L553.689 397.559C556.038 397.123 559.278 396.505 562.833 395.743C566.388 394.98 569.592 394.181 571.905 393.591L574.65 392.901C574.983 392.8 575.323 392.728 575.667 392.683C575.351 392.828 575.023 392.943 574.686 393.028C574.047 393.228 573.12 393.509 571.986 393.827C569.682 394.481 566.487 395.307 562.923 396.079C559.359 396.85 556.11 397.441 553.752 397.813C552.573 398.004 551.61 398.14 550.953 398.222C550.605 398.28 550.252 398.304 549.9 398.294Z" fill="#E0E0E0"/>
<path d="M607.5 413.894C607.5 414.021 483.849 414.13 331.362 414.13C178.875 414.13 55.2241 414.048 55.2241 413.894C55.2241 413.739 178.848 413.658 331.398 413.658C483.948 413.658 607.5 413.767 607.5 413.894Z" fill="#263238"/>
<path d="M438.621 97.9046L430.057 105.294L441.488 118.778L450.052 111.389L438.621 97.9046Z" fill="#263238"/>
<path d="M446.022 96.8564L428.4 112.129L416.043 97.6009C420.903 90.7183 426.699 85.5245 433.638 82.3284L446.022 96.8564Z" fill="#455A64"/>
<path d="M431.37 109.568C431.271 109.659 428.292 106.354 424.71 102.204C421.128 98.0549 418.302 94.6227 418.41 94.5319C418.518 94.4411 421.488 97.7462 425.07 101.896C428.652 106.045 431.469 109.487 431.37 109.568Z" fill="#263238"/>
<path d="M434.7 106.663C433.988 105.964 433.326 105.214 432.72 104.42C431.532 103.013 429.921 101.06 428.148 98.8812L423.648 93.2879L422.298 91.59C421.974 91.1723 421.803 90.9816 421.803 90.9544C421.983 90.7909 424.98 94.2322 428.526 98.5816C430.326 100.761 431.874 102.749 433.026 104.211C433.654 104.977 434.215 105.797 434.7 106.663Z" fill="#263238"/>
<path d="M439.2 102.786C438.477 102.089 437.806 101.339 437.193 100.543C435.996 99.1173 434.376 97.1288 432.594 94.9223L428.094 89.2382L426.744 87.504C426.569 87.2972 426.413 87.0754 426.276 86.8411C427.049 87.4856 427.744 88.2202 428.346 89.0294C429.561 90.4368 431.199 92.4162 432.972 94.6227C434.745 96.8291 436.338 98.854 437.472 100.334C438.115 101.101 438.693 101.921 439.2 102.786Z" fill="#263238"/>
<path d="M443.259 99.1536C443.16 99.2353 440.199 95.903 436.644 91.708C433.089 87.513 430.299 84.0354 430.398 83.9446C430.497 83.8538 433.449 87.1952 437.004 91.3993C440.559 95.6033 443.358 99.0719 443.259 99.1536Z" fill="#263238"/>
<path d="M589.425 107.083L581.64 98.8644L568.926 111.122L576.71 119.341L589.425 107.083Z" fill="#263238"/>
<path d="M589.797 115.171L573.759 98.2365L587.466 85.0251C594.522 89.5651 599.976 95.1312 603.495 101.959L589.797 115.171Z" fill="#455A64"/>
<path d="M576.441 101.079C576.351 100.979 579.456 97.8007 583.38 93.978C587.304 90.1553 590.58 87.1317 590.643 87.2225C590.706 87.3133 587.628 90.4913 583.704 94.323C579.78 98.1548 576.531 101.169 576.441 101.079Z" fill="#263238"/>
<path d="M579.501 104.302C580.141 103.539 580.839 102.829 581.589 102.177C582.912 100.906 584.766 99.1718 586.827 97.265L592.128 92.4253L593.739 90.9725C594.126 90.6275 594.315 90.455 594.342 90.4459C594.513 90.6184 591.264 93.8236 587.142 97.6191C585.081 99.5168 583.191 101.251 581.805 102.422C581.087 103.109 580.317 103.738 579.501 104.302Z" fill="#263238"/>
<path d="M583.569 108.597C584.217 107.827 584.924 107.111 585.684 106.454C587.025 105.174 588.906 103.43 591.003 101.523L596.403 96.6748L598.05 95.222C598.251 95.0414 598.461 94.8717 598.68 94.7135C598.085 95.5283 597.396 96.2689 596.628 96.9199C595.296 98.2184 593.415 99.9708 591.327 101.878C589.239 103.784 587.313 105.51 585.927 106.708C585.19 107.398 584.402 108.029 583.569 108.597Z" fill="#263238"/>
<path d="M587.376 112.51C587.286 112.41 590.436 109.26 594.405 105.455C598.374 101.651 601.668 98.6542 601.758 98.7541C601.848 98.854 598.698 102.005 594.729 105.8C590.76 109.596 587.466 112.592 587.376 112.51Z" fill="#263238"/>
<path d="M517.572 67.8458H504.234V88.8478H517.572V67.8458Z" fill="#263238"/>
<path d="M524.7 74.1291H497.25V51.4927C506.871 49.0956 516.051 48.9503 524.727 51.4927L524.7 74.1291Z" fill="#3559AE"/>
<path d="M525.051 51.5835C524.729 51.7864 524.389 51.9568 524.034 52.092C523.094 52.5095 522.129 52.8674 521.145 53.1634C519.67 53.6216 518.167 53.9795 516.645 54.2348C514.796 54.5309 512.928 54.6887 511.056 54.707C509.185 54.7098 507.317 54.5702 505.467 54.2893C503.946 54.0513 502.442 53.7084 500.967 53.2633C499.982 52.9724 499.014 52.6237 498.069 52.2191C497.711 52.094 497.37 51.9264 497.052 51.7197C497.052 51.638 498.564 52.2645 501.057 52.9364C502.52 53.3265 504.005 53.6297 505.503 53.8444C507.335 54.0944 509.181 54.2218 511.029 54.2258C512.879 54.2045 514.725 54.0589 516.555 53.7899C518.047 53.5722 519.525 53.2691 520.983 52.8819C523.539 52.1464 525.015 51.5018 525.051 51.5835Z" fill="#263238"/>
<path d="M506.322 74.0656C506.196 74.0656 506.088 69.7162 506.088 64.359C506.088 59.0018 506.196 54.6525 506.322 54.6525C506.448 54.6525 506.556 58.9928 506.556 64.359C506.556 69.7253 506.457 74.0656 506.322 74.0656Z" fill="#263238"/>
<path d="M511.551 74.1927C511.425 74.1927 511.317 69.8252 511.317 64.4408C511.317 59.0563 511.425 54.6979 511.551 54.6979C511.677 54.6979 511.785 59.0563 511.785 64.4408C511.785 69.8252 511.686 74.1927 511.551 74.1927Z" fill="#263238"/>
<path d="M516.78 74.111C516.654 74.111 516.546 69.7435 516.546 64.359C516.546 58.9746 516.654 54.6071 516.78 54.6071C516.906 54.6071 517.014 58.9746 517.014 64.359C517.014 69.7435 516.915 74.111 516.78 74.111Z" fill="#263238"/>
<path d="M521.1 74.111C520.965 74.111 520.866 69.3894 520.866 63.5691C520.866 57.7488 520.965 53.0272 521.1 53.0272C521.235 53.0272 521.334 57.7488 521.334 63.5691C521.334 69.3894 521.262 74.111 521.1 74.111Z" fill="#263238"/>
<path d="M501.381 73.9748C501.255 73.9748 501.147 69.2532 501.147 63.4329C501.147 57.6126 501.255 52.891 501.381 52.891C501.507 52.891 501.615 57.6126 501.615 63.4329C501.615 69.2532 501.516 73.9748 501.381 73.9748Z" fill="#263238"/>
<path d="M577.914 249.493C615.813 211.257 615.813 149.264 577.914 111.028C540.015 72.7914 478.568 72.7914 440.669 111.028C402.77 149.264 402.77 211.257 440.669 249.493C478.568 287.729 540.015 287.729 577.914 249.493Z" fill="#3559AE"/>
<path d="M509.292 261.713C554.305 261.713 590.796 224.898 590.796 179.484C590.796 134.071 554.305 97.2559 509.292 97.2559C464.279 97.2559 427.788 134.071 427.788 179.484C427.788 224.898 464.279 261.713 509.292 261.713Z" fill="#FAFAFA"/>
<path d="M590.796 179.484C590.796 179.484 590.796 179.039 590.733 178.159C590.67 177.278 590.733 175.961 590.562 174.245C590.241 169.238 589.463 164.272 588.24 159.408C587.358 155.898 586.243 152.452 584.901 149.094C583.324 145.089 581.428 141.221 579.231 137.526C573.856 128.499 566.832 120.583 558.531 114.199C548.457 106.466 536.729 101.218 524.286 98.8721C513.739 96.9143 502.916 97.0407 492.417 99.2444C488.73 100.052 485.099 101.098 481.545 102.377C466.424 107.934 453.271 117.883 443.745 130.97C441.259 134.378 439.044 137.979 437.121 141.739C436.122 143.618 435.267 145.571 434.421 147.532C433.575 149.493 432.819 151.527 432.18 153.597C430.799 157.74 429.763 161.992 429.084 166.309C428.401 170.674 428.043 175.084 428.013 179.503C428.045 183.924 428.4 188.336 429.075 192.705C429.764 197.02 430.8 201.271 432.171 205.417C432.819 207.478 433.629 209.476 434.412 211.473C435.195 213.471 436.14 215.396 437.112 217.275C439.035 221.037 441.253 224.639 443.745 228.044C453.269 241.135 466.422 251.088 481.545 256.646C485.099 257.925 488.73 258.971 492.417 259.779C496.012 260.537 499.653 261.049 503.316 261.313C510.326 261.848 517.376 261.457 524.286 260.151C536.729 257.806 548.457 252.557 558.531 244.824C566.834 238.442 573.859 230.526 579.231 221.498C581.426 217.802 583.323 213.933 584.901 209.93C588.098 201.902 590.008 193.412 590.562 184.778C590.715 183.062 590.688 181.745 590.733 180.865C590.778 179.984 590.796 179.53 590.796 179.53C590.796 179.53 590.796 179.984 590.796 180.865C590.796 181.745 590.796 183.062 590.67 184.778C590.177 193.436 588.302 201.957 585.117 210.011C583.55 214.034 581.659 217.921 579.465 221.634C574.103 230.706 567.078 238.666 558.765 245.087C548.655 252.867 536.881 258.153 524.385 260.523C517.444 261.847 510.361 262.25 503.316 261.722C499.635 261.459 495.976 260.946 492.363 260.187C488.654 259.382 485.001 258.333 481.428 257.046C466.217 251.467 452.985 241.467 443.403 228.308C440.902 224.884 438.675 221.264 436.743 217.484C435.735 215.596 434.871 213.616 433.989 211.646C433.107 209.675 432.387 207.632 431.739 205.553C430.358 201.39 429.317 197.12 428.625 192.787C427.197 183.995 427.197 175.028 428.625 166.237C429.32 161.921 430.362 157.67 431.739 153.525C432.396 151.445 433.206 149.439 433.998 147.432C434.79 145.425 435.735 143.491 436.743 141.603C438.681 137.824 440.911 134.205 443.412 130.779C452.99 117.621 466.219 107.624 481.428 102.05C484.998 100.764 488.648 99.7146 492.354 98.9084C495.97 98.1505 499.632 97.6379 503.316 97.3739C510.358 96.8462 517.438 97.2492 524.376 98.5725C536.876 100.932 548.652 106.219 558.756 114.008C567.068 120.434 574.093 128.397 579.456 137.471C583.487 144.321 586.519 151.722 588.456 159.445C589.657 164.325 590.407 169.307 590.697 174.327C590.832 176.043 590.787 177.36 590.823 178.24C590.859 179.121 590.796 179.484 590.796 179.484Z" fill="#263238"/>
<path d="M578.835 176.506C576.252 176.615 574.146 176.506 574.137 176.279C574.128 176.052 576.207 175.743 578.79 175.598C581.373 175.453 583.479 175.544 583.497 175.816C583.515 176.088 581.4 176.397 578.835 176.506Z" fill="#263238"/>
<path d="M577.098 195.438C574.578 194.839 572.598 194.176 572.598 193.949C572.598 193.722 574.74 193.994 577.269 194.548C579.798 195.102 581.769 195.774 581.769 196.037C581.769 196.301 579.6 196.028 577.098 195.438Z" fill="#263238"/>
<path d="M570.375 213.189C568.098 211.936 566.352 210.747 566.46 210.547C566.568 210.347 568.512 211.174 570.798 212.363C573.084 213.553 574.839 214.778 574.713 215.014C574.587 215.25 572.643 214.451 570.375 213.189Z" fill="#263238"/>
<path d="M559.17 228.48C557.316 226.664 555.939 225.048 556.101 224.848C556.263 224.648 557.901 226.001 559.791 227.799C561.681 229.597 563.04 231.204 562.86 231.431C562.68 231.658 561.015 230.305 559.17 228.48Z" fill="#263238"/>
<path d="M544.32 240.193C543.024 237.932 542.124 236.007 542.322 235.889C542.52 235.771 543.762 237.496 545.094 239.73C546.426 241.964 547.326 243.889 547.101 244.034C546.876 244.179 545.625 242.436 544.32 240.193Z" fill="#263238"/>
<path d="M526.905 247.448C526.257 244.915 525.906 242.817 526.131 242.763C526.356 242.708 527.085 244.697 527.778 247.212C528.471 249.727 528.813 251.825 528.552 251.897C528.291 251.97 527.553 249.972 526.905 247.448Z" fill="#263238"/>
<path d="M508.194 249.7C508.194 247.085 508.455 244.969 508.68 244.969C508.905 244.969 509.094 247.094 509.094 249.7C509.094 252.306 508.869 254.431 508.608 254.431C508.347 254.431 508.149 252.324 508.194 249.7Z" fill="#263238"/>
<path d="M489.6 246.858C490.338 244.352 491.112 242.382 491.337 242.445C491.562 242.509 491.166 244.597 490.437 247.112C489.708 249.627 488.961 251.652 488.7 251.525C488.439 251.398 488.817 249.364 489.6 246.858Z" fill="#263238"/>
<path d="M472.383 239.04C473.76 236.834 475.029 235.136 475.227 235.254C475.425 235.372 474.489 237.288 473.148 239.521C471.807 241.755 470.529 243.444 470.304 243.308C470.079 243.171 471.006 241.256 472.383 239.04Z" fill="#263238"/>
<path d="M457.902 226.873C459.819 225.111 461.502 223.822 461.646 223.995C461.79 224.167 460.404 225.747 458.514 227.536C456.624 229.324 454.959 230.614 454.77 230.423C454.581 230.232 455.994 228.634 457.902 226.873Z" fill="#263238"/>
<path d="M447.174 211.237C449.487 210.066 451.449 209.276 451.548 209.476C451.647 209.675 449.883 210.829 447.588 212.045C445.293 213.262 443.34 214.052 443.214 213.807C443.088 213.562 444.87 212.418 447.174 211.237Z" fill="#263238"/>
<path d="M441 193.277C443.547 192.768 445.644 192.541 445.689 192.768C445.734 192.995 443.718 193.622 441.189 194.167C438.66 194.712 436.554 194.939 436.5 194.675C436.446 194.412 438.48 193.785 441 193.277Z" fill="#263238"/>
<path d="M439.857 174.336C442.44 174.527 444.519 174.872 444.51 175.099C444.501 175.326 442.386 175.389 439.803 175.235C437.22 175.081 435.132 174.745 435.15 174.472C435.168 174.2 437.274 174.1 439.857 174.336Z" fill="#263238"/>
<path d="M443.772 155.695C446.211 156.603 448.119 157.511 448.047 157.701C447.975 157.892 445.923 157.402 443.475 156.548C441.027 155.695 439.119 154.805 439.2 154.551C439.281 154.296 441.342 154.805 443.772 155.695Z" fill="#263238"/>
<path d="M452.511 138.851C454.617 140.368 456.219 141.748 456.111 141.939C456.003 142.129 454.149 141.076 452.016 139.596C449.883 138.116 448.281 136.736 448.416 136.509C448.551 136.282 450.396 137.335 452.511 138.851Z" fill="#263238"/>
<path d="M465.39 124.977C467.019 127.002 468.198 128.763 468.027 128.918C467.856 129.072 466.353 127.556 464.697 125.549C463.041 123.542 461.853 121.79 462.06 121.618C462.267 121.445 463.761 122.952 465.39 124.977Z" fill="#263238"/>
<path d="M481.5 115.08C482.526 117.477 483.201 119.493 482.985 119.62C482.769 119.747 481.743 117.858 480.681 115.479C479.619 113.1 478.944 111.085 479.187 110.939C479.43 110.794 480.447 112.692 481.5 115.08Z" fill="#263238"/>
<path d="M499.626 109.932C499.977 112.519 500.085 114.644 499.851 114.68C499.617 114.717 499.122 112.646 498.735 110.068C498.348 107.489 498.24 105.355 498.501 105.319C498.762 105.283 499.275 107.344 499.626 109.932Z" fill="#263238"/>
<path d="M518.472 109.868C518.13 112.456 517.671 114.535 517.446 114.508C517.221 114.481 517.275 112.347 517.581 109.759C517.887 107.171 518.346 105.083 518.607 105.119C518.868 105.155 518.814 107.271 518.472 109.868Z" fill="#263238"/>
<path d="M536.643 114.889C535.626 117.295 534.627 119.166 534.411 119.075C534.195 118.984 534.834 116.959 535.815 114.535C536.796 112.111 537.804 110.249 538.047 110.358C538.29 110.467 537.669 112.492 536.643 114.889Z" fill="#263238"/>
<path d="M552.807 124.668C551.187 126.711 549.729 128.246 549.549 128.101C549.369 127.955 550.512 126.167 552.105 124.105C553.698 122.044 555.147 120.473 555.363 120.682C555.579 120.891 554.4 122.634 552.807 124.668Z" fill="#263238"/>
<path d="M565.794 138.452C563.688 139.977 561.879 141.067 561.744 140.876C561.609 140.686 563.184 139.278 565.263 137.716C567.342 136.155 569.151 135.074 569.313 135.292C569.475 135.51 567.9 136.926 565.794 138.452Z" fill="#263238"/>
<path d="M574.641 155.268C572.211 156.176 570.141 156.712 570.087 156.503C570.033 156.294 571.887 155.35 574.326 154.414C576.765 153.479 578.772 152.925 578.871 153.18C578.97 153.434 577.071 154.36 574.641 155.268Z" fill="#263238"/>
<path d="M578.7 173.809C576.117 174.018 574.011 174 573.993 173.809C573.975 173.619 576.045 173.201 578.619 172.901C581.193 172.602 583.308 172.674 583.326 172.947C583.344 173.219 581.256 173.601 578.7 173.809Z" fill="#263238"/>
<path d="M477.639 90.5276L477.36 90.6547L476.532 90.9907C475.812 91.2994 474.732 91.6717 473.355 92.28C469.475 93.9164 465.708 95.8123 462.078 97.955C459.774 99.2989 457.335 100.906 454.77 102.713C452.205 104.52 449.586 106.626 446.967 108.996C435.468 119.222 426.685 132.184 421.416 146.706C420.183 150.029 419.256 153.279 418.455 156.321C417.654 159.363 417.114 162.269 416.709 164.92C416.052 169.109 415.67 173.338 415.566 177.578C415.494 179.085 415.566 180.247 415.566 181.037C415.566 181.418 415.566 181.709 415.566 181.945C415.574 182.048 415.574 182.151 415.566 182.254C415.554 182.154 415.554 182.054 415.566 181.954C415.566 181.727 415.566 181.427 415.566 181.046C415.566 180.256 415.467 179.094 415.512 177.587C415.544 173.331 415.878 169.083 416.511 164.875C416.889 162.205 417.474 159.309 418.203 156.23C419.016 152.959 419.996 149.731 421.137 146.56C426.38 131.942 435.215 118.904 446.814 108.669C449.451 106.3 452.133 104.257 454.671 102.395C457.209 100.534 459.711 98.9902 462.042 97.6645C465.696 95.5439 469.495 93.6869 473.409 92.1075C474.786 91.5264 475.893 91.1995 476.631 90.8999L477.477 90.6093C477.529 90.5781 477.583 90.5508 477.639 90.5276Z" fill="white"/>
<path d="M504.729 85.2249C503.803 85.4188 502.865 85.5432 501.921 85.5972C500.175 85.7788 497.781 86.0421 495.135 86.3871C492.489 86.7322 490.104 87.0954 488.376 87.3678C487.45 87.5598 486.512 87.6812 485.568 87.731C486.463 87.4162 487.385 87.1852 488.322 87.0409C490.041 86.6868 492.426 86.2691 495.072 85.924C497.718 85.579 500.139 85.3611 501.894 85.2612C502.836 85.1596 503.785 85.1475 504.729 85.2249Z" fill="white"/>
<g opacity="0.4">
<path d="M444.15 228.916C444.15 228.916 486.387 296.162 551.907 261.722C620.307 225.765 582.507 143.346 582.507 143.346C582.507 143.346 614.691 209.031 548.019 251.852C531.414 262.521 513.333 262.53 499.545 261.132C464.31 257.572 444.15 228.916 444.15 228.916Z" fill="black"/>
</g>
<path d="M532.008 135.782C532.414 147.842 532.053 159.916 530.928 171.93C530.514 176.279 530.028 180.674 528.363 184.714C526.698 188.755 523.863 192.46 519.867 194.167C515.871 195.874 510.759 195.166 507.978 191.824L532.008 135.782Z" fill="#E0E0E0"/>
<path d="M507.519 173.001L537.138 122.68L519.264 179.493L510.129 182.245L507.519 173.001Z" fill="#3559AE"/>
<g opacity="0.4">
<path d="M537.138 122.68L515.169 174.1L519.264 179.493L537.138 122.68Z" fill="black"/>
</g>
<path d="M510.129 191.86C515.393 191.86 519.66 187.555 519.66 182.245C519.66 176.934 515.393 172.629 510.129 172.629C504.865 172.629 500.598 176.934 500.598 182.245C500.598 187.555 504.865 191.86 510.129 191.86Z" fill="#FAFAFA"/>
<path d="M519.66 182.245C519.574 181.463 519.445 180.687 519.273 179.92C518.721 177.849 517.498 176.024 515.799 174.736C514.551 173.788 513.087 173.171 511.542 172.941C509.996 172.711 508.418 172.875 506.952 173.419C506.108 173.72 505.315 174.152 504.603 174.699C503.844 175.254 503.179 175.929 502.632 176.697C501.462 178.306 500.831 180.249 500.831 182.245C500.831 184.24 501.462 186.184 502.632 187.793C503.725 189.288 505.226 190.431 506.952 191.08C508.184 191.535 509.496 191.726 510.805 191.64C512.114 191.554 513.391 191.193 514.553 190.58C515.716 189.967 516.739 189.116 517.556 188.081C518.374 187.045 518.968 185.849 519.3 184.569C519.474 183.803 519.603 183.026 519.687 182.245C519.743 183.041 519.673 183.841 519.48 184.615C518.988 186.78 517.767 188.705 516.024 190.063C514.829 190.998 513.432 191.636 511.947 191.924C510.238 192.253 508.473 192.115 506.835 191.524C505.945 191.214 505.11 190.764 504.36 190.19C503.564 189.609 502.865 188.904 502.29 188.101C501.051 186.418 500.382 184.377 500.382 182.281C500.382 180.185 501.051 178.144 502.29 176.461C502.868 175.66 503.566 174.955 504.36 174.372C505.113 173.806 505.948 173.359 506.835 173.047C508.472 172.451 510.238 172.313 511.947 172.647C513.762 172.999 515.438 173.872 516.774 175.16C518.11 176.448 519.049 178.098 519.48 179.911C519.66 180.675 519.721 181.462 519.66 182.245Z" fill="#263238"/>
<path d="M517.111 183.686C517.888 179.813 515.405 176.038 511.566 175.255C507.726 174.472 503.985 176.977 503.209 180.85C502.433 184.724 504.916 188.498 508.755 189.281C512.594 190.065 516.335 187.559 517.111 183.686Z" fill="#455A64"/>
<path d="M434.988 413.04H481.878L460.017 222.959L434.988 413.04Z" fill="#E0E0E0"/>
<path d="M204.264 222.959L173.736 415.283L434.241 418.706L460.017 222.959H204.264Z" fill="#FAFAFA"/>
<path d="M448.416 311.063H190.278L195.894 275.651H453.078L448.416 311.063Z" fill="#EBEBEB"/>
<path d="M448.434 311.09H190.251L195.876 275.678H453.105L448.434 311.09ZM190.305 311.044H448.398L453.051 275.632H195.921L190.305 311.044Z" fill="#263238"/>
<path d="M204.264 222.959L195.894 275.651H453.078L460.017 222.959H204.264Z" fill="#3559AE"/>
<path d="M204.3 222.959L460.053 222.741H460.296V222.987C452.763 280.291 444.213 345.276 435.177 413.912V414.121H432.045L173.952 414.048H173.7V413.821L204.3 222.959C204.048 224.539 192.42 298.278 174.177 413.912L173.988 413.685H431.982H434.907L434.682 413.885C443.727 345.249 452.295 280.272 459.882 222.968L460.089 223.205L204.3 222.959Z" fill="#263238"/>
<path d="M453.078 275.651C453.078 275.778 395.478 275.887 324.495 275.887C253.512 275.887 195.894 275.778 195.894 275.651C195.894 275.524 253.494 275.415 324.495 275.415C395.496 275.415 453.078 275.514 453.078 275.651Z" fill="#263238"/>
<path d="M448.416 311.063C448.416 311.199 390.51 311.299 319.104 311.299C247.698 311.299 189.783 311.199 189.783 311.063C189.783 310.926 247.671 310.827 319.104 310.827C390.537 310.827 448.416 310.936 448.416 311.063Z" fill="#263238"/>
<path d="M443.16 343.651C443.16 343.787 385.263 343.887 313.857 343.887C242.451 343.887 184.5 343.787 184.5 343.651C184.5 343.515 242.388 343.415 313.821 343.415C385.254 343.415 443.16 343.524 443.16 343.651Z" fill="#263238"/>
<path d="M437.913 376.239C437.913 376.366 380.007 376.475 308.601 376.475C237.195 376.475 179.28 376.366 179.28 376.239C179.28 376.112 237.168 376.003 308.601 376.003C380.034 376.003 437.913 376.112 437.913 376.239Z" fill="#263238"/>
<path d="M210.303 414.175C210.177 414.175 214.902 383.122 220.869 344.877C226.836 306.632 231.759 275.623 231.885 275.651C232.011 275.678 227.286 306.686 221.328 344.949C215.37 383.212 210.438 414.193 210.303 414.175Z" fill="#263238"/>
<path d="M250.11 414.175C249.975 414.175 254.709 383.122 260.667 344.877C266.625 306.632 271.557 275.623 271.692 275.651C271.827 275.678 267.093 306.686 261.126 344.949C255.159 383.212 250.2 414.193 250.11 414.175Z" fill="#263238"/>
<path d="M287.1 412.786C286.974 412.786 291.654 382.05 297.549 344.186C303.444 306.323 308.349 275.623 308.466 275.651C308.583 275.678 303.912 306.377 298.017 344.259C292.122 382.141 287.217 412.804 287.1 412.786Z" fill="#263238"/>
<path d="M323.685 413.885C323.559 413.885 328.275 382.895 334.224 344.731C340.173 306.568 345.096 275.623 345.222 275.651C345.348 275.678 340.632 306.623 334.683 344.804C328.734 382.985 323.811 413.903 323.685 413.885Z" fill="#263238"/>
<path d="M360.45 413.885C360.324 413.885 365.04 382.895 370.989 344.731C376.938 306.568 381.861 275.623 381.987 275.651C382.113 275.678 377.406 306.623 371.457 344.804C365.508 382.985 360.585 413.903 360.45 413.885Z" fill="#263238"/>
<path d="M397.188 414.048C397.062 414.048 401.787 383.022 407.745 344.795C413.703 306.568 418.626 275.587 418.761 275.614C418.896 275.642 414.162 306.632 408.204 344.867C402.246 383.103 397.314 414.102 397.188 414.048Z" fill="#263238"/>
<g opacity="0.2">
<path d="M374.058 278.12C378.486 276.141 381.258 271.492 382.401 266.743C383.544 261.994 383.364 257.037 383.535 252.143C383.706 247.248 384.282 242.209 386.757 238.005C388.224 235.526 390.285 233.465 391.914 231.077C393.543 228.689 394.749 225.783 394.146 222.905L366.444 223.05L374.058 278.12Z" fill="black"/>
</g>
<path d="M259.2 313.687C259.126 313.808 259.035 313.918 258.93 314.014L258.102 314.922C257.373 315.675 256.302 316.738 254.952 318.063C252.252 320.678 248.499 324.238 244.224 328.051C239.949 331.865 235.989 335.188 233.082 337.549C231.624 338.729 230.436 339.674 229.608 340.273L228.645 340.999C228.538 341.094 228.416 341.171 228.285 341.226C228.285 341.226 228.384 341.108 228.582 340.927L229.482 340.128L232.857 337.249C235.719 334.825 239.643 331.456 243.909 327.661C248.175 323.865 252.009 320.342 254.709 317.791L257.958 314.767L258.858 313.959C258.96 313.854 259.075 313.763 259.2 313.687Z" fill="#263238"/>
<path d="M257.121 341.59C256.739 341.253 256.381 340.889 256.05 340.5L253.233 337.467C250.803 334.861 247.545 331.356 243.954 327.479L234.576 317.582L231.732 314.577C231.373 314.219 231.039 313.837 230.733 313.433C231.141 313.736 231.52 314.077 231.867 314.449C232.569 315.121 233.577 316.111 234.81 317.346C237.276 319.816 240.642 323.275 244.287 327.161C247.932 331.048 251.172 334.625 253.476 337.249C254.628 338.557 255.555 339.628 256.176 340.373C256.527 340.748 256.844 341.156 257.121 341.59Z" fill="#263238"/>
<path d="M266.733 322.031C266.733 322.031 266.823 321.795 267.012 321.332C267.311 320.66 267.672 320.019 268.092 319.416C269.747 317.083 272.081 315.328 274.77 314.395C276.696 313.692 278.75 313.42 280.791 313.596C283.221 313.834 285.563 314.639 287.631 315.948C290.019 317.432 292.036 319.452 293.526 321.85C295.249 324.527 296.108 327.677 295.983 330.866C295.88 332.587 295.351 334.254 294.444 335.715C293.494 337.23 292.229 338.519 290.736 339.492C287.557 341.549 283.814 342.537 280.044 342.316C278.069 342.209 276.125 341.783 274.284 341.054C272.369 340.299 270.647 339.12 269.244 337.603C268.547 336.806 267.96 335.917 267.498 334.961C267.058 333.985 266.755 332.952 266.598 331.892C266.299 329.72 266.487 327.508 267.147 325.418C268.523 321.061 271.507 317.403 275.481 315.203C277.541 314.061 279.833 313.411 282.181 313.303C284.529 313.194 286.871 313.63 289.026 314.577C291.259 315.526 293.214 317.036 294.705 318.962C296.198 320.941 297.131 323.291 297.405 325.763C297.717 328.27 297.314 330.815 296.244 333.1C295.695 334.246 294.972 335.3 294.102 336.223C293.217 337.133 292.219 337.924 291.132 338.575C288.94 339.793 286.523 340.542 284.032 340.777C281.541 341.011 279.028 340.725 276.651 339.937C274.31 339.212 272.159 337.971 270.351 336.305C268.559 334.637 267.333 332.442 266.85 330.031C266.343 327.661 266.677 325.186 267.795 323.039C268.362 321.981 269.14 321.054 270.081 320.315C271.007 319.61 272.041 319.061 273.141 318.69C275.302 317.991 277.569 317.683 279.837 317.782C282.045 317.798 284.241 318.103 286.371 318.69C288.477 319.249 290.422 320.3 292.05 321.759C293.61 323.227 294.673 325.151 295.092 327.261C295.505 329.3 295.384 331.413 294.741 333.39C294.104 335.297 293.028 337.024 291.6 338.43C288.889 341.104 285.299 342.681 281.511 342.861C279.738 342.955 277.964 342.696 276.291 342.098C274.685 341.517 273.24 340.554 272.079 339.292C270.98 338.088 270.149 336.661 269.64 335.106C269.139 333.649 268.916 332.108 268.983 330.566C269.111 327.712 270.241 324.996 272.169 322.903C273.818 321.083 275.904 319.722 278.226 318.953C280.175 318.312 282.24 318.114 284.274 318.372C287.085 318.724 289.756 319.81 292.023 321.523C292.612 321.96 293.168 322.439 293.688 322.957C294.039 323.312 294.21 323.502 294.21 323.502C294.21 323.502 294.012 323.33 293.661 322.994C293.126 322.493 292.561 322.026 291.969 321.595C289.698 319.934 287.042 318.887 284.256 318.554C282.059 318.297 279.833 318.575 277.764 319.365C275.696 320.155 273.845 321.434 272.367 323.094C270.488 325.141 269.394 327.797 269.28 330.585C269.219 332.096 269.442 333.606 269.937 335.034C270.439 336.542 271.252 337.925 272.322 339.093C273.45 340.315 274.851 341.249 276.408 341.817C278.04 342.389 279.767 342.636 281.493 342.543C285.19 342.359 288.691 340.811 291.33 338.194C292.709 336.833 293.748 335.162 294.363 333.318C294.979 331.406 295.091 329.366 294.687 327.398C294.282 325.372 293.259 323.524 291.762 322.113C290.179 320.709 288.293 319.695 286.254 319.153C284.159 318.574 282 318.269 279.828 318.245C277.614 318.161 275.403 318.468 273.294 319.153C271.143 319.817 269.322 321.281 268.2 323.248C267.135 325.301 266.816 327.666 267.3 329.931C267.767 332.247 268.948 334.354 270.675 335.951C272.426 337.583 274.517 338.8 276.795 339.51C279.108 340.278 281.554 340.557 283.979 340.329C286.404 340.101 288.756 339.371 290.889 338.185C291.942 337.561 292.908 336.797 293.76 335.915C294.596 335.029 295.291 334.018 295.821 332.918C296.857 330.714 297.247 328.257 296.946 325.836C296.689 323.45 295.796 321.178 294.363 319.262C292.921 317.399 291.031 315.94 288.873 315.022C286.782 314.1 284.509 313.674 282.229 313.778C279.95 313.882 277.724 314.513 275.724 315.621C271.862 317.766 268.963 321.325 267.624 325.563C266.982 327.591 266.795 329.737 267.075 331.847C267.237 332.871 267.54 333.867 267.975 334.807C268.42 335.724 268.983 336.579 269.649 337.349C271.006 338.818 272.673 339.96 274.527 340.691C276.327 341.409 278.229 341.832 280.161 341.944C283.85 342.171 287.516 341.218 290.637 339.22C292.079 338.329 293.294 337.109 294.183 335.658C295.073 334.207 295.612 332.566 295.758 330.866C295.884 327.747 295.051 324.664 293.373 322.04C291.917 319.673 289.94 317.675 287.595 316.202C285.564 314.905 283.263 314.1 280.872 313.85C278.862 313.658 276.834 313.912 274.932 314.595C272.267 315.503 269.943 317.215 268.272 319.498C267.841 320.09 267.467 320.723 267.156 321.387C266.85 321.804 266.733 322.031 266.733 322.031Z" fill="#3559AE"/>
<path d="M291.114 347.101C291.195 347.201 284.058 353.357 275.166 360.857C266.274 368.357 258.966 374.341 258.912 374.241C258.858 374.141 265.968 367.985 274.86 360.494C283.752 353.003 291.033 347.001 291.114 347.101Z" fill="#263238"/>
<path d="M292.671 373.433C292.247 373.182 291.847 372.893 291.474 372.571L288.306 370.083C285.651 367.958 282.006 364.998 277.992 361.711C273.978 358.424 270.369 355.428 267.768 353.239L264.699 350.624C264.31 350.325 263.949 349.99 263.619 349.625C264.041 349.879 264.441 350.168 264.816 350.488L267.975 352.976C270.63 355.101 274.275 358.061 278.289 361.348C282.303 364.635 285.912 367.631 288.522 369.819L291.582 372.425C291.968 372.734 292.332 373.071 292.671 373.433Z" fill="#263238"/>
<path d="M366.246 347.455C366.318 347.555 359.496 352.831 350.991 359.259C342.486 365.688 335.538 370.764 335.457 370.655C335.376 370.546 342.207 365.279 350.712 358.851C359.217 352.422 366.165 347.346 366.246 347.455Z" fill="#263238"/>
<path d="M368.892 369.792C368.829 369.901 361.575 365.37 352.692 359.659C343.809 353.947 336.69 349.244 336.753 349.126C336.816 349.008 344.07 353.557 352.953 359.259C361.836 364.962 369 369.683 368.892 369.792Z" fill="#263238"/>
<path d="M292.284 413.894C292.185 413.803 299.277 406.303 308.115 397.159C316.953 388.016 324.198 380.652 324.315 380.743C324.432 380.833 317.322 388.333 308.484 397.486C299.646 406.639 292.374 413.984 292.284 413.894Z" fill="#3559AE"/>
<path d="M322.263 413.885C322.263 413.885 322.146 413.785 321.966 413.567L321.21 412.659C320.508 411.751 319.572 410.579 318.429 409.145C316.08 406.185 312.75 402.162 308.889 397.886C305.028 393.609 301.365 389.895 298.665 387.262L295.461 384.084L294.561 383.23C294.457 383.135 294.363 383.028 294.282 382.913C294.282 382.913 294.417 382.985 294.624 383.158L295.524 383.948C296.325 384.638 297.459 385.664 298.845 386.953C301.599 389.532 305.307 393.218 309.186 397.504C313.065 401.79 316.386 405.858 318.636 408.872C319.788 410.38 320.697 411.596 321.336 412.504L322.029 413.503C322.122 413.62 322.201 413.748 322.263 413.885Z" fill="#3559AE"/>
<path d="M248.589 375.694C248.589 375.694 248.877 398.004 243.297 411.36L209.286 405.513C209.286 405.513 219.528 384.375 216.738 372.625L248.589 375.694Z" fill="#EBEBEB"/>
<path d="M248.58 374.859C248.58 374.859 244.314 402.244 241.704 410.416L207.9 403.642C207.9 403.642 214.857 377.165 214.767 369.792L248.58 374.859Z" fill="#3559AE"/>
<path d="M218.196 382.068C218.196 382.195 223.218 383.376 229.473 384.701C235.728 386.027 240.813 386.999 240.84 386.881C240.867 386.763 235.818 385.573 229.563 384.247C223.308 382.922 218.223 381.941 218.196 382.068Z" fill="white"/>
<path d="M217.332 387.87C217.332 387.997 222.354 389.169 228.609 390.504C234.864 391.838 239.949 392.801 239.976 392.683C240.003 392.565 234.954 391.375 228.699 390.05C222.444 388.724 217.359 387.716 217.332 387.87Z" fill="white"/>
<path d="M222.3 394.435C222.877 394.688 223.481 394.871 224.1 394.98C225.261 395.261 226.872 395.634 228.645 396.015C230.418 396.397 232.047 396.705 233.226 396.923C233.856 397.083 234.503 397.162 235.152 397.159C234.554 396.905 233.929 396.719 233.289 396.605C232.137 396.315 230.526 395.942 228.744 395.57C226.962 395.198 225.342 394.871 224.172 394.662C223.559 394.511 222.931 394.434 222.3 394.435Z" fill="white"/>
<path d="M409.5 313.051C409.5 313.051 412.983 334.789 409.455 348.654L375.399 347.918C375.399 347.918 382.365 325.781 377.946 314.713L409.5 313.051Z" fill="#EBEBEB"/>
<path d="M409.347 312.234C409.347 312.234 409.122 339.574 407.745 347.918L373.752 346.293C373.752 346.293 376.731 319.416 375.552 312.234H409.347Z" fill="#455A64"/>
<path d="M380.376 324.401C380.376 324.528 385.488 324.637 391.797 324.646C398.106 324.655 403.227 324.565 403.227 324.437C403.227 324.31 398.115 324.201 391.797 324.192C385.479 324.183 380.376 324.274 380.376 324.401Z" fill="white"/>
<path d="M380.7 330.185C380.7 330.312 385.812 330.421 392.121 330.43C398.43 330.439 403.551 330.349 403.551 330.221C403.551 330.094 398.439 329.985 392.121 329.976C385.803 329.967 380.7 330.058 380.7 330.185Z" fill="white"/>
<path d="M386.793 335.515C387.42 335.651 388.06 335.709 388.701 335.688C389.88 335.688 391.509 335.751 393.309 335.76C395.109 335.769 396.729 335.76 397.908 335.697C398.548 335.723 399.188 335.671 399.816 335.542C399.189 335.407 398.548 335.352 397.908 335.379C396.729 335.333 395.109 335.306 393.309 335.297C391.509 335.288 389.88 335.297 388.701 335.361C388.061 335.335 387.421 335.387 386.793 335.515Z" fill="white"/>
<path d="M416.7 250.372C410.346 250.372 403.947 246.349 400.581 240.021C397.309 233.719 396.295 226.47 397.71 219.5C399.573 210.42 405.531 202.974 412.893 200.595C419.148 198.571 430.326 199.687 435.6 208.595C438.112 212.951 439.36 217.931 439.2 222.968C439.176 223.326 439.083 223.676 438.926 223.997C438.768 224.318 438.549 224.605 438.282 224.841C438.015 225.078 437.704 225.258 437.367 225.373C437.03 225.488 436.675 225.535 436.32 225.511C435.604 225.463 434.936 225.13 434.464 224.585C433.991 224.04 433.752 223.328 433.8 222.605C433.849 218.673 432.848 214.799 430.902 211.391C426.834 204.536 417.915 204.672 414.477 205.78C408.177 207.814 404.145 214.688 402.93 220.599C401.763 226.321 402.593 232.275 405.279 237.451C407.934 242.445 413.307 245.55 418.068 244.815C418.771 244.716 419.484 244.901 420.053 245.328C420.622 245.756 421.001 246.392 421.109 247.1C421.217 247.807 421.044 248.529 420.628 249.109C420.212 249.689 419.587 250.081 418.887 250.199C418.163 250.313 417.432 250.37 416.7 250.372Z" fill="#263238"/>
<path d="M242.388 250.372C236.025 250.372 229.635 246.349 226.269 240.021C222.994 233.72 221.976 226.471 223.389 219.5C224.964 211.836 230.292 203.011 238.689 200.577C242.738 199.471 247.03 199.69 250.947 201.204L249.003 206.289C246.184 205.208 243.101 205.04 240.183 205.807C233.991 207.623 229.959 214.542 228.717 220.599C227.55 226.321 228.38 232.275 231.066 237.451C233.721 242.454 239.103 245.55 243.855 244.815L244.674 250.199C243.918 250.317 243.153 250.375 242.388 250.372Z" fill="#263238"/>
<path d="M414.477 223.105L411.993 236.825H448.542L451.791 223.241L414.477 223.105Z" fill="#3559AE"/>
<path d="M251.649 248.202C251.651 249.363 251.311 250.498 250.673 251.464C250.035 252.43 249.127 253.183 248.064 253.628C247.001 254.073 245.832 254.19 244.703 253.964C243.574 253.738 242.538 253.179 241.724 252.359C240.91 251.538 240.356 250.492 240.132 249.353C239.908 248.214 240.024 247.034 240.465 245.962C240.906 244.89 241.653 243.974 242.611 243.33C243.568 242.686 244.693 242.343 245.844 242.345C247.383 242.348 248.858 242.965 249.946 244.063C251.034 245.161 251.647 246.649 251.649 248.202Z" fill="#263238"/>
<path d="M425.808 248.202C425.81 249.363 425.47 250.498 424.832 251.464C424.194 252.43 423.286 253.183 422.223 253.628C421.16 254.073 419.991 254.19 418.862 253.964C417.733 253.738 416.696 253.179 415.883 252.359C415.069 251.538 414.515 250.492 414.291 249.353C414.067 248.214 414.183 247.034 414.624 245.962C415.065 244.89 415.812 243.974 416.769 243.33C417.727 242.686 418.852 242.343 420.003 242.345C421.542 242.348 423.017 242.965 424.105 244.063C425.193 245.161 425.806 246.649 425.808 248.202Z" fill="#263238"/>
<path d="M329.895 134.675L320.337 171.249L287.343 174.826V180.728L333.702 182.372L342.414 141.339L329.895 134.675Z" fill="#FFBE9D"/>
<path d="M343.8 183.343C343.8 183.343 292.248 180.865 277.569 192.423C262.89 203.982 270 222.959 270 222.959L352.962 222.741L360.288 180.311L343.8 183.343Z" fill="#263238"/>
<path d="M352.575 211.337C352.325 211.343 352.075 211.325 351.828 211.283C351.342 211.228 350.631 211.155 349.713 211.037C347.913 210.81 345.213 210.429 341.973 209.875C333.466 208.415 325.052 206.454 316.773 204C311.931 202.557 307.35 201.104 303.12 200.041C299.386 199.067 295.567 198.458 291.717 198.225C289.119 198.079 286.514 198.231 283.95 198.679C283.05 198.788 282.357 199.025 281.871 199.106C281.631 199.166 281.388 199.212 281.142 199.242C281.371 199.143 281.609 199.067 281.853 199.015C282.53 198.803 283.218 198.63 283.914 198.498C286.484 197.974 289.107 197.77 291.726 197.89C295.632 198.077 299.509 198.658 303.3 199.624C307.557 200.659 312.147 202.112 316.971 203.555C325.205 205.988 333.56 207.985 342 209.539C345.249 210.138 347.886 210.565 349.713 210.856L351.819 211.192C352.075 211.219 352.328 211.267 352.575 211.337Z" fill="#455A64"/>
<path d="M304.659 199.76C303.227 198.568 301.701 197.496 300.096 196.555C298.414 195.761 296.671 195.105 294.885 194.593C295.439 194.545 295.998 194.6 296.532 194.757C297.848 195.043 299.12 195.507 300.312 196.137C301.503 196.771 302.604 197.562 303.588 198.489C304.02 198.842 304.383 199.273 304.659 199.76Z" fill="#455A64"/>
<path d="M349.263 296.398L349.956 318.254L345.6 335.706C345.529 336.005 345.52 336.315 345.574 336.618C345.628 336.92 345.742 337.208 345.911 337.464C346.08 337.719 346.3 337.937 346.556 338.103C346.812 338.27 347.099 338.381 347.4 338.43C347.748 338.494 348.106 338.473 348.444 338.369C348.783 338.264 349.091 338.08 349.344 337.83C352.62 334.598 364.644 322.649 364.491 321.06C364.329 319.244 365.274 297.942 365.274 297.942L349.263 296.398Z" fill="#3559AE"/>
<g opacity="0.6">
<path d="M347.319 338.466L364.419 319.616V320.524C364.429 321.326 364.155 322.106 363.645 322.721C362.286 324.365 358.425 328.823 349.344 337.849C349.084 338.108 348.765 338.298 348.415 338.403C348.065 338.507 347.695 338.523 347.337 338.448L347.319 338.466Z" fill="white"/>
</g>
<g opacity="0.6">
<path d="M359.883 312.597C359.609 312.8 359.42 313.099 359.355 313.436C359.29 313.772 359.353 314.121 359.532 314.413C359.722 314.685 360.007 314.874 360.329 314.942C360.652 315.009 360.988 314.95 361.269 314.776C361.551 314.565 361.745 314.255 361.811 313.907C361.878 313.559 361.813 313.199 361.629 312.897C361.405 312.631 361.087 312.463 360.743 312.429C360.399 312.395 360.055 312.498 359.784 312.715" fill="white"/>
</g>
<path d="M352.188 328.859C352.062 328.923 351.558 327.788 350.271 327.18C349.475 326.864 348.624 326.71 347.769 326.726C347.769 326.671 348.021 326.499 348.525 326.417C349.193 326.335 349.87 326.448 350.476 326.743C351.082 327.037 351.592 327.501 351.945 328.079C352.197 328.523 352.233 328.841 352.188 328.859Z" fill="#263238"/>
<path d="M350.667 331.81C350.045 331.468 349.401 331.164 348.741 330.902C348.038 330.777 347.329 330.693 346.617 330.648C346.948 330.434 347.325 330.303 347.717 330.266C348.109 330.23 348.503 330.289 348.867 330.439C350.145 330.784 350.775 331.747 350.667 331.81Z" fill="#263238"/>
<path d="M355.023 325.064C354.104 324.452 353.141 323.909 352.143 323.439C351.089 323.114 350.012 322.871 348.921 322.712C350.055 322.473 351.233 322.567 352.314 322.984C353.396 323.401 354.337 324.123 355.023 325.064Z" fill="#263238"/>
<path d="M355.365 318.417C355.311 318.554 354.105 318.054 352.548 318.018C350.991 317.982 349.758 318.363 349.704 318.227C350.577 317.741 351.564 317.503 352.561 317.536C353.557 317.57 354.526 317.874 355.365 318.417Z" fill="#263238"/>
<path d="M355.32 311.998C354.372 311.697 353.388 311.529 352.395 311.498C351.411 311.614 350.448 311.868 349.533 312.252C349.533 312.207 349.731 311.925 350.226 311.635C350.889 311.257 351.63 311.043 352.391 311.01C353.151 310.977 353.908 311.126 354.6 311.444C355.095 311.689 355.356 311.943 355.32 311.998Z" fill="#263238"/>
<path d="M352.422 310.273C352.366 310 352.366 309.719 352.422 309.446C352.489 308.687 352.707 307.949 353.061 307.276C353.272 306.758 353.649 306.326 354.132 306.05C354.299 305.975 354.486 305.953 354.666 305.987C354.846 306.021 355.011 306.11 355.14 306.241C355.372 306.514 355.497 306.863 355.491 307.222C355.449 307.954 355.156 308.648 354.664 309.188C354.172 309.727 353.511 310.078 352.791 310.182C352.073 310.262 351.348 310.126 350.707 309.79C350.066 309.453 349.538 308.933 349.191 308.293C349.104 308.132 349.052 307.953 349.04 307.77C349.027 307.587 349.054 307.403 349.119 307.231C349.203 307.068 349.335 306.935 349.495 306.849C349.656 306.764 349.838 306.729 350.019 306.75C350.554 306.865 351.05 307.118 351.459 307.485C352.05 307.957 352.555 308.528 352.953 309.174C353.112 309.402 353.228 309.657 353.295 309.928C352.723 309.107 352.035 308.376 351.252 307.758C350.887 307.455 350.455 307.246 349.992 307.149C349.892 307.132 349.79 307.147 349.699 307.193C349.608 307.239 349.534 307.313 349.488 307.403C349.456 307.52 349.448 307.642 349.463 307.762C349.479 307.882 349.518 307.998 349.578 308.103C349.894 308.644 350.357 309.082 350.912 309.365C351.467 309.648 352.091 309.765 352.71 309.701C353.324 309.622 353.892 309.332 354.32 308.881C354.747 308.43 355.008 307.844 355.059 307.222C355.071 306.973 354.994 306.728 354.843 306.532C354.775 306.454 354.684 306.401 354.584 306.379C354.483 306.358 354.378 306.37 354.285 306.414C353.89 306.657 353.577 307.015 353.385 307.44C352.906 308.322 352.581 309.28 352.422 310.273Z" fill="#263238"/>
<path d="M360.243 180.311C360.243 180.311 337.95 222.832 337.644 230.251C337.338 237.669 337.644 306.05 337.644 306.05H372.15C373.05 306.05 378.225 275.242 377.172 268.151C376.119 261.059 372.402 222.941 372.402 222.941H392.256C392.256 222.941 397.701 217.066 397.503 209.612C397.386 205.499 394.722 197.09 392.103 192.632C390.402 189.772 379.503 174.799 379.503 174.799L360.243 180.311Z" fill="#263238"/>
<path d="M358.749 183.189C358.725 183.274 358.692 183.356 358.65 183.434C358.569 183.616 358.461 183.843 358.326 184.124L357.03 186.776C356.445 187.929 355.752 189.327 354.942 190.952L353.646 193.558L352.287 196.528L345.6 211.137C344.331 213.861 342.999 216.776 341.613 219.763L339.516 224.303C338.838 225.873 338.326 227.51 337.986 229.188C337.644 230.871 337.466 232.583 337.455 234.3C337.401 235.998 337.365 237.678 337.338 239.322C337.338 242.627 337.275 245.805 337.284 248.837C337.284 254.903 337.356 260.369 337.419 264.954C337.482 269.54 337.536 273.217 337.581 275.85C337.581 277.103 337.581 278.093 337.581 278.801C337.581 279.119 337.581 279.373 337.581 279.573C337.581 279.773 337.581 279.837 337.581 279.837C337.566 279.749 337.566 279.66 337.581 279.573C337.581 279.373 337.581 279.119 337.581 278.81C337.581 278.093 337.509 277.112 337.455 275.85C337.365 273.29 337.248 269.576 337.149 264.954C337.05 260.333 336.942 254.912 336.915 248.837C336.915 245.805 336.915 242.618 336.915 239.322C336.915 237.669 336.969 235.989 337.032 234.282C337.041 232.538 337.219 230.798 337.563 229.088C337.912 227.379 338.436 225.712 339.129 224.113L341.235 219.573L345.249 210.965L352.071 196.391L353.457 193.431C353.934 192.523 354.357 191.615 354.789 190.843L356.94 186.703C357.525 185.586 357.993 184.714 358.317 184.088C358.47 183.816 358.596 183.598 358.686 183.416C358.776 183.234 358.74 183.18 358.749 183.189Z" fill="#455A64"/>
<path d="M351.531 197.672C350.816 195.943 350.214 194.169 349.731 192.36C349.099 190.599 348.585 188.797 348.192 186.966C349.031 188.645 349.695 190.407 350.172 192.224C350.809 193.988 351.265 195.813 351.531 197.672Z" fill="#455A64"/>
<path d="M377.244 266.816C377.187 266.661 377.15 266.499 377.136 266.335C377.094 265.965 377.031 265.502 376.947 264.945C376.785 263.665 376.578 261.922 376.317 259.806C375.822 255.411 375.156 249.446 374.418 242.854C373.68 236.262 373.077 230.223 372.708 225.874C372.537 223.749 372.393 222.006 372.285 220.726C372.285 220.154 372.213 219.691 372.186 219.318C372.174 219.155 372.174 218.991 372.186 218.828C372.243 218.983 372.276 219.145 372.285 219.309C372.33 219.682 372.393 220.145 372.465 220.708C372.609 221.988 372.807 223.722 373.041 225.847C373.518 230.242 374.166 236.216 374.841 242.808C375.516 249.4 376.155 255.366 376.641 259.77C376.839 261.894 377.01 263.638 377.127 264.918C377.172 265.481 377.208 265.953 377.235 266.325C377.252 266.488 377.255 266.652 377.244 266.816Z" fill="#455A64"/>
<path d="M368.478 66.4293C367.947 62.7973 371.034 59.3015 374.598 58.8747C378.162 58.448 381.753 60.6907 383.391 63.9686C384.154 65.6171 384.571 67.4064 384.617 69.2248C384.664 71.0432 384.338 72.8518 383.661 74.5377C382.761 76.835 381.096 79.1594 378.675 79.341C376.254 79.5226 374.4 77.6613 372.798 75.9451" fill="#263238"/>
<path d="M343.143 84.444C335.943 68.5268 353.043 60.5273 362.34 63.1786C371.088 65.6756 374.823 70.0704 376.263 75.9724C377.84 81.8937 377.525 88.1661 375.363 93.8963C374.229 96.6748 372.195 99.4896 369.243 99.8346" fill="#263238"/>
<path d="M367.92 72.0135C368.661 72.0909 369.345 72.4469 369.837 73.0106C370.329 73.5743 370.593 74.3044 370.575 75.0553L368.892 115.57C368.829 120.355 361.908 123.061 356.823 122.952C351.702 122.843 351.531 120.301 351.423 115.752C351.306 108.152 351.306 105.292 351.306 105.337C351.306 105.382 344.826 104.247 343.485 95.7214C342.81 91.481 343.026 84.5257 343.377 78.8417C343.701 73.7296 347.058 67.4463 352.116 67.9457L367.92 72.0135Z" fill="#FFBE9D"/>
<path d="M346.689 83.6904C346.684 83.9763 346.791 84.2527 346.986 84.4599C347.182 84.6672 347.45 84.7886 347.733 84.7981C347.871 84.8092 348.01 84.7922 348.142 84.7482C348.273 84.7041 348.395 84.6338 348.499 84.5415C348.603 84.4492 348.687 84.3367 348.748 84.2108C348.808 84.0849 348.842 83.948 348.849 83.8084C348.852 83.5231 348.744 83.2481 348.549 83.0413C348.355 82.8346 348.088 82.7124 347.805 82.7006C347.667 82.6895 347.528 82.7065 347.397 82.7506C347.265 82.7947 347.144 82.865 347.04 82.9573C346.935 83.0496 346.851 83.162 346.791 83.2879C346.73 83.4139 346.696 83.5507 346.689 83.6904Z" fill="#263238"/>
<path d="M344.898 82.4646C345.033 82.6008 345.861 81.9924 347.022 81.9924C348.183 81.9924 349.047 82.5826 349.173 82.4373C349.299 82.292 349.101 82.1195 348.723 81.8471C348.218 81.4952 347.618 81.3082 347.004 81.3114C346.398 81.3055 345.807 81.5 345.321 81.8653C344.961 82.1377 344.835 82.401 344.898 82.4646Z" fill="#263238"/>
<path d="M358.092 83.6904C358.089 83.9697 358.192 84.2397 358.379 84.4455C358.566 84.6513 358.824 84.7774 359.1 84.7981C359.238 84.8092 359.377 84.7922 359.509 84.7482C359.64 84.7041 359.762 84.6338 359.866 84.5415C359.97 84.4492 360.054 84.3367 360.115 84.2108C360.175 84.0849 360.209 83.9481 360.216 83.8084C360.219 83.5232 360.111 83.2481 359.916 83.0413C359.722 82.8346 359.455 82.7124 359.172 82.7006C358.899 82.6883 358.632 82.7854 358.43 82.9709C358.228 83.1563 358.106 83.4149 358.092 83.6904Z" fill="#263238"/>
<path d="M356.4 82.6825C356.535 82.8187 357.354 82.2103 358.515 82.2103C359.676 82.2103 360.54 82.8005 360.666 82.6643C360.792 82.5281 360.594 82.3375 360.216 82.0651C359.712 81.7115 359.111 81.5243 358.497 81.5293C357.892 81.5293 357.303 81.7232 356.814 82.0832C356.4 82.3556 356.301 82.628 356.4 82.6825Z" fill="#263238"/>
<path d="M352.134 91.4084C351.52 91.2175 350.886 91.1016 350.244 91.0633C349.947 91.0633 349.659 90.9725 349.614 90.7728C349.586 90.4568 349.655 90.1397 349.812 89.8648C350.091 89.1384 350.379 88.3756 350.712 87.5766C351.528 85.638 352.19 83.6372 352.692 81.5929C351.717 83.4591 350.896 85.4027 350.235 87.4041L349.389 89.7104C349.203 90.0738 349.149 90.4914 349.236 90.8908C349.281 90.9963 349.349 91.0904 349.434 91.1658C349.52 91.2413 349.621 91.2963 349.731 91.3266C349.896 91.3706 350.065 91.395 350.235 91.3993C350.865 91.4815 351.503 91.4845 352.134 91.4084Z" fill="#263238"/>
<path d="M351.333 105.328C355.329 105.401 359.266 104.348 362.7 102.286C362.7 102.286 359.946 108.152 351.486 107.353L351.333 105.328Z" fill="#EB996E"/>
<path d="M352.629 94.2413C352.852 93.9615 353.141 93.7431 353.47 93.6066C353.799 93.47 354.157 93.4198 354.51 93.4604C354.769 93.4823 355.02 93.5572 355.249 93.6805C355.478 93.8039 355.68 93.9731 355.842 94.1778C355.997 94.3736 356.089 94.6127 356.105 94.8627C356.121 95.1127 356.061 95.3617 355.932 95.5761C355.745 95.7884 355.499 95.9391 355.227 96.0087C354.954 96.0783 354.667 96.0636 354.402 95.9665C353.848 95.7697 353.34 95.4607 352.908 95.0585C352.777 94.9647 352.665 94.8478 352.575 94.7135C352.533 94.6486 352.511 94.5729 352.511 94.4956C352.511 94.4182 352.533 94.3425 352.575 94.2776" fill="#EB996E"/>
<path d="M355.572 92.2256C355.383 92.2256 355.374 93.4877 354.294 94.3957C353.214 95.3037 351.864 95.1584 351.855 95.3037C351.846 95.449 352.152 95.5488 352.755 95.567C353.498 95.5756 354.221 95.3219 354.798 94.8497C355.347 94.3946 355.701 93.7446 355.788 93.0337C355.797 92.5343 355.653 92.2165 355.572 92.2256Z" fill="#263238"/>
<path d="M355.842 80.6213C355.959 80.9391 357.129 80.7848 358.497 80.9573C359.865 81.1298 360.972 81.493 361.152 81.2115C361.233 81.0753 361.035 80.7757 360.594 80.4579C360.001 80.0731 359.325 79.8365 358.623 79.7678C357.924 79.6797 357.213 79.7638 356.553 80.013C356.049 80.2127 355.797 80.467 355.842 80.6213Z" fill="#263238"/>
<path d="M345.33 79.0505C345.537 79.3229 346.338 79.0505 347.31 79.0505C348.282 79.0505 349.11 79.2321 349.281 78.9506C349.362 78.8144 349.281 78.542 348.876 78.2969C348.402 77.9823 347.841 77.8267 347.274 77.8519C346.707 77.8638 346.157 78.0507 345.699 78.3877C345.357 78.651 345.24 78.9234 345.33 79.0505Z" fill="#263238"/>
<path d="M356.337 65.149C353.468 65.2966 350.683 66.171 348.237 67.6914C346.866 68.4084 345.649 69.3908 344.654 70.5827C343.66 71.7745 342.908 73.1524 342.441 74.6376C342.323 74.9465 342.268 75.2766 342.28 75.6076C342.293 75.9386 342.372 76.2635 342.513 76.5626C342.781 76.9046 343.158 77.1416 343.58 77.2328C344.003 77.3239 344.443 77.2635 344.826 77.062C345.589 76.6435 346.239 76.0416 346.716 75.3095C346.906 76.11 347.361 76.8216 348.004 77.3276C348.648 77.8336 349.443 78.104 350.258 78.0945C351.074 78.085 351.863 77.7961 352.495 77.2753C353.127 76.7545 353.564 76.0325 353.736 75.2278C353.801 76.0458 354.175 76.8072 354.782 77.3535C355.389 77.8998 356.181 78.1889 356.994 78.1607C357.805 78.0898 358.578 77.7814 359.218 77.2732C359.857 76.765 360.336 76.0793 360.594 75.3005C360.793 76.7769 361.299 78.1942 362.079 79.4591C362.479 80.0869 363.06 80.5754 363.744 80.858C364.429 81.1407 365.183 81.2039 365.904 81.039C365.602 82.2943 365.62 83.6065 365.958 84.8526C366.408 86.0512 368.199 106.563 369.405 106.145C370.611 105.728 370.566 84.8072 370.836 83.5905C371.435 81.2566 371.737 78.8554 371.736 76.4445C371.817 73.9609 371.019 71.5294 369.485 69.5848C367.952 67.6402 365.783 66.3093 363.366 65.83C360.953 65.2716 358.477 65.0426 356.004 65.149" fill="#263238"/>
<path d="M373.275 102.504C373.275 102.504 373.194 102.559 373.014 102.622C372.761 102.716 372.498 102.78 372.231 102.813C370.98 102.973 369.709 102.772 368.566 102.231C367.424 101.691 366.457 100.835 365.778 99.762C364.858 98.1455 364.47 96.276 364.671 94.4229C364.806 92.4707 365.256 90.6911 365.463 89.0567C365.667 87.6057 365.793 86.1447 365.841 84.6801C365.841 83.4271 365.841 82.4192 365.841 81.7109C365.802 81.3488 365.802 80.9835 365.841 80.6213C365.948 80.9785 366.012 81.3474 366.03 81.72C366.129 82.7127 366.177 83.7097 366.174 84.7073C366.172 86.1857 366.079 87.6626 365.895 89.1293C365.697 90.8 365.274 92.5888 365.139 94.4683C364.947 96.2276 365.299 98.0038 366.147 99.5531C366.887 100.787 368.024 101.726 369.369 102.214C370.272 102.561 371.239 102.71 372.204 102.649C372.897 102.604 373.266 102.459 373.275 102.504Z" fill="#263238"/>
<path d="M353.358 64.0503C353.685 64.6721 353.838 65.3723 353.799 66.0752C353.831 67.7957 353.185 69.4589 352.005 70.701C350.824 71.943 349.204 72.6631 347.499 72.7036C346.807 72.7705 346.11 72.6449 345.483 72.3404C345.483 72.2586 346.257 72.4766 347.481 72.3404C349.081 72.2308 350.583 71.5251 351.696 70.3605C352.808 69.196 353.452 67.6556 353.502 66.0388C353.529 64.8312 353.277 64.0685 353.358 64.0503Z" fill="#455A64"/>
<path d="M354.6 74.0928C354.645 74.0928 354.537 74.6739 353.889 75.3095C353.459 75.6998 352.955 75.9983 352.407 76.1871C351.86 76.3759 351.28 76.4511 350.703 76.4082C349.572 76.3064 348.482 75.9294 347.526 75.3095C346.797 74.8465 346.401 74.4923 346.437 74.4015C346.873 74.5399 347.29 74.7321 347.679 74.9736C348.629 75.4715 349.665 75.7798 350.73 75.8816C351.787 75.9444 352.832 75.6222 353.673 74.9736C354.33 74.5559 354.546 74.0565 354.6 74.0928Z" fill="#455A64"/>
<path d="M374.985 71.4868C375.045 72.2685 374.991 73.0548 374.823 73.8204C374.568 75.717 373.858 77.5219 372.753 79.0777C372.176 79.8493 371.449 80.4937 370.617 80.9715C369.784 81.4493 368.863 81.7504 367.911 81.8562C367.332 81.9088 366.749 81.8502 366.192 81.6837C365.805 81.5656 365.616 81.4476 365.625 81.4204C366.367 81.5544 367.124 81.5879 367.875 81.5202C369.665 81.227 371.276 80.252 372.375 78.7962C373.429 77.2919 374.151 75.5763 374.49 73.7659C374.608 72.9966 374.774 72.2355 374.985 71.4868Z" fill="#455A64"/>
<path d="M376.533 75.6182C376.616 75.8517 376.661 76.0969 376.668 76.3447C376.729 77.0056 376.744 77.6701 376.713 78.3332C376.666 80.5675 375.873 82.7204 374.463 84.444C373.667 85.3917 372.631 86.104 371.466 86.5052C370.511 86.8206 369.491 86.8831 368.505 86.6868C367.843 86.5592 367.214 86.2932 366.66 85.9059C366.282 85.6244 366.12 85.4156 366.138 85.3974C366.877 85.8714 367.699 86.1981 368.559 86.3599C369.488 86.4945 370.435 86.4042 371.322 86.0966C372.403 85.6941 373.363 85.0189 374.112 84.1353C375.449 82.4755 376.244 80.4394 376.389 78.3059C376.533 76.6624 376.452 75.6273 376.533 75.6182Z" fill="#455A64"/>
<path d="M257.904 185.368L241.569 223.059H264.06L280.08 185.069L257.904 185.368Z" fill="#455A64"/>
<path d="M246.024 145.28L264.447 181.836H322.551L320.202 177.06L303.372 176.552L289.647 145.734C289.23 144.795 288.553 143.998 287.697 143.439C286.841 142.88 285.843 142.583 284.823 142.583H247.662C247.343 142.572 247.027 142.646 246.746 142.798C246.465 142.95 246.229 143.175 246.063 143.449C245.896 143.724 245.805 144.038 245.798 144.359C245.791 144.681 245.869 144.999 246.024 145.28Z" fill="#E0E0E0"/>
<path d="M275.121 161.669C275.121 162.113 274.991 162.547 274.746 162.915C274.502 163.284 274.155 163.572 273.749 163.741C273.343 163.911 272.896 163.956 272.464 163.869C272.033 163.783 271.637 163.569 271.326 163.255C271.015 162.942 270.804 162.542 270.718 162.107C270.632 161.672 270.676 161.221 270.844 160.811C271.013 160.401 271.297 160.051 271.663 159.805C272.029 159.558 272.458 159.427 272.898 159.427C273.487 159.429 274.051 159.666 274.467 160.086C274.884 160.506 275.119 161.075 275.121 161.669Z" fill="#263238"/>
<path d="M328.743 181.909H257.715V185.405H328.743V181.909Z" fill="#455A64"/>
<path d="M306.864 183.661L328.473 223.096H338.805L341.055 218.583L343.125 213.834L328.743 185.405L306.864 183.661Z" fill="#455A64"/>
<path d="M344.412 116.051C344.412 116.051 331.866 120.51 329.166 134.675L342.414 141.339L344.412 116.051Z" fill="#3559AE"/>
<path d="M344.412 116.051C344.412 116.051 335.637 135.9 335.97 146.742C336.087 150.51 338.535 160.362 338.535 160.362L343.098 184.751C343.098 184.751 378.027 179.984 378.801 179.984C379.575 179.984 377.631 159.962 377.631 159.962L383.328 121.49C383.328 121.49 380.718 116.251 368.928 114.435C361.863 113.318 344.412 116.051 344.412 116.051Z" fill="#3559AE"/>
<path d="M341.1 127.574C341.181 127.619 340.263 129.099 339.156 131.66C338.514 133.159 337.973 134.7 337.536 136.273C337.01 138.199 336.628 140.163 336.393 142.147C336.186 144.135 336.123 146.135 336.204 148.131C336.286 149.761 336.475 151.384 336.771 152.989C337.275 155.713 337.851 157.384 337.761 157.411C337.572 157.049 337.422 156.669 337.311 156.276C337.15 155.826 337.012 155.369 336.897 154.905C336.753 154.36 336.564 153.752 336.438 153.089C336.1 151.473 335.878 149.834 335.772 148.186C335.664 146.163 335.716 144.135 335.925 142.12C336.165 140.108 336.565 138.119 337.122 136.173C337.585 134.59 338.165 133.045 338.859 131.551C339.112 130.971 339.394 130.404 339.705 129.853C339.92 129.426 340.158 129.011 340.416 128.609C340.609 128.242 340.838 127.895 341.1 127.574Z" fill="#263238"/>
<path d="M348.66 115.87L349.164 110.422C349.219 109.856 349.479 109.33 349.894 108.945C350.309 108.559 350.85 108.342 351.414 108.333L368.649 108.07C369.172 108.064 369.677 108.258 370.064 108.614C370.45 108.97 370.687 109.46 370.728 109.986L371.169 115.861C369.726 118.946 367.286 121.444 364.248 122.943C359.181 125.422 351.306 125.504 351.306 125.504L348.66 115.87Z" fill="#3559AE"/>
<path d="M353.169 108.379C353.223 108.379 352.971 108.733 352.863 109.287C352.766 110.089 352.766 110.9 352.863 111.702C353.014 112.872 353.014 114.056 352.863 115.225C352.553 114.086 352.396 112.911 352.395 111.729C352.275 110.889 352.311 110.032 352.503 109.205C352.8 108.579 353.142 108.333 353.169 108.379Z" fill="#263238"/>
<path d="M357.3 115.116C356.999 114.004 356.854 112.855 356.868 111.702C356.801 110.886 356.801 110.066 356.868 109.251C356.958 108.597 357.219 108.261 357.273 108.343C357.327 108.424 357.192 108.724 357.201 109.323C357.21 109.922 357.3 110.776 357.3 111.684C357.451 112.823 357.451 113.977 357.3 115.116Z" fill="#263238"/>
<path d="M362.475 114.971C362.103 113.911 361.876 112.806 361.8 111.684C361.578 110.573 361.508 109.436 361.593 108.306C361.969 109.374 362.197 110.489 362.268 111.62C362.487 112.723 362.557 113.85 362.475 114.971Z" fill="#263238"/>
<path d="M366.939 115.316C366.528 114.149 366.309 112.922 366.291 111.684C366.118 110.45 366.149 109.195 366.381 107.97C366.617 109.167 366.743 110.383 366.759 111.602C366.934 112.832 366.994 114.075 366.939 115.316Z" fill="#263238"/>
<g opacity="0.3">
<path d="M370.359 136.118C369.666 142.229 370.125 152.762 372.267 158.528L382.329 141.757L370.359 136.118Z" fill="black"/>
</g>
<path d="M382.392 120.228L382.446 120.283C385.299 123.304 387.387 126.977 388.53 130.988L390.384 139.514L370.584 142.601C369.494 138.985 369.236 135.165 369.828 131.433C370.8 125.004 382.392 120.228 382.392 120.228Z" fill="#3559AE"/>
<path d="M390.384 139.514C390.255 139.56 390.123 139.593 389.988 139.614L388.854 139.823L384.615 140.522L370.269 142.719H370.017V142.456C369.972 141.248 369.936 139.995 369.909 138.706C369.864 135.356 369.909 132.15 370.107 129.236C370.244 126.624 371.037 124.09 372.411 121.872C373.334 120.38 374.6 119.134 376.101 118.24C376.506 117.997 376.934 117.796 377.379 117.64C377.527 117.572 377.685 117.526 377.847 117.504C377.847 117.504 377.217 117.749 376.191 118.412C374.763 119.335 373.565 120.578 372.69 122.044C371.386 124.248 370.644 126.744 370.53 129.308C370.323 132.196 370.332 135.392 370.386 138.742C370.386 140.014 370.449 141.276 370.476 142.474L370.215 142.247L384.615 140.204L388.872 139.65L390.024 139.514C390.144 139.499 390.265 139.499 390.384 139.514Z" fill="#263238"/>
<path d="M348.561 126.993C347.553 126.401 346.627 125.677 345.807 124.841C344.883 124.121 344.059 123.278 343.359 122.335C345.291 123.646 347.041 125.213 348.561 126.993Z" fill="#FAFAFA"/>
<path d="M345.888 137.498C345.182 138.23 344.365 138.843 343.467 139.314C342.643 139.917 341.733 140.389 340.767 140.713C342.295 139.388 344.016 138.31 345.87 137.517L345.888 137.498Z" fill="#FAFAFA"/>
<path d="M356.931 140.086C356.771 138.796 356.771 137.49 356.931 136.2C356.937 134.903 357.095 133.611 357.399 132.35C357.556 133.638 357.556 134.94 357.399 136.227C357.396 137.528 357.239 138.823 356.931 140.086Z" fill="#FAFAFA"/>
<path d="M367.668 150.592C366.772 149.744 365.936 148.833 365.166 147.868C364.281 147.017 363.454 146.107 362.691 145.144C363.771 145.776 364.726 146.604 365.508 147.586C366.399 148.451 367.13 149.469 367.668 150.592Z" fill="#FAFAFA"/>
<path d="M369.18 128.627C368.408 129.438 367.526 130.135 366.561 130.698C365.678 131.384 364.706 131.946 363.672 132.368C364.447 131.556 365.331 130.859 366.3 130.298C367.183 129.615 368.151 129.054 369.18 128.627Z" fill="#FAFAFA"/>
<path d="M359.478 120.682C358.624 121.521 357.661 122.238 356.616 122.816C355.658 123.532 354.611 124.118 353.502 124.559C354.357 123.72 355.32 122.999 356.364 122.417C357.326 121.71 358.373 121.127 359.478 120.682Z" fill="#FAFAFA"/>
<path d="M368.226 123.842C367.636 122.963 367.176 122.003 366.858 120.991C366.415 120.029 366.112 119.008 365.958 117.958C366.555 118.836 367.016 119.801 367.326 120.818C367.774 121.775 368.078 122.795 368.226 123.842Z" fill="#FAFAFA"/>
<path d="M380.259 127.828C378.82 126.821 377.571 125.564 376.569 124.115C377.331 124.554 378.011 125.126 378.576 125.803C379.254 126.37 379.824 127.056 380.259 127.828Z" fill="#FAFAFA"/>
<path d="M375.3 136.681C375.014 135.784 374.883 134.844 374.913 133.903C374.779 132.973 374.806 132.027 374.994 131.106C375.408 132.934 375.511 134.819 375.3 136.681Z" fill="#FAFAFA"/>
<path d="M385.299 134.847C384.252 135.015 383.182 134.978 382.149 134.738C381.095 134.651 380.066 134.365 379.116 133.894C380.162 133.905 381.203 134.033 382.221 134.275C383.264 134.355 384.296 134.546 385.299 134.847Z" fill="#FAFAFA"/>
<path d="M344.979 153.143C344.245 152.118 343.64 151.005 343.179 149.829C342.576 148.72 342.11 147.539 341.793 146.315C342.527 147.34 343.132 148.454 343.593 149.629C344.198 150.738 344.664 151.918 344.979 153.143Z" fill="#FAFAFA"/>
<path d="M358.2 167.472C357.354 166.696 356.619 165.807 356.013 164.829C355.29 163.937 354.685 162.955 354.213 161.905C355.061 162.682 355.799 163.57 356.409 164.548C357.135 165.435 357.738 166.419 358.2 167.472Z" fill="#FAFAFA"/>
<path d="M369.126 161.461C368.2 162.07 367.194 162.547 366.138 162.877C365.137 163.354 364.073 163.681 362.979 163.849C364.904 162.76 366.974 161.956 369.126 161.461Z" fill="#FAFAFA"/>
<path d="M342.207 173.065C342.639 171.352 343.367 169.729 344.358 168.271C344.206 169.15 343.901 169.995 343.458 170.768C343.178 171.601 342.754 172.379 342.207 173.065Z" fill="#FAFAFA"/>
<path d="M333.738 132.032C333.218 131.367 332.905 130.561 332.838 129.717C332.626 128.898 332.664 128.035 332.946 127.238C333.131 128.026 333.252 128.827 333.306 129.635C333.514 130.421 333.659 131.223 333.738 132.032Z" fill="#FAFAFA"/>
<path d="M348.777 163.876C347.816 163.62 346.904 163.206 346.077 162.65C345.181 162.239 344.354 161.688 343.629 161.016C344.589 161.275 345.5 161.689 346.329 162.241C347.222 162.659 348.047 163.21 348.777 163.876Z" fill="#FAFAFA"/>
<path d="M357.462 148.749C355.986 150.532 354.272 152.099 352.368 153.407C353.051 152.467 353.856 151.624 354.762 150.901C355.561 150.062 356.469 149.338 357.462 148.749Z" fill="#FAFAFA"/>
<g opacity="0.3">
<path d="M352.143 148.467C352.579 151.632 353.979 154.583 356.148 156.911C358.398 159.127 361.881 160.244 364.806 159.091C365.126 159.002 365.419 158.837 365.662 158.609C365.905 158.382 366.09 158.098 366.201 157.783C366.251 157.396 366.165 157.003 365.96 156.672C365.755 156.341 365.443 156.092 365.076 155.967C364.347 155.731 363.583 155.62 362.817 155.64C360.635 155.496 358.525 154.791 356.688 153.593C354.852 152.395 353.349 150.743 352.323 148.794" fill="black"/>
</g>
<path d="M363.843 155.786C363.843 155.786 363.636 155.858 363.24 155.895C362.683 155.951 362.123 155.951 361.566 155.895C360.739 155.797 359.927 155.602 359.145 155.313C357.216 154.613 355.502 153.414 354.177 151.836C353.639 151.196 353.177 150.495 352.8 149.747C352.535 149.249 352.327 148.722 352.179 148.177C352.107 147.982 352.067 147.776 352.062 147.568C352.152 147.568 352.395 148.385 353.088 149.584C353.494 150.283 353.967 150.94 354.501 151.545C355.163 152.281 355.902 152.942 356.706 153.516C357.518 154.071 358.387 154.537 359.298 154.905C360.045 155.201 360.82 155.42 361.611 155.559C362.97 155.758 363.843 155.695 363.843 155.786Z" fill="#263238"/>
<path d="M314.298 170.423L327.33 168.888L336.519 174.963L371.619 166.464L372.447 142.202L388.044 140.132V169.505C387.957 173.071 386.471 176.457 383.914 178.92C381.356 181.383 377.935 182.722 374.4 182.644L322.956 181.2L320.769 176.788L309.726 176.452L314.298 170.423Z" fill="#FFBE9D"/>
<path d="M371.205 166.418C370.989 166.505 370.766 166.575 370.539 166.627L368.631 167.126L361.584 168.888L338.292 174.581L336.123 175.108H336.033H335.961L326.781 169.015H326.907L313.866 170.541L313.956 170.486L310.5 174.908L309.6 176.07C309.5 176.21 309.385 176.337 309.258 176.452C309.342 176.303 309.435 176.161 309.537 176.025L310.437 174.826L313.785 170.341H313.839L326.862 168.697H326.934H326.988L336.186 174.763H336.024L338.193 174.236L361.512 168.661L368.595 167.018L370.521 166.591C370.744 166.515 370.973 166.458 371.205 166.418Z" fill="#EB996E"/>
<path d="M321.417 174.191C319.736 174.389 318.042 174.456 316.35 174.39H315.45L315.576 174.345C314.558 175.289 313.459 176.14 312.291 176.887C313.219 175.854 314.23 174.901 315.315 174.036L315.369 173.982H316.368C318.054 173.912 319.743 173.982 321.417 174.191Z" fill="#EB996E"/>
<path d="M377.676 170.386C377.005 169.318 376.134 168.393 375.111 167.662C374.026 167.044 372.83 166.649 371.592 166.5C371.956 166.373 372.347 166.341 372.726 166.409C373.645 166.507 374.529 166.818 375.31 167.317C376.09 167.816 376.746 168.491 377.226 169.288C377.469 169.608 377.624 169.986 377.676 170.386Z" fill="#EB996E"/>
<path d="M152.595 364.353H93.8252V372.498H152.595V364.353Z" fill="#263238"/>
<path d="M152.694 372.607H93.7261V364.253H152.694V372.607ZM93.9241 372.398H152.496V364.453H93.9241V372.398Z" fill="#263238"/>
<path d="M99.2791 369.792L107.73 411.896H139.032L147.213 372.507L99.2791 369.792Z" fill="#263238"/>
<path d="M99.2791 407.91L103.788 414.175H141.831L147.213 407.91H99.2791Z" fill="#455A64"/>
<path d="M121.005 371.018C120.888 371.018 120.744 351.514 120.672 327.434C120.6 303.354 120.672 283.85 120.762 283.85C120.852 283.85 121.023 303.354 121.095 327.434C121.167 351.514 121.122 371.018 121.005 371.018Z" fill="#263238"/>
<path d="M134.1 322.204C134.061 322.36 134.007 322.512 133.938 322.658C133.803 322.994 133.623 323.411 133.416 323.92C133.299 324.201 133.173 324.501 133.029 324.828C132.885 325.155 132.777 325.545 132.642 325.936L132.183 327.207C132.03 327.661 131.904 328.115 131.751 328.66C131.053 331.044 130.503 333.47 130.104 335.924C129.652 338.933 129.352 341.964 129.204 345.004C128.991 350.535 129.148 356.074 129.672 361.584C129.861 363.708 130.05 365.416 130.194 366.596C130.248 367.15 130.302 367.604 130.338 367.958C130.35 368.118 130.35 368.279 130.338 368.439C130.281 368.287 130.245 368.129 130.23 367.967C130.167 367.613 130.095 367.168 130.005 366.623C129.816 365.443 129.573 363.736 129.348 361.62C128.736 356.098 128.54 350.537 128.763 344.986C128.896 341.929 129.197 338.883 129.663 335.86C130.079 333.401 130.663 330.974 131.409 328.596C131.571 328.088 131.706 327.597 131.868 327.152L132.354 325.881L132.786 324.783C132.93 324.447 133.074 324.156 133.2 323.875L133.803 322.64C133.878 322.479 133.979 322.332 134.1 322.204Z" fill="#263238"/>
<path d="M132.597 306.432C132.547 306.65 132.484 306.866 132.408 307.077C132.255 307.521 132.048 308.13 131.796 308.893L131.346 310.2C131.202 310.69 131.04 311.217 130.869 311.78C130.527 312.906 130.131 314.186 129.78 315.63L129.186 317.891C129.006 318.681 128.826 319.507 128.637 320.351C128.223 322.049 127.926 323.893 127.548 325.799C126.9 329.668 126.333 333.971 125.937 338.466C125.541 342.961 125.406 347.31 125.352 351.242C125.298 355.173 125.352 358.714 125.55 361.684C125.595 363.173 125.694 364.508 125.766 365.688C125.838 366.868 125.91 367.885 125.982 368.712C126.054 369.538 126.09 370.146 126.126 370.627C126.138 370.848 126.138 371.07 126.126 371.29C126.068 371.077 126.032 370.858 126.018 370.637C125.964 370.155 125.892 369.529 125.793 368.73C125.694 367.931 125.595 366.914 125.505 365.706C125.415 364.498 125.298 363.191 125.226 361.702C125.028 358.724 124.947 355.182 124.938 351.242C124.929 347.301 125.118 342.97 125.496 338.439C125.874 333.908 126.477 329.613 127.143 325.727C127.53 323.793 127.845 321.95 128.268 320.279C128.466 319.425 128.664 318.599 128.844 317.809L129.465 315.557C129.834 314.114 130.257 312.833 130.626 311.707C130.806 311.144 130.977 310.627 131.13 310.136C131.283 309.646 131.463 309.228 131.616 308.838L132.3 307.022C132.377 306.815 132.476 306.617 132.597 306.432Z" fill="#263238"/>
<path d="M117.288 374.468C117.279 374.393 117.279 374.317 117.288 374.241C117.288 374.069 117.288 373.851 117.234 373.569C117.189 372.952 117.135 372.089 117.063 370.991C116.919 368.712 116.721 365.479 116.469 361.484C115.965 353.466 115.227 342.416 113.886 330.203C113.202 324.102 112.41 318.318 111.582 313.069C111.15 310.454 110.754 307.966 110.295 305.642C109.836 303.317 109.395 301.165 109.035 299.195C108.675 297.225 108.216 295.463 107.865 293.911C107.514 292.358 107.199 291.014 106.965 289.924C106.731 288.835 106.506 288.018 106.353 287.409C106.299 287.146 106.245 286.928 106.209 286.755C106.195 286.68 106.195 286.603 106.209 286.528C106.246 286.597 106.273 286.67 106.29 286.746L106.47 287.391C106.641 287.99 106.866 288.826 107.163 289.888C107.46 290.95 107.811 292.294 108.18 293.856C108.549 295.418 108.999 297.17 109.404 299.141C109.809 301.111 110.304 303.254 110.718 305.578C111.132 307.903 111.618 310.391 112.05 313.015C112.896 318.263 113.697 324.056 114.381 330.149C115.722 342.352 116.415 353.439 116.847 361.466C117.063 365.488 117.216 368.73 117.306 370.982C117.306 372.08 117.378 372.943 117.396 373.569C117.396 373.842 117.396 374.069 117.396 374.241C117.372 374.322 117.335 374.398 117.288 374.468Z" fill="#263238"/>
<path d="M120.528 293.284C120.267 290.56 117.504 288.435 114.75 288.408C113.373 288.469 112.027 288.846 110.815 289.51C109.604 290.174 108.558 291.107 107.757 292.24C106.173 294.519 105.028 297.079 104.382 299.785C102.528 306.296 101.52 313.133 102.312 319.861C103.104 326.589 105.804 333.209 110.592 337.958C111.366 338.738 112.392 339.51 113.445 339.274C114.015 339.106 114.532 338.794 114.948 338.366C119.634 334.037 123.349 328.747 125.842 322.851C128.335 316.955 129.549 310.589 129.402 304.18C129.33 301.629 128.997 298.959 127.602 296.834C126.207 294.71 122.922 292.44 120.537 293.293" fill="#3559AE"/>
<path d="M99.9811 271.129L96.1111 278.211C96.0211 278.375 95.9041 278.565 95.7151 278.574C95.5261 278.583 95.3551 278.402 95.2471 278.229L85.0051 262.412L87.3631 261.059L99.9811 271.129Z" fill="#3559AE"/>
<g opacity="0.2">
<path d="M99.9811 271.129L96.1111 278.211C96.0211 278.375 95.9041 278.565 95.7151 278.574C95.5261 278.583 95.3551 278.402 95.2471 278.229L85.0051 262.412L87.3631 261.059L99.9811 271.129Z" fill="black"/>
</g>
<path d="M120.762 283.886L85.824 263.084C85.6251 263.007 85.4433 262.891 85.2888 262.743C85.1344 262.595 85.0104 262.418 84.924 262.221C84.789 261.704 85.176 261.195 85.545 260.805C87.949 258.291 90.8612 256.33 94.0836 255.053C97.306 253.776 100.763 253.214 104.22 253.405C107.675 253.655 111.018 254.751 113.96 256.597C116.902 258.444 119.354 260.985 121.104 264.001C124.47 270.076 124.587 278.12 120.717 283.886" fill="#3559AE"/>
<path d="M90.9001 256.446C91.0495 256.405 91.2043 256.386 91.3591 256.392C91.6561 256.392 92.1061 256.319 92.6821 256.328C94.3043 256.306 95.925 256.434 97.5241 256.71C99.9065 257.122 102.228 257.832 104.436 258.825C108.246 260.555 111.63 263.113 114.345 266.317C117.061 269.521 119.04 273.291 120.141 277.358C120.592 278.935 120.893 280.553 121.041 282.188C121.113 282.76 121.095 283.214 121.113 283.523C121.129 283.677 121.129 283.832 121.113 283.986C121.113 283.986 121.032 283.35 120.888 282.17C120.689 280.557 120.361 278.963 119.907 277.403C118.442 272.227 115.568 267.57 111.612 263.958C107.655 260.347 102.775 257.927 97.5241 256.973C95.9417 256.67 94.3374 256.497 92.7271 256.456C91.4941 256.465 90.9001 256.483 90.9001 256.446Z" fill="#263238"/>
<path d="M116.028 269.531C115.465 269.877 114.86 270.148 114.228 270.339C113.112 270.784 111.528 271.347 109.818 271.91C108.108 272.473 106.488 272.908 105.318 273.199C104.697 273.39 104.057 273.512 103.41 273.562C103.986 273.281 104.589 273.062 105.21 272.908L109.656 271.501L114.093 270.057C114.719 269.818 115.367 269.641 116.028 269.531Z" fill="#263238"/>
<path d="M110.529 254.621C110.842 255.907 110.981 257.23 110.943 258.553C111.046 259.873 110.973 261.202 110.727 262.503C110.558 261.197 110.492 259.879 110.529 258.562C110.426 257.251 110.426 255.933 110.529 254.621Z" fill="#263238"/>
<path d="M85.5 262.693C86.3174 262.315 87.1668 262.011 88.038 261.785C89.622 261.286 91.836 260.66 94.338 260.06C96.84 259.461 99.054 259.007 100.638 258.716C101.526 258.516 102.429 258.395 103.338 258.353C102.484 258.63 101.612 258.849 100.728 259.007C99.108 259.37 96.876 259.915 94.428 260.478C91.98 261.041 89.757 261.649 88.128 262.067C87.2667 262.334 86.3888 262.544 85.5 262.693Z" fill="#263238"/>
<path d="M104.652 286.728C101.646 284.431 98.4691 284.004 94.6981 284.122C90.9265 284.365 87.2331 285.316 83.8081 286.928C77.9131 289.525 72.3781 293.366 68.8591 298.796C65.3401 304.225 64.1071 311.417 66.7441 317.337C66.9516 317.956 67.3777 318.476 67.9411 318.799C68.5956 318.983 69.2935 318.928 69.9121 318.644C76.6171 316.438 83.3581 314.213 89.5231 310.763C95.6881 307.313 101.295 302.509 104.598 296.235C105.444 294.771 105.989 293.149 106.2 291.468C106.29 290.617 106.2 289.757 105.934 288.944C105.669 288.132 105.235 287.386 104.661 286.755" fill="#3559AE"/>
<path d="M104.706 286.02C104.556 286.106 104.396 286.174 104.229 286.22L102.825 286.71L101.808 287.046C101.439 287.182 101.043 287.346 100.62 287.518C99.774 287.863 98.82 288.208 97.749 288.717L96.111 289.47C95.535 289.734 94.968 290.061 94.365 290.378C93.15 290.978 91.926 291.749 90.612 292.53C84.9996 296.041 80.0054 300.468 75.834 305.633C74.934 306.84 73.989 307.975 73.242 309.12C72.855 309.682 72.468 310.209 72.126 310.745L71.226 312.288C70.596 313.26 70.128 314.204 69.678 315.012C69.462 315.412 69.246 315.784 69.066 316.138C68.886 316.492 68.742 316.81 68.607 317.11L67.941 318.454C67.8782 318.616 67.7934 318.769 67.689 318.908C67.7328 318.739 67.7931 318.574 67.869 318.417L68.454 317.037C68.589 316.738 68.733 316.411 68.886 316.048C69.039 315.684 69.264 315.312 69.471 314.903C69.903 314.077 70.371 313.087 70.965 312.134C71.271 311.635 71.577 311.108 71.865 310.563C72.153 310.018 72.585 309.492 72.963 308.92C73.701 307.758 74.61 306.613 75.537 305.388C77.6345 302.786 79.9338 300.357 82.413 298.124C84.9198 295.927 87.5985 293.938 90.423 292.176C91.746 291.395 92.988 290.633 94.212 290.042C94.824 289.734 95.4 289.416 96.012 289.134L97.677 288.408C98.73 287.909 99.72 287.582 100.584 287.255C101.016 287.101 101.412 286.946 101.79 286.819L102.816 286.51L104.247 286.102C104.398 286.063 104.551 286.036 104.706 286.02Z" fill="#263238"/>
<path d="M81.2342 298.841C78.8414 299.761 76.402 300.552 73.9262 301.211C71.4877 302.011 69.0056 302.669 66.4922 303.181C68.885 302.262 71.3244 301.47 73.8002 300.811C76.2402 300.016 78.722 299.359 81.2342 298.841Z" fill="#263238"/>
<path d="M80.9281 315.076C80.8053 314.317 80.7511 313.548 80.7661 312.779C80.7661 311.362 80.7661 309.392 80.7661 307.231C80.7661 305.07 80.9461 303.099 81.0631 301.683C81.0814 300.912 81.1779 300.146 81.3511 299.395C81.4117 300.162 81.4117 300.934 81.3511 301.701C81.2971 303.254 81.2431 305.142 81.1801 307.24C81.1171 309.337 81.0811 311.226 81.0361 312.779C81.0698 313.546 81.0336 314.315 80.9281 315.076Z" fill="#263238"/>
<path d="M94.7522 308.012C94.6352 308.012 94.2662 304.026 93.9332 299.095C93.6002 294.165 93.4112 290.16 93.5282 290.16C93.6452 290.16 94.0052 294.138 94.3472 299.068C94.6892 303.998 94.8692 308.003 94.7522 308.012Z" fill="#263238"/>
<path d="M77.553 289.77C78.3289 289.671 79.1125 289.647 79.893 289.697C81.333 289.697 83.331 289.752 85.536 289.825C87.741 289.897 89.73 289.988 91.17 290.07C91.9519 290.08 92.7316 290.156 93.501 290.297C92.725 290.396 91.9415 290.42 91.161 290.369C89.721 290.369 87.723 290.324 85.518 290.242C83.313 290.16 81.324 290.079 79.875 289.997C79.096 289.988 78.3192 289.912 77.553 289.77Z" fill="#263238"/>
<path d="M112.095 339.846C112.055 339.686 112.037 339.521 112.041 339.356C112.041 339.002 112.041 338.539 111.978 337.976C111.924 336.768 111.915 335.034 111.978 332.873C112.041 330.712 112.158 328.16 112.41 325.327C112.662 322.494 113.076 319.38 113.643 316.138C114.21 312.897 114.912 309.855 115.623 307.058C116.334 304.262 117.108 301.856 117.81 299.794C118.512 297.733 119.106 296.162 119.61 295.018C119.826 294.492 119.997 294.11 120.141 293.738C120.196 293.586 120.266 293.44 120.348 293.302C120.328 293.463 120.283 293.619 120.213 293.765L119.7 295.1C119.286 296.226 118.719 297.824 118.062 299.912C117.405 302.001 116.685 304.452 115.974 307.176C115.263 309.9 114.597 312.969 114.021 316.202C113.445 319.434 113.058 322.558 112.77 325.345C112.482 328.133 112.32 330.721 112.248 332.864C112.176 335.007 112.131 336.75 112.131 337.958C112.131 338.521 112.131 338.975 112.131 339.338C112.131 339.508 112.119 339.678 112.095 339.846Z" fill="#263238"/>
<path d="M113.931 315.793C113.523 316.357 113.055 316.875 112.536 317.337C111.636 318.245 110.349 319.462 108.891 320.76C107.433 322.059 106.056 323.175 105.039 323.965C104.519 324.422 103.952 324.82 103.347 325.155C103.805 324.632 104.311 324.155 104.859 323.729L108.612 320.442L112.338 317.119C112.826 316.627 113.36 316.183 113.931 315.793Z" fill="#263238"/>
<path d="M124.992 324.773C124.445 324.123 123.948 323.431 123.507 322.703L120.06 317.618L116.532 312.588C116.009 311.917 115.537 311.206 115.119 310.463C115.728 311.057 116.28 311.707 116.766 312.406C117.738 313.65 119.034 315.394 120.366 317.382C121.698 319.371 122.904 321.196 123.723 322.54C124.214 323.243 124.639 323.99 124.992 324.773Z" fill="#263238"/>
<path d="M119.196 296.507C119.259 296.607 115.596 299.104 110.997 302.083C106.398 305.061 102.627 307.403 102.564 307.304C102.501 307.204 106.164 304.707 110.772 301.728C115.38 298.75 119.142 296.417 119.196 296.507Z" fill="#263238"/>
<path d="M129.6 307.812C127.661 306.183 125.807 304.452 124.047 302.627C122.194 300.911 120.436 299.092 118.782 297.179C120.728 298.804 122.585 300.535 124.344 302.364C126.198 304.077 127.953 305.896 129.6 307.812Z" fill="#263238"/>
<path d="M132.165 307.567L135.315 307.304C137.555 307.118 139.729 306.446 141.687 305.333C142.645 304.77 143.637 304.266 144.657 303.826C148.554 302.255 152.91 302.537 157.104 302.319C163.976 301.969 170.708 300.234 176.904 297.216C177.276 297.05 177.59 296.775 177.804 296.426C178.452 295.236 177.246 294.174 176.211 293.529C170.892 290.224 165.483 286.883 159.462 285.239C153.441 283.596 146.592 283.877 141.462 287.446C135.432 291.641 133.227 300.248 132.21 307.567" fill="#3559AE"/>
<path d="M177.831 296.008C177.65 295.933 177.472 295.848 177.3 295.754L175.806 294.964C174.51 294.274 172.647 293.257 170.28 292.122C167.539 290.756 164.68 289.643 161.739 288.798C158.143 287.755 154.376 287.447 150.66 287.89C146.939 288.308 143.424 289.831 140.562 292.267C138.327 294.363 136.538 296.896 135.306 299.713C134.199 302.101 133.506 304.135 133.02 305.515L132.453 307.122C132.397 307.313 132.325 307.498 132.237 307.676C132.263 307.478 132.308 307.283 132.372 307.095C132.498 306.686 132.66 306.141 132.858 305.469C133.459 303.486 134.174 301.539 135 299.64C136.213 296.758 138.009 294.163 140.274 292.022C143.176 289.5 146.764 287.918 150.57 287.482C154.337 287.023 158.156 287.331 161.802 288.39C164.759 289.266 167.631 290.415 170.379 291.822C172.728 293.003 174.573 294.056 175.851 294.791L177.309 295.654C177.497 295.749 177.673 295.868 177.831 296.008Z" fill="#263238"/>
<path d="M170.262 300.139C170.199 300.23 166.068 297.543 161.046 294.128C156.024 290.714 152.001 287.863 152.046 287.772C152.091 287.682 156.231 290.369 161.253 293.783C166.275 297.197 170.325 300.039 170.262 300.139Z" fill="#263238"/>
<path d="M166.302 287.364C164.201 288.03 161.982 288.238 159.795 287.972C160.865 287.748 161.952 287.62 163.044 287.591C164.122 287.42 165.212 287.345 166.302 287.364Z" fill="#263238"/>
<path d="M147.807 284.022C147.02 285.902 145.988 287.667 144.738 289.271C145.06 288.304 145.515 287.387 146.088 286.547C146.539 285.627 147.118 284.777 147.807 284.022Z" fill="#263238"/>
<path d="M151.497 302.591C150.801 302.299 150.138 301.933 149.517 301.501C148.32 300.775 146.709 299.685 145.017 298.441C143.325 297.197 141.786 295.99 140.688 295.118C140.073 294.68 139.501 294.184 138.978 293.638C139.647 293.99 140.28 294.406 140.868 294.882L145.269 298.105C146.979 299.359 148.554 300.457 149.706 301.256C150.34 301.648 150.94 302.094 151.497 302.591Z" fill="#263238"/>
<path d="M136.8 321.087C133.794 320.279 130.203 323.23 129.6 326.308C128.997 329.386 130.131 332.528 131.463 335.388C134.329 341.739 138.581 347.354 143.901 351.814C149.267 356.253 155.962 358.733 162.9 358.851C161.631 352.894 163.233 346.665 162.531 340.609C161.904 335.275 159.502 330.313 155.717 326.534C151.933 322.755 146.99 320.384 141.696 319.807C139.779 319.598 137.556 319.298 136.791 321.087" fill="#3559AE"/>
<path d="M162.9 358.851C162.749 358.8 162.604 358.733 162.468 358.651C162.074 358.427 161.698 358.172 161.343 357.888C160.083 356.781 159.07 355.416 158.373 353.884C157.896 352.976 157.356 351.923 156.834 350.788C156.312 349.653 155.79 348.454 155.214 347.156C154.637 345.826 153.972 344.537 153.225 343.297C152.424 341.974 151.521 340.718 150.525 339.538C148.473 337.104 146.259 334.998 144.342 332.973C142.609 331.21 141.031 329.3 139.626 327.261C138.685 325.88 137.911 324.389 137.322 322.821C137.133 322.267 136.989 321.822 136.917 321.523C136.867 321.373 136.837 321.217 136.827 321.06C136.827 321.06 137.034 321.677 137.475 322.767C138.117 324.293 138.92 325.745 139.869 327.098C141.301 329.092 142.89 330.965 144.621 332.7C146.547 334.698 148.77 336.804 150.849 339.265C151.868 340.461 152.792 341.736 153.612 343.079C154.356 344.34 155.021 345.647 155.601 346.992L157.185 350.624C157.689 351.75 158.211 352.785 158.679 353.72C159.336 355.239 160.291 356.607 161.487 357.743C162.351 358.524 162.945 358.814 162.9 358.851Z" fill="#263238"/>
<path d="M147.357 353.902C147.375 353.213 147.469 352.528 147.636 351.859C147.87 350.606 148.257 348.89 148.779 347.019C149.301 345.149 149.859 343.487 150.309 342.298C150.506 341.637 150.781 341.003 151.128 340.409C151.007 341.084 150.826 341.746 150.588 342.389C150.21 343.605 149.688 345.276 149.184 347.137C148.68 348.999 148.284 350.688 147.924 351.923C147.8 352.6 147.61 353.263 147.357 353.902Z" fill="#263238"/>
<path d="M162.351 339.274C161.63 339.167 160.92 339 160.227 338.775C158.931 338.439 157.14 337.967 155.151 337.513C153.162 337.059 151.344 336.714 150.03 336.459C149.309 336.366 148.599 336.208 147.906 335.987C148.633 335.969 149.361 336.03 150.075 336.169C151.407 336.341 153.243 336.65 155.241 337.077C157.239 337.504 159.03 338.048 160.308 338.466C161.015 338.663 161.7 338.934 162.351 339.274Z" fill="#263238"/>
<path d="M136.197 343.524C136.231 342.725 136.339 341.932 136.521 341.154C136.791 339.71 137.205 337.712 137.772 335.542C138.339 333.372 138.933 331.42 139.401 330.022C139.632 329.254 139.933 328.509 140.301 327.797C140.17 328.583 139.978 329.357 139.725 330.112C139.329 331.529 138.771 333.481 138.213 335.642C137.655 337.803 137.187 339.792 136.854 341.217C136.7 342.004 136.481 342.775 136.197 343.524Z" fill="#263238"/>
<path d="M155.448 326.526C155.448 326.635 151.677 326.335 147.06 325.836C142.443 325.336 138.699 324.846 138.717 324.737C141.523 324.818 144.323 325.046 147.105 325.418C149.903 325.644 152.688 326.013 155.448 326.526Z" fill="#263238"/>
<path d="M152.694 372.471C152.694 372.589 139.491 372.68 123.21 372.68C106.929 372.68 93.7261 372.589 93.7261 372.471C93.7261 372.353 106.929 372.262 123.21 372.262C139.491 372.262 152.694 372.353 152.694 372.471Z" fill="#455A64"/>
<path d="M143.514 389.605C143.514 389.723 134.613 389.823 123.642 389.823C112.671 389.823 103.779 389.723 103.779 389.605C103.779 389.487 112.671 389.396 123.642 389.396C134.613 389.396 143.514 389.532 143.514 389.605Z" fill="#455A64"/>
<path d="M143.856 392.056C143.856 392.174 134.964 392.265 123.993 392.265C113.022 392.265 104.13 392.174 104.13 392.056C104.13 391.938 113.022 391.847 123.993 391.847C134.964 391.847 143.856 391.938 143.856 392.056Z" fill="#455A64"/>
<path d="M143.856 387.589C143.856 387.707 134.658 387.798 123.309 387.798C111.96 387.798 102.762 387.707 102.762 387.589C102.762 387.471 111.96 387.38 123.309 387.38C134.658 387.38 143.856 387.471 143.856 387.589Z" fill="#455A64"/>
</svg>
