<svg width="22" height="24" viewBox="0 0 22 24" fill="none" xmlns="http://www.w3.org/2000/svg">
<path d="M10.9996 1.92871C13.0313 1.92871 14.9799 2.80919 16.4165 4.37646C17.8532 5.94373 18.6603 8.0694 18.6603 10.2859C18.6603 13.8173 16.3857 17.6659 11.8953 21.8727C11.6456 22.1067 11.3273 22.2352 10.9981 22.2349C10.669 22.2346 10.3508 22.1055 10.1015 21.871L9.80451 21.5899C5.51294 17.4927 3.33887 13.7384 3.33887 10.2859C3.33887 8.0694 4.14598 5.94373 5.58264 4.37646C7.0193 2.80919 8.96783 1.92871 10.9996 1.92871ZM10.9996 3.21443C9.28041 3.21443 7.63165 3.95945 6.41601 5.2856C5.20038 6.61175 4.51744 8.41039 4.51744 10.2859C4.51744 13.2876 6.51944 16.7461 10.5784 20.6204L10.8715 20.8973C10.9071 20.9307 10.9526 20.9491 10.9996 20.9491C11.0466 20.9491 11.092 20.9307 11.1277 20.8973C15.3831 16.9099 17.4817 13.3587 17.4817 10.2859C17.4817 9.35722 17.3141 8.43768 16.9883 7.57974C16.6625 6.72179 16.1851 5.94224 15.5831 5.2856C14.9812 4.62896 14.2666 4.10808 13.4802 3.75271C12.6937 3.39733 11.8508 3.21443 10.9996 3.21443ZM10.9996 7.07157C11.781 7.07157 12.5305 7.41022 13.083 8.01301C13.6356 8.61581 13.946 9.43337 13.946 10.2859C13.946 11.1383 13.6356 11.9559 13.083 12.5587C12.5305 13.1615 11.781 13.5001 10.9996 13.5001C10.2181 13.5001 9.4687 13.1615 8.91614 12.5587C8.36358 11.9559 8.05315 11.1383 8.05315 10.2859C8.05315 9.43337 8.36358 8.61581 8.91614 8.01301C9.4687 7.41022 10.2181 7.07157 10.9996 7.07157ZM10.9996 8.35728C10.5307 8.35728 10.0811 8.56047 9.74952 8.92215C9.41798 9.28383 9.23172 9.77436 9.23172 10.2859C9.23172 10.7973 9.41798 11.2879 9.74952 11.6496C10.0811 12.0112 10.5307 12.2144 10.9996 12.2144C11.4684 12.2144 11.9181 12.0112 12.2496 11.6496C12.5812 11.2879 12.7674 10.7973 12.7674 10.2859C12.7674 9.77436 12.5812 9.28383 12.2496 8.92215C11.9181 8.56047 11.4684 8.35728 10.9996 8.35728Z" fill="#777777"/>
</svg>
