<svg width="99" height="16" viewBox="0 0 99 16" fill="none" xmlns="http://www.w3.org/2000/svg">
<g clip-path="url(#clip0_334_11195)">
<g clip-path="url(#clip1_334_11195)">
<g clip-path="url(#clip2_334_11195)">
<g clip-path="url(#clip3_334_11195)">
<path d="M4.99343 15.7043H2.91633L0 1.26418H1.80435L3.25202 9.12259C3.37791 9.91503 3.51079 10.6928 3.65066 11.4559C3.79053 12.219 3.92341 12.9968 4.04929 13.7892H4.13322C4.28708 12.9968 4.44793 12.2146 4.61578 11.4427C4.78362 10.6737 4.94448 9.90036 5.09833 9.12259L7.00759 1.26418H8.60213L10.5114 9.12259C10.6792 9.88568 10.8471 10.6561 11.0149 11.4339C11.1828 12.2117 11.3506 12.9968 11.5185 13.7892H11.6024C11.7283 12.9968 11.8542 12.2146 11.98 11.4427C12.1059 10.6737 12.2388 9.90036 12.3787 9.12259L13.8263 1.26418H15.5048L12.6514 15.7043H10.5533L8.47624 7.0094C8.35036 6.45176 8.23566 5.90438 8.13216 5.36728C8.02586 4.83312 7.91676 4.28721 7.80486 3.72957H7.72093C7.60904 4.28721 7.49434 4.83312 7.37685 5.36728C7.25656 5.90438 7.14047 6.45176 7.02857 7.0094L4.99343 15.7043ZM20.0786 15.9684C19.2254 15.9684 18.5149 15.7043 17.947 15.176C17.3819 14.6477 17.0994 13.8993 17.0994 12.9307C17.0994 11.7567 17.5959 10.8572 18.589 10.232C19.5821 9.60979 21.1696 9.17395 23.3516 8.92448C23.3516 8.58695 23.3195 8.25677 23.2551 7.93392C23.1936 7.61107 23.0859 7.32491 22.932 7.07544C22.7782 6.82597 22.5641 6.62345 22.29 6.4679C22.0186 6.31528 21.6732 6.23897 21.2535 6.23897C20.6661 6.23897 20.1136 6.35637 19.5961 6.59117C19.0785 6.82597 18.617 7.09012 18.2113 7.38361L17.5399 6.12891C18.0155 5.80606 18.596 5.49349 19.2814 5.19119C19.9667 4.89182 20.722 4.74213 21.5473 4.74213C22.7921 4.74213 23.6943 5.14129 24.2538 5.9396C24.8133 6.74085 25.093 7.80919 25.093 9.1446V15.7043H23.6663L23.5195 14.4276H23.4565C22.967 14.8531 22.4425 15.2156 21.883 15.515C21.3235 15.8173 20.722 15.9684 20.0786 15.9684ZM20.5822 14.5156C21.0717 14.5156 21.5333 14.3938 21.9669 14.1502C22.4005 13.9095 22.8621 13.5544 23.3516 13.0848V10.1131C22.4984 10.2305 21.7809 10.37 21.199 10.5314C20.6199 10.6928 20.1514 10.8836 19.7933 11.1037C19.438 11.3238 19.1792 11.5777 19.017 11.8653C18.8575 12.15 18.7778 12.4611 18.7778 12.7986C18.7778 13.415 18.9527 13.8552 19.3023 14.1194C19.652 14.3835 20.0786 14.5156 20.5822 14.5156ZM32.5202 15.7043H30.5019L26.8302 5.00628H28.6136L30.548 11.0817C30.7019 11.61 30.8586 12.1383 31.018 12.6666C31.1803 13.1949 31.3383 13.7158 31.4922 14.2295H31.5761C31.73 13.7158 31.8838 13.1949 32.0377 12.6666C32.1915 12.1383 32.344 11.61 32.4951 11.0817L34.4295 5.00628H36.1289L32.5202 15.7043ZM42.2302 15.9684C41.5448 15.9684 40.9056 15.8393 40.3125 15.581C39.7167 15.3257 39.1991 14.9588 38.7599 14.4804C38.3179 14.0049 37.9711 13.4223 37.7193 12.7326C37.4675 12.0429 37.3416 11.2578 37.3416 10.3773C37.3416 9.4968 37.4717 8.70729 37.7319 8.00876C37.9892 7.31317 38.3319 6.72324 38.7599 6.23897C39.1851 5.7547 39.6705 5.38343 40.216 5.12515C40.7615 4.8698 41.328 4.74213 41.9154 4.74213C42.5589 4.74213 43.1365 4.85953 43.6485 5.09433C44.1576 5.32913 44.5842 5.66665 44.9283 6.1069C45.2696 6.54714 45.5311 7.07544 45.713 7.69179C45.8948 8.30813 45.9857 8.99785 45.9857 9.76095C45.9857 9.95172 45.9829 10.1381 45.9773 10.3201C45.9689 10.505 45.9507 10.6635 45.9228 10.7955H39.0411C39.111 11.9402 39.4509 12.8456 40.0607 13.5118C40.6678 14.181 41.4609 14.5156 42.44 14.5156C42.9295 14.5156 43.3813 14.4378 43.7953 14.2823C44.2065 14.1297 44.601 13.9286 44.9786 13.6791L45.5871 14.8678C45.1395 15.1613 44.6429 15.4181 44.0974 15.6382C43.5519 15.8584 42.9295 15.9684 42.2302 15.9684ZM39.0201 9.4968H44.4751C44.4751 8.41086 44.2555 7.58466 43.8163 7.01821C43.3743 6.45469 42.7547 6.17294 41.9574 6.17294C41.5937 6.17294 41.2482 6.24631 40.9209 6.39306C40.5909 6.53981 40.2929 6.75553 40.0272 7.04022C39.7614 7.32785 39.5418 7.67711 39.3684 8.08801C39.1921 8.49891 39.076 8.9685 39.0201 9.4968ZM52.1331 15.7043H50.1189L47.2865 5.00628H49.0489L50.5595 11.1917C50.6714 11.7054 50.7763 12.2043 50.8742 12.6886C50.9722 13.1729 51.0701 13.6645 51.168 14.1634H51.2519C51.3638 13.6645 51.4757 13.1685 51.5876 12.6754C51.6995 12.1852 51.8184 11.6907 51.9443 11.1917L53.5178 5.00628H55.1963L56.7908 11.1917C56.9167 11.7054 57.0398 12.2043 57.1601 12.6886C57.2776 13.1729 57.3923 13.6645 57.5042 14.1634H57.5881C57.7 13.6645 57.8049 13.1729 57.9028 12.6886C58.0007 12.2043 58.1056 11.7054 58.2175 11.1917L59.7072 5.00628H61.3437L58.6162 15.7043H56.5181L55.0494 9.95906C54.9235 9.44544 54.8074 8.93915 54.7011 8.44021C54.5976 7.94126 54.4829 7.4203 54.3571 6.87733H54.2731C54.1612 7.4203 54.0493 7.94419 53.9374 8.44901C53.8255 8.95676 53.6997 9.46745 53.5598 9.98107L52.1331 15.7043ZM67.533 15.9684C66.9036 15.9684 66.3049 15.8437 65.737 15.5942C65.172 15.3447 64.6726 14.9808 64.239 14.5024C63.8054 14.0269 63.4585 13.4399 63.1984 12.7414C62.941 12.0458 62.8123 11.2578 62.8123 10.3773C62.8123 9.48212 62.941 8.68528 63.1984 7.98675C63.4585 7.29116 63.8054 6.70123 64.239 6.21696C64.6726 5.73269 65.172 5.36582 65.737 5.11634C66.3049 4.86687 66.9036 4.74213 67.533 4.74213C68.1624 4.74213 68.7597 4.86687 69.3248 5.11634C69.8926 5.36582 70.3934 5.73269 70.827 6.21696C71.2606 6.70123 71.6061 7.29116 71.8634 7.98675C72.1236 8.68528 72.2537 9.48212 72.2537 10.3773C72.2537 11.2578 72.1236 12.0458 71.8634 12.7414C71.6061 13.4399 71.2606 14.0269 70.827 14.5024C70.3934 14.9808 69.8926 15.3447 69.3248 15.5942C68.7597 15.8437 68.1624 15.9684 67.533 15.9684ZM67.533 14.4716C67.9666 14.4716 68.3652 14.3718 68.7289 14.1722C69.0926 13.9756 69.4031 13.6968 69.6605 13.3357C69.9206 12.9777 70.1206 12.5492 70.2605 12.0502C70.4004 11.5513 70.4703 10.9936 70.4703 10.3773C70.4703 9.76095 70.4004 9.1989 70.2605 8.69115C70.1206 8.18633 69.9206 7.75049 69.6605 7.38361C69.4031 7.01674 69.0926 6.73352 68.7289 6.53394C68.3652 6.33729 67.9666 6.23897 67.533 6.23897C67.0994 6.23897 66.7008 6.33729 66.3371 6.53394C65.9734 6.73352 65.6615 7.01674 65.4013 7.38361C65.144 7.75049 64.9454 8.18633 64.8055 8.69115C64.6656 9.1989 64.5957 9.76095 64.5957 10.3773C64.5957 10.9936 64.6656 11.5513 64.8055 12.0502C64.9454 12.5492 65.144 12.9777 65.4013 13.3357C65.6615 13.6968 65.9734 13.9756 66.3371 14.1722C66.7008 14.3718 67.0994 14.4716 67.533 14.4716ZM76.6555 15.7043H74.935V5.00628H76.3617L76.5086 6.94337H76.5715C76.9212 6.26832 77.345 5.73269 77.843 5.33647C78.3409 4.94024 78.8822 4.74213 79.4669 4.74213C79.8725 4.74213 80.2362 4.81551 80.5579 4.96226L80.2222 6.54714C80.0543 6.48845 79.9005 6.44442 79.7606 6.41507C79.6207 6.38572 79.4459 6.37105 79.2361 6.37105C78.8053 6.37105 78.3549 6.55448 77.8849 6.92135C77.415 7.28823 77.0051 7.92658 76.6555 8.83643V15.7043ZM83.9148 15.7043H82.2154V0.0314941H83.9148V10.6414H83.9777L88.3208 5.00628H90.23L86.8102 9.29869L90.6916 15.7043H88.8033L85.8241 10.5534L83.9148 12.8867V15.7043ZM95.2654 15.9684C94.5381 15.9684 93.8457 15.829 93.1883 15.5502C92.5309 15.2714 91.9574 14.9192 91.4679 14.4936L92.3281 13.2829C92.7757 13.6645 93.2331 13.9726 93.7003 14.2074C94.1702 14.4422 94.7129 14.5596 95.3284 14.5596C95.9997 14.5596 96.5033 14.3982 96.839 14.0754C97.1747 13.7525 97.3425 13.3563 97.3425 12.8867C97.3425 12.6079 97.2726 12.3657 97.1327 12.1603C96.9928 11.9548 96.8138 11.7743 96.5956 11.6188C96.3802 11.4662 96.1326 11.3312 95.8529 11.2138C95.5731 11.0964 95.2934 10.979 95.0137 10.8616C94.65 10.7295 94.2863 10.5783 93.9226 10.4081C93.559 10.2408 93.2345 10.0354 92.9491 9.79176C92.661 9.55109 92.426 9.26934 92.2442 8.94649C92.0623 8.62364 91.9714 8.23476 91.9714 7.77984C91.9714 7.35426 92.0526 6.95364 92.2148 6.57796C92.3743 6.20522 92.6037 5.88237 92.903 5.60942C93.2051 5.3394 93.573 5.12662 94.0066 4.97106C94.4402 4.81844 94.9297 4.74213 95.4752 4.74213C96.1186 4.74213 96.7103 4.85953 97.2502 5.09433C97.7873 5.32913 98.2517 5.61529 98.6433 5.95281L97.8251 7.09745C97.4754 6.81863 97.1117 6.59117 96.7341 6.41507C96.3564 6.23897 95.9438 6.15092 95.4962 6.15092C94.8528 6.15092 94.38 6.30501 94.0779 6.61318C93.7786 6.92135 93.6289 7.28089 93.6289 7.69179C93.6289 7.94126 93.6919 8.15698 93.8177 8.33895C93.9436 8.52385 94.1115 8.68528 94.3213 8.82322C94.5311 8.9641 94.7731 9.08884 95.0472 9.19743C95.3186 9.30896 95.6011 9.42342 95.8948 9.54082C96.2585 9.68757 96.625 9.84166 96.9942 10.0031C97.3663 10.1645 97.6992 10.3656 97.9929 10.6062C98.2867 10.8498 98.5286 11.1477 98.7189 11.4999C98.9063 11.8521 99 12.2777 99 12.7766C99 13.2169 98.9189 13.6278 98.7566 14.0093C98.5972 14.3909 98.3594 14.7284 98.0433 15.0219C97.73 15.3154 97.3383 15.5473 96.8684 15.7175C96.4012 15.8848 95.8669 15.9684 95.2654 15.9684Z" fill="black"/>
</g>
</g>
</g>
</g>
<defs>
<clipPath id="clip0_334_11195">
<rect width="99" height="16" fill="white"/>
</clipPath>
<clipPath id="clip1_334_11195">
<rect width="99" height="16" fill="white"/>
</clipPath>
<clipPath id="clip2_334_11195">
<rect width="99" height="16" fill="white"/>
</clipPath>
<clipPath id="clip3_334_11195">
<rect width="99" height="16" fill="white"/>
</clipPath>
</defs>
</svg>
