<svg width="168" height="172" viewBox="0 0 168 172" fill="none" xmlns="http://www.w3.org/2000/svg">
<g clip-path="url(#clip0_304_1187)">
<circle cx="85" cy="86" r="83" fill="#F26F6F"/>
<path d="M84.612 83.7935L82 169L75 168.523L69 168L65 167L61.5 166L54.5 163.5L48.5 160.5L45.5315 158.962L42 157L36 153L30.5 149L25.5 144L20.0002 137.5L84.612 83.7935Z" fill="#A22E2E"/>
<path d="M112.134 83L115.943 75.4659V75.402H111.537V74.2727H117.307V75.4403L113.51 83H112.134ZM118.789 83V82.0455L121.742 78.9858C122.057 78.6534 122.317 78.3622 122.522 78.1122C122.729 77.8594 122.884 77.6193 122.986 77.392C123.088 77.1648 123.14 76.9233 123.14 76.6676C123.14 76.3778 123.071 76.1278 122.935 75.9176C122.799 75.7045 122.613 75.5412 122.377 75.4276C122.141 75.3111 121.875 75.2528 121.58 75.2528C121.267 75.2528 120.995 75.3168 120.762 75.4446C120.529 75.5724 120.35 75.7528 120.225 75.9858C120.1 76.2187 120.037 76.4915 120.037 76.804H118.78C118.78 76.2727 118.902 75.8082 119.147 75.4105C119.391 75.0128 119.726 74.7045 120.152 74.4858C120.578 74.2642 121.063 74.1534 121.605 74.1534C122.154 74.1534 122.637 74.2628 123.054 74.4815C123.475 74.6974 123.803 74.9929 124.039 75.3679C124.275 75.7401 124.392 76.1605 124.392 76.6293C124.392 76.9531 124.331 77.2699 124.209 77.5795C124.09 77.8892 123.881 78.2344 123.583 78.6151C123.284 78.9929 122.87 79.4517 122.338 79.9915L120.604 81.8068V81.8707H124.533V83H118.789ZM130.703 81.3636V80.9034C130.703 80.5739 130.772 80.2727 130.908 80C131.047 79.7244 131.249 79.5043 131.513 79.3395C131.78 79.1719 132.103 79.0881 132.48 79.0881C132.867 79.0881 133.191 79.1705 133.452 79.3352C133.713 79.5 133.911 79.7202 134.044 79.9957C134.181 80.2713 134.249 80.5739 134.249 80.9034V81.3636C134.249 81.6932 134.181 81.9957 134.044 82.2713C133.908 82.544 133.708 82.7642 133.444 82.9318C133.182 83.0966 132.861 83.179 132.48 83.179C132.097 83.179 131.773 83.0966 131.509 82.9318C131.245 82.7642 131.044 82.544 130.908 82.2713C130.772 81.9957 130.703 81.6932 130.703 81.3636ZM131.696 80.9034V81.3636C131.696 81.608 131.755 81.8295 131.871 82.0284C131.988 82.2273 132.191 82.3267 132.48 82.3267C132.767 82.3267 132.968 82.2273 133.081 82.0284C133.195 81.8295 133.252 81.608 133.252 81.3636V80.9034C133.252 80.6591 133.196 80.4375 133.086 80.2386C132.978 80.0398 132.776 79.9403 132.48 79.9403C132.196 79.9403 131.995 80.0398 131.875 80.2386C131.756 80.4375 131.696 80.6591 131.696 80.9034ZM126.314 76.3693V75.9091C126.314 75.5795 126.382 75.277 126.519 75.0014C126.658 74.7259 126.86 74.5057 127.124 74.3409C127.391 74.1761 127.713 74.0938 128.091 74.0938C128.478 74.0938 128.801 74.1761 129.063 74.3409C129.324 74.5057 129.522 74.7259 129.655 75.0014C129.789 75.277 129.855 75.5795 129.855 75.9091V76.3693C129.855 76.6989 129.787 77.0014 129.651 77.277C129.517 77.5497 129.319 77.7699 129.054 77.9375C128.793 78.1023 128.472 78.1847 128.091 78.1847C127.705 78.1847 127.38 78.1023 127.115 77.9375C126.854 77.7699 126.655 77.5497 126.519 77.277C126.382 77.0014 126.314 76.6989 126.314 76.3693ZM127.311 75.9091V76.3693C127.311 76.6136 127.368 76.8352 127.482 77.0341C127.598 77.233 127.801 77.3324 128.091 77.3324C128.375 77.3324 128.574 77.233 128.688 77.0341C128.804 76.8352 128.863 76.6136 128.863 76.3693V75.9091C128.863 75.6648 128.807 75.4432 128.696 75.2443C128.586 75.0455 128.384 74.946 128.091 74.946C127.807 74.946 127.605 75.0455 127.486 75.2443C127.37 75.4432 127.311 75.6648 127.311 75.9091ZM126.719 83L132.719 74.2727H133.738L127.738 83H126.719Z" fill="white"/>
<path d="M53.8778 139.119C53.2926 139.119 52.7699 139.018 52.3097 138.817C51.8523 138.615 51.4901 138.335 51.223 137.977C50.9588 137.616 50.8168 137.199 50.7969 136.724H52.1349C52.152 136.983 52.2386 137.207 52.3949 137.398C52.554 137.585 52.7614 137.73 53.017 137.832C53.2727 137.935 53.5568 137.986 53.8693 137.986C54.2131 137.986 54.517 137.926 54.7812 137.807C55.0483 137.687 55.2571 137.521 55.4077 137.308C55.5582 137.092 55.6335 136.844 55.6335 136.562C55.6335 136.27 55.5582 136.013 55.4077 135.791C55.2599 135.567 55.0426 135.391 54.7557 135.263C54.4716 135.135 54.1278 135.071 53.7244 135.071H52.9872V133.997H53.7244C54.0483 133.997 54.3324 133.939 54.5767 133.822C54.8239 133.706 55.017 133.544 55.1562 133.337C55.2955 133.126 55.3651 132.881 55.3651 132.599C55.3651 132.33 55.304 132.095 55.1818 131.896C55.0625 131.695 54.892 131.537 54.6705 131.423C54.4517 131.31 54.1932 131.253 53.8949 131.253C53.6108 131.253 53.3452 131.305 53.098 131.411C52.8537 131.513 52.6548 131.661 52.5014 131.854C52.348 132.044 52.2656 132.273 52.2543 132.54H50.9801C50.9943 132.068 51.1335 131.653 51.3977 131.295C51.6648 130.937 52.017 130.658 52.4545 130.456C52.892 130.254 53.3778 130.153 53.9119 130.153C54.4716 130.153 54.9545 130.263 55.3608 130.482C55.7699 130.697 56.0852 130.986 56.3068 131.347C56.5313 131.707 56.642 132.102 56.6392 132.531C56.642 133.02 56.5057 133.435 56.2301 133.776C55.9574 134.116 55.5938 134.345 55.1392 134.462V134.53C55.7188 134.618 56.1676 134.848 56.4858 135.22C56.8068 135.592 56.9659 136.054 56.9631 136.605C56.9659 137.085 56.8324 137.516 56.5625 137.896C56.2955 138.277 55.9304 138.577 55.4673 138.795C55.0043 139.011 54.4744 139.119 53.8778 139.119ZM61.6207 139.119C61.2315 139.114 60.848 139.043 60.4702 138.906C60.0952 138.77 59.7543 138.543 59.4474 138.224C59.1406 137.906 58.8949 137.479 58.7102 136.942C58.5284 136.405 58.4375 135.734 58.4375 134.93C58.4375 134.169 58.5128 133.493 58.6634 132.902C58.8168 132.311 59.0369 131.812 59.3239 131.406C59.6108 130.997 59.9574 130.686 60.3636 130.473C60.7699 130.26 61.2259 130.153 61.7315 130.153C62.2514 130.153 62.7131 130.256 63.1165 130.46C63.5199 130.665 63.8466 130.947 64.0966 131.308C64.3494 131.669 64.5099 132.08 64.5781 132.54H63.2784C63.1903 132.176 63.0156 131.879 62.7543 131.649C62.4929 131.419 62.152 131.304 61.7315 131.304C61.0923 131.304 60.5938 131.582 60.2358 132.139C59.8807 132.696 59.7017 133.47 59.6989 134.462H59.7628C59.9134 134.214 60.098 134.004 60.3168 133.831C60.5384 133.655 60.7855 133.52 61.0582 133.426C61.3338 133.33 61.6236 133.281 61.9276 133.281C62.4332 133.281 62.8906 133.405 63.2997 133.652C63.7116 133.896 64.0398 134.234 64.2841 134.666C64.5284 135.098 64.6506 135.592 64.6506 136.149C64.6506 136.706 64.5241 137.21 64.2713 137.662C64.0213 138.114 63.669 138.472 63.2145 138.736C62.7599 138.997 62.2287 139.125 61.6207 139.119ZM61.6165 138.011C61.9517 138.011 62.2514 137.929 62.5156 137.764C62.7798 137.599 62.9886 137.378 63.142 137.099C63.2955 136.821 63.3722 136.51 63.3722 136.166C63.3722 135.831 63.2969 135.526 63.1463 135.25C62.9986 134.974 62.794 134.756 62.5327 134.594C62.2741 134.432 61.9787 134.351 61.6463 134.351C61.3935 134.351 61.1591 134.399 60.9432 134.496C60.7301 134.592 60.5426 134.726 60.3807 134.896C60.2188 135.067 60.0909 135.263 59.9972 135.484C59.9062 135.703 59.8608 135.935 59.8608 136.179C59.8608 136.506 59.9361 136.808 60.0866 137.087C60.2401 137.365 60.4489 137.589 60.7131 137.76C60.9801 137.928 61.2813 138.011 61.6165 138.011ZM70.7582 137.364V136.903C70.7582 136.574 70.8263 136.273 70.9627 136C71.1019 135.724 71.3036 135.504 71.5678 135.339C71.8349 135.172 72.1573 135.088 72.5352 135.088C72.9215 135.088 73.2454 135.17 73.5067 135.335C73.7681 135.5 73.9656 135.72 74.0991 135.996C74.2354 136.271 74.3036 136.574 74.3036 136.903V137.364C74.3036 137.693 74.2354 137.996 74.0991 138.271C73.9627 138.544 73.7624 138.764 73.4982 138.932C73.2369 139.097 72.9158 139.179 72.5352 139.179C72.1516 139.179 71.8278 139.097 71.5636 138.932C71.2994 138.764 71.0991 138.544 70.9627 138.271C70.8263 137.996 70.7582 137.693 70.7582 137.364ZM71.7511 136.903V137.364C71.7511 137.608 71.8093 137.83 71.9258 138.028C72.0423 138.227 72.2454 138.327 72.5352 138.327C72.8221 138.327 73.0224 138.227 73.136 138.028C73.2496 137.83 73.3065 137.608 73.3065 137.364V136.903C73.3065 136.659 73.2511 136.437 73.1403 136.239C73.0323 136.04 72.8306 135.94 72.5352 135.94C72.2511 135.94 72.0494 136.04 71.93 136.239C71.8107 136.437 71.7511 136.659 71.7511 136.903ZM66.369 132.369V131.909C66.369 131.58 66.4371 131.277 66.5735 131.001C66.7127 130.726 66.9144 130.506 67.1786 130.341C67.4457 130.176 67.7681 130.094 68.146 130.094C68.5323 130.094 68.8562 130.176 69.1175 130.341C69.3789 130.506 69.5763 130.726 69.7099 131.001C69.8434 131.277 69.9102 131.58 69.9102 131.909V132.369C69.9102 132.699 69.842 133.001 69.7056 133.277C69.5721 133.55 69.3732 133.77 69.109 133.938C68.8477 134.102 68.5266 134.185 68.146 134.185C67.7596 134.185 67.4343 134.102 67.1701 133.938C66.9087 133.77 66.7099 133.55 66.5735 133.277C66.4371 133.001 66.369 132.699 66.369 132.369ZM67.3661 131.909V132.369C67.3661 132.614 67.4229 132.835 67.5366 133.034C67.6531 133.233 67.8562 133.332 68.146 133.332C68.43 133.332 68.6289 133.233 68.7425 133.034C68.859 132.835 68.9173 132.614 68.9173 132.369V131.909C68.9173 131.665 68.8619 131.443 68.7511 131.244C68.6403 131.045 68.4386 130.946 68.146 130.946C67.8619 130.946 67.6602 131.045 67.5408 131.244C67.4244 131.443 67.3661 131.665 67.3661 131.909ZM66.7738 139L72.7738 130.273H73.7923L67.7923 139H66.7738Z" fill="white"/>
</g>
<defs>
<clipPath id="clip0_304_1187">
<rect width="168" height="172" fill="white"/>
</clipPath>
</defs>
</svg>
