<svg width="76" height="36" viewBox="0 0 76 36" fill="none" xmlns="http://www.w3.org/2000/svg">
<rect x="0.5" y="0.5" width="75" height="34.6446" rx="5.5" fill="white"/>
<path d="M19.0516 13.0851V11.9132H27.2334V13.0851H23.803V22.8223H22.482V13.0851H19.0516ZM28.2521 22.8223V14.6405H29.4666V15.8763H29.5518C29.701 15.4714 29.9709 15.143 30.3615 14.8908C30.7521 14.6387 31.1925 14.5126 31.6825 14.5126C31.7749 14.5126 31.8903 14.5144 32.0288 14.518C32.1673 14.5215 32.272 14.5268 32.343 14.5339V15.8124C32.3004 15.8017 32.2028 15.7857 32.0501 15.7644C31.9009 15.7396 31.7429 15.7271 31.576 15.7271C31.1783 15.7271 30.8232 15.8106 30.5107 15.9775C30.2017 16.1408 29.9567 16.3681 29.7756 16.6593C29.598 16.9469 29.5092 17.2754 29.5092 17.6447V22.8223H28.2521ZM36.2409 23.0141C35.7224 23.0141 35.2519 22.9164 34.8293 22.7211C34.4067 22.5222 34.0711 22.2364 33.8225 21.8635C33.574 21.4871 33.4497 21.0325 33.4497 20.4999C33.4497 20.0311 33.542 19.6511 33.7267 19.3599C33.9113 19.0652 34.1581 18.8344 34.4671 18.6675C34.776 18.5006 35.1169 18.3763 35.4898 18.2946C35.8662 18.2094 36.2444 18.1419 36.6244 18.0922C37.1215 18.0283 37.5246 17.9803 37.8335 17.9484C38.146 17.9128 38.3733 17.8543 38.5154 17.7726C38.661 17.6909 38.7338 17.5489 38.7338 17.3464V17.3038C38.7338 16.7783 38.5899 16.3699 38.3023 16.0787C38.0182 15.7875 37.5867 15.6419 37.0079 15.6419C36.4078 15.6419 35.9372 15.7733 35.5963 16.0361C35.2554 16.2989 35.0157 16.5794 34.8772 16.8777L33.684 16.4516C33.8971 15.9544 34.1812 15.5673 34.5363 15.2903C34.895 15.0098 35.2856 14.8145 35.7082 14.7044C36.1343 14.5908 36.5534 14.5339 36.9653 14.5339C37.2281 14.5339 37.5299 14.5659 37.8708 14.6298C38.2153 14.6902 38.5473 14.8163 38.8669 15.008C39.1901 15.1998 39.4582 15.4892 39.6713 15.8763C39.8843 16.2633 39.9909 16.7818 39.9909 17.4317V22.8223H38.7338V21.7143H38.6698C38.5846 21.8919 38.4426 22.0819 38.2437 22.2843C38.0448 22.4867 37.7803 22.6589 37.45 22.801C37.1198 22.943 36.7167 23.0141 36.2409 23.0141ZM36.4326 21.8848C36.9298 21.8848 37.3488 21.7871 37.6897 21.5918C38.0342 21.3965 38.2934 21.1444 38.4674 20.8354C38.645 20.5265 38.7338 20.2016 38.7338 19.8606V18.7101C38.6805 18.774 38.5633 18.8326 38.3822 18.8859C38.2046 18.9356 37.9987 18.98 37.7643 19.019C37.5335 19.0545 37.308 19.0865 37.0878 19.1149C36.8712 19.1398 36.6954 19.1611 36.5605 19.1788C36.2338 19.2214 35.9284 19.2907 35.6443 19.3866C35.3637 19.4789 35.1365 19.6192 34.9624 19.8074C34.792 19.992 34.7068 20.2442 34.7068 20.5638C34.7068 21.0006 34.8683 21.3308 35.1915 21.5545C35.5182 21.7747 35.9319 21.8848 36.4326 21.8848ZM45.6092 22.9928C44.8422 22.9928 44.1816 22.8116 43.6277 22.4494C43.0737 22.0872 42.6475 21.5883 42.3493 20.9526C42.051 20.317 41.9018 19.5908 41.9018 18.774C41.9018 17.943 42.0545 17.2097 42.3599 16.5741C42.6689 15.9349 43.0985 15.4359 43.649 15.0773C44.2029 14.7151 44.8493 14.5339 45.5879 14.5339C46.1632 14.5339 46.6816 14.6405 47.1433 14.8535C47.6049 15.0666 47.9831 15.3649 48.2779 15.7484C48.5726 16.132 48.7555 16.5794 48.8265 17.0908H47.5694C47.4735 16.7179 47.2605 16.3876 46.9302 16.1C46.6035 15.8088 46.1632 15.6632 45.6092 15.6632C45.1191 15.6632 44.6895 15.791 44.3201 16.0467C43.9544 16.2989 43.6685 16.6557 43.4625 17.1174C43.2601 17.5755 43.1589 18.1135 43.1589 18.7314C43.1589 19.3635 43.2583 19.9139 43.4572 20.3827C43.6596 20.8514 43.9437 21.2154 44.3095 21.4746C44.6788 21.7339 45.112 21.8635 45.6092 21.8635C45.9359 21.8635 46.2324 21.8067 46.4988 21.693C46.7651 21.5794 46.9906 21.416 47.1752 21.203C47.3599 20.9899 47.4913 20.7342 47.5694 20.4359H48.8265C48.7555 20.9189 48.5797 21.3539 48.2992 21.741C48.0222 22.1245 47.6547 22.4299 47.1966 22.6572C46.742 22.8809 46.2129 22.9928 45.6092 22.9928ZM51.8361 19.8393L51.8148 18.2839H52.0705L55.65 14.6405H57.2054L53.3915 18.497H53.285L51.8361 19.8393ZM50.6642 22.8223V11.9132H51.9213V22.8223H50.6642ZM55.8631 22.8223L52.6671 18.774L53.562 17.9004L57.4611 22.8223H55.8631Z" fill="black"/>
<rect x="0.5" y="0.5" width="75" height="34.6446" rx="5.5" stroke="#868686"/>
</svg>
