<svg width="40" height="40" viewBox="0 0 40 40" fill="none" xmlns="http://www.w3.org/2000/svg">
<path d="M33.2031 5.83203H7.62891C6.63672 5.83203 5.83203 6.63672 5.83203 7.62891V33.2031C5.83203 34.1953 6.63672 35 7.62891 35H33.2031C34.1953 35 35 34.1953 35 33.2031V7.62891C35 6.63672 34.1953 5.83203 33.2031 5.83203ZM13.75 20C12.5977 20 11.668 19.0664 11.668 17.918C11.668 16.7695 12.6016 15.8359 13.75 15.8359C14.9023 15.8359 15.832 16.7695 15.832 17.918C15.832 19.0664 14.9023 20 13.75 20ZM22.5078 27.5H18.3281C17.875 27.5 17.5 27.125 17.5 26.668C17.5 26.2109 17.8711 25.8359 18.3281 25.8359H22.5078C22.9609 25.8359 23.3359 26.2109 23.3359 26.668C23.332 27.125 22.9609 27.5 22.5078 27.5ZM26.25 20C25.0977 20 24.168 19.0664 24.168 17.918C24.168 16.7695 25.1016 15.8359 26.25 15.8359C27.4023 15.8359 28.332 16.7695 28.332 17.918C28.332 19.0664 27.4023 20 26.25 20Z" fill="#B7B7B7"/>
</svg>
