<svg width="19" height="18" viewBox="0 0 19 18" fill="none" xmlns="http://www.w3.org/2000/svg">
<path d="M9.50065 3C12.9927 3 15.834 5.69175 15.834 9C15.834 12.3082 12.9927 15 9.50065 15C6.00861 15 3.16732 12.3082 3.16732 9C3.16732 5.69175 6.00861 3 9.50065 3ZM9.50065 1.5C5.12828 1.5 1.58398 4.85775 1.58398 9C1.58398 13.1423 5.12828 16.5 9.50065 16.5C13.873 16.5 17.4173 13.1423 17.4173 9C17.4173 4.85775 13.873 1.5 9.50065 1.5ZM13.459 8.25H10.2923V5.25H8.70898V8.25H5.54232V9.75H8.70898V12.75H10.2923V9.75H13.459V8.25Z" fill="#777777"/>
</svg>
