<svg width="29" height="29" viewBox="0 0 29 29" fill="none" xmlns="http://www.w3.org/2000/svg">
<path d="M14.5 1.20833L3.625 6.04166V13.2917C3.625 19.9979 8.265 26.2692 14.5 27.7917C20.735 26.2692 25.375 19.9979 25.375 13.2917V6.04166L14.5 1.20833ZM22.9583 13.2917C22.9583 15.5271 22.3421 17.7021 21.2908 19.5871L19.5388 17.835C20.3065 16.6734 20.6489 15.2821 20.508 13.8968C20.367 12.5116 19.7514 11.2177 18.7654 10.2346C17.632 9.10283 16.0957 8.46716 14.494 8.46716C12.8922 8.46716 11.356 9.10283 10.2225 10.2346C9.09075 11.368 8.45508 12.9043 8.45508 14.506C8.45508 16.1078 9.09075 17.644 10.2225 18.7775C11.2071 19.761 12.5007 20.375 13.8852 20.5159C15.2697 20.6567 16.6604 20.3159 17.8229 19.5508L19.9012 21.6292C18.4633 23.345 16.6025 24.6621 14.5 25.3025C9.6425 23.7921 6.04167 18.7533 6.04167 13.2917V7.61249L14.5 3.85458L22.9583 7.61249V13.2917ZM14.5 18.125C12.4942 18.125 10.875 16.5058 10.875 14.5C10.875 12.4942 12.4942 10.875 14.5 10.875C16.5058 10.875 18.125 12.4942 18.125 14.5C18.125 16.5058 16.5058 18.125 14.5 18.125Z" fill="#777777"/>
</svg>
