<svg width="24" height="23" viewBox="0 0 24 23" fill="none" xmlns="http://www.w3.org/2000/svg">
<path d="M6.5 3H17.5C18.2956 3 19.0587 3.31607 19.6213 3.87868C20.1839 4.44129 20.5 5.20435 20.5 6V17C20.5 17.7956 20.1839 18.5587 19.6213 19.1213C19.0587 19.6839 18.2956 20 17.5 20H6.5C5.70435 20 4.94129 19.6839 4.37868 19.1213C3.81607 18.5587 3.5 17.7956 3.5 17V6C3.5 5.20435 3.81607 4.44129 4.37868 3.87868C4.94129 3.31607 5.70435 3 6.5 3ZM6.5 4C5.96957 4 5.46086 4.21071 5.08579 4.58579C4.71071 4.96086 4.5 5.46957 4.5 6V14H9.5V14.5C9.5 15.163 9.76339 15.7989 10.2322 16.2678C10.7011 16.7366 11.337 17 12 17C12.663 17 13.2989 16.7366 13.7678 16.2678C14.2366 15.7989 14.5 15.163 14.5 14.5V14H19.5V6C19.5 5.46957 19.2893 4.96086 18.9142 4.58579C18.5391 4.21071 18.0304 4 17.5 4H6.5ZM4.5 17C4.5 17.5304 4.71071 18.0391 5.08579 18.4142C5.46086 18.7893 5.96957 19 6.5 19H17.5C18.0304 19 18.5391 18.7893 18.9142 18.4142C19.2893 18.0391 19.5 17.5304 19.5 17V15H15.46C15.22 16.7 13.76 18 12 18C10.24 18 8.78 16.7 8.54 15H4.5V17Z" fill="white"/>
</svg>
