<svg width="40" height="40" viewBox="0 0 40 40" fill="none" xmlns="http://www.w3.org/2000/svg">
<path d="M34.3945 22.8828L31.5156 20.0039L34.3906 17.1211C35.9805 15.5312 35.9805 12.9531 34.3906 11.3633L28.6367 5.60547C27.0469 4.01563 24.4687 4.01563 22.8828 5.60547L20.0039 8.48437L17.125 5.60547C15.5312 4.01563 12.9531 4.01563 11.3672 5.60547L5.60547 11.3672C4.01563 12.957 4.01563 15.5352 5.60547 17.125L8.48437 20.0039L5.60547 22.8867C4.01563 24.4766 4.01563 27.0547 5.60547 28.6445L11.3633 34.4023C12.957 35.9922 15.5352 35.9922 17.1211 34.4023L20 31.5234L22.8828 34.4023C24.4727 35.9922 27.0508 35.9922 28.6367 34.4023L34.3906 28.6445C35.9844 27.0508 35.9844 24.4727 34.3945 22.8828ZM27.0703 21.7812H21.7812V27.0703H18.2578V21.7812H12.9687V18.2578H18.2578V12.9687H21.7812V18.2578H27.0742V21.7812H27.0703Z" fill="#EAAF3B"/>
</svg>
