<svg width="64" height="64" viewBox="0 0 64 64" fill="none" xmlns="http://www.w3.org/2000/svg">
<path d="M31 41C30.5 41 30 40.8 29.6 40.4L20.6 31.4C19.8 30.6 19.8 29.4 20.6 28.6C21.4 27.8 22.6 27.8 23.4 28.6L31 36.2L43.6 23.6C44.4 22.8 45.6 22.8 46.4 23.6C47.2 24.4 47.2 25.6 46.4 26.4L32.4 40.4C32 40.8 31.5 41 31 41Z" fill="#58FFA5"/>
<path d="M52 58H12C8.7 58 6 55.3 6 52V14C6 10.7 8.7 8 12 8C13.1 8 14 8.9 14 10C14 11.1 13.1 12 12 12C10.9 12 10 12.9 10 14V52C10 53.1 10.9 54 12 54H52C53.1 54 54 53.1 54 52V14C54 12.9 53.1 12 52 12C50.9 12 50 11.1 50 10C50 8.9 50.9 8 52 8C55.3 8 58 10.7 58 14V52C58 55.3 55.3 58 52 58Z" fill="#58FFA5"/>
<path d="M20 14C18.9 14 18 13.1 18 12V8C18 6.9 18.9 6 20 6C21.1 6 22 6.9 22 8V12C22 13.1 21.1 14 20 14ZM36 12H28C26.9 12 26 11.1 26 10C26 8.9 26.9 8 28 8H36C37.1 8 38 8.9 38 10C38 11.1 37.1 12 36 12ZM44 14C42.9 14 42 13.1 42 12V8C42 6.9 42.9 6 44 6C45.1 6 46 6.9 46 8V12C46 13.1 45.1 14 44 14Z" fill="#58FFA5"/>
</svg>
