<svg width="64" height="64" viewBox="0 0 64 64" fill="none" xmlns="http://www.w3.org/2000/svg">
<path d="M7.56314 13.2399L18.1222 13.2646V16.3182C18.1222 17.284 18.9038 18.0655 19.8695 18.0655C20.8353 18.0655 21.6169 17.284 21.6169 16.3182V13.2728L35.0341 13.3043V16.3182C35.0341 17.284 35.8156 18.0655 36.7814 18.0655C37.7472 18.0655 38.5288 17.284 38.5288 16.3182V13.3125L47.6101 13.3338V28.5717H51.1048V13.3338C51.1048 11.3543 49.4957 9.74523 47.5162 9.74523H38.5288V6.33589C38.5288 5.37094 37.7472 4.58856 36.7814 4.58856C35.8156 4.58856 35.0341 5.37094 35.0341 6.33589V9.74523H21.6169V6.33589C21.6169 5.37094 20.8353 4.58856 19.8695 4.58856C18.9038 4.58856 18.1222 5.37094 18.1222 6.33589V9.74523H7.56314C5.58371 9.74523 3.97461 11.3543 3.97461 13.3338V47.0688C3.97461 49.0482 5.58371 50.659 7.56314 50.659H28.7V47.1643L7.46926 47.0688L7.56314 13.2399Z" fill="#FF8668"/>
<path d="M13.3086 25.6897C13.3085 26.0444 13.3784 26.3956 13.514 26.7233C13.6497 27.051 13.8486 27.3487 14.0994 27.5995C14.3502 27.8503 14.6479 28.0493 14.9756 28.185C15.3033 28.3208 15.6545 28.3907 16.0092 28.3907C16.3638 28.3907 16.715 28.3208 17.0427 28.185C17.3704 28.0493 17.6681 27.8503 17.9189 27.5995C18.1697 27.3487 18.3686 27.051 18.5043 26.7233C18.64 26.3956 18.7098 26.0444 18.7097 25.6897C18.7098 25.335 18.64 24.9838 18.5043 24.6561C18.3686 24.3284 18.1697 24.0306 17.9189 23.7798C17.6681 23.529 17.3704 23.3301 17.0427 23.1943C16.715 23.0586 16.3638 22.9887 16.0092 22.9887C15.6545 22.9887 15.3033 23.0586 14.9756 23.1943C14.6479 23.3301 14.3502 23.529 14.0994 23.7798C13.8486 24.0306 13.6497 24.3284 13.514 24.6561C13.3784 24.9838 13.3085 25.335 13.3086 25.6897Z" fill="#FF8668"/>
<path d="M25.2305 25.6897C25.2304 26.0444 25.3002 26.3956 25.4359 26.7233C25.5716 27.051 25.7705 27.3487 26.0213 27.5995C26.2721 27.8503 26.5698 28.0493 26.8975 28.185C27.2251 28.3208 27.5764 28.3907 27.931 28.3907C28.2857 28.3907 28.6369 28.3208 28.9646 28.185C29.2923 28.0493 29.59 27.8503 29.8408 27.5995C30.0915 27.3487 30.2904 27.051 30.4261 26.7233C30.5618 26.3956 30.6316 26.0444 30.6316 25.6897C30.6316 25.335 30.5618 24.9838 30.4261 24.6561C30.2904 24.3284 30.0915 24.0306 29.8408 23.7798C29.59 23.529 29.2923 23.3301 28.9646 23.1943C28.6369 23.0586 28.2857 22.9887 27.931 22.9887C27.5764 22.9887 27.2251 23.0586 26.8975 23.1943C26.5698 23.3301 26.2721 23.529 26.0213 23.7798C25.7705 24.0306 25.5716 24.3284 25.4359 24.6561C25.3002 24.9838 25.2304 25.335 25.2305 25.6897Z" fill="#FF8668"/>
<path d="M36.8047 25.6897C36.8046 26.0444 36.8744 26.3956 37.0101 26.7233C37.1458 27.051 37.3447 27.3487 37.5955 27.5995C37.8463 27.8503 38.144 28.0493 38.4717 28.185C38.7994 28.3208 39.1506 28.3907 39.5052 28.3907C39.8599 28.3907 40.2111 28.3208 40.5388 28.185C40.8665 28.0493 41.1642 27.8503 41.415 27.5995C41.6658 27.3487 41.8647 27.051 42.0004 26.7233C42.1361 26.3956 42.2059 26.0444 42.2058 25.6897C42.2059 25.335 42.1361 24.9838 42.0004 24.6561C41.8647 24.3284 41.6658 24.0306 41.415 23.7798C41.1642 23.529 40.8665 23.3301 40.5388 23.1943C40.2111 23.0586 39.8599 22.9887 39.5052 22.9887C39.1506 22.9887 38.7994 23.0586 38.4717 23.1943C38.144 23.3301 37.8463 23.529 37.5955 23.7798C37.3447 24.0306 37.1458 24.3284 37.0101 24.6561C36.8744 24.9838 36.8046 25.335 36.8047 25.6897Z" fill="#FF8668"/>
<path d="M13.3086 36.2304C13.3085 36.5851 13.3784 36.9363 13.514 37.264C13.6497 37.5917 13.8486 37.8894 14.0994 38.1402C14.3502 38.3911 14.6479 38.59 14.9756 38.7258C15.3033 38.8615 15.6545 38.9314 16.0092 38.9314C16.3638 38.9314 16.715 38.8615 17.0427 38.7258C17.3704 38.59 17.6681 38.3911 17.9189 38.1402C18.1697 37.8894 18.3686 37.5917 18.5043 37.264C18.64 36.9363 18.7098 36.5851 18.7097 36.2304C18.7098 35.8757 18.64 35.5245 18.5043 35.1968C18.3686 34.8691 18.1697 34.5714 17.9189 34.3205C17.6681 34.0697 17.3704 33.8708 17.0427 33.735C16.715 33.5993 16.3638 33.5294 16.0092 33.5294C15.6545 33.5294 15.3033 33.5993 14.9756 33.735C14.6479 33.8708 14.3502 34.0697 14.0994 34.3205C13.8486 34.5714 13.6497 34.8691 13.514 35.1968C13.3784 35.5245 13.3085 35.8757 13.3086 36.2304Z" fill="#FF8668"/>
<path d="M25.2305 36.2304C25.2304 36.5851 25.3002 36.9363 25.4359 37.264C25.5716 37.5917 25.7705 37.8894 26.0213 38.1402C26.2721 38.3911 26.5698 38.59 26.8975 38.7258C27.2251 38.8615 27.5764 38.9314 27.931 38.9314C28.2857 38.9314 28.6369 38.8615 28.9646 38.7258C29.2923 38.59 29.59 38.3911 29.8408 38.1402C30.0915 37.8894 30.2904 37.5917 30.4261 37.264C30.5618 36.9363 30.6316 36.5851 30.6316 36.2304C30.6316 35.8757 30.5618 35.5245 30.4261 35.1968C30.2904 34.8691 30.0915 34.5714 29.8408 34.3205C29.59 34.0697 29.2923 33.8708 28.9646 33.735C28.6369 33.5993 28.2857 33.5294 27.931 33.5294C27.5764 33.5294 27.2251 33.5993 26.8975 33.735C26.5698 33.8708 26.2721 34.0697 26.0213 34.3205C25.7705 34.5714 25.5716 34.8691 25.4359 35.1968C25.3002 35.5245 25.2304 35.8757 25.2305 36.2304Z" fill="#FF8668"/>
<path d="M46.239 32.3428C38.7719 32.3428 32.6973 38.4175 32.6973 45.8846C32.6973 53.3516 38.772 59.4263 46.239 59.4263C53.7061 59.4263 59.7809 53.3517 59.7809 45.8846C59.7809 38.4174 53.7062 32.3428 46.239 32.3428ZM46.239 55.9317C40.6984 55.9317 36.1919 51.4251 36.1919 45.8846C36.1919 40.344 40.6985 35.8374 46.239 35.8374C51.7796 35.8374 56.2862 40.344 56.2862 45.8846C56.2862 51.4251 51.7797 55.9317 46.239 55.9317Z" fill="#FF8668"/>
<path d="M51.3501 44.1372H47.9868V40.1545C47.9868 39.1888 47.2053 38.4072 46.2395 38.4072C45.2737 38.4072 44.4922 39.1888 44.4922 40.1545V45.8846C44.4922 46.8504 45.2737 47.6319 46.2395 47.6319C46.2527 47.6319 46.2657 47.6312 46.2787 47.6309C46.2919 47.6312 46.3048 47.6319 46.318 47.6319H51.35C52.3159 47.6319 53.0974 46.8504 53.0974 45.8846C53.0975 44.9188 52.316 44.1372 51.3501 44.1372Z" fill="#FF8668"/>
</svg>
