<svg width="40" height="40" viewBox="0 0 40 40" fill="none" xmlns="http://www.w3.org/2000/svg">
<path d="M32.9531 6.28906C32.1875 5.48437 31.1523 5.0625 30.0781 5.0625H27.2227V6.65234H30.0781C31.4648 6.65234 32.582 7.79687 32.582 9.21484V9.80469H7.39062V9.21094C7.39062 7.79297 8.50781 6.64844 9.89453 6.64844H12.8047V5.03906H9.89453C7.64063 5.03906 5.82031 6.92578 5.82031 9.21484V17.8711H5.82422C5.82031 17.9258 5.82031 17.9805 5.82031 18.0352V32.6719C5.82031 34.8281 7.57031 36.5781 9.72656 36.5781H30.2422C32.3984 36.5781 34.1484 34.8281 34.1484 32.6719V18.0313C34.1484 17.9766 34.1484 17.9219 34.1445 17.8672H34.1523V13.5508V9.23437C34.1523 8.13281 33.7187 7.07422 32.9531 6.28906ZM16.3945 28.9258H11.4883C10.8125 28.9258 10.2617 28.4297 10.2617 27.8164C10.2617 27.2031 10.8125 26.707 11.4883 26.707H16.3945C17.0703 26.707 17.6211 27.2031 17.6211 27.8164C17.625 28.4297 17.0742 28.9258 16.3945 28.9258ZM23.7578 22.8164H11.4883C10.8125 22.8164 10.2617 22.3203 10.2617 21.707C10.2617 21.0938 10.8125 20.5977 11.4883 20.5977H23.7578C24.4336 20.5977 24.9844 21.0938 24.9844 21.707C24.9844 22.3203 24.4336 22.8164 23.7578 22.8164ZM23.7578 16.7031H11.4883C10.8125 16.7031 10.2617 16.207 10.2617 15.5938C10.2617 14.9805 10.8125 14.4844 11.4883 14.4844H23.7578C24.4336 14.4844 24.9844 14.9805 24.9844 15.5938C24.9844 16.207 24.4336 16.7031 23.7578 16.7031Z" fill="#FF5B5B"/>
<path d="M13.6016 8.78125C13.1602 8.78125 12.8008 8.41797 12.8008 7.96484V4.25C12.8008 3.80078 13.1602 3.43359 13.6016 3.43359C14.043 3.43359 14.4023 3.79688 14.4023 4.25V7.96484C14.4023 8.41797 14.043 8.78125 13.6016 8.78125ZM14.4023 5.03906H25.6133V6.64062H14.4023V5.03906ZM26.4141 8.78125C25.9727 8.78125 25.6133 8.41797 25.6133 7.96484V4.25C25.6133 3.80078 25.9727 3.43359 26.4141 3.43359C26.8555 3.43359 27.2148 3.79688 27.2148 4.25V7.96484C27.2148 8.41797 26.8555 8.78125 26.4141 8.78125Z" fill="#FF5B5B"/>
</svg>
