<svg width="40" height="40" viewBox="0 0 40 40" fill="none" xmlns="http://www.w3.org/2000/svg">
<path d="M4.16699 31.6665V11.6665H35.8337V31.6665C35.8337 33.4998 34.3337 34.9998 32.5003 34.9998H7.50033C5.66699 34.9998 4.16699 33.4998 4.16699 31.6665Z" fill="#FFCDD2"/>
<path d="M35.8337 8.33333V13.3333H4.16699V8.33333C4.16699 6.5 5.66699 5 7.50033 5H32.5003C34.3337 5 35.8337 6.5 35.8337 8.33333Z" fill="#F44336"/>
<path d="M25 8.3335C25 8.99654 25.2634 9.63242 25.7322 10.1013C26.2011 10.5701 26.837 10.8335 27.5 10.8335C28.163 10.8335 28.7989 10.5701 29.2678 10.1013C29.7366 9.63242 30 8.99654 30 8.3335C30 7.67045 29.7366 7.03457 29.2678 6.56573C28.7989 6.09689 28.163 5.8335 27.5 5.8335C26.837 5.8335 26.2011 6.09689 25.7322 6.56573C25.2634 7.03457 25 7.67045 25 8.3335Z" fill="#B71C1C"/>
<path d="M10 8.3335C10 8.99654 10.2634 9.63242 10.7322 10.1013C11.2011 10.5701 11.837 10.8335 12.5 10.8335C13.163 10.8335 13.7989 10.5701 14.2678 10.1013C14.7366 9.63242 15 8.99654 15 8.3335C15 7.67045 14.7366 7.03457 14.2678 6.56573C13.7989 6.09689 13.163 5.8335 12.5 5.8335C11.837 5.8335 11.2011 6.09689 10.7322 6.56573C10.2634 7.03457 10 7.67045 10 8.3335Z" fill="#B71C1C"/>
<path d="M27.4997 2.5C26.583 2.5 25.833 3.25 25.833 4.16667V8.33333C25.833 9.25 26.583 10 27.4997 10C28.4163 10 29.1663 9.25 29.1663 8.33333V4.16667C29.1663 3.25 28.4163 2.5 27.4997 2.5ZM12.4997 2.5C11.583 2.5 10.833 3.25 10.833 4.16667V8.33333C10.833 9.25 11.583 10 12.4997 10C13.4163 10 14.1663 9.25 14.1663 8.33333V4.16667C14.1663 3.25 13.4163 2.5 12.4997 2.5Z" fill="#BDBDBD"/>
<path d="M18.5 29.4165C18.5 29.2498 18.5 28.9998 18.5833 28.8332C18.6667 28.6665 18.75 28.4998 18.9167 28.4165C19.0833 28.3332 19.1667 28.1665 19.3333 28.1665C19.5 28.0832 19.75 28.0832 19.9167 28.0832C20.0833 28.0832 20.3333 28.0832 20.5 28.1665L21 28.4165C21.1667 28.4998 21.25 28.6665 21.3333 28.8332C21.4167 28.9998 21.4167 29.1665 21.4167 29.4165C21.4167 29.5832 21.4167 29.8332 21.3333 29.9998C21.25 30.1665 21.1667 30.3332 21 30.4165C20.8333 30.4998 20.75 30.6665 20.5 30.6665C20.25 30.6665 20.25 30.8332 20 30.8332C19.75 30.8332 19.5833 30.8332 19.4167 30.7498C19.25 30.6665 19.0833 30.5832 19 30.4998C18.8333 30.4165 18.75 30.2498 18.6667 30.0832C18.5833 29.8332 18.5 29.6665 18.5 29.4165ZM21.0833 25.8332H18.9167L18.5833 16.6665H21.3333L21.0833 25.8332Z" fill="#F44336"/>
</svg>
