<svg width="29" height="37" viewBox="0 0 29 37" fill="none" xmlns="http://www.w3.org/2000/svg">
<g clip-path="url(#clip0_565_2104)">
<path d="M27.3881 0C28.2774 0 28.9988 0.920337 28.9988 2.05496V34.9435C28.9988 36.0781 28.2774 36.9985 27.3881 36.9985H27.0498C26.5955 36.9985 26.1629 36.7564 25.8573 36.3279L22.6396 31.8264L19.759 35.8561C19.6081 36.0671 19.4244 36.2356 19.2196 36.3508C19.0148 36.4661 18.7934 36.5257 18.5695 36.5257C18.3456 36.5257 18.1242 36.4661 17.9194 36.3508C17.7146 36.2356 17.5309 36.0671 17.3799 35.8561L14.4994 31.8264L11.6188 35.8577C11.4679 36.0689 11.2841 36.2376 11.0792 36.353C10.8743 36.4684 10.6527 36.528 10.4287 36.528C10.2047 36.528 9.98313 36.4684 9.7782 36.353C9.57327 36.2376 9.38947 36.0689 9.23853 35.8577L6.35919 31.8279L3.14154 36.3294C2.99034 36.541 2.80616 36.71 2.60078 36.8255C2.39541 36.941 2.17339 37.0004 1.94896 37H1.61064C1.39903 37 1.18949 36.9468 0.993997 36.8434C0.798506 36.7401 0.620897 36.5886 0.471319 36.3976C0.321741 36.2066 0.203127 35.9799 0.122256 35.7304C0.041385 35.4809 -0.000158297 35.2135 4.53263e-07 34.9435V2.05496C4.53263e-07 0.920337 0.721345 0 1.61064 0H27.3881ZM21.2356 11.8195C21.0996 11.6125 20.9329 11.4419 20.7452 11.3171C20.5575 11.1924 20.3523 11.1162 20.1415 11.0927C19.9306 11.0692 19.7182 11.099 19.5164 11.1803C19.3145 11.2616 19.1272 11.3929 18.9652 11.5666L13.5485 17.3646L10.6087 13.8652C10.454 13.681 10.2724 13.5376 10.0742 13.443C9.87609 13.3485 9.66527 13.3046 9.45383 13.314C9.24239 13.3234 9.03447 13.3858 8.84193 13.4977C8.6494 13.6096 8.47603 13.7688 8.33172 13.9661C8.1874 14.1635 8.07497 14.3953 8.00085 14.6481C7.92672 14.9009 7.89235 15.1699 7.8997 15.4396C7.90705 15.7094 7.95598 15.9747 8.04368 16.2203C8.13138 16.466 8.25615 16.6872 8.41086 16.8713L11.9463 21.0768C12.1095 21.2717 12.3027 21.4211 12.5137 21.5153C12.7246 21.6095 12.9487 21.6466 13.1715 21.6241C13.4478 21.7821 13.7533 21.8375 14.0532 21.7841C14.353 21.7306 14.635 21.5705 14.8667 21.3219L21.0374 14.7146C21.1994 14.5411 21.3331 14.3286 21.4307 14.0892C21.5283 13.8498 21.588 13.5882 21.6065 13.3194C21.6249 13.0506 21.6016 12.7797 21.5379 12.5224C21.4743 12.265 21.3716 12.0262 21.2356 11.8195Z" fill="#8AD96A"/>
</g>
<defs>
<clipPath id="clip0_565_2104">
<rect width="29" height="37" fill="white"/>
</clipPath>
</defs>
</svg>
