<svg width="720" height="489" viewBox="0 0 720 489" fill="none" xmlns="http://www.w3.org/2000/svg">
<path d="M159.738 70.015H68.2422V200.069H159.738V70.015Z" fill="#E0E0E0"/>
<path d="M155.15 70.015H63.6543V200.069H155.15V70.015Z" fill="#F5F5F5"/>
<path d="M143.79 84.0983H75.0234V185.977H143.79V84.0983Z" fill="white"/>
<path d="M143.789 185.986C143.789 185.986 143.789 185.81 143.789 185.487C143.789 185.165 143.789 184.666 143.789 184.04C143.789 182.759 143.789 180.881 143.789 178.456C143.789 173.566 143.789 166.456 143.72 157.468C143.72 139.502 143.66 114.054 143.61 84.1178L143.839 84.3427H75.0832L75.3325 84.0982C75.3325 122.534 75.3325 157.967 75.3325 185.986L75.1331 185.791L125.189 185.888L139.012 185.937H142.643H143.899H142.682H139.092H125.309L75.1331 186.035H74.9336V185.84C74.9336 157.82 74.9336 122.387 74.9336 83.9515V83.707H75.1929H143.949H144.178V84.108C144.178 114.133 144.089 139.619 144.069 157.624C144.069 166.593 144.019 173.683 143.999 178.553C143.999 180.969 143.999 182.827 143.999 184.099C143.999 184.715 143.999 185.194 143.999 185.517C143.999 185.84 143.789 185.986 143.789 185.986Z" fill="#E0E0E0"/>
<path d="M155.419 70.015C154.946 70.8466 154.399 71.6354 153.784 72.372C152.727 73.7608 151.211 75.6581 149.495 77.7119C147.78 79.7657 146.164 81.575 144.967 82.8659C144.366 83.5952 143.698 84.2695 142.973 84.8806C143.489 84.0873 144.073 83.3381 144.718 82.641L149.126 77.3989L153.514 72.1275C154.087 71.3717 154.725 70.665 155.419 70.015Z" fill="#E0E0E0"/>
<path d="M144.139 185.654C147.553 190.969 151.568 195.89 156.107 200.324L144.139 185.654Z" fill="white"/>
<path d="M156.137 200.363C155.369 199.819 154.667 199.193 154.042 198.495C152.448 196.905 150.937 195.237 149.515 193.497C147.859 191.453 146.473 189.507 145.525 188.069C144.98 187.311 144.513 186.502 144.129 185.654C144.746 186.352 145.309 187.094 145.814 187.874C146.812 189.263 148.248 191.16 149.893 193.184C151.539 195.209 153.135 196.989 154.292 198.26C154.957 198.917 155.574 199.62 156.137 200.363Z" fill="#E0E0E0"/>
<path d="M63.6445 199.962L75.6125 185.468L63.6445 199.962Z" fill="white"/>
<path d="M75.6325 185.468C73.8273 188.031 71.89 190.502 69.828 192.871C67.8985 195.342 65.8343 197.709 63.6445 199.962C65.4497 197.399 67.387 194.928 69.449 192.558C71.3786 190.088 73.4427 187.721 75.6325 185.468Z" fill="#E0E0E0"/>
<path d="M63.6543 70.015C65.7218 72.191 67.6662 74.4764 69.4787 76.861C71.4198 79.1377 73.2311 81.5178 74.9042 83.9906C72.8403 81.8143 70.8992 79.5288 69.0898 77.1446C67.146 74.8676 65.3315 72.4875 63.6543 70.015Z" fill="#E0E0E0"/>
<path d="M122.368 104.783H99.3398V168.891H122.368V104.783Z" fill="#E0E0E0"/>
<path d="M283.099 51.0614V108.02H199.682L196.68 51.4624L283.099 51.0614Z" fill="#E0E0E0"/>
<path d="M196.668 51.4623V107.893H280.085V51.4623L196.668 51.4623Z" fill="white"/>
<path d="M280.484 108.284H196.279V51.0714H280.484V108.284ZM197.077 107.512H279.696V51.8342H197.077V107.512Z" fill="#E0E0E0"/>
<path d="M271.06 58.4746H205.715V100.881H271.06V58.4746Z" fill="white"/>
<path d="M271.059 58.4746H269.803H266.212H252.748L205.714 58.68L205.903 58.4942C205.903 71.4527 205.903 85.8097 205.903 100.9L205.704 100.705H271.049L270.88 100.861C270.88 87.9613 270.949 77.3892 270.969 70.0053C270.969 66.328 270.969 63.4527 270.969 61.4771C270.969 60.4991 270.969 59.7558 270.969 59.2375C270.969 58.7191 270.969 58.4551 270.969 58.4551C270.969 58.4551 270.969 58.6996 270.969 59.1984C270.969 59.6971 270.969 60.4502 270.969 61.4086C270.969 63.3646 270.969 66.24 271.019 69.9075C271.019 77.3011 271.069 87.9222 271.099 100.861V101.027H270.939H205.594H205.385V100.822C205.385 85.7315 205.385 71.3745 205.385 58.416V58.2888H205.574L252.738 58.3768L266.162 58.4355H269.713H270.92L271.059 58.4746Z" fill="#E0E0E0"/>
<path d="M196.68 51.3059C197.195 51.549 197.678 51.8546 198.116 52.2154C198.964 52.8218 200.111 53.6824 201.387 54.6604C202.664 55.6384 203.741 56.6165 204.519 57.2717C204.964 57.626 205.365 58.0296 205.716 58.4746C204.126 57.385 202.595 56.2164 201.128 54.9734C199.567 53.8446 198.082 52.6197 196.68 51.3059Z" fill="#E0E0E0"/>
<path d="M280.096 51.4624C278.725 52.7859 277.258 54.0115 275.708 55.1299C274.241 56.3507 272.688 57.4684 271.061 58.4747C272.432 57.1512 273.899 55.9256 275.449 54.8072C276.914 53.5838 278.467 52.466 280.096 51.4624Z" fill="#E0E0E0"/>
<path d="M280.026 107.903L270.721 100.509L280.026 107.903Z" fill="white"/>
<path d="M270.721 100.509C272.394 101.585 273.993 102.768 275.508 104.049C277.1 105.233 278.61 106.52 280.026 107.903C278.351 106.833 276.755 105.65 275.249 104.362C273.649 103.184 272.136 101.896 270.721 100.509Z" fill="#E0E0E0"/>
<path d="M196.68 107.893C198.035 106.586 199.485 105.376 201.018 104.274C202.469 103.064 204.005 101.956 205.616 100.959C204.265 102.274 202.815 103.487 201.277 104.587C199.828 105.796 198.291 106.901 196.68 107.893Z" fill="#E0E0E0"/>
<path d="M218.979 71.6874V85.8879H260.099V71.6874H218.979Z" fill="#E0E0E0"/>
<path d="M622.949 306.28C622.949 306.28 615.459 302.857 609.585 320.07C603.71 337.283 601.965 346.975 601.965 346.975C601.965 346.975 600.28 350.652 597.597 348.804C594.914 346.955 590.755 341.214 586.935 342.936C583.116 344.657 582.298 349.43 584.103 355.973C585.908 362.515 589.329 376.98 589.628 378.29C589.927 379.601 589.459 381.606 587.434 380.638C585.409 379.669 573.023 369.645 568.485 375.679C563.947 381.713 572.065 399.151 572.913 401.049C573.761 402.946 573.491 403.885 572.594 404.52C571.696 405.156 567.876 401.401 564.236 398.652C560.596 395.904 555.898 393.43 553.595 397.127C551.291 400.824 552.487 414.604 569.113 434.829L577.441 443.699L589.538 441.244C615.1 434.447 624.315 423.983 624.664 419.66C625.013 415.337 619.678 414.672 615.14 414.77C610.602 414.868 605.226 415.699 604.887 414.662C604.548 413.626 604.887 412.706 606.703 411.728C608.518 410.75 625.502 401.215 625.482 393.733C625.462 386.251 609.435 387.249 607.211 386.887C604.987 386.525 605.825 384.589 606.832 383.718C607.839 382.848 619.289 373.088 624.664 368.833C630.04 364.579 632.334 360.364 630.18 356.657C628.025 352.95 621.303 355.327 618.032 355.278C614.761 355.229 615.589 351.278 615.589 351.278C615.589 351.278 619.977 342.476 625.562 325.117C631.147 307.757 622.789 306.261 622.789 306.261" fill="#EBEBEB"/>
<path d="M575.865 446.154C579.994 433.44 587.714 410.995 594.246 391.679C600.779 372.364 606.673 354.887 610.872 342.212C612.956 335.875 614.642 330.75 615.858 327.19C616.447 325.43 616.856 324.051 617.215 323.102C617.368 322.652 617.487 322.3 617.574 322.046C617.654 321.801 617.703 321.684 617.703 321.684C617.703 321.684 617.703 321.811 617.604 322.055C617.504 322.3 617.424 322.662 617.285 323.121C616.985 324.099 616.556 325.459 615.998 327.229C614.881 330.799 613.235 335.943 611.161 342.29C607.032 355.004 601.188 372.491 594.655 391.797C588.122 411.102 580.353 433.557 576.155 446.232" fill="#E0E0E0"/>
<path d="M592.43 351.18C592.595 351.422 592.739 351.677 592.859 351.943C593.118 352.442 593.467 353.185 593.856 354.095C594.704 355.924 595.851 358.476 596.958 361.312C598.065 364.149 599.112 366.642 599.95 368.579C600.299 369.449 600.608 370.193 600.847 370.779C600.983 371.039 601.084 371.315 601.146 371.601C600.981 371.36 600.837 371.104 600.718 370.838C600.458 370.339 600.109 369.606 599.72 368.687C598.892 366.848 597.825 364.285 596.668 361.449C595.511 358.613 594.474 356.129 593.676 354.202L592.759 352.002C592.614 351.743 592.503 351.467 592.43 351.18Z" fill="#E0E0E0"/>
<path d="M602.315 371.64C602.265 371.542 607.531 369.097 614.073 366.163C620.616 363.229 625.942 360.941 626.041 361.039C626.141 361.136 620.815 363.581 614.273 366.506C607.73 369.43 602.315 371.748 602.315 371.64Z" fill="#E0E0E0"/>
<path d="M590.885 400.863C591.176 400.77 591.477 400.711 591.782 400.687L594.226 400.335C596.28 400.041 599.133 399.621 602.254 399.034C605.376 398.447 608.179 397.85 610.233 397.381L612.637 396.843C612.928 396.754 613.23 396.702 613.534 396.687C613.258 396.81 612.971 396.908 612.677 396.98C612.118 397.146 611.31 397.381 610.303 397.645C608.308 398.173 605.476 398.828 602.324 399.406C599.173 399.983 596.34 400.383 594.256 400.599C593.258 400.716 592.381 400.794 591.792 400.833C591.491 400.869 591.188 400.879 590.885 400.863Z" fill="#E0E0E0"/>
<path d="M577.82 384.266C578.036 384.442 578.23 384.643 578.399 384.863L579.865 386.584C581.092 388.041 582.757 390.075 584.582 392.334C586.407 394.594 588.053 396.647 589.22 398.154L590.586 399.943C590.765 400.156 590.922 400.385 591.055 400.628C590.836 400.455 590.642 400.254 590.476 400.031L589.01 398.32C587.784 396.853 586.118 394.828 584.283 392.569C582.448 390.31 580.822 388.246 579.655 386.75L578.289 384.96C578.106 384.748 577.948 384.515 577.82 384.266Z" fill="#E0E0E0"/>
<path d="M564.416 408.804C564.686 409.036 564.93 409.295 565.144 409.577C565.643 410.144 566.271 410.887 567.029 411.767C568.615 413.626 570.769 416.217 573.143 419.093C575.516 421.968 577.641 424.579 579.127 426.486L580.922 428.746C581.151 429.017 581.354 429.309 581.53 429.616C581.267 429.378 581.024 429.119 580.802 428.843L578.917 426.653C577.341 424.785 575.177 422.203 572.804 419.327C570.43 416.452 568.306 413.841 566.82 411.934C566.101 411.024 565.493 410.261 565.034 409.665C564.8 409.398 564.593 409.11 564.416 408.804Z" fill="#E0E0E0"/>
<path d="M581.371 429C581.737 428.891 582.11 428.809 582.488 428.755L585.57 428.208C588.173 427.738 591.763 427.073 595.703 426.252C599.642 425.43 603.193 424.569 605.756 423.934L608.798 423.19C609.166 423.082 609.543 423.004 609.925 422.956C609.575 423.112 609.211 423.236 608.838 423.327C608.13 423.542 607.102 423.846 605.846 424.188C603.292 424.892 599.752 425.782 595.802 426.613C591.853 427.445 588.253 428.08 585.64 428.481C584.333 428.687 583.266 428.833 582.538 428.921C582.152 428.984 581.762 429.01 581.371 429Z" fill="#E0E0E0"/>
<path d="M645.201 445.802C645.201 445.939 508.177 446.056 339.199 446.056C170.221 446.056 33.1973 445.968 33.1973 445.802C33.1973 445.635 170.191 445.547 339.239 445.547C508.287 445.547 645.201 445.665 645.201 445.802Z" fill="#0F1417"/>
<path d="M458.058 105.452L448.568 113.411L461.235 127.935L470.725 119.976L458.058 105.452Z" fill="#0F1417"/>
<path d="M466.258 104.323L446.731 120.773L433.037 105.125C438.423 97.7119 444.846 92.1177 452.535 88.6752L466.258 104.323Z" fill="#455A64"/>
<path d="M450.023 118.015C449.913 118.113 446.612 114.553 442.643 110.084C438.673 105.614 435.542 101.917 435.662 101.82C435.781 101.722 439.072 105.282 443.042 109.751C447.011 114.221 450.133 117.927 450.023 118.015Z" fill="#0F1417"/>
<path d="M453.714 114.886C452.924 114.133 452.191 113.325 451.52 112.47C450.203 110.954 448.418 108.851 446.453 106.504L441.466 100.48L439.97 98.6508C439.611 98.201 439.422 97.9956 439.422 97.9662C439.621 97.7902 442.942 101.497 446.872 106.181C448.867 108.529 450.582 110.67 451.859 112.245C452.555 113.07 453.176 113.954 453.714 114.886Z" fill="#0F1417"/>
<path d="M458.699 110.71C457.898 109.959 457.154 109.152 456.475 108.294C455.148 106.758 453.353 104.617 451.378 102.24L446.392 96.1178L444.896 94.2498C444.702 94.0271 444.528 93.7882 444.377 93.5359C445.234 94.2301 446.004 95.0213 446.671 95.8929C448.017 97.4088 449.832 99.5408 451.797 101.917C453.762 104.294 455.527 106.475 456.784 108.069C457.497 108.895 458.137 109.778 458.699 110.71Z" fill="#0F1417"/>
<path d="M463.198 106.798C463.088 106.886 459.807 103.296 455.868 98.7779C451.928 94.2596 448.836 90.5138 448.946 90.416C449.056 90.3182 452.327 93.9173 456.267 98.4454C460.206 102.974 463.308 106.709 463.198 106.798Z" fill="#0F1417"/>
<path d="M625.17 115.339L616.543 106.486L602.454 119.689L611.081 128.541L625.17 115.339Z" fill="#0F1417"/>
<path d="M625.583 124.049L607.811 105.81L623 91.5798C630.819 96.4698 636.863 102.465 640.762 109.82L625.583 124.049Z" fill="#455A64"/>
<path d="M610.783 108.871C610.684 108.763 614.124 105.34 618.473 101.223C622.821 97.1055 626.452 93.8488 626.521 93.9466C626.591 94.0444 623.18 97.4674 618.832 101.595C614.483 105.722 610.883 108.969 610.783 108.871Z" fill="#0F1417"/>
<path d="M614.174 112.343C614.883 111.522 615.656 110.756 616.488 110.054C617.954 108.685 620.008 106.817 622.292 104.763L628.166 99.5506L629.952 97.9858C630.381 97.6142 630.59 97.4284 630.62 97.4186C630.809 97.6044 627.209 101.057 622.641 105.145C620.357 107.189 618.263 109.057 616.727 110.318C615.932 111.058 615.078 111.735 614.174 112.343Z" fill="#0F1417"/>
<path d="M618.682 116.969C619.399 116.14 620.183 115.368 621.025 114.661C622.511 113.282 624.596 111.404 626.92 109.35L632.904 104.128L634.729 102.563C634.951 102.368 635.185 102.186 635.427 102.015C634.767 102.893 634.004 103.69 633.153 104.392C631.677 105.79 629.593 107.678 627.279 109.732C624.965 111.785 622.831 113.644 621.295 114.935C620.478 115.677 619.605 116.357 618.682 116.969Z" fill="#0F1417"/>
<path d="M622.901 121.184C622.801 121.076 626.291 117.683 630.69 113.585C635.088 109.487 638.738 106.26 638.838 106.367C638.938 106.475 635.447 109.868 631.049 113.957C626.65 118.045 623 121.272 622.901 121.184Z" fill="#0F1417"/>
<path d="M545.548 73.0762H530.768V95.6973H545.548V73.0762Z" fill="#0F1417"/>
<path d="M553.446 79.8439H523.027V55.4623C533.689 52.8804 543.862 52.7239 553.476 55.4623L553.446 79.8439Z" fill="#5B87C4"/>
<path d="M553.836 55.5602C553.479 55.7788 553.102 55.9622 552.709 56.1078C551.667 56.5576 550.598 56.943 549.507 57.2619C547.873 57.7554 546.207 58.1409 544.521 58.4159C542.472 58.7348 540.402 58.9048 538.327 58.9245C536.254 58.9275 534.184 58.7771 532.134 58.4746C530.448 58.2182 528.782 57.849 527.147 57.3695C526.055 57.0562 524.983 56.6806 523.936 56.2448C523.539 56.1101 523.161 55.9295 522.809 55.7069C522.809 55.6188 524.484 56.2937 527.247 57.0174C528.868 57.4376 530.513 57.7641 532.174 57.9954C534.203 58.2647 536.249 58.4019 538.297 58.4061C540.347 58.3833 542.392 58.2265 544.421 57.9367C546.074 57.7022 547.712 57.3757 549.328 56.9587C552.16 56.1665 553.796 55.4721 553.836 55.5602Z" fill="#0F1417"/>
<path d="M533.08 79.7754C532.94 79.7754 532.82 75.0907 532.82 69.3205C532.82 63.5503 532.94 58.8657 533.08 58.8657C533.219 58.8657 533.339 63.5406 533.339 69.3205C533.339 75.1005 533.229 79.7754 533.08 79.7754Z" fill="#0F1417"/>
<path d="M538.875 79.9123C538.735 79.9123 538.615 75.2082 538.615 69.4086C538.615 63.6091 538.735 58.9147 538.875 58.9147C539.014 58.9147 539.134 63.6091 539.134 69.4086C539.134 75.2082 539.024 79.9123 538.875 79.9123Z" fill="#0F1417"/>
<path d="M544.669 79.8243C544.53 79.8243 544.41 75.1202 544.41 69.3206C544.41 63.5211 544.53 58.8169 544.669 58.8169C544.809 58.8169 544.929 63.5211 544.929 69.3206C544.929 75.1202 544.819 79.8243 544.669 79.8243Z" fill="#0F1417"/>
<path d="M549.457 79.8243C549.307 79.8243 549.197 74.7387 549.197 68.4697C549.197 62.2007 549.307 57.1151 549.457 57.1151C549.606 57.1151 549.716 62.2007 549.716 68.4697C549.716 74.7387 549.636 79.8243 549.457 79.8243Z" fill="#0F1417"/>
<path d="M527.605 79.6777C527.465 79.6777 527.346 74.5921 527.346 68.3231C527.346 62.0541 527.465 56.9685 527.605 56.9685C527.745 56.9685 527.864 62.0541 527.864 68.3231C527.864 74.5921 527.755 79.6777 527.605 79.6777Z" fill="#0F1417"/>
<path d="M612.415 268.727C654.413 227.543 654.413 160.771 612.415 119.587C570.417 78.403 502.325 78.403 460.327 119.587C418.329 160.771 418.329 227.543 460.327 268.727C502.325 309.91 570.417 309.91 612.415 268.727Z" fill="#5B87C4"/>
<path d="M536.371 281.889C586.253 281.889 626.69 242.236 626.69 193.321C626.69 144.407 586.253 104.754 536.371 104.754C486.49 104.754 446.053 144.407 446.053 193.321C446.053 242.236 486.49 281.889 536.371 281.889Z" fill="#FAFAFA"/>
<path d="M626.689 193.321C626.689 193.321 626.689 192.842 626.62 191.893C626.55 190.945 626.62 189.527 626.43 187.678C626.074 182.285 625.213 176.936 623.857 171.698C622.88 167.917 621.643 164.205 620.157 160.588C618.41 156.274 616.308 152.108 613.874 148.128C607.917 138.405 600.133 129.879 590.935 123.003C579.771 114.674 566.775 109.021 552.986 106.494C541.299 104.386 529.305 104.522 517.671 106.895C513.585 107.765 509.561 108.892 505.623 110.269C488.866 116.255 474.291 126.971 463.735 141.067C460.98 144.737 458.526 148.616 456.395 152.666C455.288 154.69 454.34 156.793 453.403 158.905C452.465 161.018 451.627 163.209 450.919 165.438C449.389 169.901 448.241 174.481 447.488 179.13C446.732 183.831 446.335 188.582 446.302 193.341C446.337 198.103 446.73 202.856 447.479 207.561C448.242 212.208 449.39 216.787 450.909 221.253C451.627 223.473 452.525 225.625 453.393 227.776C454.26 229.928 455.308 232.001 456.385 234.026C458.516 238.078 460.974 241.956 463.735 245.625C474.289 259.725 488.864 270.445 505.623 276.432C509.561 277.809 513.585 278.936 517.671 279.806C521.654 280.622 525.689 281.174 529.749 281.459C537.517 282.034 545.329 281.614 552.986 280.207C566.775 277.68 579.771 272.027 590.935 263.698C600.136 256.825 607.92 248.298 613.874 238.573C616.306 234.592 618.408 230.426 620.157 226.114C623.699 217.467 625.817 208.322 626.43 199.023C626.6 197.174 626.57 195.756 626.62 194.808C626.669 193.859 626.689 193.37 626.689 193.37C626.689 193.37 626.689 193.859 626.689 194.808C626.689 195.756 626.689 197.174 626.55 199.023C626.004 208.348 623.926 217.526 620.396 226.202C618.659 230.535 616.565 234.721 614.133 238.72C608.191 248.492 600.406 257.065 591.194 263.982C579.991 272.361 566.944 278.055 553.096 280.608C545.404 282.033 537.555 282.467 529.749 281.899C525.669 281.615 521.615 281.063 517.611 280.246C513.501 279.379 509.453 278.248 505.493 276.862C488.637 270.854 473.974 260.082 463.356 245.908C460.585 242.22 458.117 238.322 455.976 234.25C454.859 232.216 453.901 230.084 452.924 227.962C451.947 225.84 451.149 223.639 450.431 221.4C448.901 216.916 447.747 212.317 446.98 207.649C445.397 198.18 445.397 188.521 446.98 179.052C447.751 174.404 448.905 169.825 450.431 165.36C451.159 163.121 452.056 160.959 452.934 158.798C453.812 156.636 454.859 154.553 455.976 152.519C458.124 148.449 460.595 144.551 463.366 140.861C473.98 126.689 488.64 115.921 505.493 109.917C509.45 108.532 513.494 107.402 517.601 106.533C521.608 105.717 525.666 105.165 529.749 104.881C537.552 104.312 545.398 104.746 553.086 106.172C566.938 108.713 579.987 114.408 591.184 122.798C600.396 129.719 608.18 138.295 614.123 148.069C618.59 155.447 621.949 163.418 624.096 171.737C625.427 176.993 626.258 182.359 626.58 187.766C626.729 189.615 626.679 191.033 626.719 191.981C626.759 192.93 626.689 193.321 626.689 193.321Z" fill="#0F1417"/>
<path d="M613.437 190.113C610.574 190.231 608.24 190.113 608.231 189.869C608.221 189.624 610.524 189.292 613.387 189.135C616.249 188.979 618.583 189.077 618.603 189.37C618.623 189.663 616.279 189.996 613.437 190.113Z" fill="#0F1417"/>
<path d="M611.51 210.505C608.718 209.859 606.523 209.145 606.523 208.901C606.523 208.656 608.897 208.95 611.7 209.546C614.502 210.143 616.686 210.867 616.686 211.15C616.686 211.434 614.283 211.14 611.51 210.505Z" fill="#0F1417"/>
<path d="M604.06 229.625C601.537 228.275 599.602 226.994 599.722 226.779C599.842 226.563 601.996 227.453 604.529 228.735C607.062 230.016 609.007 231.336 608.868 231.59C608.728 231.845 606.574 230.984 604.06 229.625Z" fill="#0F1417"/>
<path d="M591.644 246.094C589.589 244.138 588.063 242.397 588.243 242.182C588.422 241.967 590.238 243.424 592.332 245.361C594.426 247.297 595.932 249.028 595.733 249.273C595.533 249.517 593.688 248.06 591.644 246.094Z" fill="#0F1417"/>
<path d="M575.188 258.71C573.752 256.275 572.754 254.202 572.974 254.075C573.193 253.947 574.569 255.806 576.045 258.212C577.521 260.617 578.519 262.691 578.269 262.847C578.02 263.004 576.634 261.126 575.188 258.71Z" fill="#0F1417"/>
<path d="M555.89 266.524C555.172 263.796 554.783 261.537 555.033 261.478C555.282 261.419 556.09 263.561 556.858 266.27C557.626 268.979 558.005 271.238 557.715 271.317C557.426 271.395 556.608 269.243 555.89 266.524Z" fill="#0F1417"/>
<path d="M535.156 268.95C535.156 266.133 535.445 263.855 535.694 263.855C535.943 263.855 536.153 266.143 536.153 268.95C536.153 271.757 535.904 274.045 535.614 274.045C535.325 274.045 535.106 271.776 535.156 268.95Z" fill="#0F1417"/>
<path d="M514.549 265.889C515.367 263.19 516.225 261.067 516.474 261.136C516.723 261.204 516.285 263.454 515.477 266.163C514.669 268.872 513.841 271.053 513.552 270.916C513.263 270.779 513.682 268.588 514.549 265.889Z" fill="#0F1417"/>
<path d="M495.472 257.468C496.998 255.092 498.404 253.263 498.624 253.39C498.843 253.517 497.806 255.581 496.32 257.987C494.834 260.393 493.417 262.212 493.168 262.065C492.919 261.918 493.946 259.855 495.472 257.468Z" fill="#0F1417"/>
<path d="M479.423 244.363C481.547 242.466 483.412 241.077 483.572 241.263C483.732 241.449 482.196 243.15 480.101 245.077C478.007 247.004 476.162 248.392 475.952 248.187C475.743 247.982 477.309 246.26 479.423 244.363Z" fill="#0F1417"/>
<path d="M467.536 227.522C470.099 226.26 472.273 225.409 472.383 225.625C472.493 225.84 470.538 227.082 467.995 228.392C465.451 229.703 463.287 230.554 463.148 230.29C463.008 230.026 464.983 228.793 467.536 227.522Z" fill="#0F1417"/>
<path d="M460.695 208.177C463.517 207.629 465.841 207.385 465.891 207.629C465.941 207.874 463.707 208.549 460.904 209.135C458.102 209.722 455.768 209.967 455.708 209.683C455.648 209.4 457.902 208.725 460.695 208.177Z" fill="#0F1417"/>
<path d="M459.427 187.776C462.289 187.981 464.593 188.353 464.583 188.597C464.573 188.842 462.23 188.91 459.367 188.744C456.505 188.578 454.191 188.216 454.211 187.923C454.231 187.629 456.565 187.522 459.427 187.776Z" fill="#0F1417"/>
<path d="M463.766 167.698C466.469 168.676 468.584 169.654 468.504 169.859C468.424 170.064 466.15 169.536 463.437 168.617C460.725 167.698 458.61 166.739 458.7 166.465C458.79 166.192 461.074 166.739 463.766 167.698Z" fill="#0F1417"/>
<path d="M473.449 149.556C475.783 151.189 477.558 152.675 477.438 152.881C477.319 153.086 475.264 151.952 472.9 150.358C470.537 148.763 468.762 147.277 468.911 147.032C469.061 146.788 471.105 147.922 473.449 149.556Z" fill="#0F1417"/>
<path d="M487.722 134.612C489.527 136.793 490.834 138.69 490.644 138.856C490.455 139.023 488.789 137.389 486.954 135.228C485.119 133.067 483.802 131.179 484.032 130.993C484.261 130.807 485.917 132.431 487.722 134.612Z" fill="#0F1417"/>
<path d="M505.573 123.952C506.71 126.534 507.458 128.705 507.219 128.842C506.979 128.979 505.842 126.944 504.666 124.382C503.489 121.82 502.741 119.648 503.01 119.492C503.279 119.335 504.406 121.379 505.573 123.952Z" fill="#0F1417"/>
<path d="M525.661 118.406C526.05 121.194 526.169 123.482 525.91 123.521C525.651 123.56 525.102 121.331 524.673 118.553C524.244 115.776 524.125 113.477 524.414 113.438C524.703 113.399 525.272 115.619 525.661 118.406Z" fill="#0F1417"/>
<path d="M546.544 118.338C546.165 121.125 545.656 123.365 545.407 123.336C545.157 123.306 545.217 121.008 545.556 118.221C545.895 115.433 546.404 113.184 546.693 113.223C546.982 113.262 546.923 115.541 546.544 118.338Z" fill="#0F1417"/>
<path d="M566.68 123.746C565.553 126.338 564.446 128.353 564.207 128.255C563.967 128.157 564.675 125.976 565.763 123.365C566.85 120.754 567.967 118.749 568.236 118.866C568.505 118.983 567.817 121.164 566.68 123.746Z" fill="#0F1417"/>
<path d="M584.592 134.279C582.797 136.48 581.181 138.133 580.982 137.976C580.782 137.82 582.049 135.893 583.814 133.673C585.579 131.453 587.185 129.761 587.424 129.986C587.664 130.211 586.357 132.089 584.592 134.279Z" fill="#0F1417"/>
<path d="M598.985 149.125C596.651 150.768 594.647 151.942 594.497 151.737C594.348 151.531 596.093 150.015 598.397 148.333C600.701 146.651 602.705 145.487 602.885 145.722C603.064 145.957 601.319 147.482 598.985 149.125Z" fill="#0F1417"/>
<path d="M608.788 167.238C606.095 168.216 603.801 168.793 603.742 168.568C603.682 168.343 605.736 167.326 608.439 166.319C611.142 165.311 613.366 164.715 613.475 164.989C613.585 165.262 611.481 166.26 608.788 167.238Z" fill="#0F1417"/>
<path d="M613.286 187.209C610.424 187.434 608.09 187.414 608.07 187.209C608.05 187.003 610.344 186.554 613.197 186.231C616.049 185.908 618.393 185.986 618.413 186.28C618.433 186.573 616.119 186.984 613.286 187.209Z" fill="#0F1417"/>
<path d="M501.296 97.5066L500.987 97.6435L500.07 98.0054C499.272 98.3379 498.075 98.7389 496.549 99.3941C492.25 101.157 488.075 103.199 484.053 105.507C481.499 106.954 478.797 108.685 475.954 110.631C473.112 112.578 470.21 114.847 467.307 117.399C454.565 128.413 444.832 142.375 438.993 158.015C437.627 161.595 436.599 165.096 435.712 168.372C434.824 171.649 434.226 174.778 433.777 177.634C433.049 182.146 432.626 186.701 432.51 191.267C432.431 192.891 432.51 194.143 432.51 194.994C432.51 195.404 432.51 195.717 432.51 195.972C432.519 196.082 432.519 196.193 432.51 196.304C432.497 196.197 432.497 196.089 432.51 195.981C432.51 195.737 432.51 195.414 432.51 195.003C432.51 194.153 432.401 192.901 432.45 191.277C432.486 186.693 432.856 182.118 433.558 177.585C433.976 174.71 434.625 171.59 435.433 168.275C436.334 164.751 437.419 161.274 438.684 157.859C444.494 142.113 454.285 128.071 467.138 117.047C470.06 114.494 473.032 112.294 475.844 110.289C478.657 108.284 481.43 106.622 484.013 105.194C488.062 102.91 492.271 100.909 496.609 99.2083C498.135 98.5824 499.362 98.2303 500.179 97.9076L501.117 97.5946C501.174 97.561 501.234 97.5316 501.296 97.5066Z" fill="white"/>
<path d="M531.315 91.795C530.29 92.0039 529.249 92.1379 528.204 92.196C526.269 92.3916 523.616 92.6752 520.684 93.0469C517.752 93.4185 515.109 93.8097 513.194 94.1031C512.168 94.3099 511.128 94.4407 510.082 94.4943C511.074 94.1553 512.095 93.9065 513.134 93.751C515.039 93.3696 517.682 92.9197 520.614 92.5481C523.546 92.1764 526.229 91.9417 528.174 91.8341C529.217 91.7247 530.269 91.7116 531.315 91.795Z" fill="white"/>
<g opacity="0.4">
<path d="M464.186 246.564C464.186 246.564 510.99 318.994 583.596 281.899C659.394 243.17 617.506 154.397 617.506 154.397C617.506 154.397 653.17 225.145 579.288 271.268C560.887 282.759 540.851 282.769 525.571 281.263C486.526 277.429 464.186 246.564 464.186 246.564Z" fill="#606060"/>
</g>
<path d="M561.545 146.25C561.994 159.24 561.594 172.245 560.348 185.184C559.889 189.869 559.351 194.602 557.506 198.955C555.661 203.307 552.519 207.297 548.091 209.136C543.663 210.974 537.998 210.211 534.916 206.612L561.545 146.25Z" fill="#E0E0E0"/>
<path d="M534.406 186.338L567.229 132.138L547.421 193.331L537.299 196.294L534.406 186.338Z" fill="#5B87C4"/>
<g opacity="0.4">
<path d="M567.23 132.138L542.885 187.522L547.423 193.331L567.23 132.138Z" fill="#606060"/>
</g>
<path d="M537.3 206.651C543.133 206.651 547.862 202.014 547.862 196.294C547.862 190.574 543.133 185.937 537.3 185.937C531.467 185.937 526.738 190.574 526.738 196.294C526.738 202.014 531.467 206.651 537.3 206.651Z" fill="#FAFAFA"/>
<path d="M547.861 196.294C547.766 195.453 547.623 194.617 547.432 193.791C546.821 191.56 545.465 189.594 543.582 188.206C542.199 187.186 540.577 186.521 538.865 186.273C537.152 186.026 535.404 186.203 533.779 186.788C532.843 187.113 531.965 187.578 531.176 188.167C530.335 188.765 529.597 189.492 528.992 190.319C527.695 192.052 526.996 194.145 526.996 196.294C526.996 198.444 527.695 200.537 528.992 202.27C530.202 203.881 531.866 205.111 533.779 205.81C535.144 206.301 536.598 206.507 538.048 206.414C539.499 206.321 540.914 205.933 542.202 205.272C543.491 204.612 544.624 203.695 545.53 202.58C546.436 201.465 547.094 200.177 547.462 198.798C547.655 197.972 547.798 197.136 547.891 196.294C547.953 197.152 547.875 198.013 547.662 198.847C547.117 201.179 545.763 203.253 543.832 204.715C542.508 205.723 540.96 206.41 539.314 206.72C537.42 207.075 535.464 206.926 533.649 206.289C532.663 205.956 531.737 205.47 530.906 204.852C530.024 204.227 529.25 203.467 528.613 202.602C527.239 200.79 526.498 198.592 526.498 196.333C526.498 194.075 527.239 191.877 528.613 190.064C529.253 189.202 530.027 188.443 530.906 187.815C531.741 187.205 532.666 186.724 533.649 186.387C535.463 185.746 537.421 185.597 539.314 185.957C541.325 186.336 543.182 187.276 544.663 188.663C546.143 190.051 547.185 191.828 547.662 193.781C547.861 194.603 547.928 195.451 547.861 196.294Z" fill="#0F1417"/>
<path d="M545.036 197.847C545.896 193.675 543.145 189.61 538.89 188.766C534.636 187.923 530.49 190.621 529.63 194.793C528.77 198.964 531.521 203.03 535.775 203.874C540.03 204.717 544.176 202.019 545.036 197.847Z" fill="#455A64"/>
<path d="M454.029 444.882H505.99L481.765 240.148L454.029 444.882Z" fill="#E0E0E0"/>
<path d="M198.353 240.148L164.523 447.298L453.202 450.985L481.765 240.148H198.353Z" fill="#FAFAFA"/>
<path d="M468.911 335.043H182.855L189.079 296.901H474.077L468.911 335.043Z" fill="#EBEBEB"/>
<path d="M468.931 335.073H182.826L189.06 296.931H474.107L468.931 335.073ZM182.886 335.024H468.891L474.048 296.882H189.109L182.886 335.024Z" fill="#0F1417"/>
<path d="M198.353 240.148L189.078 296.901H474.076L481.766 240.148H198.353Z" fill="#5B87C4"/>
<path d="M198.394 240.148L481.806 239.913H482.075V240.177C473.728 301.899 464.253 371.894 454.24 445.821V446.046H450.769L164.764 445.968H164.484V445.724L198.394 240.148C198.114 241.85 185.229 321.273 165.013 445.821L164.804 445.577H450.699H453.94L453.691 445.792C463.714 371.865 473.209 301.879 481.616 240.158L481.846 240.412L198.394 240.148Z" fill="#0F1417"/>
<path d="M474.076 296.901C474.076 297.038 410.247 297.156 331.587 297.156C252.927 297.156 189.078 297.038 189.078 296.901C189.078 296.764 252.907 296.647 331.587 296.647C410.267 296.647 474.076 296.755 474.076 296.901Z" fill="#0F1417"/>
<path d="M468.91 335.043C468.91 335.19 404.742 335.298 325.613 335.298C246.485 335.298 182.307 335.19 182.307 335.043C182.307 334.897 246.455 334.789 325.613 334.789C404.772 334.789 468.91 334.906 468.91 335.043Z" fill="#0F1417"/>
<path d="M463.087 370.144C463.087 370.29 398.928 370.398 319.8 370.398C240.671 370.398 176.453 370.29 176.453 370.144C176.453 369.997 240.602 369.889 319.76 369.889C398.918 369.889 463.087 370.007 463.087 370.144Z" fill="#0F1417"/>
<path d="M457.272 405.244C457.272 405.381 393.103 405.498 313.975 405.498C234.846 405.498 170.668 405.381 170.668 405.244C170.668 405.107 234.816 404.99 313.975 404.99C393.133 404.99 457.272 405.107 457.272 405.244Z" fill="#0F1417"/>
<path d="M205.046 446.105C204.906 446.105 210.142 412.657 216.754 371.464C223.367 330.271 228.822 296.872 228.962 296.901C229.101 296.931 223.865 330.329 217.263 371.542C210.661 412.755 205.195 446.125 205.046 446.105Z" fill="#0F1417"/>
<path d="M249.157 446.105C249.008 446.105 254.254 412.657 260.856 371.464C267.458 330.271 272.924 296.872 273.073 296.901C273.223 296.931 267.977 330.329 261.365 371.542C254.752 412.755 249.257 446.125 249.157 446.105Z" fill="#0F1417"/>
<path d="M290.149 444.609C290.01 444.609 295.196 411.503 301.728 370.721C308.261 329.938 313.696 296.872 313.826 296.901C313.956 296.931 308.779 329.997 302.247 370.799C295.714 411.601 290.279 444.628 290.149 444.609Z" fill="#0F1417"/>
<path d="M330.69 445.792C330.551 445.792 335.777 412.413 342.369 371.308C348.961 330.202 354.417 296.872 354.556 296.901C354.696 296.931 349.47 330.261 342.878 371.386C336.285 412.511 330.83 445.812 330.69 445.792Z" fill="#0F1417"/>
<path d="M371.43 445.792C371.291 445.792 376.517 412.413 383.109 371.308C389.702 330.202 395.157 296.872 395.297 296.901C395.436 296.931 390.22 330.261 383.628 371.386C377.035 412.511 371.58 445.812 371.43 445.792Z" fill="#0F1417"/>
<path d="M412.141 445.968C412.002 445.968 417.238 412.55 423.84 371.376C430.442 330.202 435.898 296.833 436.047 296.862C436.197 296.892 430.951 330.271 424.349 371.454C417.746 412.638 412.281 446.027 412.141 445.968Z" fill="#0F1417"/>
<g opacity="0.2">
<path d="M386.512 299.561C391.419 297.429 394.49 292.422 395.757 287.307C397.024 282.192 396.824 276.852 397.014 271.581C397.203 266.309 397.841 260.882 400.584 256.353C402.21 253.683 404.494 251.463 406.299 248.891C408.104 246.319 409.44 243.189 408.772 240.089L378.074 240.246L386.512 299.561Z" fill="#606060"/>
</g>
<path d="M259.231 337.87C259.149 338.001 259.048 338.119 258.932 338.222L258.014 339.2C257.206 340.012 256.02 341.156 254.524 342.584C251.532 345.4 247.373 349.234 242.635 353.342C237.898 357.449 233.51 361.029 230.288 363.572C228.673 364.843 227.356 365.86 226.439 366.506L225.372 367.288C225.253 367.39 225.118 367.472 224.973 367.532C224.973 367.532 225.082 367.405 225.302 367.21L226.299 366.349L230.039 363.249C233.211 360.638 237.559 357.009 242.286 352.921C247.014 348.833 251.262 345.038 254.254 342.29L257.855 339.034L258.852 338.163C258.965 338.05 259.093 337.951 259.231 337.87Z" fill="#0F1417"/>
<path d="M256.927 367.924C256.504 367.561 256.107 367.169 255.741 366.75L252.619 363.483C249.926 360.677 246.316 356.902 242.336 352.725L231.944 342.065L228.793 338.828C228.395 338.443 228.025 338.031 227.686 337.596C228.137 337.923 228.558 338.29 228.942 338.691C229.72 339.415 230.837 340.481 232.203 341.811C234.936 344.471 238.666 348.197 242.705 352.383C246.745 356.569 250.335 360.422 252.888 363.249C254.165 364.657 255.192 365.811 255.88 366.613C256.27 367.017 256.62 367.456 256.927 367.924Z" fill="#0F1417"/>
<path d="M267.578 346.858C267.578 346.858 267.678 346.603 267.887 346.105C268.218 345.381 268.619 344.69 269.084 344.041C270.918 341.528 273.505 339.638 276.484 338.633C278.619 337.876 280.895 337.582 283.156 337.772C285.849 338.028 288.444 338.896 290.736 340.305C293.382 341.904 295.618 344.079 297.269 346.662C299.178 349.545 300.13 352.938 299.991 356.374C299.877 358.227 299.29 360.022 298.286 361.596C297.233 363.228 295.831 364.616 294.177 365.665C290.654 367.88 286.506 368.944 282.329 368.706C280.14 368.591 277.985 368.132 275.946 367.347C273.823 366.534 271.915 365.264 270.361 363.63C269.589 362.771 268.938 361.814 268.426 360.784C267.938 359.733 267.602 358.621 267.428 357.479C267.097 355.139 267.305 352.756 268.037 350.506C269.562 345.812 272.868 341.873 277.272 339.503C279.555 338.273 282.095 337.573 284.697 337.456C287.299 337.339 289.894 337.809 292.282 338.828C294.756 339.851 296.923 341.477 298.575 343.552C300.23 345.683 301.264 348.215 301.567 350.877C301.912 353.578 301.466 356.319 300.281 358.779C299.672 360.014 298.871 361.149 297.907 362.144C296.926 363.124 295.82 363.975 294.616 364.677C292.187 365.988 289.509 366.796 286.748 367.048C283.987 367.3 281.203 366.993 278.569 366.144C275.975 365.363 273.59 364.027 271.587 362.232C269.601 360.436 268.243 358.071 267.708 355.474C267.146 352.921 267.516 350.255 268.755 347.943C269.383 346.804 270.246 345.805 271.288 345.009C272.314 344.25 273.46 343.658 274.679 343.259C277.074 342.505 279.586 342.174 282.099 342.281C284.546 342.298 286.98 342.627 289.34 343.259C291.673 343.86 293.829 344.993 295.633 346.564C297.361 348.145 298.54 350.218 299.004 352.491C299.462 354.687 299.328 356.962 298.615 359.092C297.909 361.146 296.716 363.007 295.134 364.52C292.13 367.401 288.151 369.099 283.954 369.293C281.99 369.395 280.024 369.116 278.17 368.471C276.39 367.845 274.789 366.809 273.502 365.449C272.284 364.152 271.363 362.615 270.799 360.941C270.244 359.371 269.997 357.711 270.071 356.051C270.214 352.976 271.465 350.051 273.602 347.796C275.429 345.836 277.741 344.371 280.314 343.542C282.474 342.852 284.762 342.638 287.016 342.916C290.131 343.296 293.09 344.465 295.603 346.31C296.256 346.78 296.872 347.297 297.448 347.855C297.837 348.237 298.027 348.442 298.027 348.442C298.027 348.442 297.807 348.256 297.418 347.894C296.826 347.355 296.199 346.852 295.543 346.388C293.026 344.598 290.084 343.471 286.996 343.112C284.561 342.835 282.095 343.135 279.802 343.986C277.51 344.837 275.459 346.214 273.821 348.002C271.74 350.207 270.527 353.068 270.4 356.07C270.333 357.698 270.58 359.324 271.129 360.863C271.684 362.487 272.585 363.977 273.771 365.234C275.021 366.551 276.574 367.557 278.299 368.168C280.108 368.785 282.022 369.05 283.934 368.951C288.031 368.753 291.91 367.085 294.835 364.266C296.363 362.801 297.515 361.001 298.196 359.014C298.879 356.955 299.002 354.758 298.555 352.638C298.106 350.455 296.973 348.465 295.314 346.946C293.559 345.433 291.469 344.341 289.21 343.757C286.889 343.134 284.496 342.805 282.089 342.779C279.636 342.688 277.185 343.019 274.849 343.757C272.465 344.473 270.447 346.049 269.204 348.168C268.023 350.379 267.67 352.926 268.206 355.366C268.723 357.861 270.033 360.131 271.946 361.85C273.887 363.609 276.204 364.919 278.728 365.684C281.292 366.511 284.002 366.811 286.689 366.566C289.376 366.32 291.983 365.534 294.346 364.256C295.514 363.584 296.584 362.762 297.528 361.811C298.454 360.857 299.224 359.768 299.812 358.584C300.96 356.209 301.392 353.563 301.059 350.955C300.773 348.385 299.784 345.938 298.196 343.875C296.598 341.869 294.504 340.297 292.112 339.307C289.795 338.315 287.277 337.857 284.75 337.968C282.224 338.08 279.758 338.759 277.541 339.953C273.261 342.264 270.049 346.097 268.565 350.662C267.854 352.846 267.647 355.157 267.957 357.43C268.136 358.533 268.472 359.606 268.954 360.618C269.448 361.606 270.072 362.527 270.809 363.356C272.314 364.938 274.161 366.168 276.215 366.955C278.209 367.729 280.317 368.184 282.458 368.305C286.546 368.55 290.609 367.523 294.067 365.371C295.665 364.412 297.011 363.098 297.997 361.535C298.983 359.972 299.58 358.204 299.742 356.374C299.881 353.013 298.958 349.693 297.099 346.867C295.485 344.317 293.294 342.165 290.696 340.579C288.446 339.182 285.896 338.315 283.246 338.046C281.019 337.838 278.772 338.112 276.664 338.848C273.711 339.827 271.135 341.67 269.283 344.129C268.806 344.767 268.392 345.448 268.047 346.163C267.708 346.613 267.578 346.858 267.578 346.858Z" fill="#5B87C4"/>
<path d="M294.597 373.86C294.687 373.968 286.778 380.599 276.924 388.677C267.071 396.755 258.972 403.2 258.912 403.093C258.853 402.985 266.732 396.354 276.585 388.286C286.439 380.217 294.507 373.753 294.597 373.86Z" fill="#0F1417"/>
<path d="M296.323 402.222C295.853 401.951 295.41 401.641 294.996 401.293L291.486 398.613C288.544 396.325 284.504 393.136 280.056 389.596C275.608 386.056 271.609 382.828 268.727 380.471L265.326 377.655C264.895 377.332 264.494 376.972 264.129 376.579C264.596 376.853 265.04 377.163 265.455 377.508L268.956 380.188C271.898 382.476 275.937 385.664 280.385 389.205C284.834 392.745 288.833 395.973 291.725 398.33L295.116 401.136C295.544 401.469 295.948 401.832 296.323 402.222Z" fill="#0F1417"/>
<path d="M377.854 374.242C377.934 374.349 370.374 380.031 360.949 386.956C351.524 393.88 343.825 399.347 343.735 399.229C343.645 399.112 351.215 393.44 360.64 386.515C370.065 379.591 377.764 374.124 377.854 374.242Z" fill="#0F1417"/>
<path d="M380.785 398.3C380.715 398.418 372.677 393.537 362.833 387.386C352.989 381.234 345.101 376.168 345.17 376.041C345.24 375.914 353.279 380.814 363.122 386.955C372.966 393.097 380.905 398.183 380.785 398.3Z" fill="#0F1417"/>
<path d="M295.894 445.802C295.784 445.704 303.643 437.626 313.437 427.777C323.231 417.929 331.259 409.997 331.389 410.095C331.518 410.193 323.64 418.271 313.846 428.129C304.052 437.988 295.993 445.9 295.894 445.802Z" fill="#5B87C4"/>
<path d="M329.115 445.792C329.115 445.792 328.985 445.684 328.785 445.45L327.948 444.472C327.17 443.494 326.132 442.232 324.866 440.687C322.263 437.499 318.573 433.166 314.294 428.56C310.016 423.953 305.956 419.953 302.964 417.117L299.414 413.694L298.417 412.775C298.301 412.672 298.198 412.557 298.107 412.432C298.107 412.432 298.257 412.511 298.486 412.696L299.484 413.547C300.371 414.291 301.628 415.396 303.164 416.784C306.216 419.562 310.325 423.533 314.623 428.149C318.922 432.765 322.602 437.146 325.095 440.393C326.372 442.017 327.379 443.327 328.087 444.305L328.855 445.381C328.959 445.507 329.046 445.645 329.115 445.792Z" fill="#5B87C4"/>
<path d="M247.472 404.657C247.472 404.657 247.791 428.687 241.607 443.073L203.918 436.775C203.918 436.775 215.268 414.007 212.176 401.352L247.472 404.657Z" fill="#EBEBEB"/>
<path d="M247.462 403.758C247.462 403.758 242.735 433.254 239.843 442.056L202.383 434.76C202.383 434.76 210.092 406.242 209.992 398.3L247.462 403.758Z" fill="#5B87C4"/>
<path d="M213.793 411.523C213.793 411.66 219.358 412.931 226.29 414.359C233.221 415.787 238.856 416.833 238.886 416.706C238.916 416.579 233.321 415.298 226.389 413.87C219.458 412.442 213.823 411.386 213.793 411.523Z" fill="white"/>
<path d="M212.836 417.772C212.836 417.909 218.401 419.171 225.333 420.609C232.264 422.046 237.899 423.083 237.929 422.956C237.959 422.829 232.364 421.547 225.432 420.12C218.501 418.692 212.866 417.606 212.836 417.772Z" fill="white"/>
<path d="M218.34 424.843C218.979 425.116 219.648 425.313 220.335 425.43C221.621 425.733 223.406 426.134 225.371 426.545C227.336 426.956 229.141 427.288 230.447 427.523C231.145 427.695 231.862 427.78 232.582 427.777C231.919 427.503 231.226 427.303 230.517 427.181C229.241 426.868 227.455 426.467 225.481 426.066C223.506 425.665 221.711 425.313 220.414 425.088C219.735 424.925 219.039 424.842 218.34 424.843Z" fill="white"/>
<path d="M425.785 337.185C425.785 337.185 429.645 360.598 425.735 375.532L387.996 374.74C387.996 374.74 395.715 350.897 390.819 338.975L425.785 337.185Z" fill="#EBEBEB"/>
<path d="M425.616 336.305C425.616 336.305 425.367 365.753 423.841 374.74L386.172 372.99C386.172 372.99 389.473 344.041 388.167 336.305H425.616Z" fill="#455A64"/>
<path d="M393.512 349.41C393.512 349.547 399.177 349.664 406.168 349.674C413.159 349.684 418.834 349.586 418.834 349.449C418.834 349.312 413.169 349.195 406.168 349.185C399.167 349.175 393.512 349.273 393.512 349.41Z" fill="white"/>
<path d="M393.871 355.64C393.871 355.777 399.536 355.894 406.527 355.904C413.519 355.914 419.193 355.816 419.193 355.679C419.193 355.542 413.529 355.425 406.527 355.415C399.526 355.405 393.871 355.503 393.871 355.64Z" fill="white"/>
<path d="M400.623 361.381C401.317 361.527 402.028 361.589 402.737 361.567C404.044 361.567 405.849 361.635 407.844 361.645C409.838 361.655 411.634 361.645 412.94 361.576C413.649 361.604 414.359 361.548 415.054 361.41C414.36 361.265 413.65 361.206 412.94 361.234C411.634 361.185 409.838 361.156 407.844 361.146C405.849 361.136 404.044 361.146 402.737 361.215C402.028 361.187 401.318 361.242 400.623 361.381Z" fill="white"/>
<path d="M433.765 269.674C426.724 269.674 419.633 265.341 415.903 258.525C412.277 251.737 411.153 243.929 412.721 236.422C414.786 226.642 421.388 218.622 429.546 216.06C436.478 213.879 448.865 215.082 454.709 224.676C457.493 229.368 458.876 234.732 458.698 240.158C458.672 240.543 458.569 240.919 458.394 241.266C458.22 241.612 457.977 241.921 457.681 242.175C457.385 242.429 457.04 242.624 456.667 242.748C456.294 242.871 455.9 242.922 455.507 242.896C454.713 242.844 453.973 242.485 453.45 241.898C452.926 241.312 452.661 240.545 452.714 239.767C452.768 235.531 451.659 231.359 449.503 227.688C444.995 220.304 435.111 220.451 431.302 221.644C424.32 223.835 419.852 231.238 418.506 237.605C417.213 243.769 418.133 250.182 421.109 255.757C424.051 261.136 430.005 264.481 435.281 263.688C436.06 263.582 436.85 263.781 437.481 264.241C438.111 264.702 438.532 265.387 438.651 266.149C438.77 266.911 438.579 267.689 438.118 268.314C437.657 268.939 436.964 269.36 436.188 269.488C435.387 269.61 434.576 269.672 433.765 269.674Z" fill="#0F1417"/>
<path d="M240.6 269.674C233.549 269.674 226.468 265.341 222.738 258.525C219.109 251.738 217.981 243.93 219.547 236.422C221.292 228.167 227.196 218.661 236.501 216.04C240.988 214.849 245.744 215.085 250.085 216.715L247.931 222.192C244.807 221.028 241.391 220.847 238.157 221.674C231.295 223.63 226.827 231.082 225.451 237.605C224.158 243.769 225.078 250.182 228.054 255.757C230.996 261.146 236.96 264.481 242.226 263.688L243.133 269.488C242.295 269.615 241.448 269.677 240.6 269.674Z" fill="#0F1417"/>
<path d="M431.301 240.304L428.549 255.082H469.051L472.651 240.451L431.301 240.304Z" fill="#5B87C4"/>
<path d="M250.864 267.336C250.866 268.587 250.49 269.81 249.782 270.85C249.075 271.89 248.069 272.702 246.891 273.181C245.714 273.661 244.418 273.787 243.167 273.543C241.916 273.3 240.767 272.698 239.866 271.813C238.964 270.929 238.35 269.803 238.102 268.576C237.854 267.35 237.982 266.079 238.471 264.924C238.96 263.769 239.787 262.782 240.848 262.089C241.909 261.395 243.156 261.026 244.431 261.028C246.137 261.031 247.771 261.696 248.977 262.879C250.183 264.061 250.861 265.664 250.864 267.336Z" fill="#0F1417"/>
<path d="M443.858 267.336C443.86 268.587 443.484 269.81 442.777 270.85C442.069 271.89 441.063 272.702 439.886 273.181C438.708 273.661 437.412 273.787 436.161 273.543C434.91 273.3 433.761 272.698 432.86 271.813C431.958 270.929 431.344 269.803 431.096 268.576C430.848 267.35 430.976 266.079 431.465 264.924C431.954 263.769 432.781 262.782 433.842 262.089C434.903 261.395 436.15 261.026 437.425 261.028C439.131 261.031 440.765 261.696 441.971 262.879C443.177 264.061 443.856 265.664 443.858 267.336Z" fill="#0F1417"/>
<path d="M337.572 145.057L326.98 184.451L290.418 188.304V194.661L341.791 196.431L351.445 152.235L337.572 145.057Z" fill="#FFBE9D"/>
<path d="M352.98 197.478C352.98 197.478 295.853 194.808 279.586 207.258C263.32 219.708 271.199 240.148 271.199 240.148L363.133 239.913L371.251 194.211L352.98 197.478Z" fill="#0F1417"/>
<path d="M362.705 227.629C362.428 227.636 362.151 227.617 361.877 227.571C361.339 227.512 360.551 227.434 359.534 227.307C357.539 227.062 354.547 226.651 350.957 226.055C341.53 224.483 332.206 222.37 323.031 219.727C317.666 218.172 312.589 216.607 307.902 215.463C303.764 214.413 299.532 213.758 295.266 213.507C292.387 213.349 289.499 213.513 286.659 213.996C285.661 214.113 284.893 214.368 284.355 214.456C284.089 214.52 283.819 214.569 283.547 214.602C283.801 214.495 284.064 214.413 284.335 214.358C285.084 214.129 285.847 213.943 286.619 213.801C289.466 213.236 292.373 213.016 295.276 213.145C299.604 213.347 303.9 213.973 308.101 215.013C312.819 216.128 317.905 217.693 323.251 219.248C332.375 221.868 341.633 224.019 350.987 225.693C354.587 226.338 357.509 226.798 359.534 227.111L361.867 227.473C362.151 227.502 362.431 227.554 362.705 227.629Z" fill="#455A64"/>
<path d="M309.606 215.16C308.019 213.876 306.328 212.722 304.55 211.708C302.686 210.853 300.755 210.146 298.775 209.595C299.39 209.543 300.008 209.602 300.601 209.771C302.059 210.079 303.468 210.579 304.789 211.258C306.109 211.94 307.33 212.792 308.42 213.791C308.898 214.171 309.3 214.636 309.606 215.16Z" fill="#455A64"/>
<path d="M359.034 319.249L359.802 342.789L354.975 361.586C354.897 361.908 354.887 362.242 354.946 362.568C355.006 362.894 355.133 363.204 355.32 363.48C355.507 363.755 355.751 363.99 356.034 364.169C356.318 364.348 356.637 364.467 356.97 364.52C357.356 364.589 357.752 364.567 358.127 364.454C358.502 364.342 358.844 364.143 359.124 363.875C362.755 360.393 376.079 347.523 375.909 345.811C375.73 343.855 376.777 320.911 376.777 320.911L359.034 319.249Z" fill="#5B87C4"/>
<g opacity="0.6">
<path d="M356.881 364.559L375.83 344.256V345.234C375.842 346.098 375.537 346.938 374.972 347.601C373.466 349.371 369.188 354.173 359.125 363.894C358.837 364.173 358.484 364.378 358.096 364.491C357.707 364.604 357.297 364.62 356.901 364.54L356.881 364.559Z" fill="white"/>
</g>
<g opacity="0.6">
<path d="M370.802 336.696C370.498 336.914 370.289 337.237 370.217 337.599C370.145 337.962 370.215 338.338 370.413 338.652C370.623 338.945 370.939 339.148 371.297 339.221C371.654 339.294 372.027 339.23 372.338 339.043C372.651 338.816 372.865 338.482 372.939 338.107C373.013 337.732 372.941 337.344 372.737 337.019C372.489 336.732 372.137 336.551 371.755 336.515C371.374 336.478 370.993 336.589 370.693 336.823" fill="white"/>
</g>
<path d="M362.276 354.212C362.136 354.28 361.578 353.058 360.151 352.403C359.269 352.063 358.327 351.897 357.379 351.914C357.379 351.855 357.658 351.669 358.217 351.581C358.957 351.493 359.707 351.615 360.379 351.932C361.05 352.249 361.615 352.749 362.007 353.371C362.286 353.85 362.326 354.192 362.276 354.212Z" fill="#0F1417"/>
<path d="M360.59 357.391C359.9 357.021 359.187 356.695 358.455 356.413C357.677 356.278 356.891 356.187 356.102 356.139C356.468 355.908 356.886 355.766 357.32 355.727C357.754 355.688 358.191 355.752 358.595 355.914C360.011 356.285 360.709 357.322 360.59 357.391Z" fill="#0F1417"/>
<path d="M365.418 350.124C364.399 349.465 363.333 348.88 362.227 348.373C361.059 348.023 359.865 347.762 358.656 347.591C359.912 347.333 361.218 347.434 362.417 347.883C363.615 348.333 364.657 349.11 365.418 350.124Z" fill="#0F1417"/>
<path d="M365.797 342.965C365.737 343.112 364.4 342.574 362.675 342.535C360.95 342.496 359.583 342.906 359.523 342.76C360.491 342.237 361.585 341.98 362.689 342.016C363.793 342.052 364.867 342.38 365.797 342.965Z" fill="#0F1417"/>
<path d="M365.747 336.05C364.697 335.727 363.606 335.546 362.505 335.513C361.415 335.637 360.347 335.91 359.334 336.324C359.334 336.275 359.553 335.972 360.102 335.659C360.836 335.253 361.658 335.022 362.5 334.986C363.343 334.951 364.182 335.111 364.949 335.454C365.498 335.718 365.787 335.992 365.747 336.05Z" fill="#0F1417"/>
<path d="M362.535 334.192C362.473 333.899 362.473 333.596 362.535 333.302C362.609 332.485 362.85 331.69 363.243 330.965C363.476 330.407 363.894 329.942 364.43 329.645C364.615 329.563 364.821 329.539 365.021 329.576C365.221 329.613 365.404 329.708 365.547 329.85C365.804 330.144 365.942 330.519 365.936 330.906C365.889 331.695 365.565 332.443 365.02 333.024C364.474 333.605 363.741 333.983 362.944 334.095C362.148 334.181 361.344 334.034 360.634 333.672C359.923 333.31 359.339 332.749 358.954 332.06C358.858 331.887 358.8 331.694 358.786 331.497C358.773 331.299 358.803 331.101 358.875 330.916C358.968 330.741 359.113 330.598 359.291 330.505C359.469 330.413 359.672 330.375 359.872 330.398C360.465 330.522 361.015 330.795 361.468 331.19C362.122 331.698 362.682 332.314 363.123 333.009C363.299 333.254 363.428 333.53 363.502 333.821C362.868 332.937 362.106 332.15 361.238 331.483C360.834 331.158 360.355 330.933 359.842 330.828C359.731 330.81 359.618 330.826 359.517 330.875C359.417 330.925 359.335 331.004 359.284 331.102C359.248 331.228 359.239 331.359 359.256 331.488C359.273 331.618 359.316 331.742 359.383 331.855C359.733 332.438 360.246 332.91 360.861 333.215C361.476 333.52 362.168 333.645 362.854 333.576C363.534 333.491 364.164 333.179 364.638 332.693C365.112 332.207 365.401 331.576 365.457 330.906C365.47 330.638 365.385 330.375 365.218 330.163C365.142 330.079 365.041 330.022 364.93 329.999C364.819 329.976 364.703 329.989 364.599 330.036C364.162 330.298 363.814 330.683 363.602 331.141C363.071 332.091 362.71 333.123 362.535 334.192Z" fill="#0F1417"/>
<path d="M371.202 194.211C371.202 194.211 346.498 240.011 346.159 248.001C345.819 255.991 346.159 329.645 346.159 329.645H384.396C385.394 329.645 391.128 296.461 389.961 288.823C388.795 281.185 384.676 240.128 384.676 240.128H406.677C406.677 240.128 412.711 233.801 412.491 225.771C412.362 221.341 409.409 212.285 406.507 207.483C404.622 204.402 392.545 188.275 392.545 188.275L371.202 194.211Z" fill="#0F1417"/>
<path d="M369.547 197.311C369.52 197.403 369.483 197.492 369.437 197.576C369.347 197.771 369.228 198.016 369.078 198.319L367.642 201.175C366.994 202.417 366.226 203.923 365.328 205.673L363.892 208.48L362.386 211.678L354.976 227.414C353.57 230.348 352.094 233.488 350.558 236.705L348.234 241.595C347.483 243.286 346.915 245.05 346.538 246.857C346.16 248.669 345.963 250.513 345.95 252.363C345.89 254.192 345.85 256.001 345.82 257.771C345.82 261.331 345.75 264.754 345.76 268.021C345.76 274.554 345.84 280.441 345.91 285.38C345.98 290.319 346.04 294.28 346.09 297.116C346.09 298.466 346.09 299.532 346.09 300.295C346.09 300.637 346.09 300.911 346.09 301.126C346.09 301.341 346.09 301.41 346.09 301.41C346.073 301.316 346.073 301.22 346.09 301.126C346.09 300.911 346.09 300.637 346.09 300.305C346.09 299.532 346.01 298.476 345.95 297.116C345.85 294.358 345.721 290.358 345.611 285.38C345.501 280.402 345.381 274.564 345.352 268.021C345.352 264.754 345.352 261.322 345.352 257.771C345.352 255.991 345.411 254.182 345.481 252.343C345.491 250.464 345.688 248.591 346.07 246.749C346.456 244.908 347.038 243.112 347.805 241.39L350.139 236.5L354.587 227.228L362.147 211.532L363.683 208.343C364.211 207.365 364.68 206.387 365.159 205.556L367.542 201.096C368.19 199.893 368.709 198.954 369.068 198.28C369.238 197.986 369.377 197.752 369.477 197.556C369.577 197.36 369.537 197.302 369.547 197.311Z" fill="#455A64"/>
<path d="M361.548 212.91C360.755 211.049 360.088 209.137 359.553 207.189C358.853 205.292 358.283 203.352 357.848 201.38C358.777 203.188 359.513 205.085 360.042 207.042C360.748 208.943 361.253 210.909 361.548 212.91Z" fill="#455A64"/>
<path d="M390.041 287.385C389.977 287.219 389.937 287.044 389.921 286.867C389.874 286.469 389.805 285.97 389.711 285.371C389.532 283.992 389.303 282.114 389.013 279.835C388.465 275.102 387.727 268.676 386.909 261.576C386.091 254.476 385.423 247.972 385.014 243.287C384.825 240.999 384.665 239.121 384.545 237.742C384.545 237.126 384.465 236.627 384.436 236.226C384.423 236.05 384.423 235.874 384.436 235.698C384.498 235.864 384.535 236.039 384.545 236.216C384.595 236.617 384.665 237.116 384.745 237.722C384.904 239.101 385.124 240.969 385.383 243.258C385.912 247.991 386.63 254.427 387.378 261.527C388.126 268.627 388.834 275.053 389.372 279.796C389.592 282.085 389.781 283.962 389.911 285.341C389.961 285.948 390.001 286.456 390.031 286.857C390.049 287.033 390.053 287.209 390.041 287.385Z" fill="#455A64"/>
<path d="M380.328 71.5504C379.74 67.6384 383.16 63.8731 387.11 63.4135C391.059 62.9538 395.039 65.3695 396.854 68.9C397.698 70.6756 398.161 72.6028 398.213 74.5615C398.264 76.5201 397.903 78.4681 397.153 80.284C396.156 82.7583 394.311 85.262 391.628 85.4576C388.945 85.6532 386.89 83.6483 385.115 81.7999" fill="#0F1417"/>
<path d="M352.252 90.954C344.273 73.8097 363.223 65.1935 373.525 68.0492C383.219 70.7387 387.358 75.4723 388.954 81.8293C390.702 88.207 390.353 94.9631 387.956 101.135C386.7 104.128 384.446 107.159 381.174 107.531" fill="#0F1417"/>
<path d="M379.709 77.5651C380.53 77.6485 381.289 78.032 381.834 78.6392C382.379 79.2463 382.671 80.0326 382.652 80.8415L380.787 124.48C380.717 129.634 373.047 132.548 367.412 132.431C361.738 132.314 361.548 129.575 361.428 124.675C361.299 116.49 361.299 113.409 361.299 113.458C361.299 113.507 354.118 112.284 352.632 103.101C351.884 98.5335 352.123 91.042 352.512 84.9197C352.871 79.4136 356.591 72.6458 362.196 73.1837L379.709 77.5651Z" fill="#FFBE9D"/>
<path d="M356.182 90.1422C356.176 90.4502 356.295 90.7479 356.511 90.9711C356.728 91.1943 357.025 91.3251 357.339 91.3354C357.492 91.3473 357.646 91.329 357.791 91.2816C357.937 91.2341 358.072 91.1584 358.187 91.059C358.302 90.9595 358.396 90.8384 358.463 90.7028C358.53 90.5671 358.568 90.4198 358.575 90.2693C358.578 89.9621 358.459 89.6658 358.243 89.4431C358.027 89.2205 357.732 89.0889 357.419 89.0762C357.265 89.0642 357.111 89.0825 356.966 89.13C356.82 89.1775 356.685 89.2532 356.57 89.3526C356.455 89.452 356.361 89.5731 356.294 89.7088C356.228 89.8444 356.189 89.9918 356.182 90.1422Z" fill="#0F1417"/>
<path d="M354.197 88.8219C354.347 88.9686 355.264 88.3134 356.551 88.3134C357.837 88.3134 358.795 88.9491 358.934 88.7926C359.074 88.6361 358.854 88.4503 358.436 88.1569C357.876 87.7778 357.211 87.5763 356.531 87.5799C355.859 87.5735 355.204 87.783 354.666 88.1764C354.267 88.4698 354.127 88.7535 354.197 88.8219Z" fill="#0F1417"/>
<path d="M368.818 90.1422C368.815 90.4431 368.929 90.7339 369.136 90.9556C369.344 91.1772 369.629 91.313 369.935 91.3354C370.089 91.3473 370.242 91.329 370.388 91.2816C370.534 91.2341 370.668 91.1584 370.784 91.059C370.899 90.9595 370.993 90.8384 371.06 90.7028C371.126 90.5672 371.165 90.4198 371.172 90.2694C371.175 89.9621 371.056 89.6658 370.84 89.4431C370.624 89.2205 370.328 89.0889 370.015 89.0762C369.713 89.0629 369.417 89.1675 369.193 89.3672C368.968 89.567 368.834 89.8456 368.818 90.1422Z" fill="#0F1417"/>
<path d="M366.944 89.0566C367.093 89.2033 368.001 88.5481 369.287 88.5481C370.574 88.5481 371.531 89.1838 371.671 89.0371C371.811 88.8904 371.591 88.685 371.172 88.3916C370.613 88.0107 369.948 87.8091 369.267 87.8146C368.597 87.8145 367.944 88.0234 367.402 88.4111C366.944 88.7045 366.834 88.9979 366.944 89.0566Z" fill="#0F1417"/>
<path d="M362.215 98.4552C361.535 98.2496 360.832 98.1248 360.121 98.0836C359.792 98.0836 359.473 97.9858 359.423 97.7706C359.392 97.4303 359.468 97.0888 359.642 96.7926C359.951 96.0102 360.271 95.1887 360.64 94.3281C361.544 92.24 362.277 90.0849 362.834 87.8831C361.754 89.8931 360.843 91.9865 360.111 94.1423L359.173 96.6264C358.967 97.0178 358.907 97.4676 359.004 97.8978C359.053 98.0115 359.128 98.1127 359.223 98.194C359.318 98.2753 359.431 98.3345 359.552 98.3672C359.735 98.4145 359.922 98.4408 360.111 98.4455C360.809 98.534 361.516 98.5373 362.215 98.4552Z" fill="#0F1417"/>
<path d="M361.328 113.448C365.756 113.527 370.119 112.392 373.924 110.172C373.924 110.172 370.873 116.49 361.498 115.629L361.328 113.448Z" fill="#EB996E"/>
<path d="M362.764 101.507C363.01 101.205 363.331 100.97 363.695 100.823C364.06 100.676 364.457 100.622 364.848 100.666C365.135 100.689 365.414 100.77 365.667 100.903C365.921 101.035 366.145 101.218 366.324 101.438C366.496 101.649 366.597 101.907 366.615 102.176C366.633 102.445 366.566 102.713 366.424 102.944C366.217 103.173 365.944 103.335 365.642 103.41C365.34 103.485 365.021 103.469 364.728 103.365C364.114 103.153 363.551 102.82 363.073 102.387C362.928 102.286 362.803 102.16 362.704 102.015C362.657 101.945 362.633 101.864 362.633 101.78C362.633 101.697 362.657 101.616 362.704 101.546" fill="#EB996E"/>
<path d="M366.025 99.3354C365.816 99.3354 365.806 100.695 364.609 101.673C363.412 102.651 361.916 102.494 361.906 102.651C361.896 102.807 362.236 102.915 362.904 102.934C363.727 102.944 364.528 102.67 365.168 102.162C365.775 101.672 366.168 100.972 366.265 100.206C366.275 99.6679 366.115 99.3256 366.025 99.3354Z" fill="#0F1417"/>
<path d="M366.324 86.8366C366.454 87.1789 367.75 87.0126 369.266 87.1985C370.782 87.3843 372.009 87.7755 372.208 87.4723C372.298 87.3256 372.079 87.0029 371.59 86.6606C370.933 86.2461 370.184 85.9913 369.406 85.9173C368.631 85.8224 367.844 85.913 367.112 86.1813C366.553 86.3965 366.274 86.6703 366.324 86.8366Z" fill="#0F1417"/>
<path d="M354.677 85.1446C354.906 85.438 355.794 85.1446 356.871 85.1446C357.948 85.1446 358.866 85.3402 359.055 85.0371C359.145 84.8904 359.055 84.597 358.606 84.3329C358.081 83.9942 357.459 83.8265 356.831 83.8537C356.203 83.8664 355.594 84.0678 355.086 84.4307C354.707 84.7143 354.577 85.0077 354.677 85.1446Z" fill="#0F1417"/>
<path d="M366.874 70.1715C363.695 70.3305 360.608 71.2723 357.898 72.9099C356.379 73.6821 355.029 74.7403 353.927 76.024C352.825 77.3078 351.992 78.7919 351.475 80.3916C351.344 80.7243 351.283 81.0798 351.297 81.4363C351.311 81.7928 351.398 82.1428 351.555 82.4649C351.851 82.8333 352.27 83.0886 352.738 83.1868C353.206 83.285 353.694 83.2199 354.118 83.0028C354.964 82.5521 355.683 81.9037 356.212 81.1153C356.423 81.9775 356.926 82.7439 357.64 83.2889C358.353 83.8339 359.234 84.1251 360.138 84.1149C361.042 84.1047 361.916 83.7936 362.616 83.2326C363.316 82.6716 363.801 81.894 363.992 81.0273C364.063 81.9083 364.478 82.7284 365.151 83.3169C365.823 83.9053 366.701 84.2167 367.602 84.1862C368.501 84.1099 369.357 83.7777 370.066 83.2303C370.775 82.683 371.305 81.9444 371.591 81.1055C371.811 82.6958 372.372 84.2224 373.237 85.5847C373.68 86.261 374.324 86.7871 375.082 87.0915C375.841 87.396 376.676 87.4641 377.476 87.2865C377.14 88.6385 377.161 90.0519 377.535 91.3941C378.034 92.685 380.019 114.778 381.355 114.328C382.692 113.878 382.642 91.3452 382.941 90.0346C383.604 87.5208 383.94 84.9345 383.938 82.3378C384.027 79.6627 383.143 77.0438 381.444 74.9493C379.745 72.8547 377.341 71.4212 374.663 70.905C371.989 70.3035 369.245 70.0568 366.505 70.1715" fill="#0F1417"/>
<path d="M385.643 110.406C385.643 110.406 385.553 110.465 385.353 110.533C385.073 110.634 384.782 110.703 384.486 110.739C383.099 110.912 381.69 110.694 380.424 110.113C379.158 109.531 378.087 108.608 377.335 107.453C376.315 105.712 375.885 103.698 376.108 101.702C376.258 99.5994 376.756 97.6826 376.986 95.9222C377.211 94.3594 377.351 92.7858 377.405 91.2082C377.405 89.8586 377.405 88.773 377.405 88.0101C377.362 87.6201 377.362 87.2266 377.405 86.8365C377.523 87.2212 377.594 87.6186 377.614 88.0199C377.723 89.0891 377.776 90.163 377.774 91.2375C377.772 92.8299 377.669 94.4206 377.464 96.0004C377.245 97.7999 376.776 99.7266 376.627 101.751C376.413 103.646 376.804 105.559 377.744 107.228C378.563 108.556 379.824 109.568 381.314 110.093C382.315 110.468 383.386 110.628 384.456 110.563C385.224 110.514 385.633 110.357 385.643 110.406Z" fill="#0F1417"/>
<path d="M363.572 68.988C363.935 69.6577 364.104 70.4119 364.061 71.169C364.096 73.0222 363.381 74.8135 362.073 76.1514C360.765 77.4892 358.969 78.2647 357.08 78.3084C356.313 78.3805 355.54 78.2452 354.846 77.9172C354.846 77.8292 355.703 78.0639 357.06 77.9172C358.832 77.7991 360.497 77.0391 361.73 75.7847C362.963 74.5304 363.677 72.8713 363.732 71.1299C363.762 69.8291 363.483 69.0076 363.572 68.988Z" fill="#455A64"/>
<path d="M364.949 79.8048C364.999 79.8048 364.879 80.4307 364.161 81.1153C363.684 81.5357 363.125 81.8572 362.519 82.0605C361.912 82.2639 361.27 82.3449 360.63 82.2987C359.376 82.1889 358.168 81.7829 357.11 81.1153C356.302 80.6165 355.863 80.2351 355.903 80.1373C356.386 80.2864 356.848 80.4933 357.279 80.7534C358.332 81.2897 359.48 81.6218 360.66 81.7314C361.832 81.7991 362.989 81.4521 363.921 80.7534C364.65 80.3035 364.889 79.7656 364.949 79.8048Z" fill="#455A64"/>
<path d="M387.539 76.9979C387.605 77.8398 387.545 78.6868 387.359 79.5114C387.077 81.5542 386.289 83.4982 385.065 85.174C384.426 86.005 383.62 86.6992 382.698 87.2138C381.775 87.7284 380.755 88.0527 379.7 88.1667C379.058 88.2233 378.412 88.1602 377.795 87.9809C377.366 87.8537 377.156 87.7266 377.166 87.6972C377.989 87.8416 378.827 87.8777 379.66 87.8048C381.644 87.489 383.429 86.4389 384.646 84.8708C385.815 83.2505 386.614 81.4026 386.99 79.4527C387.121 78.6241 387.304 77.8043 387.539 76.9979Z" fill="#455A64"/>
<path d="M389.253 81.4478C389.345 81.6992 389.395 81.9633 389.403 82.2302C389.47 82.9421 389.487 83.6578 389.453 84.372C389.4 86.7785 388.522 89.0974 386.959 90.9539C386.077 91.9746 384.929 92.7418 383.638 93.174C382.58 93.5137 381.45 93.581 380.357 93.3696C379.623 93.2321 378.927 92.9456 378.312 92.5285C377.893 92.2253 377.714 92.0004 377.734 91.9808C378.552 92.4913 379.463 92.8432 380.417 93.0175C381.446 93.1625 382.495 93.0653 383.479 92.7339C384.676 92.3004 385.741 91.5731 386.57 90.6214C388.051 88.8337 388.933 86.6406 389.094 84.3426C389.253 82.5725 389.163 81.4575 389.253 81.4478Z" fill="#455A64"/>
<path d="M257.795 199.659L239.693 240.255H264.617L282.369 199.336L257.795 199.659Z" fill="#455A64"/>
<path d="M244.63 156.48L265.045 195.854H329.433L326.83 190.71L308.18 190.162L292.971 156.969C292.509 155.958 291.758 155.099 290.81 154.497C289.861 153.895 288.755 153.575 287.625 153.575H246.445C246.092 153.563 245.742 153.643 245.43 153.807C245.119 153.97 244.857 154.212 244.673 154.508C244.488 154.803 244.387 155.142 244.379 155.488C244.372 155.835 244.458 156.177 244.63 156.48Z" fill="#E0E0E0"/>
<path d="M276.874 174.133C276.874 174.611 276.73 175.078 276.459 175.475C276.188 175.872 275.804 176.182 275.353 176.365C274.903 176.547 274.408 176.595 273.93 176.502C273.452 176.409 273.013 176.179 272.669 175.841C272.324 175.503 272.09 175.073 271.995 174.604C271.9 174.136 271.948 173.65 272.135 173.208C272.321 172.767 272.637 172.39 273.042 172.124C273.447 171.859 273.923 171.717 274.411 171.717C275.063 171.72 275.688 171.975 276.15 172.428C276.611 172.88 276.871 173.493 276.874 174.133Z" fill="#0F1417"/>
<path d="M336.295 195.932H257.586V199.698H336.295V195.932Z" fill="#455A64"/>
<path d="M312.051 197.82L335.997 240.295H347.446L349.939 235.434L352.233 230.319L336.296 199.698L312.051 197.82Z" fill="#455A64"/>
<path d="M353.659 124.998C353.659 124.998 339.756 129.8 336.764 145.057L351.444 152.235L353.659 124.998Z" fill="#5B87C4"/>
<path d="M353.658 124.998C353.658 124.998 343.934 146.377 344.303 158.055C344.433 162.113 347.146 172.725 347.146 172.725L352.202 198.994C352.202 198.994 390.909 193.859 391.766 193.859C392.624 193.859 390.47 172.294 390.47 172.294L396.783 130.856C396.783 130.856 393.891 125.213 380.826 123.257C372.997 122.054 353.658 124.998 353.658 124.998Z" fill="#5B87C4"/>
<path d="M349.988 137.409C350.078 137.458 349.061 139.052 347.834 141.81C347.123 143.425 346.523 145.085 346.039 146.778C345.456 148.853 345.033 150.969 344.772 153.106C344.543 155.246 344.473 157.4 344.563 159.551C344.653 161.307 344.863 163.055 345.191 164.783C345.75 167.717 346.388 169.517 346.288 169.546C346.079 169.157 345.912 168.747 345.79 168.324C345.612 167.839 345.458 167.346 345.331 166.847C345.171 166.26 344.962 165.605 344.822 164.891C344.448 163.15 344.201 161.385 344.084 159.61C343.965 157.431 344.021 155.246 344.254 153.076C344.519 150.91 344.963 148.767 345.58 146.671C346.093 144.966 346.736 143.302 347.505 141.693C347.785 141.068 348.098 140.457 348.443 139.864C348.681 139.404 348.944 138.957 349.23 138.524C349.444 138.128 349.698 137.754 349.988 137.409Z" fill="#0F1417"/>
<path d="M358.365 124.803L358.924 118.935C358.985 118.325 359.273 117.758 359.733 117.343C360.193 116.929 360.792 116.694 361.417 116.685L380.516 116.402C381.095 116.395 381.656 116.604 382.083 116.987C382.511 117.371 382.774 117.899 382.82 118.465L383.309 124.793C381.71 128.116 379.005 130.806 375.639 132.421C370.024 135.091 361.297 135.179 361.297 135.179L358.365 124.803Z" fill="#5B87C4"/>
<path d="M363.362 116.734C363.422 116.734 363.143 117.115 363.023 117.712C362.915 118.576 362.915 119.45 363.023 120.314C363.191 121.573 363.191 122.849 363.023 124.108C362.68 122.881 362.506 121.615 362.505 120.343C362.371 119.437 362.412 118.515 362.624 117.624C362.953 116.949 363.332 116.685 363.362 116.734Z" fill="#0F1417"/>
<path d="M367.941 123.991C367.607 122.793 367.446 121.555 367.462 120.314C367.388 119.435 367.388 118.552 367.462 117.673C367.562 116.969 367.851 116.607 367.911 116.695C367.971 116.783 367.821 117.106 367.831 117.751C367.841 118.397 367.941 119.316 367.941 120.294C368.108 121.521 368.108 122.764 367.941 123.991Z" fill="#0F1417"/>
<path d="M373.674 123.834C373.262 122.693 373.01 121.502 372.926 120.294C372.68 119.097 372.603 117.873 372.697 116.656C373.114 117.806 373.366 119.007 373.445 120.225C373.688 121.413 373.765 122.627 373.674 123.834Z" fill="#0F1417"/>
<path d="M378.622 124.206C378.166 122.949 377.924 121.628 377.904 120.294C377.712 118.964 377.746 117.613 378.003 116.294C378.264 117.583 378.405 118.892 378.422 120.206C378.616 121.53 378.683 122.869 378.622 124.206Z" fill="#0F1417"/>
<g opacity="0.3">
<path d="M382.412 146.612C381.644 153.194 382.153 164.539 384.526 170.749L395.677 152.685L382.412 146.612Z" fill="#606060"/>
</g>
<path d="M395.747 129.497L395.807 129.556C398.969 132.81 401.282 136.766 402.549 141.086L404.603 150.27L382.662 153.595C381.454 149.7 381.168 145.586 381.824 141.565C382.901 134.641 395.747 129.497 395.747 129.497Z" fill="#5B87C4"/>
<path d="M404.602 150.27C404.459 150.319 404.312 150.355 404.163 150.377L402.906 150.602L398.209 151.355L382.311 153.722H382.032V153.438C381.982 152.138 381.942 150.788 381.912 149.399C381.862 145.79 381.912 142.338 382.132 139.199C382.284 136.385 383.162 133.656 384.685 131.267C385.708 129.66 387.111 128.319 388.774 127.355C389.223 127.094 389.697 126.877 390.19 126.71C390.355 126.636 390.529 126.586 390.709 126.563C390.709 126.563 390.011 126.827 388.874 127.541C387.291 128.535 385.963 129.874 384.994 131.453C383.549 133.827 382.727 136.515 382.6 139.277C382.371 142.387 382.381 145.83 382.441 149.438C382.441 150.808 382.511 152.167 382.541 153.458L382.251 153.213L398.209 151.013L402.926 150.416L404.203 150.27C404.335 150.253 404.469 150.253 404.602 150.27Z" fill="#0F1417"/>
<path d="M358.257 136.783C357.14 136.145 356.114 135.366 355.205 134.465C354.18 133.69 353.268 132.782 352.492 131.766C354.633 133.179 356.572 134.866 358.257 136.783Z" fill="#FAFAFA"/>
<path d="M355.294 148.099C354.512 148.886 353.606 149.547 352.611 150.055C351.698 150.703 350.689 151.211 349.619 151.561C351.312 150.134 353.219 148.973 355.274 148.118L355.294 148.099Z" fill="#FAFAFA"/>
<path d="M367.531 150.886C367.354 149.496 367.354 148.09 367.531 146.7C367.539 145.303 367.713 143.911 368.05 142.553C368.224 143.94 368.224 145.343 368.05 146.729C368.046 148.13 367.872 149.525 367.531 150.886Z" fill="#FAFAFA"/>
<path d="M379.429 162.201C378.437 161.288 377.51 160.307 376.657 159.267C375.676 158.351 374.76 157.371 373.914 156.333C375.111 157.014 376.169 157.906 377.036 158.964C378.023 159.896 378.833 160.992 379.429 162.201Z" fill="#FAFAFA"/>
<path d="M381.106 138.543C380.25 139.417 379.273 140.167 378.203 140.773C377.224 141.513 376.147 142.118 375.002 142.573C375.86 141.698 376.841 140.947 377.914 140.343C378.892 139.608 379.966 139.003 381.106 138.543Z" fill="#FAFAFA"/>
<path d="M370.355 129.986C369.408 130.889 368.341 131.662 367.183 132.284C366.121 133.055 364.961 133.686 363.732 134.162C364.68 133.258 365.747 132.481 366.904 131.854C367.97 131.093 369.13 130.465 370.355 129.986Z" fill="#FAFAFA"/>
<path d="M380.048 133.389C379.395 132.443 378.884 131.408 378.532 130.318C378.042 129.282 377.706 128.182 377.535 127.052C378.196 127.998 378.708 129.036 379.051 130.133C379.548 131.163 379.884 132.261 380.048 133.389Z" fill="#FAFAFA"/>
<path d="M393.382 137.683C391.787 136.598 390.403 135.244 389.293 133.683C390.138 134.156 390.89 134.772 391.517 135.502C392.268 136.112 392.9 136.851 393.382 137.683Z" fill="#FAFAFA"/>
<path d="M387.887 147.218C387.57 146.252 387.425 145.24 387.458 144.226C387.309 143.224 387.34 142.205 387.548 141.213C388.006 143.182 388.121 145.212 387.887 147.218Z" fill="#FAFAFA"/>
<path d="M398.967 145.243C397.806 145.424 396.621 145.384 395.476 145.125C394.308 145.032 393.167 144.723 392.115 144.216C393.274 144.228 394.428 144.366 395.556 144.627C396.712 144.712 397.856 144.919 398.967 145.243Z" fill="#FAFAFA"/>
<path d="M354.286 164.949C353.473 163.845 352.803 162.646 352.292 161.38C351.624 160.185 351.108 158.913 350.756 157.595C351.569 158.699 352.239 159.898 352.751 161.165C353.421 162.359 353.937 163.63 354.286 164.949Z" fill="#FAFAFA"/>
<path d="M368.938 180.382C368.001 179.547 367.185 178.589 366.514 177.536C365.713 176.576 365.043 175.517 364.52 174.387C365.459 175.223 366.277 176.18 366.953 177.233C367.758 178.189 368.426 179.249 368.938 180.382Z" fill="#FAFAFA"/>
<path d="M381.046 173.908C380.02 174.564 378.905 175.078 377.735 175.434C376.626 175.947 375.447 176.299 374.234 176.48C376.368 175.307 378.662 174.441 381.046 173.908Z" fill="#FAFAFA"/>
<path d="M351.215 186.407C351.694 184.562 352.501 182.814 353.598 181.243C353.43 182.19 353.092 183.1 352.601 183.932C352.291 184.831 351.821 185.668 351.215 186.407Z" fill="#FAFAFA"/>
<path d="M341.831 142.211C341.254 141.495 340.907 140.627 340.834 139.717C340.599 138.836 340.64 137.905 340.953 137.047C341.159 137.896 341.292 138.759 341.352 139.629C341.583 140.476 341.743 141.339 341.831 142.211Z" fill="#FAFAFA"/>
<path d="M358.496 176.509C357.431 176.234 356.42 175.788 355.504 175.189C354.51 174.747 353.595 174.153 352.791 173.429C353.854 173.708 354.865 174.154 355.783 174.749C356.772 175.199 357.687 175.792 358.496 176.509Z" fill="#FAFAFA"/>
<path d="M368.12 160.216C366.484 162.137 364.584 163.825 362.475 165.233C363.231 164.221 364.124 163.313 365.128 162.534C366.012 161.631 367.019 160.851 368.12 160.216Z" fill="#FAFAFA"/>
<g opacity="0.3">
<path d="M362.227 159.913C362.71 163.322 364.261 166.5 366.665 169.008C369.158 171.394 373.018 172.597 376.259 171.355C376.613 171.26 376.939 171.082 377.208 170.837C377.477 170.592 377.682 170.286 377.805 169.947C377.86 169.53 377.765 169.107 377.538 168.75C377.311 168.394 376.965 168.125 376.558 167.991C375.75 167.736 374.904 167.617 374.055 167.639C371.636 167.483 369.299 166.724 367.263 165.434C365.228 164.143 363.563 162.364 362.426 160.265" fill="#606060"/>
</g>
<path d="M375.192 167.795C375.192 167.795 374.962 167.874 374.524 167.913C373.907 167.974 373.285 167.974 372.669 167.913C371.752 167.807 370.852 167.597 369.986 167.287C367.848 166.533 365.949 165.241 364.48 163.541C363.884 162.852 363.372 162.097 362.955 161.292C362.661 160.755 362.43 160.187 362.266 159.6C362.186 159.39 362.142 159.168 362.137 158.944C362.236 158.944 362.506 159.825 363.274 161.116C363.723 161.869 364.248 162.576 364.84 163.228C365.573 164.021 366.392 164.732 367.283 165.35C368.183 165.949 369.146 166.45 370.155 166.847C370.983 167.166 371.842 167.402 372.718 167.551C374.224 167.766 375.192 167.698 375.192 167.795Z" fill="#0F1417"/>
<path d="M320.287 183.561L334.729 181.908L344.911 188.451L383.807 179.297L384.725 153.165L402.009 150.935V182.573C401.912 186.414 400.266 190.061 397.432 192.713C394.597 195.366 390.806 196.809 386.889 196.725L329.881 195.17L327.458 190.417L315.221 190.055L320.287 183.561Z" fill="#FFBE9D"/>
<path d="M383.35 179.248C383.11 179.341 382.863 179.417 382.612 179.473L380.497 180.011L372.688 181.908L346.877 188.04L344.474 188.607H344.374H344.294L334.121 182.045H334.261L319.809 183.688L319.909 183.629L316.079 188.392L315.082 189.644C314.971 189.794 314.844 189.932 314.703 190.055C314.796 189.895 314.899 189.742 315.012 189.595L316.01 188.304L319.72 183.473H319.78L334.211 181.703H334.291H334.351L344.543 188.236H344.364L346.767 187.668L372.608 181.663L380.457 179.893L382.592 179.434C382.839 179.352 383.092 179.29 383.35 179.248Z" fill="#EB996E"/>
<path d="M328.177 187.619C326.314 187.833 324.437 187.905 322.562 187.835H321.565L321.705 187.786C320.577 188.803 319.358 189.719 318.064 190.524C319.093 189.411 320.214 188.384 321.416 187.453L321.475 187.394H322.582C324.451 187.319 326.322 187.394 328.177 187.619Z" fill="#EB996E"/>
<path d="M390.519 183.522C389.776 182.371 388.81 181.375 387.677 180.588C386.474 179.921 385.149 179.496 383.777 179.336C384.181 179.199 384.613 179.165 385.034 179.238C386.052 179.343 387.032 179.678 387.897 180.216C388.762 180.754 389.489 181.48 390.021 182.338C390.29 182.683 390.462 183.091 390.519 183.522Z" fill="#EB996E"/>
<path d="M141.097 392.442H75.9707V401.215H141.097V392.442Z" fill="#0F1417"/>
<path d="M141.207 401.332H75.8613V392.334H141.207V401.332ZM76.0807 401.107H140.987V392.55H76.0807V401.107Z" fill="#0F1417"/>
<path d="M82.0156 398.3L91.3806 443.65H126.068L135.134 401.225L82.0156 398.3Z" fill="#0F1417"/>
<path d="M82.0156 439.357L87.0123 446.105H129.17L135.134 439.357H82.0156Z" fill="#455A64"/>
<path d="M106.091 399.621C105.961 399.621 105.802 378.613 105.722 352.677C105.642 326.74 105.722 305.733 105.822 305.733C105.921 305.733 106.111 326.74 106.191 352.677C106.271 378.613 106.221 399.621 106.091 399.621Z" fill="#0F1417"/>
<path d="M120.603 347.043C120.559 347.212 120.499 347.375 120.423 347.532C120.273 347.894 120.074 348.344 119.845 348.892C119.715 349.195 119.575 349.518 119.416 349.87C119.256 350.222 119.136 350.642 118.987 351.063L118.478 352.432C118.309 352.921 118.169 353.41 118 353.997C117.226 356.565 116.616 359.178 116.174 361.821C115.674 365.062 115.341 368.326 115.177 371.601C114.942 377.558 115.115 383.524 115.696 389.459C115.905 391.748 116.115 393.586 116.274 394.858C116.334 395.454 116.394 395.943 116.434 396.325C116.447 396.497 116.447 396.67 116.434 396.843C116.371 396.679 116.331 396.508 116.314 396.334C116.244 395.953 116.164 395.474 116.065 394.887C115.855 393.616 115.586 391.777 115.337 389.498C114.658 383.551 114.442 377.561 114.688 371.581C114.836 368.289 115.169 365.008 115.686 361.752C116.147 359.104 116.793 356.49 117.621 353.928C117.8 353.381 117.95 352.853 118.129 352.373L118.668 351.004L119.146 349.821C119.306 349.459 119.466 349.146 119.605 348.843L120.273 347.513C120.357 347.34 120.468 347.182 120.603 347.043Z" fill="#0F1417"/>
<path d="M118.937 330.055C118.882 330.291 118.812 330.523 118.727 330.75C118.558 331.229 118.328 331.884 118.049 332.706L117.551 334.114C117.391 334.642 117.211 335.209 117.022 335.816C116.643 337.029 116.204 338.408 115.815 339.963L115.157 342.398C114.957 343.249 114.758 344.139 114.549 345.048C114.09 346.877 113.761 348.862 113.342 350.916C112.624 355.082 111.995 359.718 111.557 364.559C111.118 369.4 110.968 374.085 110.908 378.32C110.848 382.554 110.908 386.369 111.128 389.567C111.178 391.171 111.287 392.608 111.367 393.88C111.447 395.151 111.527 396.246 111.606 397.136C111.686 398.026 111.726 398.682 111.766 399.2C111.779 399.438 111.779 399.676 111.766 399.914C111.702 399.684 111.662 399.448 111.646 399.21C111.587 398.691 111.507 398.017 111.397 397.156C111.287 396.295 111.178 395.2 111.078 393.899C110.978 392.599 110.848 391.19 110.769 389.586C110.549 386.378 110.46 382.564 110.45 378.32C110.44 374.075 110.649 369.41 111.068 364.53C111.487 359.65 112.155 355.024 112.893 350.838C113.322 348.755 113.671 346.769 114.14 344.97C114.359 344.051 114.579 343.161 114.778 342.31L115.466 339.884C115.875 338.329 116.344 336.95 116.753 335.738C116.952 335.131 117.142 334.574 117.311 334.046C117.481 333.518 117.68 333.068 117.85 332.647L118.608 330.691C118.693 330.468 118.803 330.255 118.937 330.055Z" fill="#0F1417"/>
<path d="M101.972 403.337C101.962 403.256 101.962 403.174 101.972 403.092C101.972 402.907 101.972 402.672 101.912 402.369C101.863 401.704 101.803 400.775 101.723 399.591C101.563 397.136 101.344 393.655 101.065 389.352C100.506 380.716 99.6884 368.814 98.2024 355.659C97.4444 349.087 96.5668 342.857 95.6492 337.205C95.1705 334.388 94.7317 331.708 94.223 329.205C93.7144 326.701 93.2257 324.383 92.8268 322.261C92.4278 320.139 91.9192 318.241 91.5302 316.569C91.1413 314.896 90.7922 313.449 90.5329 312.275C90.2736 311.102 90.0243 310.222 89.8547 309.566C89.7949 309.283 89.735 309.048 89.6952 308.862C89.6797 308.781 89.6797 308.698 89.6952 308.618C89.7362 308.691 89.7664 308.77 89.7849 308.852L89.9844 309.547C90.1739 310.192 90.4232 311.092 90.7523 312.236C91.0814 313.381 91.4704 314.828 91.8793 316.51C92.2882 318.192 92.7869 320.08 93.2357 322.202C93.6845 324.324 94.233 326.632 94.6918 329.136C95.1506 331.64 95.6891 334.32 96.1678 337.146C97.1053 342.799 97.993 349.038 98.7509 355.601C100.237 368.745 101.005 380.686 101.484 389.332C101.723 393.665 101.893 397.156 101.992 399.581C101.992 400.765 102.072 401.694 102.092 402.369C102.092 402.662 102.092 402.907 102.092 403.092C102.065 403.179 102.024 403.262 101.972 403.337Z" fill="#0F1417"/>
<path d="M105.562 315.894C105.273 312.96 102.211 310.671 99.1594 310.642C97.6329 310.708 96.1418 311.114 94.7992 311.829C93.4565 312.544 92.2975 313.55 91.4101 314.769C89.6546 317.224 88.3859 319.981 87.6701 322.896C85.6156 329.909 84.4986 337.273 85.3762 344.52C86.2539 351.767 89.2459 358.897 94.5517 364.012C95.4094 364.853 96.5464 365.684 97.7132 365.43C98.3447 365.249 98.9182 364.912 99.3788 364.452C104.572 359.789 108.688 354.091 111.45 347.74C114.213 341.389 115.558 334.533 115.396 327.63C115.316 324.882 114.947 322.006 113.401 319.718C111.855 317.429 108.215 314.984 105.572 315.904" fill="#5B87C4"/>
<path d="M82.7929 292.031L78.5044 299.659C78.4046 299.835 78.275 300.041 78.0655 300.05C77.8561 300.06 77.6666 299.865 77.5469 299.679L66.1973 282.642L68.8103 281.185L82.7929 292.031Z" fill="#5B87C4"/>
<g opacity="0.2">
<path d="M82.7929 292.031L78.5044 299.659C78.4046 299.835 78.275 300.041 78.0655 300.05C77.8561 300.06 77.6666 299.865 77.5469 299.679L66.1973 282.642L68.8103 281.185L82.7929 292.031Z" fill="#606060"/>
</g>
<path d="M105.822 305.772L67.1059 283.366C66.8856 283.283 66.684 283.158 66.5129 282.999C66.3418 282.839 66.2044 282.648 66.1086 282.437C65.959 281.879 66.3878 281.331 66.7967 280.911C69.4608 278.204 72.6879 276.091 76.2588 274.715C79.8297 273.34 83.6607 272.735 87.4914 272.94C91.3206 273.21 95.0251 274.391 98.2849 276.379C101.545 278.368 104.262 281.105 106.201 284.353C109.931 290.896 110.061 299.561 105.773 305.772" fill="#5B87C4"/>
<path d="M72.7305 276.217C72.896 276.172 73.0675 276.152 73.2391 276.158C73.5682 276.158 74.0669 276.08 74.7052 276.089C76.5028 276.066 78.2988 276.203 80.0708 276.5C82.7108 276.944 85.2839 277.709 87.7304 278.779C91.9527 280.642 95.7026 283.398 98.7114 286.848C101.72 290.299 103.913 294.36 105.134 298.74C105.633 300.439 105.967 302.181 106.131 303.943C106.211 304.559 106.191 305.048 106.211 305.381C106.228 305.546 106.228 305.713 106.211 305.879C106.211 305.879 106.121 305.195 105.962 303.923C105.741 302.186 105.377 300.469 104.875 298.789C103.251 293.214 100.066 288.197 95.6821 284.308C91.2978 280.418 85.8895 277.812 80.0708 276.784C78.3173 276.457 76.5395 276.271 74.7551 276.226C73.3887 276.236 72.7305 276.256 72.7305 276.217Z" fill="#0F1417"/>
<path d="M100.576 290.309C99.9523 290.682 99.2819 290.975 98.5817 291.18C97.345 291.659 95.5897 292.265 93.6948 292.872C91.7998 293.478 90.0046 293.948 88.7081 294.261C88.0201 294.467 87.311 294.598 86.5938 294.652C87.2317 294.349 87.9002 294.113 88.5884 293.948L93.5152 292.432L98.4321 290.877C99.1259 290.618 99.8442 290.428 100.576 290.309Z" fill="#0F1417"/>
<path d="M94.482 274.251C94.8285 275.636 94.9829 277.06 94.9407 278.485C95.0546 279.908 94.9741 281.338 94.7014 282.74C94.5144 281.333 94.4411 279.914 94.482 278.495C94.368 277.083 94.368 275.663 94.482 274.251Z" fill="#0F1417"/>
<path d="M66.7461 282.945C67.6519 282.537 68.5932 282.21 69.5586 281.967C71.3139 281.429 73.7673 280.754 76.5399 280.109C79.3125 279.463 81.7659 278.974 83.5212 278.661C84.5051 278.446 85.5062 278.315 86.5132 278.27C85.5665 278.569 84.6002 278.804 83.621 278.974C81.8258 279.366 79.3524 279.952 76.6396 280.559C73.9269 281.165 71.4635 281.82 69.6583 282.27C68.7039 282.558 67.731 282.784 66.7461 282.945Z" fill="#0F1417"/>
<path d="M87.9696 308.833C84.6385 306.358 81.1179 305.899 76.9391 306.026C72.7596 306.287 68.6667 307.312 64.8713 309.048C58.3388 311.845 52.2052 315.982 48.3056 321.83C44.406 327.679 43.0397 335.425 45.9619 341.801C46.1918 342.468 46.664 343.029 47.2883 343.376C48.0137 343.574 48.787 343.515 49.4725 343.21C56.9026 340.833 64.3727 338.437 71.2044 334.72C78.0361 331.004 84.2495 325.83 87.9097 319.072C88.847 317.495 89.4508 315.749 89.685 313.938C89.7849 313.022 89.6844 312.095 89.3903 311.22C89.0963 310.345 88.6153 309.541 87.9795 308.862" fill="#5B87C4"/>
<path d="M88.0301 308.07C87.8637 308.163 87.6862 308.235 87.5015 308.285L85.9457 308.813L84.8187 309.175C84.4098 309.322 83.9709 309.498 83.5022 309.684C82.5647 310.055 81.5075 310.427 80.3207 310.975L78.5056 311.786C77.8673 312.07 77.2389 312.422 76.5707 312.764C75.2243 313.41 73.868 314.241 72.4118 315.082C66.1926 318.863 60.6582 323.632 56.0356 329.195C55.0383 330.495 53.9911 331.718 53.1633 332.95C52.7345 333.557 52.3056 334.124 51.9266 334.701L50.9293 336.363C50.2312 337.41 49.7125 338.427 49.2139 339.297C48.9745 339.728 48.7352 340.129 48.5357 340.51C48.3362 340.892 48.1766 341.234 48.027 341.557L47.289 343.004C47.2195 343.179 47.1255 343.344 47.0098 343.493C47.0583 343.311 47.1252 343.134 47.2092 342.965L47.8575 341.478C48.0071 341.156 48.1667 340.804 48.3362 340.412C48.5058 340.021 48.7551 339.62 48.9845 339.18C49.4632 338.29 49.9818 337.224 50.6401 336.197C50.9792 335.659 51.3182 335.092 51.6374 334.505C51.9565 333.918 52.4353 333.351 52.8541 332.735C53.672 331.483 54.6793 330.251 55.7065 328.931C58.0309 326.129 60.5788 323.513 63.3261 321.107C66.104 318.74 69.0725 316.598 72.2024 314.701C73.6685 313.86 75.0448 313.038 76.4012 312.402C77.0794 312.07 77.7177 311.728 78.3958 311.424L80.2409 310.642C81.4078 310.104 82.5049 309.752 83.4623 309.4C83.941 309.234 84.3798 309.068 84.7987 308.931L85.9357 308.598L87.5215 308.158C87.6886 308.116 87.8586 308.087 88.0301 308.07Z" fill="#0F1417"/>
<path d="M62.0199 321.879C59.3683 322.87 56.6651 323.722 53.9216 324.432C51.2193 325.293 48.4688 326.002 45.6836 326.554C48.3352 325.564 51.0384 324.712 53.7819 324.002C56.4858 323.145 59.2361 322.437 62.0199 321.879Z" fill="#0F1417"/>
<path d="M61.6803 339.366C61.5442 338.548 61.4841 337.72 61.5008 336.892C61.5008 335.366 61.5008 333.244 61.5008 330.916C61.5008 328.588 61.7002 326.466 61.8299 324.941C61.8501 324.11 61.9571 323.285 62.149 322.476C62.2162 323.303 62.2162 324.133 62.149 324.96C62.0892 326.632 62.0293 328.667 61.9595 330.926C61.8897 333.185 61.8498 335.219 61.8 336.892C61.8373 337.718 61.7972 338.547 61.6803 339.366Z" fill="#0F1417"/>
<path d="M76.9984 331.757C76.8688 331.757 76.4599 327.464 76.0909 322.153C75.7218 316.843 75.5124 312.53 75.6421 312.53C75.7717 312.53 76.1706 316.813 76.5496 322.124C76.9286 327.434 77.1281 331.747 76.9984 331.757Z" fill="#0F1417"/>
<path d="M57.9395 312.109C58.7993 312.003 59.6676 311.976 60.5325 312.031C62.1283 312.031 64.3423 312.09 66.7858 312.168C69.2293 312.246 71.4334 312.344 73.0291 312.432C73.8956 312.443 74.7596 312.525 75.6122 312.676C74.7523 312.783 73.8841 312.809 73.0191 312.755C71.4234 312.755 69.2093 312.706 66.7659 312.618C64.3224 312.53 62.1183 312.442 60.5126 312.354C59.6493 312.344 58.7885 312.262 57.9395 312.109Z" fill="#0F1417"/>
<path d="M96.2174 366.046C96.1731 365.873 96.1529 365.696 96.1576 365.518C96.1576 365.136 96.1576 364.638 96.0878 364.031C96.0279 362.73 96.0179 360.862 96.0878 358.535C96.1576 356.207 96.2872 353.459 96.5665 350.408C96.8457 347.356 97.3045 344.002 97.9328 340.51C98.5611 337.019 99.3391 333.743 100.127 330.73C100.915 327.718 101.773 325.126 102.55 322.906C103.328 320.686 103.987 318.994 104.545 317.762C104.784 317.195 104.974 316.784 105.134 316.383C105.195 316.22 105.272 316.063 105.363 315.914C105.341 316.087 105.291 316.255 105.213 316.412L104.645 317.85C104.186 319.063 103.558 320.784 102.83 323.033C102.102 325.283 101.304 327.923 100.516 330.857C99.728 333.791 98.99 337.097 98.3517 340.579C97.7134 344.06 97.2846 347.425 96.9654 350.427C96.6463 353.43 96.4667 356.217 96.387 358.525C96.3072 360.833 96.2573 362.711 96.2573 364.012C96.2573 364.618 96.2573 365.107 96.2573 365.498C96.2571 365.681 96.2438 365.864 96.2174 366.046Z" fill="#0F1417"/>
<path d="M98.2521 340.139C97.7993 340.746 97.281 341.303 96.7062 341.801C95.7089 342.779 94.2827 344.09 92.667 345.488C91.0513 346.887 89.5254 348.09 88.3984 348.941C87.8219 349.432 87.1934 349.862 86.5234 350.222C87.031 349.659 87.5921 349.145 88.199 348.686L92.3578 345.146L96.4868 341.566C97.0276 341.036 97.6187 340.558 98.2521 340.139Z" fill="#0F1417"/>
<path d="M110.509 349.811C109.903 349.111 109.352 348.365 108.863 347.581L105.044 342.104L101.134 336.686C100.554 335.963 100.031 335.198 99.5684 334.398C100.243 335.037 100.854 335.738 101.393 336.491C102.471 337.83 103.907 339.708 105.383 341.85C106.859 343.992 108.195 345.958 109.103 347.405C109.647 348.162 110.118 348.968 110.509 349.811Z" fill="#0F1417"/>
<path d="M104.086 319.366C104.156 319.473 100.097 322.163 95.0002 325.371C89.9038 328.579 85.725 331.102 85.6552 330.994C85.5854 330.887 89.6445 328.197 94.7509 324.989C99.8572 321.782 104.026 319.268 104.086 319.366Z" fill="#0F1417"/>
<path d="M115.615 331.542C113.466 329.787 111.412 327.923 109.461 325.958C107.408 324.109 105.46 322.15 103.627 320.09C105.784 321.839 107.841 323.704 109.79 325.674C111.845 327.519 113.79 329.478 115.615 331.542Z" fill="#0F1417"/>
<path d="M118.459 331.278L121.95 330.994C124.432 330.795 126.841 330.071 129.011 328.872C130.073 328.265 131.172 327.723 132.302 327.249C136.62 325.557 141.448 325.86 146.095 325.625C153.71 325.249 161.171 323.38 168.036 320.129C168.449 319.95 168.796 319.654 169.034 319.278C169.752 317.997 168.415 316.852 167.268 316.158C161.374 312.598 155.38 308.999 148.708 307.229C142.036 305.459 134.446 305.762 128.761 309.605C122.079 314.124 119.636 323.395 118.509 331.278" fill="#5B87C4"/>
<path d="M169.062 318.828C168.861 318.747 168.665 318.656 168.474 318.554L166.818 317.703C165.382 316.96 163.317 315.865 160.694 314.642C157.656 313.171 154.489 311.973 151.23 311.063C147.244 309.939 143.071 309.607 138.953 310.085C134.829 310.534 130.934 312.175 127.762 314.799C125.285 317.056 123.303 319.785 121.938 322.818C120.711 325.39 119.943 327.581 119.405 329.068L118.776 330.799C118.715 331.004 118.635 331.204 118.537 331.395C118.566 331.182 118.616 330.973 118.687 330.769C118.826 330.329 119.006 329.742 119.225 329.019C119.891 326.882 120.683 324.786 121.599 322.74C122.943 319.635 124.934 316.841 127.443 314.535C130.659 311.818 134.635 310.114 138.853 309.645C143.027 309.15 147.259 309.482 151.3 310.623C154.577 311.566 157.758 312.803 160.804 314.319C163.407 315.591 165.452 316.725 166.868 317.517L168.484 318.447C168.692 318.549 168.886 318.677 169.062 318.828Z" fill="#0F1417"/>
<path d="M160.675 323.278C160.605 323.376 156.027 320.481 150.462 316.803C144.897 313.126 140.439 310.055 140.489 309.957C140.539 309.86 145.126 312.755 150.691 316.432C156.257 320.109 160.745 323.17 160.675 323.278Z" fill="#0F1417"/>
<path d="M156.287 309.517C153.958 310.235 151.5 310.459 149.076 310.173C150.261 309.931 151.466 309.793 152.677 309.762C153.871 309.578 155.078 309.497 156.287 309.517Z" fill="#0F1417"/>
<path d="M135.792 305.918C134.919 307.943 133.776 309.844 132.391 311.571C132.748 310.53 133.251 309.542 133.887 308.637C134.387 307.647 135.028 306.731 135.792 305.918Z" fill="#0F1417"/>
<path d="M139.881 325.918C139.11 325.603 138.374 325.21 137.687 324.745C136.36 323.962 134.575 322.789 132.7 321.449C130.825 320.109 129.12 318.808 127.903 317.87C127.222 317.397 126.587 316.864 126.008 316.275C126.749 316.654 127.45 317.103 128.102 317.615L132.979 321.087C134.874 322.437 136.619 323.62 137.896 324.481C138.599 324.902 139.263 325.383 139.881 325.918Z" fill="#0F1417"/>
<path d="M123.594 345.84C120.263 344.97 116.284 348.148 115.616 351.464C114.948 354.779 116.204 358.163 117.68 361.244C120.857 368.084 125.568 374.132 131.463 378.936C137.409 383.717 144.829 386.388 152.517 386.515C151.111 380.1 152.886 373.391 152.108 366.867C151.413 361.122 148.751 355.777 144.558 351.707C140.364 347.637 134.886 345.083 129.02 344.461C126.896 344.236 124.432 343.914 123.584 345.84" fill="#5B87C4"/>
<path d="M152.518 386.515C152.351 386.461 152.19 386.389 152.039 386.3C151.602 386.059 151.185 385.784 150.792 385.479C149.396 384.286 148.274 382.816 147.501 381.166C146.973 380.188 146.374 379.053 145.796 377.831C145.217 376.608 144.639 375.317 144.001 373.919C143.361 372.487 142.624 371.098 141.796 369.762C140.908 368.338 139.908 366.984 138.804 365.713C136.53 363.092 134.077 360.823 131.953 358.642C130.032 356.744 128.284 354.686 126.727 352.491C125.684 351.002 124.827 349.397 124.174 347.708C123.964 347.112 123.805 346.633 123.725 346.31C123.67 346.149 123.636 345.981 123.625 345.811C123.625 345.811 123.854 346.476 124.343 347.65C125.054 349.293 125.944 350.857 126.996 352.315C128.583 354.462 130.344 356.48 132.262 358.349C134.396 360.501 136.86 362.77 139.163 365.42C140.293 366.708 141.316 368.082 142.225 369.528C143.05 370.886 143.786 372.293 144.429 373.743L146.185 377.655C146.743 378.867 147.322 379.982 147.84 380.99C148.568 382.625 149.627 384.099 150.952 385.322C151.909 386.163 152.568 386.476 152.518 386.515Z" fill="#0F1417"/>
<path d="M135.293 381.185C135.313 380.443 135.417 379.705 135.602 378.985C135.861 377.635 136.29 375.787 136.869 373.772C137.447 371.757 138.066 369.968 138.564 368.686C138.783 367.975 139.087 367.292 139.472 366.652C139.337 367.379 139.137 368.092 138.873 368.784C138.455 370.095 137.876 371.894 137.318 373.899C136.759 375.904 136.32 377.723 135.921 379.053C135.784 379.782 135.573 380.497 135.293 381.185Z" fill="#0F1417"/>
<path d="M151.91 365.43C151.111 365.315 150.324 365.135 149.556 364.892C148.12 364.53 146.135 364.021 143.931 363.532C141.727 363.043 139.712 362.672 138.256 362.398C137.458 362.297 136.67 362.127 135.902 361.889C136.708 361.869 137.514 361.935 138.306 362.085C139.782 362.271 141.817 362.603 144.031 363.063C146.245 363.523 148.229 364.109 149.646 364.559C150.429 364.772 151.188 365.063 151.91 365.43Z" fill="#0F1417"/>
<path d="M122.926 370.007C122.963 369.147 123.084 368.292 123.285 367.454C123.584 365.899 124.043 363.748 124.671 361.41C125.299 359.073 125.958 356.97 126.476 355.464C126.732 354.637 127.066 353.834 127.474 353.068C127.329 353.914 127.115 354.748 126.835 355.562C126.396 357.087 125.778 359.19 125.16 361.518C124.541 363.845 124.023 365.987 123.654 367.523C123.484 368.369 123.24 369.2 122.926 370.007Z" fill="#0F1417"/>
<path d="M144.259 351.699C144.259 351.816 140.08 351.493 134.964 350.955C129.848 350.417 125.699 349.889 125.719 349.772C128.828 349.86 131.931 350.104 135.014 350.505C138.114 350.749 141.2 351.147 144.259 351.699Z" fill="#0F1417"/>
<path d="M141.207 401.185C141.207 401.313 126.576 401.41 108.534 401.41C90.4922 401.41 75.8613 401.313 75.8613 401.185C75.8613 401.058 90.4922 400.96 108.534 400.96C126.576 400.96 141.207 401.058 141.207 401.185Z" fill="#455A64"/>
<path d="M131.034 419.64C131.034 419.767 121.171 419.875 109.013 419.875C96.8556 419.875 87.002 419.767 87.002 419.64C87.002 419.513 96.8556 419.415 109.013 419.415C121.171 419.415 131.034 419.562 131.034 419.64Z" fill="#455A64"/>
<path d="M131.413 422.281C131.413 422.408 121.559 422.506 109.402 422.506C97.2443 422.506 87.3906 422.408 87.3906 422.281C87.3906 422.154 97.2443 422.056 109.402 422.056C121.559 422.056 131.413 422.154 131.413 422.281Z" fill="#455A64"/>
<path d="M131.413 417.469C131.413 417.596 121.22 417.694 108.644 417.694C96.0677 417.694 85.875 417.596 85.875 417.469C85.875 417.342 96.0677 417.244 108.644 417.244C121.22 417.244 131.413 417.342 131.413 417.469Z" fill="#455A64"/>
</svg>
