<svg width="730" height="489" viewBox="0 0 730 489" fill="none" xmlns="http://www.w3.org/2000/svg">
<path d="M187.738 70.015H96.2422V200.069H187.738V70.015Z" fill="#E0E0E0"/>
<path d="M183.15 70.015H91.6543V200.069H183.15V70.015Z" fill="#F5F5F5"/>
<path d="M171.79 84.0983H103.023V185.977H171.79V84.0983Z" fill="white"/>
<path d="M171.789 185.986C171.789 185.986 171.789 185.81 171.789 185.487C171.789 185.165 171.789 184.666 171.789 184.04C171.789 182.759 171.789 180.881 171.789 178.456C171.789 173.566 171.789 166.456 171.72 157.468C171.72 139.502 171.66 114.054 171.61 84.1178L171.839 84.3427H103.083L103.333 84.0982C103.333 122.534 103.333 157.967 103.333 185.986L103.133 185.791L153.189 185.888L167.012 185.937H170.643H171.899H170.682H167.092H153.309L103.133 186.035H102.934V185.84C102.934 157.82 102.934 122.387 102.934 83.9515V83.707H103.193H171.949H172.178V84.108C172.178 114.133 172.089 139.619 172.069 157.624C172.069 166.593 172.019 173.683 171.999 178.553C171.999 180.969 171.999 182.827 171.999 184.099C171.999 184.715 171.999 185.194 171.999 185.517C171.999 185.84 171.789 185.986 171.789 185.986Z" fill="#E0E0E0"/>
<path d="M183.419 70.015C182.946 70.8466 182.399 71.6354 181.784 72.372C180.727 73.7608 179.211 75.6581 177.495 77.7119C175.78 79.7657 174.164 81.575 172.967 82.8659C172.366 83.5952 171.698 84.2695 170.973 84.8806C171.489 84.0873 172.073 83.3381 172.718 82.641L177.126 77.3989L181.514 72.1275C182.087 71.3717 182.725 70.665 183.419 70.015Z" fill="#E0E0E0"/>
<path d="M172.139 185.654C175.553 190.969 179.568 195.89 184.107 200.324Z" fill="white"/>
<path d="M184.137 200.363C183.369 199.819 182.667 199.193 182.042 198.495C180.448 196.905 178.937 195.237 177.515 193.497C175.859 191.453 174.473 189.507 173.525 188.069C172.98 187.311 172.513 186.502 172.129 185.654C172.746 186.352 173.309 187.094 173.814 187.874C174.812 189.263 176.248 191.16 177.893 193.184C179.539 195.209 181.135 196.989 182.292 198.26C182.957 198.917 183.574 199.62 184.137 200.363Z" fill="#E0E0E0"/>
<path d="M91.6445 199.962L103.613 185.468Z" fill="white"/>
<path d="M103.632 185.468C101.827 188.031 99.89 190.502 97.828 192.871C95.8985 195.342 93.8343 197.709 91.6445 199.962C93.4497 197.399 95.387 194.928 97.449 192.558C99.3786 190.088 101.443 187.721 103.632 185.468Z" fill="#E0E0E0"/>
<path d="M91.6543 70.015C93.7218 72.191 95.6662 74.4764 97.4787 76.861C99.4198 79.1377 101.231 81.5178 102.904 83.9906C100.84 81.8143 98.8992 79.5288 97.0898 77.1446C95.146 74.8676 93.3315 72.4875 91.6543 70.015Z" fill="#E0E0E0"/>
<path d="M150.368 104.783H127.34V168.891H150.368V104.783Z" fill="#E0E0E0"/>
<path d="M311.099 51.0614V108.02H227.682L224.68 51.4624L311.099 51.0614Z" fill="#E0E0E0"/>
<path d="M224.668 51.4623V107.893H308.085V51.4623L224.668 51.4623Z" fill="white"/>
<path d="M308.484 108.284H224.279V51.0714H308.484V108.284ZM225.077 107.512H307.696V51.8342H225.077V107.512Z" fill="#E0E0E0"/>
<path d="M299.06 58.4746H233.715V100.881H299.06V58.4746Z" fill="white"/>
<path d="M299.059 58.4746H297.803H294.212H280.748L233.714 58.68L233.903 58.4942C233.903 71.4527 233.903 85.8097 233.903 100.9L233.704 100.705H299.049L298.88 100.861C298.88 87.9613 298.949 77.3892 298.969 70.0053C298.969 66.328 298.969 63.4527 298.969 61.4771C298.969 60.4991 298.969 59.7558 298.969 59.2375C298.969 58.7191 298.969 58.4551 298.969 58.4551C298.969 58.4551 298.969 58.6996 298.969 59.1984C298.969 59.6971 298.969 60.4502 298.969 61.4086C298.969 63.3646 298.969 66.24 299.019 69.9075C299.019 77.3011 299.069 87.9222 299.099 100.861V101.027H298.939H233.594H233.385V100.822C233.385 85.7315 233.385 71.3745 233.385 58.416V58.2888H233.574L280.738 58.3768L294.162 58.4355H297.713H298.92L299.059 58.4746Z" fill="#E0E0E0"/>
<path d="M224.68 51.3059C225.195 51.549 225.678 51.8546 226.116 52.2154C226.964 52.8218 228.111 53.6824 229.387 54.6604C230.664 55.6384 231.741 56.6165 232.519 57.2717C232.964 57.626 233.365 58.0296 233.716 58.4746C232.126 57.385 230.595 56.2164 229.128 54.9734C227.567 53.8446 226.082 52.6197 224.68 51.3059Z" fill="#E0E0E0"/>
<path d="M308.096 51.4624C306.725 52.7859 305.258 54.0115 303.708 55.1299C302.241 56.3507 300.688 57.4684 299.061 58.4747C300.432 57.1512 301.899 55.9256 303.449 54.8072C304.914 53.5838 306.467 52.466 308.096 51.4624Z" fill="#E0E0E0"/>
<path d="M308.026 107.903L298.721 100.509Z" fill="white"/>
<path d="M298.721 100.509C300.394 101.585 301.993 102.768 303.508 104.049C305.1 105.233 306.61 106.52 308.026 107.903C306.351 106.833 304.755 105.65 303.249 104.362C301.649 103.184 300.136 101.896 298.721 100.509Z" fill="#E0E0E0"/>
<path d="M224.68 107.893C226.035 106.586 227.485 105.376 229.018 104.274C230.469 103.064 232.005 101.956 233.616 100.959C232.265 102.274 230.815 103.487 229.277 104.587C227.828 105.796 226.291 106.901 224.68 107.893Z" fill="#E0E0E0"/>
<path d="M246.979 71.6874V85.8879H288.099V71.6874H246.979Z" fill="#E0E0E0"/>
<path d="M650.949 306.28C650.949 306.28 643.459 302.857 637.585 320.07C631.71 337.283 629.965 346.975 629.965 346.975C629.965 346.975 628.28 350.652 625.597 348.804C622.914 346.955 618.755 341.214 614.935 342.936C611.116 344.657 610.298 349.43 612.103 355.973C613.908 362.515 617.329 376.98 617.628 378.29C617.927 379.601 617.459 381.606 615.434 380.638C613.409 379.669 601.023 369.645 596.485 375.679C591.947 381.713 600.065 399.151 600.913 401.049C601.761 402.946 601.491 403.885 600.594 404.52C599.696 405.156 595.876 401.401 592.236 398.652C588.596 395.904 583.898 393.43 581.595 397.127C579.291 400.824 580.487 414.604 597.113 434.829L605.441 443.699L617.538 441.244C643.1 434.447 652.315 423.983 652.664 419.66C653.013 415.337 647.678 414.672 643.14 414.77C638.602 414.868 633.226 415.699 632.887 414.662C632.548 413.626 632.887 412.706 634.703 411.728C636.518 410.75 653.502 401.215 653.482 393.733C653.462 386.251 637.435 387.249 635.211 386.887C632.987 386.525 633.825 384.589 634.832 383.718C635.839 382.848 647.289 373.088 652.664 368.833C658.04 364.579 660.334 360.364 658.18 356.657C656.025 352.95 649.303 355.327 646.032 355.278C642.761 355.229 643.589 351.278 643.589 351.278C643.589 351.278 647.977 342.476 653.562 325.117C659.147 307.757 650.789 306.261 650.789 306.261" fill="#EBEBEB"/>
<path d="M603.865 446.154C607.994 433.44 615.714 410.995 622.246 391.679C628.779 372.364 634.673 354.887 638.872 342.212C640.956 335.875 642.642 330.75 643.858 327.19C644.447 325.43 644.856 324.051 645.215 323.102C645.368 322.652 645.487 322.3 645.574 322.046C645.654 321.801 645.703 321.684 645.703 321.684C645.703 321.684 645.703 321.811 645.604 322.055C645.504 322.3 645.424 322.662 645.285 323.121C644.985 324.099 644.556 325.459 643.998 327.229C642.881 330.799 641.235 335.943 639.161 342.29C635.032 355.004 629.188 372.491 622.655 391.797C616.122 411.102 608.353 433.557 604.155 446.232" fill="#E0E0E0"/>
<path d="M620.43 351.18C620.595 351.422 620.739 351.677 620.859 351.943C621.118 352.442 621.467 353.185 621.856 354.095C622.704 355.924 623.851 358.476 624.958 361.312C626.065 364.149 627.112 366.642 627.95 368.579C628.299 369.449 628.608 370.193 628.847 370.779C628.983 371.039 629.084 371.315 629.146 371.601C628.981 371.36 628.837 371.104 628.718 370.838C628.458 370.339 628.109 369.606 627.72 368.687C626.892 366.848 625.825 364.285 624.668 361.449C623.511 358.613 622.474 356.129 621.676 354.202L620.759 352.002C620.614 351.743 620.503 351.467 620.43 351.18Z" fill="#E0E0E0"/>
<path d="M630.315 371.64C630.265 371.542 635.531 369.097 642.073 366.163C648.616 363.229 653.942 360.941 654.041 361.039C654.141 361.136 648.815 363.581 642.273 366.506C635.73 369.43 630.315 371.748 630.315 371.64Z" fill="#E0E0E0"/>
<path d="M618.885 400.863C619.176 400.77 619.477 400.711 619.782 400.687L622.226 400.335C624.28 400.041 627.133 399.621 630.254 399.034C633.376 398.447 636.179 397.85 638.233 397.381L640.637 396.843C640.928 396.754 641.23 396.702 641.534 396.687C641.258 396.81 640.971 396.908 640.677 396.98C640.118 397.146 639.31 397.381 638.303 397.645C636.308 398.173 633.476 398.828 630.324 399.406C627.173 399.983 624.34 400.383 622.256 400.599C621.258 400.716 620.381 400.794 619.792 400.833C619.491 400.869 619.188 400.879 618.885 400.863Z" fill="#E0E0E0"/>
<path d="M605.82 384.266C606.036 384.442 606.23 384.643 606.399 384.863L607.865 386.584C609.092 388.041 610.757 390.075 612.582 392.334C614.407 394.594 616.053 396.647 617.22 398.154L618.586 399.943C618.765 400.156 618.922 400.385 619.055 400.628C618.836 400.455 618.642 400.254 618.476 400.031L617.01 398.32C615.784 396.853 614.118 394.828 612.283 392.569C610.448 390.31 608.822 388.246 607.655 386.75L606.289 384.96C606.106 384.748 605.948 384.515 605.82 384.266Z" fill="#E0E0E0"/>
<path d="M592.416 408.804C592.686 409.036 592.93 409.295 593.144 409.577C593.643 410.144 594.271 410.887 595.029 411.767C596.615 413.626 598.769 416.217 601.143 419.093C603.516 421.968 605.641 424.579 607.127 426.486L608.922 428.746C609.151 429.017 609.354 429.309 609.53 429.616C609.267 429.378 609.024 429.119 608.802 428.843L606.917 426.653C605.341 424.785 603.177 422.203 600.804 419.327C598.43 416.452 596.306 413.841 594.82 411.934C594.101 411.024 593.493 410.261 593.034 409.665C592.8 409.398 592.593 409.11 592.416 408.804Z" fill="#E0E0E0"/>
<path d="M609.371 429C609.737 428.891 610.11 428.809 610.488 428.755L613.57 428.208C616.173 427.738 619.763 427.073 623.703 426.252C627.642 425.43 631.193 424.569 633.756 423.934L636.798 423.19C637.166 423.082 637.543 423.004 637.925 422.956C637.575 423.112 637.211 423.236 636.838 423.327C636.13 423.542 635.102 423.846 633.846 424.188C631.292 424.892 627.752 425.782 623.802 426.613C619.853 427.445 616.253 428.08 613.64 428.481C612.333 428.687 611.266 428.833 610.538 428.921C610.152 428.984 609.762 429.01 609.371 429Z" fill="#E0E0E0"/>
<path d="M673.201 445.802C673.201 445.939 536.177 446.056 367.199 446.056C198.221 446.056 61.1973 445.968 61.1973 445.802C61.1973 445.635 198.191 445.547 367.239 445.547C536.287 445.547 673.201 445.665 673.201 445.802Z" fill="#0F1417"/>
<path d="M486.058 105.452L476.568 113.411L489.235 127.935L498.725 119.976L486.058 105.452Z" fill="#0F1417"/>
<path d="M494.258 104.323L474.731 120.773L461.037 105.125C466.423 97.7119 472.846 92.1177 480.535 88.6752L494.258 104.323Z" fill="#455A64"/>
<path d="M478.023 118.015C477.913 118.113 474.612 114.553 470.643 110.084C466.673 105.614 463.542 101.917 463.662 101.82C463.781 101.722 467.072 105.282 471.042 109.751C475.011 114.221 478.133 117.927 478.023 118.015Z" fill="#0F1417"/>
<path d="M481.714 114.886C480.924 114.133 480.191 113.325 479.52 112.47C478.203 110.954 476.418 108.851 474.453 106.504L469.466 100.48L467.97 98.6508C467.611 98.201 467.422 97.9956 467.422 97.9662C467.621 97.7902 470.942 101.497 474.872 106.181C476.867 108.529 478.582 110.67 479.859 112.245C480.555 113.07 481.176 113.954 481.714 114.886Z" fill="#0F1417"/>
<path d="M486.699 110.71C485.898 109.959 485.154 109.152 484.475 108.294C483.148 106.758 481.353 104.617 479.378 102.24L474.392 96.1178L472.896 94.2498C472.702 94.0271 472.528 93.7882 472.377 93.5359C473.234 94.2301 474.004 95.0213 474.671 95.8929C476.017 97.4088 477.832 99.5408 479.797 101.917C481.762 104.294 483.527 106.475 484.784 108.069C485.497 108.895 486.137 109.778 486.699 110.71Z" fill="#0F1417"/>
<path d="M491.198 106.798C491.088 106.886 487.807 103.296 483.868 98.7779C479.928 94.2596 476.836 90.5138 476.946 90.416C477.056 90.3182 480.327 93.9173 484.267 98.4454C488.206 102.974 491.308 106.709 491.198 106.798Z" fill="#0F1417"/>
<path d="M653.17 115.339L644.543 106.486L630.454 119.689L639.081 128.541L653.17 115.339Z" fill="#0F1417"/>
<path d="M653.583 124.049L635.811 105.81L651 91.5798C658.819 96.4698 664.863 102.465 668.762 109.82L653.583 124.049Z" fill="#455A64"/>
<path d="M638.783 108.871C638.684 108.763 642.124 105.34 646.473 101.223C650.821 97.1055 654.452 93.8488 654.521 93.9466C654.591 94.0444 651.18 97.4674 646.832 101.595C642.483 105.722 638.883 108.969 638.783 108.871Z" fill="#0F1417"/>
<path d="M642.174 112.343C642.883 111.522 643.656 110.756 644.488 110.054C645.954 108.685 648.008 106.817 650.292 104.763L656.166 99.5506L657.952 97.9858C658.381 97.6142 658.59 97.4284 658.62 97.4186C658.809 97.6044 655.209 101.057 650.641 105.145C648.357 107.189 646.263 109.057 644.727 110.318C643.932 111.058 643.078 111.735 642.174 112.343Z" fill="#0F1417"/>
<path d="M646.682 116.969C647.399 116.14 648.183 115.368 649.025 114.661C650.511 113.282 652.596 111.404 654.92 109.35L660.904 104.128L662.729 102.563C662.951 102.368 663.185 102.186 663.427 102.015C662.767 102.893 662.004 103.69 661.153 104.392C659.677 105.79 657.593 107.678 655.279 109.732C652.965 111.785 650.831 113.644 649.295 114.935C648.478 115.677 647.605 116.357 646.682 116.969Z" fill="#0F1417"/>
<path d="M650.901 121.184C650.801 121.076 654.291 117.683 658.69 113.585C663.088 109.487 666.738 106.26 666.838 106.367C666.938 106.475 663.447 109.868 659.049 113.957C654.65 118.045 651 121.272 650.901 121.184Z" fill="#0F1417"/>
<path d="M573.548 73.0762H558.768V95.6973H573.548V73.0762Z" fill="#0F1417"/>
<path d="M581.446 79.8439H551.027V55.4623C561.689 52.8804 571.862 52.7239 581.476 55.4623L581.446 79.8439Z" fill="#142A48"/>
<path d="M581.836 55.5602C581.479 55.7788 581.102 55.9622 580.709 56.1078C579.667 56.5576 578.598 56.943 577.507 57.2619C575.873 57.7554 574.207 58.1409 572.52 58.4159C570.472 58.7348 568.402 58.9048 566.327 58.9245C564.254 58.9275 562.184 58.7771 560.134 58.4746C558.448 58.2182 556.782 57.849 555.147 57.3695C554.055 57.0562 552.983 56.6806 551.936 56.2448C551.539 56.1101 551.161 55.9295 550.809 55.7069C550.809 55.6188 552.484 56.2937 555.247 57.0174C556.868 57.4376 558.513 57.7641 560.174 57.9954C562.203 58.2647 564.249 58.4019 566.297 58.4061C568.347 58.3833 570.392 58.2265 572.421 57.9367C574.074 57.7022 575.712 57.3757 577.328 56.9587C580.16 56.1665 581.796 55.4721 581.836 55.5602Z" fill="#0F1417"/>
<path d="M561.08 79.7754C560.94 79.7754 560.82 75.0907 560.82 69.3205C560.82 63.5503 560.94 58.8657 561.08 58.8657C561.219 58.8657 561.339 63.5406 561.339 69.3205C561.339 75.1005 561.229 79.7754 561.08 79.7754Z" fill="#0F1417"/>
<path d="M566.875 79.9123C566.735 79.9123 566.615 75.2082 566.615 69.4086C566.615 63.6091 566.735 58.9147 566.875 58.9147C567.014 58.9147 567.134 63.6091 567.134 69.4086C567.134 75.2082 567.024 79.9123 566.875 79.9123Z" fill="#0F1417"/>
<path d="M572.669 79.8243C572.53 79.8243 572.41 75.1202 572.41 69.3206C572.41 63.5211 572.53 58.8169 572.669 58.8169C572.809 58.8169 572.929 63.5211 572.929 69.3206C572.929 75.1202 572.819 79.8243 572.669 79.8243Z" fill="#0F1417"/>
<path d="M577.457 79.8243C577.307 79.8243 577.197 74.7387 577.197 68.4697C577.197 62.2007 577.307 57.1151 577.457 57.1151C577.606 57.1151 577.716 62.2007 577.716 68.4697C577.716 74.7387 577.636 79.8243 577.457 79.8243Z" fill="#0F1417"/>
<path d="M555.605 79.6777C555.465 79.6777 555.346 74.5921 555.346 68.3231C555.346 62.0541 555.465 56.9685 555.605 56.9685C555.745 56.9685 555.864 62.0541 555.864 68.3231C555.864 74.5921 555.755 79.6777 555.605 79.6777Z" fill="#0F1417"/>
<path d="M640.415 268.727C682.413 227.543 682.413 160.771 640.415 119.587C598.417 78.403 530.325 78.403 488.327 119.587C446.329 160.771 446.329 227.543 488.327 268.727C530.325 309.91 598.417 309.91 640.415 268.727Z" fill="#142A48"/>
<path d="M564.371 281.889C614.253 281.889 654.69 242.236 654.69 193.321C654.69 144.407 614.253 104.754 564.371 104.754C514.49 104.754 474.053 144.407 474.053 193.321C474.053 242.236 514.49 281.889 564.371 281.889Z" fill="#FAFAFA"/>
<path d="M654.689 193.321C654.689 193.321 654.689 192.842 654.62 191.893C654.55 190.945 654.62 189.527 654.43 187.678C654.074 182.285 653.213 176.936 651.857 171.698C650.88 167.917 649.643 164.205 648.157 160.588C646.41 156.274 644.308 152.108 641.874 148.128C635.917 138.405 628.133 129.879 618.935 123.003C607.771 114.674 594.775 109.021 580.986 106.494C569.299 104.386 557.305 104.522 545.671 106.895C541.585 107.765 537.561 108.892 533.623 110.269C516.866 116.255 502.291 126.971 491.735 141.067C488.98 144.737 486.526 148.616 484.395 152.666C483.288 154.69 482.34 156.793 481.403 158.905C480.465 161.018 479.627 163.209 478.919 165.438C477.389 169.901 476.241 174.481 475.488 179.13C474.732 183.831 474.335 188.582 474.302 193.341C474.337 198.103 474.73 202.856 475.479 207.561C476.242 212.208 477.39 216.787 478.909 221.253C479.627 223.473 480.525 225.625 481.393 227.776C482.26 229.928 483.308 232.001 484.385 234.026C486.516 238.078 488.974 241.956 491.735 245.625C502.289 259.725 516.864 270.445 533.623 276.432C537.561 277.809 541.585 278.936 545.671 279.806C549.654 280.622 553.689 281.174 557.749 281.459C565.517 282.034 573.329 281.614 580.986 280.207C594.775 277.68 607.771 272.027 618.935 263.698C628.136 256.825 635.92 248.298 641.874 238.573C644.306 234.592 646.408 230.426 648.157 226.114C651.699 217.467 653.817 208.322 654.43 199.023C654.6 197.174 654.57 195.756 654.62 194.808C654.669 193.859 654.689 193.37 654.689 193.37C654.689 193.37 654.689 193.859 654.689 194.808C654.689 195.756 654.689 197.174 654.55 199.023C654.004 208.348 651.926 217.526 648.396 226.202C646.659 230.534 644.565 234.721 642.133 238.72C636.191 248.492 628.406 257.065 619.194 263.982C607.991 272.361 594.944 278.055 581.096 280.608C573.404 282.033 565.555 282.467 557.749 281.899C553.669 281.615 549.615 281.063 545.611 280.246C541.501 279.379 537.453 278.248 533.493 276.862C516.637 270.854 501.974 260.082 491.356 245.908C488.585 242.22 486.117 238.322 483.976 234.25C482.859 232.216 481.901 230.084 480.924 227.962C479.947 225.84 479.149 223.639 478.431 221.4C476.901 216.916 475.747 212.317 474.98 207.649C473.397 198.18 473.397 188.521 474.98 179.052C475.751 174.404 476.905 169.825 478.431 165.36C479.159 163.121 480.056 160.959 480.934 158.798C481.812 156.636 482.859 154.553 483.976 152.519C486.124 148.449 488.595 144.551 491.366 140.861C501.98 126.689 516.64 115.921 533.493 109.917C537.45 108.532 541.494 107.402 545.601 106.533C549.608 105.717 553.666 105.165 557.749 104.881C565.552 104.312 573.398 104.746 581.086 106.172C594.938 108.713 607.987 114.408 619.184 122.798C628.396 129.719 636.18 138.295 642.123 148.069C646.59 155.447 649.949 163.418 652.096 171.737C653.427 176.993 654.258 182.359 654.58 187.766C654.729 189.615 654.679 191.033 654.719 191.981C654.759 192.93 654.689 193.321 654.689 193.321Z" fill="#0F1417"/>
<path d="M641.437 190.113C638.574 190.231 636.24 190.113 636.231 189.869C636.221 189.624 638.524 189.292 641.387 189.135C644.249 188.979 646.583 189.077 646.603 189.37C646.623 189.663 644.279 189.996 641.437 190.113Z" fill="#0F1417"/>
<path d="M639.51 210.505C636.718 209.859 634.523 209.145 634.523 208.901C634.523 208.656 636.897 208.95 639.7 209.546C642.502 210.143 644.686 210.867 644.686 211.15C644.686 211.434 642.283 211.14 639.51 210.505Z" fill="#0F1417"/>
<path d="M632.06 229.625C629.537 228.275 627.602 226.994 627.722 226.779C627.842 226.563 629.996 227.453 632.529 228.735C635.062 230.016 637.007 231.336 636.868 231.59C636.728 231.845 634.574 230.984 632.06 229.625Z" fill="#0F1417"/>
<path d="M619.644 246.094C617.589 244.138 616.063 242.397 616.243 242.182C616.422 241.967 618.238 243.424 620.332 245.361C622.426 247.297 623.932 249.028 623.733 249.273C623.533 249.517 621.688 248.06 619.644 246.094Z" fill="#0F1417"/>
<path d="M603.188 258.71C601.752 256.275 600.754 254.202 600.974 254.075C601.193 253.947 602.569 255.806 604.045 258.212C605.521 260.617 606.519 262.691 606.269 262.847C606.02 263.004 604.634 261.126 603.188 258.71Z" fill="#0F1417"/>
<path d="M583.89 266.524C583.172 263.796 582.783 261.537 583.033 261.478C583.282 261.419 584.09 263.561 584.858 266.27C585.626 268.979 586.005 271.238 585.715 271.317C585.426 271.395 584.608 269.243 583.89 266.524Z" fill="#0F1417"/>
<path d="M563.156 268.95C563.156 266.133 563.445 263.855 563.694 263.855C563.943 263.855 564.153 266.143 564.153 268.95C564.153 271.757 563.904 274.045 563.614 274.045C563.325 274.045 563.106 271.776 563.156 268.95Z" fill="#0F1417"/>
<path d="M542.549 265.889C543.367 263.19 544.225 261.067 544.474 261.136C544.723 261.204 544.285 263.454 543.477 266.163C542.669 268.872 541.841 271.053 541.552 270.916C541.263 270.779 541.682 268.588 542.549 265.889Z" fill="#0F1417"/>
<path d="M523.472 257.468C524.998 255.092 526.404 253.263 526.624 253.39C526.843 253.517 525.806 255.581 524.32 257.987C522.834 260.393 521.417 262.212 521.168 262.065C520.919 261.918 521.946 259.855 523.472 257.468Z" fill="#0F1417"/>
<path d="M507.423 244.363C509.547 242.466 511.412 241.077 511.572 241.263C511.732 241.449 510.196 243.15 508.101 245.077C506.007 247.004 504.162 248.392 503.952 248.187C503.743 247.982 505.309 246.26 507.423 244.363Z" fill="#0F1417"/>
<path d="M495.536 227.522C498.099 226.26 500.273 225.409 500.383 225.625C500.493 225.84 498.538 227.082 495.995 228.392C493.451 229.703 491.287 230.554 491.148 230.29C491.008 230.026 492.983 228.793 495.536 227.522Z" fill="#0F1417"/>
<path d="M488.695 208.177C491.517 207.629 493.841 207.385 493.891 207.629C493.941 207.874 491.707 208.549 488.904 209.135C486.102 209.722 483.768 209.967 483.708 209.683C483.648 209.4 485.902 208.725 488.695 208.177Z" fill="#0F1417"/>
<path d="M487.427 187.776C490.289 187.981 492.593 188.353 492.583 188.597C492.573 188.842 490.23 188.91 487.367 188.744C484.505 188.578 482.191 188.216 482.211 187.923C482.231 187.629 484.565 187.522 487.427 187.776Z" fill="#0F1417"/>
<path d="M491.766 167.698C494.469 168.676 496.584 169.654 496.504 169.859C496.424 170.064 494.15 169.536 491.437 168.617C488.725 167.698 486.61 166.739 486.7 166.465C486.79 166.192 489.074 166.739 491.766 167.698Z" fill="#0F1417"/>
<path d="M501.449 149.556C503.783 151.189 505.558 152.675 505.438 152.881C505.319 153.086 503.264 151.952 500.9 150.358C498.537 148.763 496.762 147.277 496.911 147.032C497.061 146.788 499.105 147.922 501.449 149.556Z" fill="#0F1417"/>
<path d="M515.722 134.612C517.527 136.793 518.834 138.69 518.644 138.856C518.455 139.023 516.789 137.389 514.954 135.228C513.119 133.067 511.802 131.179 512.032 130.993C512.261 130.807 513.917 132.431 515.722 134.612Z" fill="#0F1417"/>
<path d="M533.573 123.952C534.71 126.534 535.458 128.705 535.219 128.842C534.979 128.979 533.842 126.944 532.666 124.382C531.489 121.82 530.741 119.648 531.01 119.492C531.279 119.335 532.406 121.379 533.573 123.952Z" fill="#0F1417"/>
<path d="M553.661 118.406C554.05 121.194 554.169 123.482 553.91 123.521C553.651 123.56 553.102 121.331 552.673 118.553C552.244 115.776 552.125 113.477 552.414 113.438C552.703 113.399 553.272 115.619 553.661 118.406Z" fill="#0F1417"/>
<path d="M574.544 118.338C574.165 121.125 573.656 123.365 573.407 123.336C573.157 123.306 573.217 121.008 573.556 118.221C573.895 115.433 574.404 113.184 574.693 113.223C574.982 113.262 574.923 115.541 574.544 118.338Z" fill="#0F1417"/>
<path d="M594.68 123.746C593.553 126.338 592.446 128.353 592.207 128.255C591.967 128.157 592.675 125.976 593.763 123.365C594.85 120.754 595.967 118.749 596.236 118.866C596.505 118.983 595.817 121.164 594.68 123.746Z" fill="#0F1417"/>
<path d="M612.592 134.279C610.797 136.48 609.181 138.133 608.982 137.976C608.782 137.82 610.049 135.893 611.814 133.673C613.579 131.453 615.185 129.761 615.424 129.986C615.664 130.211 614.357 132.089 612.592 134.279Z" fill="#0F1417"/>
<path d="M626.985 149.125C624.651 150.768 622.647 151.942 622.497 151.737C622.348 151.531 624.093 150.015 626.397 148.333C628.701 146.651 630.705 145.487 630.885 145.722C631.064 145.957 629.319 147.482 626.985 149.125Z" fill="#0F1417"/>
<path d="M636.788 167.238C634.095 168.216 631.801 168.793 631.742 168.568C631.682 168.343 633.736 167.326 636.439 166.319C639.142 165.311 641.366 164.715 641.475 164.989C641.585 165.262 639.481 166.26 636.788 167.238Z" fill="#0F1417"/>
<path d="M641.286 187.209C638.424 187.434 636.09 187.414 636.07 187.209C636.05 187.003 638.344 186.554 641.197 186.231C644.049 185.908 646.393 185.986 646.413 186.28C646.433 186.573 644.119 186.984 641.286 187.209Z" fill="#0F1417"/>
<path d="M529.296 97.5066L528.987 97.6435L528.07 98.0054C527.272 98.3379 526.075 98.7389 524.549 99.3941C520.25 101.157 516.075 103.199 512.053 105.507C509.499 106.954 506.797 108.685 503.954 110.631C501.112 112.578 498.21 114.847 495.307 117.399C482.565 128.413 472.832 142.375 466.993 158.015C465.627 161.595 464.599 165.096 463.712 168.372C462.824 171.649 462.226 174.778 461.777 177.634C461.049 182.146 460.626 186.701 460.51 191.267C460.431 192.891 460.51 194.143 460.51 194.994C460.51 195.404 460.51 195.717 460.51 195.972C460.519 196.082 460.519 196.193 460.51 196.304C460.497 196.197 460.497 196.089 460.51 195.981C460.51 195.737 460.51 195.414 460.51 195.003C460.51 194.153 460.401 192.901 460.45 191.277C460.486 186.693 460.856 182.118 461.558 177.585C461.976 174.71 462.625 171.59 463.433 168.275C464.334 164.751 465.419 161.274 466.684 157.859C472.494 142.113 482.285 128.071 495.138 117.047C498.06 114.494 501.032 112.294 503.844 110.289C506.657 108.284 509.43 106.622 512.013 105.194C516.062 102.91 520.271 100.909 524.609 99.2083C526.135 98.5824 527.362 98.2303 528.179 97.9076L529.117 97.5946C529.174 97.561 529.234 97.5316 529.296 97.5066Z" fill="white"/>
<path d="M559.315 91.795C558.29 92.0039 557.249 92.1379 556.204 92.196C554.269 92.3916 551.616 92.6752 548.684 93.0469C545.752 93.4185 543.109 93.8097 541.194 94.1031C540.168 94.3099 539.128 94.4407 538.082 94.4943C539.074 94.1553 540.095 93.9065 541.134 93.751C543.039 93.3696 545.682 92.9197 548.614 92.5481C551.546 92.1764 554.229 91.9417 556.174 91.8341C557.217 91.7247 558.269 91.7116 559.315 91.795Z" fill="white"/>
<g opacity="0.4">
<path d="M492.186 246.564C492.186 246.564 538.99 318.994 611.596 281.899C687.394 243.17 645.506 154.397 645.506 154.397C645.506 154.397 681.17 225.145 607.288 271.268C588.887 282.759 568.851 282.769 553.571 281.263C514.526 277.429 492.186 246.564 492.186 246.564Z" fill="#606060"/>
</g>
<path d="M589.545 146.25C589.994 159.24 589.594 172.245 588.348 185.184C587.889 189.869 587.351 194.602 585.506 198.955C583.661 203.307 580.519 207.297 576.091 209.136C571.663 210.974 565.998 210.211 562.916 206.612L589.545 146.25Z" fill="#E0E0E0"/>
<path d="M562.406 186.338L595.229 132.138L575.421 193.331L565.299 196.294L562.406 186.338Z" fill="#142A48"/>
<g opacity="0.4">
<path d="M595.23 132.138L570.885 187.522L575.423 193.331L595.23 132.138Z" fill="#606060"/>
</g>
<path d="M565.3 206.651C571.133 206.651 575.862 202.014 575.862 196.294C575.862 190.574 571.133 185.937 565.3 185.937C559.467 185.937 554.738 190.574 554.738 196.294C554.738 202.014 559.467 206.651 565.3 206.651Z" fill="#FAFAFA"/>
<path d="M575.861 196.294C575.766 195.453 575.623 194.617 575.432 193.791C574.821 191.56 573.465 189.594 571.582 188.206C570.199 187.186 568.577 186.521 566.865 186.273C565.152 186.026 563.404 186.203 561.779 186.788C560.843 187.113 559.965 187.578 559.176 188.167C558.335 188.765 557.597 189.492 556.992 190.319C555.695 192.052 554.996 194.145 554.996 196.294C554.996 198.444 555.695 200.537 556.992 202.27C558.202 203.881 559.866 205.111 561.779 205.81C563.144 206.301 564.598 206.507 566.048 206.414C567.499 206.321 568.914 205.933 570.202 205.272C571.491 204.612 572.624 203.695 573.53 202.58C574.436 201.465 575.094 200.177 575.462 198.798C575.655 197.972 575.798 197.136 575.891 196.294C575.953 197.152 575.875 198.013 575.662 198.847C575.117 201.179 573.763 203.253 571.832 204.715C570.508 205.723 568.96 206.41 567.314 206.72C565.42 207.075 563.464 206.926 561.649 206.289C560.663 205.956 559.737 205.47 558.906 204.852C558.024 204.227 557.25 203.467 556.613 202.602C555.239 200.79 554.498 198.592 554.498 196.333C554.498 194.075 555.239 191.877 556.613 190.064C557.253 189.202 558.027 188.443 558.906 187.815C559.741 187.205 560.666 186.724 561.649 186.387C563.463 185.746 565.421 185.597 567.314 185.957C569.325 186.336 571.182 187.276 572.663 188.663C574.143 190.051 575.185 191.828 575.662 193.781C575.861 194.603 575.928 195.451 575.861 196.294Z" fill="#0F1417"/>
<path d="M573.036 197.847C573.896 193.675 571.145 189.61 566.89 188.766C562.636 187.923 558.49 190.621 557.63 194.793C556.77 198.964 559.521 203.03 563.775 203.874C568.03 204.717 572.176 202.019 573.036 197.847Z" fill="#455A64"/>
<path d="M482.029 444.882H533.99L509.765 240.148L482.029 444.882Z" fill="#E0E0E0"/>
<path d="M226.353 240.148L192.523 447.298L481.202 450.985L509.765 240.148H226.353Z" fill="#FAFAFA"/>
<path d="M496.911 335.043H210.855L217.079 296.901H502.077L496.911 335.043Z" fill="#EBEBEB"/>
<path d="M496.931 335.073H210.826L217.06 296.931H502.107L496.931 335.073ZM210.886 335.024H496.891L502.048 296.882H217.109L210.886 335.024Z" fill="#0F1417"/>
<path d="M226.353 240.148L217.078 296.901H502.076L509.766 240.148H226.353Z" fill="#142A48"/>
<path d="M226.394 240.148L509.806 239.913H510.075V240.177C501.728 301.899 492.253 371.894 482.24 445.821V446.046H478.769L192.764 445.968H192.484V445.724L226.394 240.148C226.114 241.85 213.229 321.273 193.013 445.821L192.804 445.577H478.699H481.94L481.691 445.792C491.714 371.865 501.209 301.879 509.616 240.158L509.846 240.412L226.394 240.148Z" fill="#0F1417"/>
<path d="M502.076 296.901C502.076 297.038 438.247 297.156 359.587 297.156C280.927 297.156 217.078 297.038 217.078 296.901C217.078 296.764 280.907 296.647 359.587 296.647C438.267 296.647 502.076 296.755 502.076 296.901Z" fill="#0F1417"/>
<path d="M496.91 335.043C496.91 335.19 432.742 335.298 353.613 335.298C274.485 335.298 210.307 335.19 210.307 335.043C210.307 334.897 274.455 334.789 353.613 334.789C432.772 334.789 496.91 334.906 496.91 335.043Z" fill="#0F1417"/>
<path d="M491.087 370.144C491.087 370.29 426.928 370.398 347.8 370.398C268.671 370.398 204.453 370.29 204.453 370.144C204.453 369.997 268.602 369.889 347.76 369.889C426.918 369.889 491.087 370.007 491.087 370.144Z" fill="#0F1417"/>
<path d="M485.272 405.244C485.272 405.381 421.103 405.498 341.975 405.498C262.846 405.498 198.668 405.381 198.668 405.244C198.668 405.107 262.816 404.99 341.975 404.99C421.133 404.99 485.272 405.107 485.272 405.244Z" fill="#0F1417"/>
<path d="M233.046 446.105C232.906 446.105 238.142 412.657 244.754 371.464C251.367 330.271 256.822 296.872 256.962 296.901C257.101 296.931 251.865 330.329 245.263 371.542C238.661 412.755 233.195 446.125 233.046 446.105Z" fill="#0F1417"/>
<path d="M277.157 446.105C277.008 446.105 282.254 412.657 288.856 371.464C295.458 330.271 300.924 296.872 301.073 296.901C301.223 296.931 295.977 330.329 289.365 371.542C282.752 412.755 277.257 446.125 277.157 446.105Z" fill="#0F1417"/>
<path d="M318.149 444.609C318.01 444.609 323.196 411.503 329.728 370.721C336.261 329.938 341.696 296.872 341.826 296.901C341.956 296.931 336.779 329.997 330.247 370.799C323.714 411.601 318.279 444.628 318.149 444.609Z" fill="#0F1417"/>
<path d="M358.69 445.792C358.551 445.792 363.777 412.413 370.369 371.308C376.961 330.202 382.417 296.872 382.556 296.901C382.696 296.931 377.47 330.261 370.878 371.386C364.285 412.511 358.83 445.812 358.69 445.792Z" fill="#0F1417"/>
<path d="M399.43 445.792C399.291 445.792 404.517 412.413 411.109 371.308C417.702 330.202 423.157 296.872 423.297 296.901C423.436 296.931 418.22 330.261 411.628 371.386C405.035 412.511 399.58 445.812 399.43 445.792Z" fill="#0F1417"/>
<path d="M440.141 445.968C440.002 445.968 445.238 412.55 451.84 371.376C458.442 330.202 463.898 296.833 464.047 296.862C464.197 296.892 458.951 330.271 452.349 371.454C445.746 412.638 440.281 446.027 440.141 445.968Z" fill="#0F1417"/>
<g opacity="0.2">
<path d="M414.512 299.561C419.419 297.429 422.49 292.422 423.757 287.307C425.024 282.192 424.824 276.852 425.014 271.581C425.203 266.309 425.841 260.882 428.584 256.353C430.21 253.683 432.494 251.463 434.299 248.891C436.104 246.319 437.44 243.189 436.772 240.089L406.074 240.246L414.512 299.561Z" fill="#606060"/>
</g>
<path d="M287.231 337.87C287.149 338.001 287.048 338.119 286.932 338.222L286.014 339.2C285.206 340.012 284.02 341.156 282.524 342.584C279.532 345.4 275.373 349.234 270.635 353.342C265.898 357.449 261.51 361.029 258.288 363.572C256.673 364.843 255.356 365.86 254.439 366.506L253.372 367.288C253.253 367.39 253.118 367.472 252.973 367.532C252.973 367.532 253.082 367.405 253.302 367.21L254.299 366.349L258.039 363.249C261.211 360.638 265.559 357.009 270.286 352.921C275.014 348.833 279.262 345.038 282.254 342.29L285.855 339.034L286.852 338.163C286.965 338.05 287.093 337.951 287.231 337.87Z" fill="#0F1417"/>
<path d="M284.927 367.924C284.504 367.561 284.107 367.169 283.741 366.75L280.619 363.483C277.926 360.677 274.316 356.902 270.336 352.725L259.944 342.065L256.793 338.828C256.395 338.443 256.025 338.031 255.686 337.596C256.137 337.923 256.558 338.29 256.942 338.691C257.72 339.415 258.837 340.481 260.203 341.811C262.936 344.471 266.666 348.197 270.705 352.383C274.745 356.569 278.335 360.422 280.888 363.249C282.165 364.657 283.192 365.811 283.88 366.613C284.27 367.017 284.62 367.456 284.927 367.924Z" fill="#0F1417"/>
<path d="M295.578 346.858C295.578 346.858 295.678 346.603 295.887 346.105C296.218 345.381 296.619 344.69 297.084 344.041C298.918 341.528 301.505 339.638 304.484 338.633C306.619 337.876 308.895 337.582 311.156 337.772C313.849 338.028 316.444 338.896 318.736 340.305C321.382 341.904 323.618 344.079 325.269 346.662C327.178 349.545 328.13 352.938 327.991 356.374C327.877 358.227 327.29 360.022 326.286 361.596C325.233 363.228 323.831 364.616 322.177 365.665C318.654 367.88 314.506 368.944 310.329 368.706C308.14 368.591 305.985 368.132 303.946 367.347C301.823 366.534 299.915 365.264 298.361 363.63C297.589 362.771 296.938 361.814 296.426 360.784C295.938 359.733 295.602 358.621 295.428 357.479C295.097 355.139 295.305 352.756 296.037 350.506C297.562 345.812 300.868 341.873 305.272 339.503C307.555 338.273 310.095 337.573 312.697 337.456C315.299 337.339 317.894 337.809 320.282 338.828C322.756 339.851 324.923 341.477 326.575 343.552C328.23 345.683 329.264 348.215 329.567 350.877C329.912 353.578 329.466 356.319 328.281 358.779C327.672 360.014 326.871 361.149 325.907 362.144C324.926 363.124 323.82 363.975 322.616 364.677C320.187 365.988 317.509 366.796 314.748 367.048C311.987 367.3 309.203 366.993 306.569 366.144C303.975 365.363 301.59 364.027 299.587 362.232C297.601 360.436 296.243 358.071 295.708 355.474C295.146 352.921 295.516 350.255 296.755 347.943C297.383 346.804 298.246 345.805 299.288 345.009C300.314 344.25 301.46 343.658 302.679 343.259C305.074 342.505 307.586 342.174 310.099 342.281C312.546 342.298 314.98 342.627 317.34 343.259C319.673 343.86 321.829 344.993 323.633 346.564C325.361 348.145 326.54 350.218 327.004 352.491C327.462 354.687 327.328 356.962 326.615 359.092C325.909 361.146 324.716 363.007 323.134 364.52C320.13 367.401 316.151 369.099 311.954 369.293C309.99 369.395 308.024 369.116 306.17 368.471C304.39 367.845 302.789 366.809 301.502 365.449C300.284 364.152 299.363 362.615 298.799 360.941C298.244 359.371 297.997 357.711 298.071 356.051C298.214 352.976 299.465 350.051 301.602 347.796C303.429 345.836 305.741 344.371 308.314 343.542C310.474 342.852 312.762 342.638 315.016 342.916C318.131 343.296 321.09 344.465 323.603 346.31C324.256 346.78 324.872 347.297 325.448 347.855C325.837 348.237 326.027 348.442 326.027 348.442C326.027 348.442 325.807 348.256 325.418 347.894C324.826 347.355 324.199 346.852 323.543 346.388C321.026 344.598 318.084 343.471 314.996 343.112C312.561 342.835 310.095 343.135 307.802 343.986C305.51 344.837 303.459 346.214 301.821 348.002C299.74 350.207 298.527 353.068 298.4 356.07C298.333 357.698 298.58 359.324 299.129 360.863C299.684 362.487 300.585 363.977 301.771 365.234C303.021 366.551 304.574 367.557 306.299 368.168C308.108 368.785 310.022 369.05 311.934 368.951C316.031 368.753 319.91 367.085 322.835 364.266C324.363 362.801 325.515 361.001 326.196 359.014C326.879 356.955 327.002 354.758 326.555 352.638C326.106 350.455 324.973 348.465 323.314 346.946C321.559 345.433 319.469 344.341 317.21 343.757C314.889 343.134 312.496 342.805 310.089 342.779C307.636 342.688 305.185 343.019 302.849 343.757C300.465 344.473 298.447 346.049 297.204 348.168C296.023 350.379 295.67 352.926 296.206 355.366C296.723 357.861 298.033 360.131 299.946 361.85C301.887 363.609 304.204 364.919 306.728 365.684C309.292 366.511 312.002 366.811 314.689 366.566C317.376 366.32 319.983 365.534 322.346 364.256C323.514 363.584 324.584 362.762 325.528 361.811C326.454 360.857 327.224 359.768 327.812 358.584C328.96 356.209 329.392 353.563 329.059 350.955C328.773 348.385 327.784 345.938 326.196 343.875C324.598 341.869 322.504 340.297 320.112 339.307C317.795 338.315 315.277 337.857 312.75 337.968C310.224 338.08 307.758 338.759 305.541 339.953C301.261 342.264 298.049 346.097 296.565 350.662C295.854 352.846 295.647 355.157 295.957 357.43C296.136 358.533 296.472 359.606 296.954 360.618C297.448 361.606 298.072 362.527 298.809 363.356C300.314 364.938 302.161 366.168 304.215 366.955C306.209 367.729 308.317 368.184 310.458 368.305C314.546 368.55 318.609 367.523 322.067 365.371C323.665 364.412 325.011 363.098 325.997 361.535C326.983 359.972 327.58 358.204 327.742 356.374C327.881 353.013 326.958 349.693 325.099 346.867C323.485 344.317 321.294 342.165 318.696 340.579C316.446 339.182 313.896 338.315 311.246 338.046C309.019 337.838 306.772 338.112 304.664 338.848C301.711 339.827 299.135 341.67 297.283 344.129C296.806 344.767 296.392 345.448 296.047 346.163C295.708 346.613 295.578 346.858 295.578 346.858Z" fill="#142A48"/>
<path d="M322.597 373.86C322.687 373.968 314.778 380.599 304.924 388.677C295.071 396.755 286.972 403.2 286.912 403.093C286.853 402.985 294.732 396.354 304.585 388.286C314.439 380.217 322.507 373.753 322.597 373.86Z" fill="#0F1417"/>
<path d="M324.323 402.222C323.853 401.951 323.41 401.641 322.996 401.293L319.486 398.613C316.544 396.325 312.504 393.136 308.056 389.596C303.608 386.056 299.609 382.828 296.727 380.471L293.326 377.655C292.895 377.332 292.494 376.972 292.129 376.579C292.596 376.853 293.04 377.163 293.455 377.508L296.956 380.188C299.898 382.476 303.937 385.664 308.385 389.205C312.834 392.745 316.833 395.973 319.725 398.33L323.116 401.136C323.544 401.469 323.948 401.832 324.323 402.222Z" fill="#0F1417"/>
<path d="M405.854 374.242C405.934 374.349 398.374 380.031 388.949 386.956C379.524 393.88 371.825 399.347 371.735 399.229C371.645 399.112 379.215 393.44 388.64 386.515C398.065 379.591 405.764 374.124 405.854 374.242Z" fill="#0F1417"/>
<path d="M408.785 398.3C408.715 398.418 400.677 393.537 390.833 387.386C380.989 381.234 373.101 376.168 373.17 376.041C373.24 375.914 381.279 380.814 391.122 386.955C400.966 393.097 408.905 398.183 408.785 398.3Z" fill="#0F1417"/>
<path d="M323.894 445.802C323.784 445.704 331.643 437.626 341.437 427.777C351.231 417.929 359.259 409.997 359.389 410.095C359.518 410.193 351.64 418.271 341.846 428.129C332.052 437.988 323.993 445.9 323.894 445.802Z" fill="#142A48"/>
<path d="M357.115 445.792C357.115 445.792 356.985 445.684 356.785 445.45L355.948 444.472C355.17 443.494 354.132 442.232 352.866 440.687C350.263 437.499 346.573 433.166 342.294 428.56C338.016 423.953 333.956 419.953 330.964 417.117L327.414 413.694L326.417 412.775C326.301 412.672 326.198 412.557 326.107 412.432C326.107 412.432 326.257 412.511 326.486 412.697L327.484 413.547C328.371 414.291 329.628 415.396 331.164 416.785C334.216 419.562 338.325 423.533 342.623 428.149C346.922 432.765 350.602 437.146 353.095 440.393C354.372 442.017 355.379 443.327 356.087 444.305L356.855 445.381C356.959 445.507 357.046 445.645 357.115 445.792Z" fill="#142A48"/>
<path d="M275.472 404.657C275.472 404.657 275.791 428.687 269.607 443.073L231.918 436.775C231.918 436.775 243.268 414.007 240.176 401.352L275.472 404.657Z" fill="#EBEBEB"/>
<path d="M275.462 403.758C275.462 403.758 270.735 433.254 267.843 442.056L230.383 434.76C230.383 434.76 238.092 406.242 237.992 398.3L275.462 403.758Z" fill="#142A48"/>
<path d="M241.793 411.523C241.793 411.66 247.358 412.931 254.29 414.359C261.221 415.787 266.856 416.833 266.886 416.706C266.916 416.579 261.321 415.298 254.389 413.87C247.458 412.442 241.823 411.386 241.793 411.523Z" fill="white"/>
<path d="M240.836 417.772C240.836 417.909 246.401 419.171 253.333 420.609C260.264 422.046 265.899 423.083 265.929 422.956C265.959 422.829 260.364 421.547 253.432 420.12C246.501 418.692 240.866 417.606 240.836 417.772Z" fill="white"/>
<path d="M246.34 424.843C246.979 425.116 247.648 425.313 248.335 425.43C249.621 425.733 251.406 426.134 253.371 426.545C255.336 426.956 257.141 427.288 258.447 427.523C259.145 427.695 259.862 427.78 260.582 427.777C259.919 427.503 259.226 427.303 258.517 427.181C257.241 426.868 255.455 426.467 253.481 426.066C251.506 425.665 249.711 425.313 248.414 425.088C247.735 424.925 247.039 424.842 246.34 424.843Z" fill="white"/>
<path d="M453.785 337.185C453.785 337.185 457.645 360.598 453.735 375.532L415.996 374.74C415.996 374.74 423.715 350.897 418.819 338.975L453.785 337.185Z" fill="#EBEBEB"/>
<path d="M453.616 336.305C453.616 336.305 453.367 365.753 451.841 374.74L414.172 372.99C414.172 372.99 417.473 344.041 416.167 336.305H453.616Z" fill="#455A64"/>
<path d="M421.512 349.41C421.512 349.547 427.177 349.664 434.168 349.674C441.159 349.684 446.834 349.586 446.834 349.449C446.834 349.312 441.169 349.195 434.168 349.185C427.167 349.175 421.512 349.273 421.512 349.41Z" fill="white"/>
<path d="M421.871 355.64C421.871 355.777 427.536 355.894 434.527 355.904C441.519 355.914 447.193 355.816 447.193 355.679C447.193 355.542 441.529 355.425 434.527 355.415C427.526 355.405 421.871 355.503 421.871 355.64Z" fill="white"/>
<path d="M428.623 361.381C429.317 361.527 430.028 361.589 430.737 361.567C432.044 361.567 433.849 361.635 435.844 361.645C437.838 361.655 439.634 361.645 440.94 361.576C441.649 361.604 442.359 361.548 443.054 361.41C442.36 361.265 441.65 361.206 440.94 361.234C439.634 361.185 437.838 361.156 435.844 361.146C433.849 361.136 432.044 361.146 430.737 361.215C430.028 361.187 429.318 361.242 428.623 361.381Z" fill="white"/>
<path d="M461.765 269.674C454.724 269.674 447.633 265.341 443.903 258.525C440.277 251.737 439.153 243.929 440.721 236.422C442.786 226.642 449.388 218.622 457.546 216.06C464.478 213.879 476.865 215.082 482.709 224.676C485.493 229.368 486.876 234.732 486.698 240.158C486.672 240.543 486.569 240.919 486.394 241.266C486.22 241.612 485.977 241.921 485.681 242.175C485.385 242.429 485.04 242.624 484.667 242.748C484.294 242.871 483.9 242.922 483.507 242.896C482.713 242.844 481.973 242.485 481.45 241.898C480.926 241.312 480.661 240.545 480.714 239.767C480.768 235.531 479.659 231.359 477.503 227.688C472.995 220.304 463.111 220.451 459.302 221.644C452.32 223.835 447.852 231.238 446.506 237.605C445.213 243.769 446.133 250.182 449.109 255.757C452.051 261.136 458.005 264.481 463.281 263.688C464.06 263.582 464.85 263.781 465.481 264.241C466.111 264.702 466.532 265.387 466.651 266.149C466.77 266.911 466.579 267.689 466.118 268.314C465.657 268.939 464.964 269.36 464.188 269.488C463.387 269.61 462.576 269.672 461.765 269.674Z" fill="#0F1417"/>
<path d="M268.6 269.674C261.549 269.674 254.468 265.341 250.738 258.525C247.109 251.738 245.981 243.93 247.547 236.422C249.292 228.167 255.196 218.661 264.501 216.04C268.988 214.849 273.744 215.085 278.085 216.715L275.931 222.192C272.807 221.028 269.391 220.847 266.157 221.674C259.295 223.63 254.827 231.082 253.451 237.605C252.158 243.769 253.078 250.182 256.054 255.757C258.996 261.146 264.96 264.481 270.226 263.688L271.133 269.488C270.295 269.615 269.448 269.677 268.6 269.674Z" fill="#0F1417"/>
<path d="M459.301 240.304L456.549 255.082H497.051L500.651 240.451L459.301 240.304Z" fill="#142A48"/>
<path d="M278.864 267.336C278.866 268.587 278.49 269.81 277.782 270.85C277.075 271.89 276.069 272.702 274.891 273.181C273.714 273.661 272.418 273.787 271.167 273.543C269.916 273.3 268.767 272.698 267.866 271.813C266.964 270.929 266.35 269.803 266.102 268.576C265.854 267.35 265.982 266.079 266.471 264.924C266.96 263.769 267.787 262.782 268.848 262.089C269.909 261.395 271.156 261.026 272.431 261.028C274.137 261.031 275.771 261.696 276.977 262.879C278.183 264.061 278.861 265.664 278.864 267.336Z" fill="#0F1417"/>
<path d="M471.858 267.336C471.86 268.587 471.484 269.81 470.777 270.85C470.069 271.89 469.063 272.702 467.886 273.181C466.708 273.661 465.412 273.787 464.161 273.543C462.91 273.3 461.761 272.698 460.86 271.813C459.958 270.929 459.344 269.803 459.096 268.576C458.848 267.35 458.976 266.079 459.465 264.924C459.954 263.769 460.781 262.782 461.842 262.089C462.903 261.395 464.15 261.026 465.425 261.028C467.131 261.031 468.765 261.696 469.971 262.879C471.177 264.061 471.856 265.664 471.858 267.336Z" fill="#0F1417"/>
<path d="M365.572 145.057L354.98 184.451L318.418 188.304V194.661L369.791 196.431L379.445 152.235L365.572 145.057Z" fill="#FFBE9D"/>
<path d="M380.98 197.478C380.98 197.478 323.853 194.808 307.586 207.258C291.32 219.708 299.199 240.148 299.199 240.148L391.133 239.913L399.251 194.211L380.98 197.478Z" fill="#0F1417"/>
<path d="M390.705 227.629C390.428 227.636 390.151 227.617 389.877 227.571C389.339 227.512 388.551 227.434 387.534 227.307C385.539 227.062 382.547 226.651 378.957 226.055C369.53 224.483 360.206 222.37 351.031 219.727C345.666 218.172 340.589 216.607 335.902 215.463C331.764 214.413 327.532 213.758 323.266 213.507C320.387 213.349 317.499 213.513 314.659 213.996C313.661 214.113 312.893 214.368 312.355 214.456C312.089 214.52 311.819 214.569 311.547 214.602C311.801 214.495 312.064 214.413 312.335 214.358C313.084 214.129 313.847 213.943 314.619 213.801C317.466 213.236 320.373 213.016 323.276 213.145C327.604 213.347 331.9 213.973 336.101 215.013C340.819 216.128 345.905 217.693 351.251 219.248C360.375 221.868 369.633 224.019 378.987 225.693C382.587 226.338 385.509 226.798 387.534 227.111L389.867 227.473C390.151 227.502 390.431 227.554 390.705 227.629Z" fill="#455A64"/>
<path d="M337.606 215.16C336.019 213.876 334.328 212.722 332.55 211.708C330.686 210.853 328.755 210.146 326.775 209.595C327.39 209.543 328.008 209.602 328.601 209.771C330.059 210.079 331.468 210.579 332.789 211.258C334.109 211.94 335.33 212.792 336.42 213.791C336.898 214.171 337.3 214.636 337.606 215.16Z" fill="#455A64"/>
<path d="M387.034 319.249L387.802 342.789L382.975 361.586C382.897 361.908 382.887 362.242 382.946 362.568C383.006 362.894 383.133 363.204 383.32 363.48C383.507 363.755 383.751 363.99 384.034 364.169C384.318 364.348 384.637 364.467 384.97 364.52C385.356 364.589 385.752 364.567 386.127 364.454C386.502 364.342 386.844 364.143 387.124 363.875C390.755 360.393 404.079 347.523 403.909 345.811C403.73 343.855 404.777 320.911 404.777 320.911L387.034 319.249Z" fill="#142A48"/>
<g opacity="0.6">
<path d="M384.881 364.559L403.83 344.256V345.234C403.842 346.098 403.537 346.938 402.972 347.601C401.466 349.371 397.188 354.173 387.125 363.894C386.837 364.173 386.484 364.378 386.096 364.491C385.707 364.604 385.297 364.62 384.901 364.54L384.881 364.559Z" fill="white"/>
</g>
<g opacity="0.6">
<path d="M398.802 336.696C398.498 336.914 398.289 337.237 398.217 337.599C398.145 337.962 398.215 338.338 398.413 338.652C398.623 338.945 398.939 339.148 399.297 339.221C399.654 339.294 400.027 339.23 400.338 339.043C400.651 338.816 400.865 338.482 400.939 338.107C401.013 337.732 400.941 337.344 400.737 337.019C400.489 336.732 400.137 336.551 399.755 336.515C399.374 336.478 398.993 336.589 398.693 336.823" fill="white"/>
</g>
<path d="M390.276 354.212C390.136 354.28 389.578 353.058 388.151 352.403C387.269 352.063 386.327 351.897 385.379 351.914C385.379 351.855 385.658 351.669 386.217 351.581C386.957 351.493 387.707 351.615 388.379 351.932C389.05 352.249 389.615 352.749 390.007 353.371C390.286 353.85 390.326 354.192 390.276 354.212Z" fill="#0F1417"/>
<path d="M388.59 357.391C387.9 357.021 387.187 356.695 386.455 356.413C385.677 356.278 384.891 356.187 384.102 356.139C384.468 355.908 384.886 355.766 385.32 355.727C385.754 355.688 386.191 355.752 386.595 355.914C388.011 356.285 388.709 357.322 388.59 357.391Z" fill="#0F1417"/>
<path d="M393.418 350.124C392.399 349.465 391.333 348.88 390.227 348.373C389.059 348.023 387.865 347.762 386.656 347.591C387.912 347.333 389.218 347.434 390.417 347.883C391.615 348.333 392.657 349.11 393.418 350.124Z" fill="#0F1417"/>
<path d="M393.797 342.965C393.737 343.112 392.4 342.574 390.675 342.535C388.95 342.496 387.583 342.906 387.523 342.76C388.491 342.237 389.585 341.98 390.689 342.016C391.793 342.052 392.867 342.38 393.797 342.965Z" fill="#0F1417"/>
<path d="M393.747 336.05C392.697 335.727 391.606 335.546 390.505 335.513C389.415 335.637 388.347 335.91 387.334 336.324C387.334 336.275 387.553 335.972 388.102 335.659C388.836 335.253 389.658 335.022 390.5 334.986C391.343 334.951 392.182 335.111 392.949 335.454C393.498 335.718 393.787 335.992 393.747 336.05Z" fill="#0F1417"/>
<path d="M390.535 334.192C390.473 333.899 390.473 333.596 390.535 333.302C390.609 332.485 390.85 331.69 391.243 330.965C391.476 330.407 391.894 329.942 392.43 329.645C392.615 329.563 392.821 329.539 393.021 329.576C393.221 329.613 393.404 329.708 393.547 329.85C393.804 330.144 393.942 330.519 393.936 330.906C393.889 331.695 393.565 332.443 393.02 333.024C392.474 333.605 391.741 333.983 390.944 334.095C390.148 334.181 389.344 334.034 388.634 333.672C387.923 333.31 387.339 332.749 386.954 332.06C386.858 331.887 386.8 331.694 386.786 331.497C386.773 331.299 386.803 331.101 386.875 330.916C386.968 330.741 387.113 330.598 387.291 330.505C387.469 330.413 387.672 330.375 387.872 330.398C388.465 330.522 389.015 330.795 389.468 331.19C390.122 331.698 390.682 332.314 391.123 333.009C391.299 333.254 391.428 333.53 391.502 333.821C390.868 332.937 390.106 332.15 389.238 331.483C388.834 331.158 388.355 330.933 387.842 330.828C387.731 330.81 387.618 330.826 387.517 330.875C387.417 330.925 387.335 331.004 387.284 331.102C387.248 331.228 387.239 331.359 387.256 331.488C387.273 331.618 387.316 331.742 387.383 331.855C387.733 332.438 388.246 332.91 388.861 333.215C389.476 333.52 390.168 333.645 390.854 333.576C391.534 333.491 392.164 333.179 392.638 332.693C393.112 332.207 393.401 331.576 393.457 330.906C393.47 330.638 393.385 330.375 393.218 330.163C393.142 330.079 393.041 330.022 392.93 329.999C392.819 329.976 392.703 329.989 392.599 330.036C392.162 330.298 391.814 330.683 391.602 331.141C391.071 332.091 390.71 333.123 390.535 334.192Z" fill="#0F1417"/>
<path d="M399.202 194.211C399.202 194.211 374.498 240.011 374.159 248.001C373.819 255.991 374.159 329.645 374.159 329.645H412.396C413.394 329.645 419.128 296.461 417.961 288.823C416.795 281.185 412.676 240.128 412.676 240.128H434.677C434.677 240.128 440.711 233.801 440.491 225.771C440.362 221.341 437.409 212.285 434.507 207.483C432.622 204.402 420.545 188.275 420.545 188.275L399.202 194.211Z" fill="#0F1417"/>
<path d="M397.547 197.311C397.52 197.403 397.483 197.492 397.437 197.576C397.347 197.771 397.228 198.016 397.078 198.319L395.642 201.175C394.994 202.417 394.226 203.923 393.328 205.673L391.892 208.48L390.386 211.678L382.976 227.414C381.57 230.348 380.094 233.488 378.558 236.705L376.234 241.595C375.483 243.286 374.915 245.05 374.538 246.857C374.16 248.669 373.963 250.513 373.95 252.363C373.89 254.192 373.85 256.001 373.82 257.771C373.82 261.331 373.75 264.754 373.76 268.021C373.76 274.554 373.84 280.441 373.91 285.38C373.98 290.319 374.04 294.28 374.09 297.116C374.09 298.466 374.09 299.532 374.09 300.295C374.09 300.637 374.09 300.911 374.09 301.126C374.09 301.341 374.09 301.41 374.09 301.41C374.073 301.316 374.073 301.22 374.09 301.126C374.09 300.911 374.09 300.637 374.09 300.305C374.09 299.532 374.01 298.476 373.95 297.116C373.85 294.358 373.721 290.358 373.611 285.38C373.501 280.402 373.381 274.564 373.352 268.021C373.352 264.754 373.352 261.322 373.352 257.771C373.352 255.991 373.411 254.182 373.481 252.343C373.491 250.464 373.688 248.591 374.07 246.749C374.456 244.908 375.038 243.112 375.805 241.39L378.139 236.5L382.587 227.228L390.147 211.532L391.683 208.343C392.211 207.365 392.68 206.387 393.159 205.556L395.542 201.096C396.19 199.893 396.709 198.954 397.068 198.28C397.238 197.986 397.377 197.752 397.477 197.556C397.577 197.36 397.537 197.302 397.547 197.311Z" fill="#455A64"/>
<path d="M389.548 212.91C388.755 211.049 388.088 209.137 387.553 207.189C386.853 205.292 386.283 203.352 385.848 201.38C386.777 203.188 387.513 205.085 388.042 207.042C388.748 208.943 389.253 210.909 389.548 212.91Z" fill="#455A64"/>
<path d="M418.041 287.385C417.977 287.219 417.937 287.044 417.921 286.867C417.874 286.469 417.805 285.97 417.711 285.371C417.532 283.992 417.303 282.114 417.013 279.835C416.465 275.102 415.727 268.676 414.909 261.576C414.091 254.476 413.423 247.972 413.014 243.287C412.825 240.999 412.665 239.121 412.545 237.742C412.545 237.126 412.465 236.627 412.436 236.226C412.423 236.05 412.423 235.874 412.436 235.698C412.498 235.864 412.535 236.039 412.545 236.216C412.595 236.617 412.665 237.116 412.745 237.722C412.904 239.101 413.124 240.969 413.383 243.258C413.912 247.991 414.63 254.427 415.378 261.527C416.126 268.627 416.834 275.053 417.372 279.796C417.592 282.085 417.781 283.962 417.911 285.341C417.961 285.948 418.001 286.456 418.031 286.857C418.049 287.033 418.053 287.209 418.041 287.385Z" fill="#455A64"/>
<path d="M408.328 71.5504C407.74 67.6384 411.16 63.8731 415.11 63.4135C419.059 62.9538 423.039 65.3695 424.854 68.9C425.698 70.6756 426.161 72.6028 426.213 74.5615C426.264 76.5201 425.903 78.4681 425.153 80.284C424.156 82.7583 422.311 85.262 419.628 85.4576C416.945 85.6532 414.89 83.6483 413.115 81.7999" fill="#0F1417"/>
<path d="M380.252 90.954C372.273 73.8097 391.223 65.1935 401.525 68.0492C411.219 70.7387 415.358 75.4723 416.954 81.8293C418.702 88.207 418.353 94.9631 415.956 101.135C414.7 104.128 412.446 107.159 409.174 107.531" fill="#0F1417"/>
<path d="M407.709 77.5651C408.53 77.6485 409.289 78.032 409.834 78.6392C410.379 79.2463 410.671 80.0326 410.652 80.8415L408.787 124.48C408.717 129.634 401.047 132.548 395.412 132.431C389.738 132.314 389.548 129.575 389.428 124.675C389.299 116.49 389.299 113.409 389.299 113.458C389.299 113.507 382.118 112.284 380.632 103.101C379.884 98.5335 380.123 91.042 380.512 84.9197C380.871 79.4136 384.591 72.6458 390.196 73.1837L407.709 77.5651Z" fill="#FFBE9D"/>
<path d="M384.182 90.1422C384.176 90.4502 384.295 90.7479 384.511 90.9711C384.728 91.1943 385.025 91.3251 385.339 91.3354C385.492 91.3473 385.646 91.329 385.791 91.2816C385.937 91.2341 386.072 91.1584 386.187 91.059C386.302 90.9595 386.396 90.8384 386.463 90.7028C386.53 90.5671 386.568 90.4198 386.575 90.2693C386.578 89.9621 386.459 89.6658 386.243 89.4431C386.027 89.2205 385.732 89.0889 385.419 89.0762C385.265 89.0642 385.111 89.0825 384.966 89.13C384.82 89.1775 384.685 89.2532 384.57 89.3526C384.455 89.452 384.361 89.5731 384.294 89.7088C384.228 89.8444 384.189 89.9918 384.182 90.1422Z" fill="#0F1417"/>
<path d="M382.197 88.8219C382.347 88.9686 383.264 88.3134 384.551 88.3134C385.837 88.3134 386.795 88.9491 386.934 88.7926C387.074 88.6361 386.854 88.4503 386.436 88.1569C385.876 87.7778 385.211 87.5763 384.531 87.5799C383.859 87.5735 383.204 87.783 382.666 88.1764C382.267 88.4698 382.127 88.7535 382.197 88.8219Z" fill="#0F1417"/>
<path d="M396.818 90.1422C396.815 90.4431 396.929 90.7339 397.136 90.9556C397.344 91.1772 397.629 91.313 397.935 91.3354C398.089 91.3473 398.242 91.329 398.388 91.2816C398.534 91.2341 398.668 91.1584 398.784 91.059C398.899 90.9595 398.993 90.8384 399.06 90.7028C399.126 90.5672 399.165 90.4198 399.172 90.2694C399.175 89.9621 399.056 89.6658 398.84 89.4431C398.624 89.2205 398.328 89.0889 398.015 89.0762C397.713 89.0629 397.417 89.1675 397.193 89.3672C396.968 89.567 396.834 89.8456 396.818 90.1422Z" fill="#0F1417"/>
<path d="M394.944 89.0566C395.093 89.2033 396.001 88.5481 397.287 88.5481C398.574 88.5481 399.531 89.1838 399.671 89.0371C399.811 88.8904 399.591 88.685 399.172 88.3916C398.613 88.0107 397.948 87.8091 397.267 87.8146C396.597 87.8145 395.944 88.0234 395.402 88.4111C394.944 88.7045 394.834 88.9979 394.944 89.0566Z" fill="#0F1417"/>
<path d="M390.215 98.4552C389.535 98.2496 388.832 98.1248 388.121 98.0836C387.792 98.0836 387.473 97.9858 387.423 97.7706C387.392 97.4303 387.468 97.0888 387.642 96.7926C387.951 96.0102 388.271 95.1887 388.64 94.3281C389.544 92.24 390.277 90.0849 390.834 87.8831C389.754 89.8931 388.843 91.9865 388.111 94.1423L387.173 96.6264C386.967 97.0178 386.907 97.4676 387.004 97.8978C387.053 98.0115 387.128 98.1127 387.223 98.194C387.318 98.2753 387.431 98.3345 387.552 98.3672C387.735 98.4145 387.922 98.4408 388.111 98.4455C388.809 98.534 389.516 98.5373 390.215 98.4552Z" fill="#0F1417"/>
<path d="M389.328 113.448C393.756 113.527 398.119 112.392 401.924 110.172C401.924 110.172 398.873 116.49 389.498 115.629L389.328 113.448Z" fill="#EB996E"/>
<path d="M390.764 101.507C391.01 101.205 391.331 100.97 391.695 100.823C392.06 100.676 392.457 100.622 392.848 100.666C393.135 100.689 393.414 100.77 393.667 100.903C393.921 101.035 394.145 101.218 394.324 101.438C394.496 101.649 394.597 101.907 394.615 102.176C394.633 102.445 394.566 102.713 394.424 102.944C394.217 103.173 393.944 103.335 393.642 103.41C393.34 103.485 393.021 103.469 392.728 103.365C392.114 103.153 391.551 102.82 391.073 102.387C390.928 102.286 390.803 102.16 390.704 102.015C390.657 101.945 390.633 101.864 390.633 101.78C390.633 101.697 390.657 101.616 390.704 101.546" fill="#EB996E"/>
<path d="M394.025 99.3354C393.816 99.3354 393.806 100.695 392.609 101.673C391.412 102.651 389.916 102.494 389.906 102.651C389.896 102.807 390.236 102.915 390.904 102.934C391.727 102.944 392.528 102.67 393.168 102.162C393.775 101.672 394.168 100.972 394.265 100.206C394.275 99.6679 394.115 99.3256 394.025 99.3354Z" fill="#0F1417"/>
<path d="M394.324 86.8366C394.454 87.1789 395.75 87.0126 397.266 87.1985C398.782 87.3843 400.009 87.7755 400.208 87.4723C400.298 87.3256 400.079 87.0029 399.59 86.6606C398.933 86.2461 398.184 85.9913 397.406 85.9173C396.631 85.8224 395.844 85.913 395.112 86.1813C394.553 86.3965 394.274 86.6703 394.324 86.8366Z" fill="#0F1417"/>
<path d="M382.677 85.1446C382.906 85.438 383.794 85.1446 384.871 85.1446C385.948 85.1446 386.866 85.3402 387.055 85.0371C387.145 84.8904 387.055 84.597 386.606 84.3329C386.081 83.9942 385.459 83.8265 384.831 83.8537C384.203 83.8664 383.594 84.0678 383.086 84.4307C382.707 84.7143 382.577 85.0077 382.677 85.1446Z" fill="#0F1417"/>
<path d="M394.874 70.1715C391.695 70.3305 388.608 71.2723 385.898 72.9099C384.379 73.6821 383.029 74.7403 381.927 76.024C380.825 77.3078 379.992 78.7919 379.475 80.3916C379.344 80.7243 379.283 81.0798 379.297 81.4363C379.311 81.7928 379.398 82.1428 379.555 82.4649C379.851 82.8333 380.27 83.0886 380.738 83.1868C381.206 83.285 381.694 83.2199 382.118 83.0028C382.964 82.5521 383.683 81.9037 384.212 81.1153C384.423 81.9775 384.926 82.7439 385.64 83.2889C386.353 83.8339 387.234 84.1251 388.138 84.1149C389.042 84.1047 389.916 83.7936 390.616 83.2326C391.316 82.6716 391.801 81.894 391.992 81.0273C392.063 81.9083 392.478 82.7284 393.151 83.3169C393.823 83.9053 394.701 84.2167 395.602 84.1862C396.501 84.1099 397.357 83.7777 398.066 83.2303C398.775 82.683 399.305 81.9444 399.591 81.1055C399.811 82.6958 400.372 84.2224 401.237 85.5847C401.68 86.261 402.324 86.7871 403.082 87.0915C403.841 87.396 404.676 87.4641 405.476 87.2865C405.14 88.6385 405.161 90.0519 405.535 91.3941C406.034 92.685 408.019 114.778 409.355 114.328C410.692 113.878 410.642 91.3452 410.941 90.0346C411.604 87.5208 411.94 84.9345 411.938 82.3378C412.027 79.6627 411.143 77.0438 409.444 74.9493C407.745 72.8547 405.341 71.4212 402.663 70.905C399.989 70.3035 397.245 70.0568 394.505 70.1715" fill="#0F1417"/>
<path d="M413.643 110.406C413.643 110.406 413.553 110.465 413.353 110.533C413.073 110.634 412.782 110.703 412.486 110.739C411.099 110.912 409.69 110.694 408.424 110.113C407.158 109.531 406.087 108.608 405.335 107.453C404.315 105.712 403.885 103.698 404.108 101.702C404.258 99.5994 404.756 97.6826 404.986 95.9222C405.211 94.3594 405.351 92.7858 405.405 91.2082C405.405 89.8586 405.405 88.773 405.405 88.0101C405.362 87.6201 405.362 87.2266 405.405 86.8365C405.523 87.2212 405.594 87.6186 405.614 88.0199C405.723 89.0891 405.776 90.163 405.774 91.2375C405.772 92.8299 405.669 94.4206 405.464 96.0004C405.245 97.7999 404.776 99.7266 404.627 101.751C404.413 103.646 404.804 105.559 405.744 107.228C406.563 108.556 407.824 109.568 409.314 110.093C410.315 110.468 411.386 110.628 412.456 110.563C413.224 110.514 413.633 110.357 413.643 110.406Z" fill="#0F1417"/>
<path d="M391.572 68.988C391.935 69.6577 392.104 70.4119 392.061 71.169C392.096 73.0222 391.381 74.8135 390.073 76.1514C388.765 77.4892 386.969 78.2647 385.08 78.3084C384.313 78.3805 383.54 78.2452 382.846 77.9172C382.846 77.8292 383.703 78.0639 385.06 77.9172C386.832 77.7991 388.497 77.0391 389.73 75.7847C390.963 74.5304 391.677 72.8713 391.732 71.1299C391.762 69.8291 391.483 69.0076 391.572 68.988Z" fill="#455A64"/>
<path d="M392.949 79.8048C392.999 79.8048 392.879 80.4307 392.161 81.1153C391.684 81.5357 391.125 81.8572 390.519 82.0605C389.912 82.2639 389.27 82.3449 388.63 82.2987C387.376 82.1889 386.168 81.7829 385.11 81.1153C384.302 80.6165 383.863 80.2351 383.903 80.1373C384.386 80.2864 384.848 80.4933 385.279 80.7534C386.332 81.2897 387.48 81.6218 388.66 81.7314C389.832 81.7991 390.989 81.4521 391.921 80.7534C392.65 80.3035 392.889 79.7656 392.949 79.8048Z" fill="#455A64"/>
<path d="M415.539 76.9979C415.605 77.8398 415.545 78.6868 415.359 79.5114C415.077 81.5542 414.289 83.4982 413.065 85.174C412.426 86.005 411.62 86.6992 410.698 87.2138C409.775 87.7284 408.755 88.0527 407.7 88.1667C407.058 88.2233 406.412 88.1602 405.795 87.9809C405.366 87.8537 405.156 87.7266 405.166 87.6972C405.989 87.8416 406.827 87.8777 407.66 87.8048C409.644 87.489 411.429 86.4389 412.646 84.8708C413.815 83.2505 414.614 81.4026 414.99 79.4527C415.121 78.6241 415.304 77.8043 415.539 76.9979Z" fill="#455A64"/>
<path d="M417.253 81.4478C417.345 81.6992 417.395 81.9633 417.403 82.2302C417.47 82.9421 417.487 83.6578 417.453 84.372C417.4 86.7785 416.522 89.0974 414.959 90.9539C414.077 91.9746 412.929 92.7418 411.638 93.174C410.58 93.5137 409.45 93.581 408.357 93.3696C407.623 93.2321 406.927 92.9456 406.312 92.5285C405.893 92.2253 405.714 92.0004 405.734 91.9808C406.552 92.4913 407.463 92.8432 408.417 93.0175C409.446 93.1625 410.495 93.0653 411.479 92.7339C412.676 92.3004 413.741 91.5731 414.57 90.6214C416.051 88.8337 416.933 86.6406 417.094 84.3426C417.253 82.5725 417.163 81.4575 417.253 81.4478Z" fill="#455A64"/>
<path d="M285.795 199.659L267.693 240.255H292.617L310.369 199.336L285.795 199.659Z" fill="#455A64"/>
<path d="M272.63 156.48L293.045 195.854H357.433L354.83 190.71L336.18 190.162L320.971 156.969C320.509 155.958 319.758 155.099 318.81 154.497C317.861 153.895 316.755 153.575 315.625 153.575H274.445C274.092 153.563 273.742 153.643 273.43 153.807C273.119 153.97 272.857 154.212 272.673 154.508C272.488 154.803 272.387 155.142 272.379 155.488C272.372 155.835 272.458 156.177 272.63 156.48Z" fill="#E0E0E0"/>
<path d="M304.874 174.133C304.874 174.611 304.73 175.078 304.459 175.475C304.188 175.872 303.804 176.182 303.353 176.365C302.903 176.547 302.408 176.595 301.93 176.502C301.452 176.409 301.013 176.179 300.669 175.841C300.324 175.503 300.09 175.073 299.995 174.604C299.9 174.136 299.948 173.65 300.135 173.208C300.321 172.767 300.637 172.39 301.042 172.124C301.447 171.859 301.923 171.717 302.411 171.717C303.063 171.72 303.688 171.975 304.15 172.428C304.611 172.88 304.871 173.493 304.874 174.133Z" fill="#0F1417"/>
<path d="M364.295 195.932H285.586V199.698H364.295V195.932Z" fill="#455A64"/>
<path d="M340.051 197.82L363.997 240.295H375.446L377.939 235.434L380.233 230.319L364.296 199.698L340.051 197.82Z" fill="#455A64"/>
<path d="M381.659 124.998C381.659 124.998 367.756 129.8 364.764 145.057L379.444 152.235L381.659 124.998Z" fill="#142A48"/>
<path d="M381.658 124.998C381.658 124.998 371.934 146.377 372.303 158.055C372.433 162.113 375.146 172.725 375.146 172.725L380.202 198.994C380.202 198.994 418.909 193.859 419.766 193.859C420.624 193.859 418.47 172.294 418.47 172.294L424.783 130.856C424.783 130.856 421.891 125.213 408.826 123.257C400.997 122.054 381.658 124.998 381.658 124.998Z" fill="#142A48"/>
<path d="M377.988 137.409C378.078 137.458 377.061 139.052 375.834 141.81C375.123 143.425 374.523 145.085 374.039 146.778C373.456 148.853 373.033 150.969 372.772 153.106C372.543 155.246 372.473 157.4 372.563 159.551C372.653 161.307 372.863 163.055 373.191 164.783C373.75 167.717 374.388 169.517 374.288 169.546C374.079 169.157 373.912 168.747 373.79 168.324C373.612 167.839 373.458 167.346 373.331 166.847C373.171 166.26 372.962 165.605 372.822 164.891C372.448 163.15 372.201 161.385 372.084 159.61C371.965 157.431 372.021 155.246 372.254 153.076C372.519 150.91 372.963 148.767 373.58 146.671C374.093 144.966 374.736 143.302 375.505 141.693C375.785 141.068 376.098 140.457 376.443 139.864C376.681 139.404 376.944 138.957 377.23 138.524C377.444 138.128 377.698 137.754 377.988 137.409Z" fill="#0F1417"/>
<path d="M386.365 124.803L386.924 118.935C386.985 118.325 387.273 117.758 387.733 117.343C388.193 116.929 388.792 116.694 389.417 116.685L408.516 116.402C409.095 116.395 409.656 116.604 410.083 116.987C410.511 117.371 410.774 117.899 410.82 118.465L411.309 124.793C409.71 128.116 407.005 130.806 403.639 132.421C398.024 135.091 389.297 135.179 389.297 135.179L386.365 124.803Z" fill="#142A48"/>
<path d="M391.362 116.734C391.422 116.734 391.143 117.115 391.023 117.712C390.915 118.576 390.915 119.45 391.023 120.314C391.191 121.573 391.191 122.849 391.023 124.108C390.68 122.881 390.506 121.615 390.505 120.343C390.371 119.437 390.412 118.515 390.624 117.624C390.953 116.949 391.332 116.685 391.362 116.734Z" fill="#0F1417"/>
<path d="M395.941 123.991C395.607 122.793 395.446 121.555 395.462 120.314C395.388 119.435 395.388 118.552 395.462 117.673C395.562 116.969 395.851 116.607 395.911 116.695C395.971 116.783 395.821 117.106 395.831 117.751C395.841 118.397 395.941 119.316 395.941 120.294C396.108 121.521 396.108 122.764 395.941 123.991Z" fill="#0F1417"/>
<path d="M401.674 123.834C401.262 122.693 401.01 121.502 400.926 120.294C400.68 119.097 400.603 117.873 400.697 116.656C401.114 117.806 401.366 119.007 401.445 120.225C401.688 121.413 401.765 122.627 401.674 123.834Z" fill="#0F1417"/>
<path d="M406.622 124.206C406.166 122.949 405.924 121.628 405.904 120.294C405.712 118.964 405.746 117.613 406.003 116.294C406.264 117.583 406.405 118.892 406.422 120.206C406.616 121.53 406.683 122.869 406.622 124.206Z" fill="#0F1417"/>
<g opacity="0.3">
<path d="M410.412 146.612C409.644 153.194 410.153 164.539 412.526 170.749L423.677 152.685L410.412 146.612Z" fill="#606060"/>
</g>
<path d="M423.747 129.497L423.807 129.556C426.969 132.81 429.282 136.766 430.549 141.086L432.603 150.27L410.662 153.595C409.454 149.7 409.168 145.586 409.824 141.565C410.901 134.641 423.747 129.497 423.747 129.497Z" fill="#142A48"/>
<path d="M432.602 150.27C432.459 150.319 432.312 150.355 432.163 150.377L430.906 150.602L426.209 151.355L410.311 153.722H410.032V153.438C409.982 152.138 409.942 150.788 409.912 149.399C409.862 145.79 409.912 142.338 410.132 139.199C410.284 136.385 411.162 133.656 412.685 131.267C413.708 129.66 415.111 128.319 416.774 127.355C417.223 127.094 417.697 126.877 418.19 126.71C418.355 126.636 418.529 126.586 418.709 126.563C418.709 126.563 418.011 126.827 416.874 127.541C415.291 128.535 413.963 129.874 412.994 131.453C411.549 133.827 410.727 136.515 410.6 139.277C410.371 142.387 410.381 145.83 410.441 149.438C410.441 150.808 410.511 152.167 410.541 153.458L410.251 153.213L426.209 151.013L430.926 150.416L432.203 150.27C432.335 150.253 432.469 150.253 432.602 150.27Z" fill="#0F1417"/>
<path d="M386.257 136.783C385.14 136.145 384.114 135.366 383.205 134.465C382.18 133.69 381.268 132.782 380.492 131.766C382.633 133.179 384.572 134.866 386.257 136.783Z" fill="#FAFAFA"/>
<path d="M383.294 148.099C382.512 148.886 381.606 149.547 380.611 150.055C379.698 150.703 378.689 151.211 377.619 151.561C379.312 150.134 381.219 148.973 383.274 148.118L383.294 148.099Z" fill="#FAFAFA"/>
<path d="M395.531 150.886C395.354 149.496 395.354 148.09 395.531 146.7C395.539 145.303 395.713 143.911 396.05 142.553C396.224 143.94 396.224 145.343 396.05 146.729C396.046 148.13 395.872 149.525 395.531 150.886Z" fill="#FAFAFA"/>
<path d="M407.429 162.201C406.437 161.288 405.51 160.307 404.657 159.267C403.676 158.351 402.76 157.371 401.914 156.333C403.111 157.014 404.169 157.906 405.036 158.964C406.023 159.896 406.833 160.992 407.429 162.201Z" fill="#FAFAFA"/>
<path d="M409.106 138.543C408.25 139.417 407.273 140.167 406.203 140.773C405.224 141.513 404.147 142.118 403.002 142.573C403.86 141.698 404.841 140.947 405.914 140.343C406.892 139.608 407.966 139.003 409.106 138.543Z" fill="#FAFAFA"/>
<path d="M398.355 129.986C397.408 130.889 396.341 131.662 395.183 132.284C394.121 133.055 392.961 133.686 391.732 134.162C392.68 133.258 393.747 132.481 394.904 131.854C395.97 131.093 397.13 130.465 398.355 129.986Z" fill="#FAFAFA"/>
<path d="M408.048 133.389C407.395 132.443 406.884 131.408 406.532 130.318C406.042 129.282 405.706 128.182 405.535 127.052C406.196 127.998 406.708 129.036 407.051 130.133C407.548 131.163 407.884 132.261 408.048 133.389Z" fill="#FAFAFA"/>
<path d="M421.382 137.683C419.787 136.598 418.403 135.244 417.293 133.683C418.138 134.156 418.89 134.772 419.517 135.502C420.268 136.112 420.9 136.851 421.382 137.683Z" fill="#FAFAFA"/>
<path d="M415.887 147.218C415.57 146.252 415.425 145.24 415.458 144.226C415.309 143.224 415.34 142.205 415.548 141.213C416.006 143.182 416.121 145.212 415.887 147.218Z" fill="#FAFAFA"/>
<path d="M426.967 145.243C425.806 145.424 424.621 145.384 423.476 145.125C422.308 145.032 421.167 144.723 420.115 144.216C421.274 144.228 422.428 144.366 423.556 144.627C424.712 144.712 425.856 144.919 426.967 145.243Z" fill="#FAFAFA"/>
<path d="M382.286 164.949C381.473 163.845 380.803 162.646 380.292 161.38C379.624 160.185 379.108 158.913 378.756 157.595C379.569 158.699 380.239 159.898 380.751 161.165C381.421 162.359 381.937 163.63 382.286 164.949Z" fill="#FAFAFA"/>
<path d="M396.938 180.382C396.001 179.547 395.185 178.589 394.514 177.536C393.713 176.576 393.043 175.517 392.52 174.387C393.459 175.223 394.277 176.18 394.953 177.233C395.758 178.189 396.426 179.249 396.938 180.382Z" fill="#FAFAFA"/>
<path d="M409.046 173.908C408.02 174.564 406.905 175.078 405.735 175.434C404.626 175.947 403.447 176.299 402.234 176.48C404.368 175.307 406.662 174.441 409.046 173.908Z" fill="#FAFAFA"/>
<path d="M379.215 186.407C379.694 184.562 380.501 182.814 381.598 181.243C381.43 182.19 381.092 183.1 380.601 183.932C380.291 184.831 379.821 185.668 379.215 186.407Z" fill="#FAFAFA"/>
<path d="M369.831 142.211C369.254 141.495 368.907 140.627 368.834 139.717C368.599 138.836 368.64 137.905 368.953 137.047C369.159 137.896 369.292 138.759 369.352 139.629C369.583 140.476 369.743 141.339 369.831 142.211Z" fill="#FAFAFA"/>
<path d="M386.496 176.509C385.431 176.234 384.42 175.788 383.504 175.189C382.51 174.747 381.595 174.153 380.791 173.429C381.854 173.708 382.865 174.154 383.783 174.749C384.772 175.199 385.687 175.792 386.496 176.509Z" fill="#FAFAFA"/>
<path d="M396.12 160.216C394.484 162.137 392.584 163.825 390.475 165.233C391.231 164.221 392.124 163.313 393.128 162.534C394.012 161.631 395.019 160.851 396.12 160.216Z" fill="#FAFAFA"/>
<g opacity="0.3">
<path d="M390.227 159.913C390.71 163.322 392.261 166.5 394.665 169.008C397.158 171.394 401.018 172.597 404.259 171.355C404.613 171.26 404.939 171.082 405.208 170.837C405.477 170.592 405.682 170.286 405.805 169.947C405.86 169.53 405.765 169.107 405.538 168.75C405.311 168.394 404.965 168.125 404.558 167.991C403.75 167.736 402.904 167.617 402.055 167.639C399.636 167.483 397.299 166.724 395.263 165.434C393.228 164.143 391.563 162.364 390.426 160.265" fill="#606060"/>
</g>
<path d="M403.192 167.795C403.192 167.795 402.962 167.874 402.524 167.913C401.907 167.974 401.285 167.974 400.669 167.913C399.752 167.807 398.852 167.597 397.986 167.287C395.848 166.533 393.949 165.241 392.48 163.541C391.884 162.852 391.372 162.097 390.955 161.292C390.661 160.755 390.43 160.187 390.266 159.6C390.186 159.39 390.142 159.168 390.137 158.944C390.236 158.944 390.506 159.825 391.274 161.116C391.723 161.869 392.248 162.576 392.84 163.228C393.573 164.021 394.392 164.732 395.283 165.35C396.183 165.949 397.146 166.45 398.155 166.847C398.983 167.166 399.842 167.402 400.718 167.551C402.224 167.766 403.192 167.698 403.192 167.795Z" fill="#0F1417"/>
<path d="M348.287 183.561L362.729 181.908L372.911 188.451L411.807 179.297L412.725 153.165L430.009 150.935V182.573C429.912 186.414 428.266 190.061 425.432 192.713C422.597 195.366 418.806 196.809 414.889 196.725L357.881 195.17L355.458 190.417L343.221 190.055L348.287 183.561Z" fill="#FFBE9D"/>
<path d="M411.35 179.248C411.11 179.341 410.863 179.417 410.612 179.473L408.497 180.011L400.688 181.908L374.877 188.04L372.474 188.607H372.374H372.294L362.121 182.045H362.261L347.809 183.688L347.909 183.629L344.079 188.392L343.082 189.644C342.971 189.794 342.844 189.932 342.703 190.055C342.796 189.895 342.899 189.742 343.012 189.595L344.01 188.304L347.72 183.473H347.78L362.211 181.703H362.291H362.351L372.543 188.236H372.364L374.767 187.668L400.608 181.663L408.457 179.893L410.592 179.434C410.839 179.352 411.092 179.29 411.35 179.248Z" fill="#EB996E"/>
<path d="M356.177 187.619C354.314 187.833 352.437 187.905 350.562 187.835H349.565L349.705 187.786C348.577 188.803 347.358 189.719 346.064 190.524C347.093 189.411 348.214 188.384 349.416 187.453L349.475 187.394H350.582C352.451 187.319 354.322 187.394 356.177 187.619Z" fill="#EB996E"/>
<path d="M418.519 183.522C417.776 182.371 416.81 181.375 415.677 180.588C414.474 179.921 413.149 179.496 411.777 179.336C412.181 179.199 412.613 179.165 413.034 179.238C414.052 179.343 415.032 179.678 415.897 180.216C416.762 180.754 417.489 181.48 418.021 182.338C418.29 182.683 418.462 183.091 418.519 183.522Z" fill="#EB996E"/>
<path d="M169.097 392.442H103.971V401.215H169.097V392.442Z" fill="#0F1417"/>
<path d="M169.207 401.332H103.861V392.334H169.207V401.332ZM104.081 401.107H168.987V392.55H104.081V401.107Z" fill="#0F1417"/>
<path d="M110.016 398.3L119.381 443.65H154.068L163.134 401.225L110.016 398.3Z" fill="#0F1417"/>
<path d="M110.016 439.357L115.012 446.105H157.17L163.134 439.357H110.016Z" fill="#455A64"/>
<path d="M134.091 399.621C133.961 399.621 133.802 378.613 133.722 352.677C133.642 326.74 133.722 305.733 133.822 305.733C133.921 305.733 134.111 326.74 134.191 352.677C134.271 378.613 134.221 399.621 134.091 399.621Z" fill="#0F1417"/>
<path d="M148.603 347.043C148.559 347.212 148.499 347.375 148.423 347.532C148.273 347.894 148.074 348.344 147.845 348.892C147.715 349.195 147.575 349.518 147.416 349.87C147.256 350.222 147.136 350.642 146.987 351.063L146.478 352.432C146.309 352.921 146.169 353.41 146 353.997C145.226 356.565 144.616 359.178 144.174 361.821C143.674 365.062 143.341 368.326 143.177 371.601C142.942 377.558 143.115 383.524 143.696 389.459C143.905 391.748 144.115 393.586 144.274 394.858C144.334 395.454 144.394 395.943 144.434 396.325C144.447 396.497 144.447 396.67 144.434 396.843C144.371 396.679 144.331 396.508 144.314 396.334C144.244 395.953 144.164 395.474 144.065 394.887C143.855 393.616 143.586 391.777 143.337 389.498C142.658 383.551 142.442 377.561 142.688 371.581C142.836 368.289 143.169 365.008 143.686 361.752C144.147 359.104 144.793 356.49 145.621 353.928C145.8 353.381 145.95 352.853 146.129 352.373L146.668 351.004L147.146 349.821C147.306 349.459 147.466 349.146 147.605 348.843L148.273 347.513C148.357 347.34 148.468 347.182 148.603 347.043Z" fill="#0F1417"/>
<path d="M146.937 330.055C146.882 330.291 146.812 330.523 146.727 330.75C146.558 331.229 146.328 331.884 146.049 332.706L145.551 334.114C145.391 334.642 145.211 335.209 145.022 335.816C144.643 337.029 144.204 338.408 143.815 339.963L143.157 342.398C142.957 343.249 142.758 344.139 142.549 345.048C142.09 346.877 141.761 348.862 141.342 350.916C140.624 355.082 139.995 359.718 139.557 364.559C139.118 369.4 138.968 374.085 138.908 378.32C138.848 382.554 138.908 386.369 139.128 389.567C139.178 391.171 139.287 392.608 139.367 393.88C139.447 395.151 139.527 396.246 139.606 397.136C139.686 398.026 139.726 398.682 139.766 399.2C139.779 399.438 139.779 399.676 139.766 399.914C139.702 399.684 139.662 399.448 139.646 399.21C139.587 398.691 139.507 398.017 139.397 397.156C139.287 396.295 139.178 395.2 139.078 393.899C138.978 392.599 138.848 391.19 138.769 389.586C138.549 386.378 138.46 382.564 138.45 378.32C138.44 374.075 138.649 369.41 139.068 364.53C139.487 359.65 140.155 355.024 140.893 350.838C141.322 348.755 141.671 346.769 142.14 344.97C142.359 344.051 142.579 343.161 142.778 342.31L143.466 339.884C143.875 338.329 144.344 336.95 144.753 335.738C144.952 335.131 145.142 334.574 145.311 334.046C145.481 333.518 145.68 333.068 145.85 332.647L146.608 330.691C146.693 330.468 146.803 330.255 146.937 330.055Z" fill="#0F1417"/>
<path d="M129.972 403.337C129.962 403.256 129.962 403.174 129.972 403.092C129.972 402.907 129.972 402.672 129.912 402.369C129.863 401.704 129.803 400.775 129.723 399.591C129.563 397.136 129.344 393.655 129.065 389.352C128.506 380.716 127.688 368.814 126.202 355.659C125.444 349.087 124.567 342.857 123.649 337.205C123.171 334.388 122.732 331.708 122.223 329.205C121.714 326.701 121.226 324.383 120.827 322.261C120.428 320.139 119.919 318.241 119.53 316.569C119.141 314.896 118.792 313.449 118.533 312.275C118.274 311.102 118.024 310.222 117.855 309.566C117.795 309.283 117.735 309.048 117.695 308.862C117.68 308.781 117.68 308.698 117.695 308.618C117.736 308.691 117.766 308.77 117.785 308.852L117.984 309.547C118.174 310.192 118.423 311.092 118.752 312.236C119.081 313.381 119.47 314.828 119.879 316.51C120.288 318.192 120.787 320.08 121.236 322.202C121.684 324.324 122.233 326.632 122.692 329.136C123.151 331.64 123.689 334.32 124.168 337.146C125.105 342.799 125.993 349.038 126.751 355.601C128.237 368.745 129.005 380.686 129.484 389.332C129.723 393.665 129.893 397.156 129.992 399.581C129.992 400.765 130.072 401.694 130.092 402.369C130.092 402.662 130.092 402.907 130.092 403.092C130.065 403.179 130.024 403.262 129.972 403.337Z" fill="#0F1417"/>
<path d="M133.562 315.894C133.273 312.96 130.211 310.671 127.159 310.642C125.633 310.708 124.142 311.114 122.799 311.829C121.456 312.544 120.297 313.55 119.41 314.769C117.655 317.224 116.386 319.981 115.67 322.896C113.616 329.909 112.499 337.273 113.376 344.52C114.254 351.767 117.246 358.897 122.552 364.012C123.409 364.853 124.546 365.684 125.713 365.43C126.345 365.249 126.918 364.912 127.379 364.452C132.572 359.789 136.688 354.091 139.45 347.74C142.213 341.389 143.558 334.533 143.396 327.63C143.316 324.882 142.947 322.006 141.401 319.718C139.855 317.429 136.215 314.984 133.572 315.904" fill="#142A48"/>
<path d="M110.793 292.031L106.504 299.659C106.405 299.835 106.275 300.041 106.066 300.05C105.856 300.06 105.667 299.865 105.547 299.679L94.1973 282.642L96.8103 281.185L110.793 292.031Z" fill="#142A48"/>
<g opacity="0.2">
<path d="M110.793 292.031L106.504 299.659C106.405 299.835 106.275 300.041 106.066 300.05C105.856 300.06 105.667 299.865 105.547 299.679L94.1973 282.642L96.8103 281.185L110.793 292.031Z" fill="#606060"/>
</g>
<path d="M133.822 305.772L95.1059 283.366C94.8856 283.283 94.684 283.158 94.5129 282.999C94.3418 282.839 94.2044 282.648 94.1086 282.437C93.959 281.879 94.3878 281.331 94.7967 280.911C97.4608 278.204 100.688 276.091 104.259 274.715C107.83 273.34 111.661 272.735 115.491 272.94C119.321 273.21 123.025 274.391 126.285 276.379C129.545 278.368 132.262 281.105 134.201 284.353C137.931 290.896 138.061 299.561 133.773 305.772" fill="#142A48"/>
<path d="M100.73 276.217C100.896 276.172 101.068 276.152 101.239 276.158C101.568 276.158 102.067 276.08 102.705 276.089C104.503 276.066 106.299 276.203 108.071 276.5C110.711 276.944 113.284 277.709 115.73 278.779C119.953 280.642 123.703 283.398 126.711 286.848C129.72 290.299 131.913 294.36 133.134 298.74C133.633 300.439 133.967 302.181 134.131 303.943C134.211 304.559 134.191 305.048 134.211 305.381C134.228 305.546 134.228 305.713 134.211 305.879C134.211 305.879 134.121 305.195 133.962 303.923C133.741 302.186 133.377 300.469 132.875 298.789C131.251 293.214 128.066 288.197 123.682 284.308C119.298 280.418 113.889 277.812 108.071 276.784C106.317 276.457 104.539 276.271 102.755 276.226C101.389 276.236 100.73 276.256 100.73 276.217Z" fill="#0F1417"/>
<path d="M128.576 290.309C127.952 290.682 127.282 290.975 126.582 291.18C125.345 291.659 123.59 292.265 121.695 292.872C119.8 293.478 118.005 293.948 116.708 294.261C116.02 294.467 115.311 294.598 114.594 294.652C115.232 294.349 115.9 294.113 116.588 293.948L121.515 292.432L126.432 290.877C127.126 290.618 127.844 290.428 128.576 290.309Z" fill="#0F1417"/>
<path d="M122.482 274.251C122.829 275.636 122.983 277.06 122.941 278.485C123.055 279.908 122.974 281.338 122.701 282.74C122.514 281.333 122.441 279.914 122.482 278.495C122.368 277.083 122.368 275.663 122.482 274.251Z" fill="#0F1417"/>
<path d="M94.7461 282.945C95.6519 282.537 96.5932 282.21 97.5586 281.967C99.3139 281.429 101.767 280.754 104.54 280.109C107.312 279.463 109.766 278.974 111.521 278.661C112.505 278.446 113.506 278.315 114.513 278.27C113.566 278.569 112.6 278.804 111.621 278.974C109.826 279.366 107.352 279.952 104.64 280.559C101.927 281.165 99.4635 281.82 97.6583 282.27C96.7039 282.558 95.731 282.784 94.7461 282.945Z" fill="#0F1417"/>
<path d="M115.97 308.833C112.638 306.358 109.118 305.899 104.939 306.026C100.76 306.287 96.6667 307.312 92.8713 309.048C86.3388 311.845 80.2052 315.982 76.3056 321.83C72.406 327.679 71.0397 335.425 73.9619 341.801C74.1918 342.468 74.664 343.029 75.2883 343.376C76.0137 343.574 76.787 343.515 77.4725 343.21C84.9026 340.833 92.3727 338.437 99.2044 334.72C106.036 331.004 112.25 325.83 115.91 319.072C116.847 317.495 117.451 315.749 117.685 313.938C117.785 313.022 117.684 312.095 117.39 311.22C117.096 310.345 116.615 309.541 115.98 308.862" fill="#142A48"/>
<path d="M116.03 308.07C115.864 308.163 115.686 308.235 115.501 308.285L113.946 308.813L112.819 309.175C112.41 309.322 111.971 309.498 111.502 309.684C110.565 310.055 109.508 310.427 108.321 310.975L106.506 311.786C105.867 312.07 105.239 312.422 104.571 312.764C103.224 313.41 101.868 314.241 100.412 315.082C94.1926 318.863 88.6582 323.632 84.0356 329.195C83.0383 330.495 81.9911 331.718 81.1633 332.95C80.7345 333.557 80.3056 334.124 79.9266 334.701L78.9293 336.363C78.2312 337.41 77.7125 338.427 77.2139 339.297C76.9745 339.728 76.7352 340.129 76.5357 340.51C76.3362 340.892 76.1766 341.234 76.027 341.557L75.289 343.004C75.2195 343.179 75.1255 343.344 75.0098 343.493C75.0583 343.311 75.1252 343.134 75.2092 342.965L75.8575 341.478C76.0071 341.156 76.1667 340.804 76.3362 340.412C76.5058 340.021 76.7551 339.62 76.9845 339.18C77.4632 338.29 77.9818 337.224 78.6401 336.197C78.9792 335.659 79.3182 335.092 79.6374 334.505C79.9565 333.918 80.4353 333.351 80.8541 332.735C81.672 331.483 82.6793 330.251 83.7065 328.931C86.0309 326.129 88.5788 323.513 91.3261 321.107C94.104 318.74 97.0725 316.598 100.202 314.701C101.668 313.86 103.045 313.038 104.401 312.402C105.079 312.07 105.718 311.728 106.396 311.424L108.241 310.642C109.408 310.104 110.505 309.752 111.462 309.4C111.941 309.234 112.38 309.068 112.799 308.931L113.936 308.598L115.521 308.158C115.689 308.116 115.859 308.087 116.03 308.07Z" fill="#0F1417"/>
<path d="M90.0199 321.879C87.3683 322.87 84.6651 323.722 81.9216 324.432C79.2193 325.293 76.4688 326.002 73.6836 326.554C76.3352 325.564 79.0384 324.712 81.7819 324.002C84.4858 323.145 87.2361 322.437 90.0199 321.879Z" fill="#0F1417"/>
<path d="M89.6803 339.366C89.5442 338.548 89.4841 337.72 89.5008 336.892C89.5008 335.366 89.5008 333.244 89.5008 330.916C89.5008 328.588 89.7002 326.466 89.8299 324.941C89.8501 324.11 89.9571 323.285 90.149 322.476C90.2162 323.303 90.2162 324.133 90.149 324.96C90.0892 326.632 90.0293 328.667 89.9595 330.926C89.8897 333.185 89.8498 335.219 89.8 336.892C89.8373 337.718 89.7972 338.547 89.6803 339.366Z" fill="#0F1417"/>
<path d="M104.998 331.757C104.869 331.757 104.46 327.464 104.091 322.153C103.722 316.843 103.512 312.53 103.642 312.53C103.772 312.53 104.171 316.813 104.55 322.124C104.929 327.434 105.128 331.747 104.998 331.757Z" fill="#0F1417"/>
<path d="M85.9395 312.109C86.7993 312.003 87.6676 311.976 88.5325 312.031C90.1283 312.031 92.3423 312.09 94.7858 312.168C97.2293 312.246 99.4334 312.344 101.029 312.432C101.896 312.443 102.76 312.525 103.612 312.676C102.752 312.783 101.884 312.809 101.019 312.755C99.4234 312.755 97.2093 312.706 94.7659 312.618C92.3224 312.53 90.1183 312.442 88.5126 312.354C87.6493 312.344 86.7885 312.262 85.9395 312.109Z" fill="#0F1417"/>
<path d="M124.217 366.046C124.173 365.873 124.153 365.696 124.158 365.518C124.158 365.136 124.158 364.638 124.088 364.031C124.028 362.73 124.018 360.862 124.088 358.535C124.158 356.207 124.287 353.459 124.566 350.408C124.846 347.356 125.304 344.002 125.933 340.51C126.561 337.019 127.339 333.743 128.127 330.73C128.915 327.718 129.773 325.126 130.55 322.906C131.328 320.686 131.987 318.994 132.545 317.762C132.784 317.195 132.974 316.784 133.134 316.383C133.195 316.22 133.272 316.063 133.363 315.914C133.341 316.087 133.291 316.255 133.213 316.412L132.645 317.85C132.186 319.063 131.558 320.784 130.83 323.033C130.102 325.283 129.304 327.923 128.516 330.857C127.728 333.791 126.99 337.097 126.352 340.579C125.713 344.06 125.285 347.425 124.965 350.427C124.646 353.43 124.467 356.217 124.387 358.525C124.307 360.833 124.257 362.711 124.257 364.012C124.257 364.618 124.257 365.107 124.257 365.498C124.257 365.681 124.244 365.864 124.217 366.046Z" fill="#0F1417"/>
<path d="M126.252 340.139C125.799 340.746 125.281 341.303 124.706 341.801C123.709 342.779 122.283 344.09 120.667 345.488C119.051 346.887 117.525 348.09 116.398 348.941C115.822 349.432 115.193 349.862 114.523 350.222C115.031 349.659 115.592 349.145 116.199 348.686L120.358 345.146L124.487 341.566C125.028 341.036 125.619 340.558 126.252 340.139Z" fill="#0F1417"/>
<path d="M138.509 349.811C137.903 349.111 137.352 348.365 136.863 347.581L133.044 342.104L129.134 336.686C128.554 335.963 128.031 335.198 127.568 334.398C128.243 335.037 128.854 335.738 129.393 336.491C130.471 337.83 131.907 339.708 133.383 341.85C134.859 343.992 136.195 345.958 137.103 347.405C137.647 348.162 138.118 348.968 138.509 349.811Z" fill="#0F1417"/>
<path d="M132.086 319.366C132.156 319.473 128.097 322.163 123 325.371C117.904 328.579 113.725 331.102 113.655 330.994C113.585 330.887 117.645 328.197 122.751 324.989C127.857 321.782 132.026 319.268 132.086 319.366Z" fill="#0F1417"/>
<path d="M143.615 331.542C141.466 329.787 139.412 327.923 137.461 325.958C135.408 324.109 133.46 322.15 131.627 320.09C133.784 321.839 135.841 323.704 137.79 325.674C139.845 327.519 141.79 329.478 143.615 331.542Z" fill="#0F1417"/>
<path d="M146.459 331.278L149.95 330.994C152.432 330.795 154.841 330.071 157.011 328.872C158.073 328.265 159.172 327.723 160.302 327.249C164.62 325.557 169.448 325.86 174.095 325.625C181.71 325.249 189.171 323.38 196.036 320.129C196.449 319.95 196.796 319.654 197.034 319.278C197.752 317.997 196.415 316.852 195.268 316.158C189.374 312.598 183.38 308.999 176.708 307.229C170.036 305.459 162.446 305.762 156.761 309.605C150.079 314.124 147.636 323.395 146.509 331.278" fill="#142A48"/>
<path d="M197.062 318.828C196.861 318.747 196.665 318.656 196.474 318.554L194.818 317.703C193.382 316.96 191.317 315.865 188.694 314.642C185.656 313.171 182.489 311.973 179.23 311.063C175.244 309.939 171.071 309.607 166.953 310.085C162.829 310.534 158.934 312.175 155.762 314.799C153.285 317.056 151.303 319.785 149.938 322.818C148.711 325.39 147.943 327.581 147.405 329.068L146.776 330.799C146.715 331.004 146.635 331.204 146.537 331.395C146.566 331.182 146.616 330.973 146.687 330.769C146.826 330.329 147.006 329.742 147.225 329.019C147.891 326.882 148.683 324.786 149.599 322.74C150.943 319.635 152.934 316.841 155.443 314.535C158.659 311.818 162.635 310.114 166.853 309.645C171.027 309.15 175.259 309.482 179.3 310.623C182.577 311.566 185.758 312.803 188.804 314.319C191.407 315.591 193.452 316.725 194.868 317.517L196.484 318.447C196.692 318.549 196.886 318.677 197.062 318.828Z" fill="#0F1417"/>
<path d="M188.675 323.278C188.605 323.376 184.027 320.481 178.462 316.803C172.897 313.126 168.439 310.055 168.489 309.957C168.539 309.86 173.126 312.755 178.691 316.432C184.257 320.109 188.745 323.17 188.675 323.278Z" fill="#0F1417"/>
<path d="M184.287 309.517C181.958 310.235 179.5 310.459 177.076 310.173C178.261 309.931 179.466 309.793 180.677 309.762C181.871 309.578 183.078 309.497 184.287 309.517Z" fill="#0F1417"/>
<path d="M163.792 305.918C162.919 307.943 161.776 309.844 160.391 311.571C160.748 310.53 161.251 309.542 161.887 308.637C162.387 307.647 163.028 306.731 163.792 305.918Z" fill="#0F1417"/>
<path d="M167.881 325.918C167.11 325.603 166.374 325.21 165.687 324.745C164.36 323.962 162.575 322.789 160.7 321.449C158.825 320.109 157.12 318.808 155.903 317.87C155.222 317.397 154.587 316.864 154.008 316.275C154.749 316.654 155.45 317.103 156.102 317.615L160.979 321.087C162.874 322.437 164.619 323.62 165.896 324.481C166.599 324.902 167.263 325.383 167.881 325.918Z" fill="#0F1417"/>
<path d="M151.594 345.84C148.263 344.97 144.284 348.148 143.616 351.464C142.948 354.779 144.204 358.163 145.68 361.244C148.857 368.084 153.568 374.132 159.463 378.936C165.409 383.717 172.829 386.388 180.517 386.515C179.111 380.1 180.886 373.391 180.108 366.867C179.413 361.122 176.751 355.777 172.558 351.707C168.364 347.637 162.886 345.083 157.02 344.461C154.896 344.236 152.432 343.914 151.584 345.84" fill="#142A48"/>
<path d="M180.518 386.515C180.351 386.461 180.19 386.389 180.039 386.3C179.602 386.059 179.185 385.784 178.792 385.479C177.396 384.286 176.274 382.816 175.501 381.166C174.973 380.188 174.374 379.053 173.796 377.831C173.217 376.608 172.639 375.317 172.001 373.919C171.361 372.487 170.624 371.098 169.796 369.762C168.908 368.338 167.908 366.984 166.804 365.713C164.53 363.092 162.077 360.823 159.953 358.642C158.032 356.744 156.284 354.686 154.727 352.491C153.684 351.002 152.827 349.397 152.174 347.708C151.964 347.112 151.805 346.633 151.725 346.31C151.67 346.149 151.636 345.981 151.625 345.811C151.625 345.811 151.854 346.476 152.343 347.65C153.054 349.293 153.944 350.857 154.996 352.315C156.583 354.462 158.344 356.48 160.262 358.349C162.396 360.501 164.86 362.77 167.163 365.42C168.293 366.708 169.316 368.082 170.225 369.528C171.05 370.886 171.786 372.293 172.429 373.743L174.185 377.655C174.743 378.867 175.322 379.982 175.84 380.99C176.568 382.625 177.627 384.099 178.952 385.322C179.909 386.163 180.568 386.476 180.518 386.515Z" fill="#0F1417"/>
<path d="M163.293 381.185C163.313 380.443 163.417 379.705 163.602 378.985C163.861 377.635 164.29 375.787 164.869 373.772C165.447 371.757 166.066 369.968 166.564 368.686C166.783 367.975 167.087 367.292 167.472 366.652C167.337 367.379 167.137 368.092 166.873 368.784C166.455 370.095 165.876 371.894 165.318 373.899C164.759 375.904 164.32 377.723 163.921 379.053C163.784 379.782 163.573 380.497 163.293 381.185Z" fill="#0F1417"/>
<path d="M179.91 365.43C179.111 365.315 178.324 365.135 177.556 364.892C176.12 364.53 174.135 364.021 171.931 363.532C169.727 363.043 167.712 362.672 166.256 362.398C165.458 362.297 164.67 362.127 163.902 361.889C164.708 361.869 165.514 361.935 166.306 362.085C167.782 362.271 169.817 362.603 172.031 363.063C174.245 363.523 176.229 364.109 177.646 364.559C178.429 364.772 179.188 365.063 179.91 365.43Z" fill="#0F1417"/>
<path d="M150.926 370.007C150.963 369.147 151.084 368.292 151.285 367.454C151.584 365.899 152.043 363.748 152.671 361.41C153.299 359.073 153.958 356.97 154.476 355.464C154.732 354.637 155.066 353.834 155.474 353.068C155.329 353.914 155.115 354.748 154.835 355.562C154.396 357.087 153.778 359.19 153.16 361.518C152.541 363.845 152.023 365.987 151.654 367.523C151.484 368.369 151.24 369.2 150.926 370.007Z" fill="#0F1417"/>
<path d="M172.259 351.699C172.259 351.816 168.08 351.493 162.964 350.955C157.848 350.417 153.699 349.889 153.719 349.772C156.828 349.86 159.931 350.104 163.014 350.505C166.114 350.749 169.2 351.147 172.259 351.699Z" fill="#0F1417"/>
<path d="M169.207 401.185C169.207 401.313 154.576 401.41 136.534 401.41C118.492 401.41 103.861 401.313 103.861 401.185C103.861 401.058 118.492 400.96 136.534 400.96C154.576 400.96 169.207 401.058 169.207 401.185Z" fill="#455A64"/>
<path d="M159.034 419.64C159.034 419.767 149.171 419.875 137.013 419.875C124.856 419.875 115.002 419.767 115.002 419.64C115.002 419.513 124.856 419.415 137.013 419.415C149.171 419.415 159.034 419.562 159.034 419.64Z" fill="#455A64"/>
<path d="M159.413 422.281C159.413 422.408 149.559 422.506 137.402 422.506C125.244 422.506 115.391 422.408 115.391 422.281C115.391 422.154 125.244 422.056 137.402 422.056C149.559 422.056 159.413 422.154 159.413 422.281Z" fill="#455A64"/>
<path d="M159.413 417.469C159.413 417.596 149.22 417.694 136.644 417.694C124.068 417.694 113.875 417.596 113.875 417.469C113.875 417.342 124.068 417.244 136.644 417.244C149.22 417.244 159.413 417.342 159.413 417.469Z" fill="#455A64"/>
</svg>
