<svg width="675" height="454" viewBox="0 0 675 454" fill="none" xmlns="http://www.w3.org/2000/svg">
<path d="M169.416 65.0038H86.8496V185.75H169.416V65.0038Z" fill="#E0E0E0"/>
<path d="M165.277 65.0038H82.7109V185.75H165.277V65.0038Z" fill="#F5F5F5"/>
<path d="M155.026 78.079H92.9707V172.665H155.026V78.079Z" fill="white"/>
<path d="M155.025 172.674C155.025 172.674 155.025 172.511 155.025 172.211C155.025 171.912 155.025 171.449 155.025 170.868C155.025 169.678 155.025 167.935 155.025 165.683C155.025 161.143 155.025 154.542 154.962 146.197C154.962 129.517 154.908 105.891 154.863 78.0972L155.07 78.306H93.0237L93.2487 78.079C93.2487 113.763 93.2487 146.66 93.2487 172.674L93.0687 172.493L138.24 172.584L150.714 172.629H153.99H155.124H154.026H150.786H138.348L93.0687 172.72H92.8887V172.538C92.8887 146.524 92.8887 113.627 92.8887 77.9428V77.7158H93.1227H155.169H155.376V78.0881C155.376 105.964 155.295 129.626 155.277 146.342C155.277 154.669 155.232 161.252 155.214 165.774C155.214 168.016 155.214 169.742 155.214 170.922C155.214 171.494 155.214 171.939 155.214 172.239C155.214 172.538 155.025 172.674 155.025 172.674Z" fill="#E0E0E0"/>
<path d="M165.519 65.0038C165.092 65.7759 164.598 66.5082 164.043 67.1921C163.089 68.4814 161.721 70.2429 160.173 72.1497C158.625 74.0565 157.167 75.7364 156.087 76.9349C155.544 77.612 154.942 78.238 154.287 78.8054C154.753 78.0689 155.28 77.3733 155.862 76.7261L159.84 71.8592L163.8 66.9651C164.317 66.2634 164.892 65.6073 165.519 65.0038Z" fill="#E0E0E0"/>
<path d="M155.34 172.366C158.421 177.301 162.044 181.869 166.14 185.986L155.34 172.366Z" fill="white"/>
<path d="M166.168 186.022C165.476 185.517 164.842 184.936 164.278 184.288C162.839 182.812 161.475 181.263 160.192 179.648C158.698 177.75 157.447 175.943 156.592 174.608C156.1 173.904 155.678 173.153 155.332 172.366C155.889 173.014 156.397 173.703 156.853 174.427C157.753 175.716 159.049 177.478 160.534 179.357C162.019 181.237 163.459 182.889 164.503 184.07C165.104 184.68 165.66 185.332 166.168 186.022Z" fill="#E0E0E0"/>
<path d="M82.7012 185.65L93.5012 172.193L82.7012 185.65Z" fill="white"/>
<path d="M93.5192 172.193C91.8902 174.573 90.1419 176.867 88.2812 179.067C86.5399 181.361 84.6772 183.558 82.7012 185.65C84.3302 183.27 86.0784 180.976 87.9392 178.776C89.6804 176.482 91.5431 174.285 93.5192 172.193Z" fill="#E0E0E0"/>
<path d="M82.7109 65.0038C84.5767 67.024 86.3313 69.1459 87.9669 71.3598C89.7186 73.4735 91.3531 75.6833 92.8629 77.9791C91.0004 75.9585 89.2488 73.8367 87.6159 71.6231C85.8619 69.509 84.2244 67.2993 82.7109 65.0038Z" fill="#E0E0E0"/>
<path d="M135.693 97.2832H114.912V156.803H135.693V97.2832Z" fill="#E0E0E0"/>
<path d="M280.737 47.4067V100.289H205.461L202.752 47.779L280.737 47.4067Z" fill="#E0E0E0"/>
<path d="M202.744 47.779V100.171H278.02V47.779L202.744 47.779Z" fill="white"/>
<path d="M278.38 100.534H202.393V47.416H278.38V100.534ZM203.113 99.8167H277.669V48.1243H203.113V99.8167Z" fill="#E0E0E0"/>
<path d="M269.874 54.2894H210.906V93.6603H269.874V54.2894Z" fill="white"/>
<path d="M269.874 54.2893H268.74H265.5H253.35L210.906 54.48L211.077 54.3075C211.077 66.3385 211.077 79.6679 211.077 93.6784L210.897 93.4968H269.865L269.712 93.6421C269.712 81.6655 269.775 71.8501 269.793 64.9947C269.793 61.5806 269.793 58.9111 269.793 57.0769C269.793 56.1689 269.793 55.4788 269.793 54.9976C269.793 54.5163 269.793 54.2712 269.793 54.2712C269.793 54.2712 269.793 54.4982 269.793 54.9613C269.793 55.4243 269.793 56.1235 269.793 57.0133C269.793 58.8293 269.793 61.4989 269.838 64.9039C269.838 71.7683 269.883 81.6292 269.91 93.6421V93.7964H269.766H210.798H210.609V93.6057C210.609 79.5953 210.609 66.2659 210.609 54.2349V54.1168H210.78L253.341 54.1985L265.455 54.253H268.659H269.748L269.874 54.2893Z" fill="#E0E0E0"/>
<path d="M202.752 47.6338C203.217 47.8595 203.653 48.1432 204.048 48.4782C204.813 49.0412 205.848 49.8402 207 50.7482C208.152 51.6562 209.124 52.5642 209.826 53.1726C210.228 53.5015 210.59 53.8763 210.906 54.2894C209.472 53.2778 208.09 52.1928 206.766 51.0388C205.358 49.9908 204.017 48.8535 202.752 47.6338Z" fill="#E0E0E0"/>
<path d="M278.029 47.7791C276.791 49.0078 275.468 50.1457 274.069 51.1841C272.745 52.3174 271.344 53.3551 269.875 54.2894C271.113 53.0607 272.436 51.9228 273.835 50.8844C275.157 49.7486 276.559 48.7108 278.029 47.7791Z" fill="#E0E0E0"/>
<path d="M277.965 100.18L269.568 93.3152L277.965 100.18Z" fill="white"/>
<path d="M269.568 93.3152C271.078 94.314 272.521 95.4121 273.888 96.6021C275.325 97.701 276.687 98.8963 277.965 100.18C276.454 99.1867 275.014 98.0884 273.654 96.8927C272.211 95.7983 270.846 94.6029 269.568 93.3152Z" fill="#E0E0E0"/>
<path d="M202.752 100.171C203.975 98.9569 205.283 97.8341 206.667 96.811C207.976 95.6876 209.363 94.6589 210.816 93.7329C209.597 94.9536 208.288 96.0797 206.901 97.1016C205.593 98.2241 204.206 99.2498 202.752 100.171Z" fill="#E0E0E0"/>
<path d="M222.877 66.5564V79.7406H259.984V66.5564H222.877Z" fill="#E0E0E0"/>
<path d="M587.422 284.358C587.422 284.358 580.663 281.18 575.362 297.161C570.061 313.142 568.486 322.14 568.486 322.14C568.486 322.14 566.965 325.554 564.544 323.838C562.123 322.122 558.37 316.792 554.923 318.39C551.476 319.988 550.738 324.419 552.367 330.494C553.996 336.568 557.083 349.998 557.353 351.214C557.623 352.431 557.2 354.293 555.373 353.394C553.546 352.495 542.368 343.188 538.273 348.79C534.178 354.392 541.504 370.582 542.269 372.344C543.034 374.105 542.791 374.977 541.981 375.567C541.171 376.157 537.724 372.67 534.439 370.119C531.154 367.568 526.915 365.27 524.836 368.703C522.757 372.135 523.837 384.928 538.84 403.706L546.355 411.941L557.272 409.662C580.339 403.352 588.655 393.636 588.97 389.623C589.285 385.609 584.47 384.992 580.375 385.083C576.28 385.174 571.429 385.945 571.123 384.983C570.817 384.02 571.123 383.167 572.761 382.259C574.399 381.351 589.726 372.498 589.708 365.552C589.69 358.606 575.227 359.532 573.22 359.196C571.213 358.86 571.969 357.062 572.878 356.254C573.787 355.446 584.119 346.384 588.97 342.434C593.821 338.484 595.891 334.571 593.947 331.129C592.003 327.688 585.937 329.895 582.985 329.849C580.033 329.804 580.78 326.135 580.78 326.135C580.78 326.135 584.74 317.963 589.78 301.846C594.82 285.729 587.278 284.34 587.278 284.34" fill="#EBEBEB"/>
<path d="M544.932 414.221C548.658 402.417 555.624 381.578 561.519 363.645C567.414 345.712 572.733 329.486 576.522 317.718C578.403 311.834 579.924 307.077 581.022 303.771C581.553 302.137 581.922 300.857 582.246 299.976C582.384 299.558 582.492 299.231 582.57 298.995C582.642 298.768 582.687 298.659 582.687 298.659C582.687 298.659 582.687 298.777 582.597 299.004C582.507 299.231 582.435 299.567 582.309 299.994C582.039 300.902 581.652 302.164 581.148 303.808C580.14 307.122 578.655 311.898 576.783 317.791C573.057 329.595 567.783 345.83 561.888 363.754C555.993 381.678 548.982 402.526 545.193 414.293" fill="#E0E0E0"/>
<path d="M559.881 326.045C560.03 326.269 560.16 326.506 560.268 326.753C560.502 327.216 560.817 327.906 561.168 328.751C561.933 330.448 562.968 332.818 563.967 335.452C564.966 338.085 565.911 340.4 566.667 342.198C566.982 343.006 567.261 343.696 567.477 344.241C567.6 344.482 567.691 344.739 567.747 345.004C567.597 344.78 567.468 344.543 567.36 344.295C567.126 343.832 566.811 343.151 566.46 342.298C565.713 340.591 564.75 338.212 563.706 335.579C562.662 332.945 561.726 330.639 561.006 328.85L560.178 326.807C560.047 326.567 559.947 326.311 559.881 326.045Z" fill="#E0E0E0"/>
<path d="M568.801 345.04C568.756 344.949 573.508 342.679 579.412 339.955C585.316 337.231 590.122 335.107 590.212 335.197C590.302 335.288 585.496 337.558 579.592 340.273C573.688 342.988 568.801 345.14 568.801 345.04Z" fill="#E0E0E0"/>
<path d="M558.486 372.171C558.749 372.085 559.021 372.031 559.296 372.008L561.501 371.681C563.355 371.408 565.929 371.018 568.746 370.473C571.563 369.928 574.092 369.374 575.946 368.939L578.115 368.439C578.378 368.357 578.65 368.308 578.925 368.294C578.676 368.408 578.417 368.5 578.151 368.566C577.647 368.721 576.918 368.939 576.009 369.184C574.209 369.674 571.653 370.282 568.809 370.818C565.965 371.354 563.409 371.726 561.528 371.926C560.628 372.035 559.836 372.108 559.305 372.144C559.034 372.177 558.76 372.186 558.486 372.171Z" fill="#E0E0E0"/>
<path d="M546.695 356.762C546.89 356.926 547.065 357.112 547.217 357.316L548.54 358.914C549.647 360.267 551.15 362.156 552.797 364.253C554.444 366.351 555.929 368.258 556.982 369.656L558.215 371.318C558.377 371.515 558.519 371.728 558.638 371.953C558.441 371.793 558.265 371.606 558.116 371.399L556.793 369.81C555.686 368.448 554.183 366.569 552.527 364.471C550.871 362.374 549.404 360.458 548.351 359.069L547.118 357.407C546.953 357.21 546.811 356.993 546.695 356.762Z" fill="#E0E0E0"/>
<path d="M534.6 379.544C534.843 379.759 535.063 380 535.257 380.261C535.707 380.788 536.274 381.478 536.958 382.295C538.389 384.021 540.333 386.427 542.475 389.096C544.617 391.766 546.534 394.19 547.875 395.961L549.495 398.058C549.701 398.311 549.885 398.581 550.044 398.866C549.806 398.645 549.587 398.405 549.387 398.149L547.686 396.115C546.264 394.381 544.311 391.984 542.169 389.314C540.027 386.645 538.11 384.22 536.769 382.45C536.121 381.605 535.572 380.897 535.158 380.343C534.946 380.096 534.759 379.828 534.6 379.544Z" fill="#E0E0E0"/>
<path d="M549.9 398.294C550.23 398.193 550.567 398.117 550.908 398.067L553.689 397.559C556.038 397.123 559.278 396.506 562.833 395.743C566.388 394.98 569.592 394.181 571.905 393.591L574.65 392.901C574.983 392.801 575.323 392.728 575.667 392.683C575.351 392.828 575.023 392.943 574.686 393.028C574.047 393.228 573.12 393.509 571.986 393.827C569.682 394.481 566.487 395.307 562.923 396.079C559.359 396.851 556.11 397.441 553.752 397.813C552.573 398.004 551.61 398.14 550.953 398.222C550.605 398.28 550.253 398.304 549.9 398.294Z" fill="#E0E0E0"/>
<path d="M607.501 413.894C607.501 414.021 483.85 414.13 331.363 414.13C178.876 414.13 55.2246 414.048 55.2246 413.894C55.2246 413.739 178.849 413.658 331.399 413.658C483.949 413.658 607.501 413.767 607.501 413.894Z" fill="#012232"/>
<path d="M438.622 97.9045L430.059 105.294L441.489 118.778L450.053 111.389L438.622 97.9045Z" fill="#012232"/>
<path d="M446.022 96.8564L428.4 112.129L416.043 97.6009C420.903 90.7183 426.699 85.5245 433.638 82.3284L446.022 96.8564Z" fill="#455A64"/>
<path d="M431.371 109.568C431.272 109.659 428.293 106.354 424.711 102.204C421.129 98.0549 418.303 94.6227 418.411 94.5319C418.519 94.4411 421.489 97.7462 425.071 101.896C428.653 106.045 431.47 109.487 431.371 109.568Z" fill="#012232"/>
<path d="M434.7 106.663C433.988 105.964 433.326 105.214 432.72 104.42C431.532 103.013 429.921 101.06 428.148 98.8812L423.648 93.2879L422.298 91.5899C421.974 91.1722 421.803 90.9816 421.803 90.9543C421.983 90.7909 424.98 94.2322 428.526 98.5815C430.326 100.761 431.874 102.749 433.026 104.211C433.654 104.977 434.214 105.797 434.7 106.663Z" fill="#012232"/>
<path d="M439.201 102.786C438.479 102.089 437.808 101.339 437.194 100.543C435.997 99.1172 434.377 97.1287 432.595 94.9223L428.095 89.2382L426.745 87.5039C426.57 87.2972 426.414 87.0754 426.277 86.8411C427.05 87.4856 427.745 88.2201 428.347 89.0293C429.562 90.4367 431.2 92.4162 432.973 94.6226C434.746 96.8291 436.339 98.8539 437.473 100.334C438.117 101.101 438.695 101.921 439.201 102.786Z" fill="#012232"/>
<path d="M443.26 99.1536C443.161 99.2353 440.2 95.9029 436.645 91.708C433.09 87.513 430.3 84.0354 430.399 83.9446C430.498 83.8538 433.45 87.1952 437.005 91.3992C440.56 95.6033 443.359 99.0718 443.26 99.1536Z" fill="#012232"/>
<path d="M589.426 107.083L581.641 98.8644L568.927 111.122L576.711 119.341L589.426 107.083Z" fill="#012232"/>
<path d="M589.798 115.171L573.76 98.2365L587.467 85.0251C594.523 89.5651 599.977 95.1312 603.496 101.959L589.798 115.171Z" fill="#455A64"/>
<path d="M576.441 101.079C576.351 100.979 579.456 97.8007 583.38 93.978C587.304 90.1553 590.58 87.1317 590.643 87.2225C590.706 87.3133 587.628 90.4913 583.704 94.323C579.78 98.1548 576.531 101.169 576.441 101.079Z" fill="#012232"/>
<path d="M579.502 104.302C580.142 103.54 580.84 102.829 581.59 102.177C582.913 100.906 584.767 99.1718 586.828 97.265L592.129 92.4254L593.74 90.9726C594.127 90.6275 594.316 90.455 594.343 90.4459C594.514 90.6184 591.265 93.8237 587.143 97.6191C585.082 99.5168 583.192 101.251 581.806 102.422C581.088 103.109 580.318 103.738 579.502 104.302Z" fill="#012232"/>
<path d="M583.57 108.597C584.218 107.827 584.925 107.111 585.685 106.454C587.026 105.174 588.907 103.43 591.004 101.524L596.404 96.6748L598.051 95.222C598.252 95.0414 598.463 94.8717 598.681 94.7135C598.086 95.5283 597.397 96.2689 596.629 96.9199C595.297 98.2184 593.416 99.9708 591.328 101.878C589.24 103.784 587.314 105.51 585.928 106.708C585.192 107.398 584.403 108.029 583.57 108.597Z" fill="#012232"/>
<path d="M587.377 112.51C587.287 112.41 590.437 109.26 594.406 105.455C598.375 101.651 601.669 98.6541 601.759 98.754C601.849 98.8539 598.699 102.005 594.73 105.8C590.761 109.596 587.467 112.592 587.377 112.51Z" fill="#012232"/>
<path d="M517.572 67.8457H504.234V88.8477H517.572V67.8457Z" fill="#012232"/>
<path d="M524.7 74.1291H497.25V51.4926C506.871 49.0955 516.051 48.9502 524.727 51.4926L524.7 74.1291Z" fill="#16181B"/>
<path d="M525.052 51.5834C524.73 51.7864 524.39 51.9567 524.035 52.0919C523.095 52.5095 522.13 52.8673 521.146 53.1633C519.671 53.6215 518.168 53.9795 516.646 54.2348C514.797 54.5308 512.929 54.6886 511.057 54.7069C509.186 54.7097 507.318 54.5701 505.468 54.2893C503.946 54.0512 502.443 53.7084 500.968 53.2632C499.982 52.9724 499.015 52.6237 498.07 52.219C497.712 52.094 497.371 51.9263 497.053 51.7196C497.053 51.6379 498.565 52.2644 501.058 52.9363C502.521 53.3265 504.005 53.6296 505.504 53.8443C507.335 54.0944 509.181 54.2218 511.03 54.2257C512.879 54.2045 514.725 54.0589 516.556 53.7899C518.048 53.5722 519.526 53.269 520.984 52.8819C523.54 52.1464 525.016 51.5017 525.052 51.5834Z" fill="#012232"/>
<path d="M506.322 74.0655C506.196 74.0655 506.088 69.7162 506.088 64.359C506.088 59.0018 506.196 54.6525 506.322 54.6525C506.448 54.6525 506.556 58.9927 506.556 64.359C506.556 69.7253 506.457 74.0655 506.322 74.0655Z" fill="#012232"/>
<path d="M511.552 74.1926C511.426 74.1926 511.318 69.8252 511.318 64.4407C511.318 59.0563 511.426 54.6979 511.552 54.6979C511.678 54.6979 511.786 59.0563 511.786 64.4407C511.786 69.8252 511.687 74.1926 511.552 74.1926Z" fill="#012232"/>
<path d="M516.781 74.1109C516.655 74.1109 516.547 69.7434 516.547 64.359C516.547 58.9745 516.655 54.6071 516.781 54.6071C516.907 54.6071 517.015 58.9745 517.015 64.359C517.015 69.7434 516.916 74.1109 516.781 74.1109Z" fill="#012232"/>
<path d="M521.101 74.111C520.966 74.111 520.867 69.3894 520.867 63.5691C520.867 57.7488 520.966 53.0272 521.101 53.0272C521.236 53.0272 521.335 57.7488 521.335 63.5691C521.335 69.3894 521.263 74.111 521.101 74.111Z" fill="#012232"/>
<path d="M501.382 73.9748C501.256 73.9748 501.148 69.2532 501.148 63.4329C501.148 57.6126 501.256 52.891 501.382 52.891C501.508 52.891 501.616 57.6126 501.616 63.4329C501.616 69.2532 501.517 73.9748 501.382 73.9748Z" fill="#012232"/>
<path d="M577.915 249.493C615.814 211.257 615.814 149.264 577.915 111.028C540.015 72.7915 478.569 72.7915 440.669 111.028C402.77 149.264 402.77 211.257 440.669 249.493C478.569 287.729 540.015 287.729 577.915 249.493Z" fill="#16181B"/>
<path d="M509.293 261.713C554.306 261.713 590.797 224.898 590.797 179.484C590.797 134.071 554.306 97.2559 509.293 97.2559C464.28 97.2559 427.789 134.071 427.789 179.484C427.789 224.898 464.28 261.713 509.293 261.713Z" fill="#FAFAFA"/>
<path d="M590.797 179.484C590.797 179.484 590.797 179.039 590.734 178.159C590.671 177.278 590.734 175.961 590.563 174.245C590.242 169.238 589.464 164.272 588.241 159.408C587.359 155.898 586.243 152.452 584.902 149.094C583.325 145.089 581.429 141.221 579.232 137.526C573.857 128.499 566.832 120.583 558.532 114.199C548.457 106.466 536.73 101.218 524.287 98.8721C513.74 96.9143 502.917 97.0408 492.418 99.2444C488.731 100.052 485.099 101.098 481.546 102.377C466.424 107.934 453.272 117.883 443.746 130.97C441.26 134.378 439.045 137.979 437.122 141.739C436.123 143.618 435.268 145.571 434.422 147.532C433.576 149.493 432.82 151.527 432.181 153.597C430.799 157.74 429.764 161.992 429.085 166.309C428.402 170.674 428.044 175.084 428.014 179.503C428.045 183.924 428.4 188.336 429.076 192.705C429.765 197.02 430.8 201.271 432.172 205.417C432.82 207.478 433.63 209.476 434.413 211.473C435.196 213.471 436.141 215.396 437.113 217.275C439.036 221.037 441.254 224.639 443.746 228.044C453.269 241.135 466.422 251.088 481.546 256.646C485.099 257.925 488.731 258.971 492.418 259.779C496.012 260.537 499.654 261.049 503.317 261.313C510.327 261.848 517.377 261.457 524.287 260.151C536.73 257.806 548.457 252.557 558.532 244.824C566.835 238.443 573.86 230.526 579.232 221.498C581.427 217.802 583.323 213.933 584.902 209.93C588.098 201.902 590.009 193.412 590.563 184.778C590.716 183.062 590.689 181.745 590.734 180.865C590.779 179.984 590.797 179.53 590.797 179.53C590.797 179.53 590.797 179.984 590.797 180.865C590.797 181.745 590.797 183.062 590.671 184.778C590.178 193.436 588.303 201.957 585.118 210.011C583.55 214.034 581.66 217.921 579.466 221.634C574.103 230.706 567.078 238.666 558.766 245.087C548.656 252.867 536.882 258.153 524.386 260.523C517.444 261.847 510.361 262.25 503.317 261.722C499.636 261.459 495.977 260.946 492.364 260.187C488.655 259.382 485.002 258.333 481.429 257.046C466.218 251.467 452.986 241.467 443.404 228.308C440.903 224.884 438.676 221.264 436.744 217.484C435.736 215.596 434.872 213.616 433.99 211.646C433.108 209.675 432.388 207.632 431.74 205.553C430.359 201.39 429.318 197.12 428.626 192.787C427.198 183.995 427.198 175.028 428.626 166.237C429.321 161.921 430.363 157.67 431.74 153.525C432.397 151.445 433.207 149.439 433.999 147.432C434.791 145.425 435.736 143.491 436.744 141.603C438.682 137.824 440.912 134.205 443.413 130.779C452.991 117.621 466.22 107.624 481.429 102.05C484.999 100.764 488.649 99.7146 492.355 98.9085C495.971 98.1506 499.633 97.6379 503.317 97.3739C510.358 96.8463 517.438 97.2492 524.377 98.5725C536.876 100.932 548.652 106.219 558.757 114.008C567.069 120.434 574.094 128.397 579.457 137.471C583.488 144.321 586.519 151.722 588.457 159.445C589.658 164.325 590.408 169.307 590.698 174.327C590.833 176.043 590.788 177.36 590.824 178.24C590.86 179.121 590.797 179.484 590.797 179.484Z" fill="#012232"/>
<path d="M578.835 176.506C576.252 176.615 574.146 176.506 574.137 176.279C574.128 176.052 576.207 175.743 578.79 175.598C581.373 175.453 583.479 175.544 583.497 175.816C583.515 176.088 581.4 176.397 578.835 176.506Z" fill="#012232"/>
<path d="M577.098 195.438C574.578 194.839 572.598 194.176 572.598 193.949C572.598 193.722 574.74 193.994 577.269 194.548C579.798 195.102 581.769 195.774 581.769 196.037C581.769 196.301 579.6 196.028 577.098 195.438Z" fill="#012232"/>
<path d="M570.375 213.189C568.098 211.936 566.352 210.747 566.46 210.547C566.568 210.347 568.512 211.174 570.798 212.363C573.084 213.553 574.839 214.778 574.713 215.014C574.587 215.25 572.643 214.451 570.375 213.189Z" fill="#012232"/>
<path d="M559.17 228.48C557.316 226.664 555.939 225.048 556.101 224.848C556.263 224.648 557.901 226.001 559.791 227.799C561.681 229.597 563.04 231.204 562.86 231.431C562.68 231.658 561.015 230.305 559.17 228.48Z" fill="#012232"/>
<path d="M544.32 240.193C543.024 237.932 542.124 236.007 542.322 235.889C542.52 235.771 543.762 237.496 545.094 239.73C546.426 241.964 547.326 243.889 547.101 244.034C546.876 244.179 545.625 242.436 544.32 240.193Z" fill="#012232"/>
<path d="M526.905 247.448C526.257 244.915 525.906 242.817 526.131 242.763C526.356 242.708 527.085 244.697 527.778 247.212C528.471 249.727 528.813 251.825 528.552 251.897C528.291 251.97 527.553 249.972 526.905 247.448Z" fill="#012232"/>
<path d="M508.194 249.7C508.194 247.085 508.455 244.969 508.68 244.969C508.905 244.969 509.094 247.094 509.094 249.7C509.094 252.306 508.869 254.431 508.608 254.431C508.347 254.431 508.149 252.324 508.194 249.7Z" fill="#012232"/>
<path d="M489.601 246.858C490.339 244.352 491.113 242.382 491.338 242.445C491.563 242.509 491.167 244.597 490.438 247.112C489.709 249.627 488.962 251.652 488.701 251.525C488.44 251.398 488.818 249.364 489.601 246.858Z" fill="#012232"/>
<path d="M472.384 239.04C473.761 236.834 475.03 235.136 475.228 235.254C475.426 235.372 474.49 237.288 473.149 239.521C471.808 241.755 470.53 243.444 470.305 243.308C470.08 243.171 471.007 241.256 472.384 239.04Z" fill="#012232"/>
<path d="M457.903 226.873C459.82 225.111 461.503 223.822 461.647 223.994C461.791 224.167 460.405 225.747 458.515 227.536C456.625 229.324 454.96 230.614 454.771 230.423C454.582 230.232 455.995 228.634 457.903 226.873Z" fill="#012232"/>
<path d="M447.175 211.237C449.488 210.066 451.45 209.276 451.549 209.476C451.648 209.675 449.884 210.829 447.589 212.045C445.294 213.262 443.341 214.052 443.215 213.807C443.089 213.562 444.871 212.418 447.175 211.237Z" fill="#012232"/>
<path d="M441.001 193.277C443.548 192.768 445.645 192.541 445.69 192.768C445.735 192.995 443.719 193.622 441.19 194.167C438.661 194.712 436.555 194.939 436.501 194.675C436.447 194.412 438.481 193.785 441.001 193.277Z" fill="#012232"/>
<path d="M439.858 174.336C442.441 174.527 444.52 174.872 444.511 175.099C444.502 175.326 442.387 175.389 439.804 175.235C437.221 175.081 435.133 174.745 435.151 174.472C435.169 174.2 437.275 174.1 439.858 174.336Z" fill="#012232"/>
<path d="M443.772 155.695C446.211 156.603 448.119 157.511 448.047 157.701C447.975 157.892 445.923 157.402 443.475 156.548C441.027 155.695 439.119 154.805 439.2 154.551C439.281 154.296 441.342 154.805 443.772 155.695Z" fill="#012232"/>
<path d="M452.511 138.851C454.617 140.368 456.219 141.748 456.111 141.939C456.003 142.129 454.149 141.076 452.016 139.596C449.883 138.116 448.281 136.736 448.416 136.509C448.551 136.282 450.396 137.335 452.511 138.851Z" fill="#012232"/>
<path d="M465.39 124.977C467.019 127.002 468.199 128.763 468.028 128.918C467.857 129.072 466.354 127.556 464.698 125.549C463.042 123.542 461.854 121.79 462.061 121.617C462.268 121.445 463.761 122.952 465.39 124.977Z" fill="#012232"/>
<path d="M481.501 115.08C482.527 117.477 483.202 119.493 482.986 119.62C482.77 119.747 481.744 117.858 480.682 115.479C479.62 113.101 478.945 111.085 479.188 110.939C479.431 110.794 480.448 112.692 481.501 115.08Z" fill="#012232"/>
<path d="M499.627 109.932C499.978 112.519 500.086 114.644 499.852 114.68C499.618 114.717 499.123 112.647 498.736 110.068C498.349 107.489 498.241 105.355 498.502 105.319C498.763 105.283 499.276 107.344 499.627 109.932Z" fill="#012232"/>
<path d="M518.473 109.868C518.131 112.456 517.671 114.535 517.446 114.508C517.221 114.481 517.276 112.347 517.582 109.759C517.888 107.171 518.346 105.083 518.607 105.119C518.868 105.155 518.815 107.271 518.473 109.868Z" fill="#012232"/>
<path d="M536.643 114.889C535.626 117.295 534.627 119.166 534.411 119.075C534.195 118.984 534.834 116.959 535.815 114.535C536.796 112.111 537.804 110.249 538.047 110.358C538.29 110.467 537.669 112.492 536.643 114.889Z" fill="#012232"/>
<path d="M552.808 124.668C551.188 126.711 549.73 128.246 549.55 128.101C549.37 127.955 550.513 126.167 552.106 124.105C553.699 122.044 555.148 120.473 555.364 120.682C555.58 120.891 554.401 122.634 552.808 124.668Z" fill="#012232"/>
<path d="M565.794 138.452C563.688 139.977 561.879 141.067 561.744 140.876C561.609 140.685 563.184 139.278 565.263 137.716C567.342 136.155 569.151 135.074 569.313 135.292C569.475 135.51 567.9 136.926 565.794 138.452Z" fill="#012232"/>
<path d="M574.641 155.268C572.211 156.176 570.141 156.712 570.087 156.503C570.033 156.294 571.887 155.35 574.326 154.414C576.765 153.479 578.772 152.925 578.871 153.18C578.97 153.434 577.071 154.36 574.641 155.268Z" fill="#012232"/>
<path d="M578.701 173.809C576.118 174.018 574.012 174 573.994 173.809C573.976 173.619 576.046 173.201 578.62 172.901C581.194 172.602 583.309 172.674 583.327 172.947C583.345 173.219 581.257 173.601 578.701 173.809Z" fill="#012232"/>
<path d="M477.639 90.5276L477.36 90.6547L476.532 90.9907C475.812 91.2994 474.732 91.6717 473.355 92.28C469.475 93.9164 465.707 95.8123 462.078 97.955C459.774 99.2989 457.335 100.906 454.77 102.713C452.205 104.52 449.586 106.626 446.967 108.996C435.468 119.222 426.685 132.184 421.416 146.706C420.183 150.029 419.256 153.279 418.455 156.321C417.654 159.363 417.114 162.269 416.709 164.92C416.052 169.109 415.67 173.338 415.566 177.578C415.494 179.085 415.566 180.247 415.566 181.037C415.566 181.418 415.566 181.709 415.566 181.945C415.574 182.048 415.574 182.151 415.566 182.254C415.554 182.154 415.554 182.054 415.566 181.954C415.566 181.727 415.566 181.427 415.566 181.046C415.566 180.256 415.467 179.094 415.512 177.587C415.544 173.331 415.878 169.083 416.511 164.875C416.889 162.205 417.474 159.309 418.203 156.23C419.016 152.959 419.995 149.731 421.137 146.56C426.38 131.942 435.215 118.904 446.814 108.669C449.451 106.3 452.133 104.257 454.671 102.395C457.209 100.534 459.711 98.9901 462.042 97.6645C465.696 95.5439 469.495 93.6869 473.409 92.1075C474.786 91.5264 475.893 91.1995 476.631 90.8999L477.477 90.6093C477.529 90.5781 477.583 90.5508 477.639 90.5276Z" fill="white"/>
<path d="M504.729 85.2249C503.804 85.4188 502.865 85.5432 501.921 85.5971C500.175 85.7787 497.781 86.0421 495.135 86.3871C492.489 86.7321 490.104 87.0953 488.376 87.3677C487.451 87.5598 486.512 87.6812 485.568 87.7309C486.463 87.4162 487.385 87.1852 488.322 87.0409C490.041 86.6867 492.426 86.2691 495.072 85.924C497.718 85.579 500.139 85.3611 501.894 85.2612C502.836 85.1596 503.785 85.1475 504.729 85.2249Z" fill="white"/>
<g opacity="0.4">
<path d="M444.15 228.916C444.15 228.916 486.387 296.162 551.907 261.722C620.307 225.765 582.507 143.346 582.507 143.346C582.507 143.346 614.691 209.031 548.019 251.852C531.414 262.521 513.333 262.53 499.545 261.132C464.31 257.572 444.15 228.916 444.15 228.916Z" fill="black"/>
</g>
<path d="M532.009 135.782C532.414 147.842 532.053 159.916 530.929 171.93C530.515 176.279 530.029 180.674 528.364 184.714C526.699 188.755 523.864 192.46 519.868 194.167C515.872 195.874 510.76 195.166 507.979 191.824L532.009 135.782Z" fill="#E0E0E0"/>
<path d="M507.52 173.001L537.139 122.68L519.265 179.493L510.13 182.245L507.52 173.001Z" fill="#16181B"/>
<g opacity="0.4">
<path d="M537.139 122.68L515.17 174.1L519.265 179.493L537.139 122.68Z" fill="black"/>
</g>
<path d="M510.129 191.86C515.393 191.86 519.66 187.555 519.66 182.245C519.66 176.934 515.393 172.629 510.129 172.629C504.865 172.629 500.598 176.934 500.598 182.245C500.598 187.555 504.865 191.86 510.129 191.86Z" fill="#FAFAFA"/>
<path d="M519.661 182.245C519.575 181.463 519.446 180.687 519.274 179.92C518.722 177.849 517.499 176.024 515.8 174.736C514.552 173.788 513.088 173.171 511.543 172.941C509.997 172.711 508.419 172.875 506.953 173.419C506.109 173.72 505.316 174.152 504.604 174.699C503.845 175.254 503.18 175.929 502.633 176.697C501.463 178.306 500.832 180.249 500.832 182.245C500.832 184.24 501.463 186.184 502.633 187.793C503.726 189.288 505.227 190.431 506.953 191.08C508.185 191.535 509.497 191.726 510.806 191.64C512.115 191.554 513.392 191.193 514.554 190.58C515.717 189.967 516.74 189.116 517.557 188.081C518.375 187.045 518.969 185.849 519.301 184.569C519.475 183.803 519.604 183.026 519.688 182.245C519.744 183.041 519.674 183.841 519.481 184.615C518.989 186.78 517.768 188.705 516.025 190.063C514.83 190.998 513.433 191.636 511.948 191.924C510.239 192.253 508.474 192.115 506.836 191.524C505.946 191.214 505.111 190.764 504.361 190.19C503.565 189.609 502.866 188.904 502.291 188.101C501.052 186.418 500.383 184.377 500.383 182.281C500.383 180.185 501.052 178.144 502.291 176.461C502.869 175.66 503.567 174.955 504.361 174.372C505.114 173.806 505.949 173.359 506.836 173.047C508.473 172.451 510.239 172.313 511.948 172.647C513.763 172.999 515.439 173.872 516.775 175.16C518.111 176.448 519.05 178.098 519.481 179.911C519.661 180.675 519.721 181.462 519.661 182.245Z" fill="#012232"/>
<path d="M517.113 183.686C517.889 179.813 515.406 176.038 511.567 175.255C507.728 174.472 503.986 176.977 503.21 180.85C502.434 184.724 504.917 188.498 508.756 189.281C512.595 190.065 516.337 187.559 517.113 183.686Z" fill="#455A64"/>
<path d="M434.986 413.04H481.876L460.015 222.959L434.986 413.04Z" fill="#E0E0E0"/>
<path d="M204.262 222.959L173.734 415.283L434.239 418.706L460.015 222.959H204.262Z" fill="#FAFAFA"/>
<path d="M448.415 311.063H190.277L195.893 275.651H453.077L448.415 311.063Z" fill="#EBEBEB"/>
<path d="M448.433 311.09H190.25L195.875 275.678H453.104L448.433 311.09ZM190.304 311.044H448.397L453.05 275.632H195.92L190.304 311.044Z" fill="#012232"/>
<path d="M204.263 222.959L195.893 275.651H453.077L460.016 222.959H204.263Z" fill="#16181B"/>
<path d="M204.299 222.959L460.052 222.741H460.295V222.987C452.762 280.291 444.212 345.276 435.176 413.912V414.121H432.044L173.951 414.048H173.699V413.821L204.299 222.959C204.047 224.539 192.419 298.278 174.176 413.912L173.987 413.685H431.981H434.906L434.681 413.885C443.726 345.249 452.294 280.272 459.881 222.968L460.088 223.205L204.299 222.959Z" fill="#012232"/>
<path d="M453.077 275.651C453.077 275.778 395.477 275.887 324.494 275.887C253.511 275.887 195.893 275.778 195.893 275.651C195.893 275.523 253.493 275.415 324.494 275.415C395.495 275.415 453.077 275.514 453.077 275.651Z" fill="#012232"/>
<path d="M448.414 311.063C448.414 311.199 390.508 311.299 319.102 311.299C247.696 311.299 189.781 311.199 189.781 311.063C189.781 310.926 247.669 310.827 319.102 310.827C390.535 310.827 448.414 310.935 448.414 311.063Z" fill="#012232"/>
<path d="M443.16 343.651C443.16 343.787 385.263 343.887 313.857 343.887C242.451 343.887 184.5 343.787 184.5 343.651C184.5 343.515 242.388 343.415 313.821 343.415C385.254 343.415 443.16 343.524 443.16 343.651Z" fill="#012232"/>
<path d="M437.912 376.239C437.912 376.366 380.006 376.475 308.6 376.475C237.194 376.475 179.279 376.366 179.279 376.239C179.279 376.112 237.167 376.003 308.6 376.003C380.033 376.003 437.912 376.112 437.912 376.239Z" fill="#012232"/>
<path d="M210.301 414.175C210.175 414.175 214.9 383.121 220.867 344.876C226.834 306.632 231.757 275.623 231.883 275.651C232.009 275.678 227.284 306.686 221.326 344.949C215.368 383.212 210.436 414.193 210.301 414.175Z" fill="#012232"/>
<path d="M250.108 414.175C249.973 414.175 254.707 383.121 260.665 344.876C266.623 306.632 271.555 275.623 271.69 275.651C271.825 275.678 267.091 306.686 261.124 344.949C255.157 383.212 250.198 414.193 250.108 414.175Z" fill="#012232"/>
<path d="M287.1 412.786C286.974 412.786 291.654 382.05 297.549 344.186C303.444 306.323 308.349 275.623 308.466 275.651C308.583 275.678 303.912 306.377 298.017 344.259C292.122 382.141 287.217 412.804 287.1 412.786Z" fill="#012232"/>
<path d="M323.684 413.884C323.558 413.884 328.274 382.894 334.223 344.731C340.172 306.568 345.095 275.623 345.221 275.651C345.347 275.678 340.631 306.622 334.682 344.804C328.733 382.985 323.81 413.903 323.684 413.884Z" fill="#012232"/>
<path d="M360.45 413.884C360.324 413.884 365.04 382.894 370.989 344.731C376.938 306.568 381.861 275.623 381.987 275.651C382.113 275.678 377.406 306.622 371.457 344.804C365.508 382.985 360.585 413.903 360.45 413.884Z" fill="#012232"/>
<path d="M397.188 414.048C397.062 414.048 401.787 383.022 407.745 344.795C413.703 306.568 418.626 275.587 418.761 275.614C418.896 275.642 414.162 306.632 408.204 344.867C402.246 383.103 397.314 414.102 397.188 414.048Z" fill="#012232"/>
<g opacity="0.2">
<path d="M374.057 278.12C378.485 276.141 381.257 271.492 382.4 266.743C383.543 261.994 383.363 257.037 383.534 252.143C383.705 247.248 384.281 242.209 386.756 238.005C388.223 235.526 390.284 233.465 391.913 231.077C393.542 228.689 394.748 225.783 394.145 222.905L366.443 223.05L374.057 278.12Z" fill="black"/>
</g>
<path d="M259.2 313.687C259.126 313.808 259.035 313.918 258.93 314.014L258.102 314.922C257.373 315.675 256.302 316.738 254.952 318.063C252.252 320.678 248.499 324.238 244.224 328.051C239.949 331.865 235.989 335.188 233.082 337.549C231.624 338.729 230.436 339.674 229.608 340.273L228.645 340.999C228.538 341.094 228.416 341.171 228.285 341.226C228.285 341.226 228.384 341.108 228.582 340.927L229.482 340.128L232.857 337.249C235.719 334.825 239.643 331.456 243.909 327.661C248.175 323.865 252.009 320.342 254.709 317.791L257.958 314.767L258.858 313.959C258.96 313.854 259.075 313.763 259.2 313.687Z" fill="#012232"/>
<path d="M257.12 341.59C256.738 341.253 256.38 340.889 256.049 340.5L253.232 337.467C250.802 334.861 247.544 331.356 243.953 327.479L234.575 317.582L231.731 314.577C231.372 314.219 231.039 313.837 230.732 313.432C231.14 313.736 231.52 314.077 231.866 314.449C232.568 315.121 233.576 316.111 234.809 317.346C237.275 319.816 240.641 323.275 244.286 327.161C247.931 331.048 251.171 334.625 253.475 337.249C254.627 338.557 255.554 339.628 256.175 340.373C256.527 340.748 256.843 341.156 257.12 341.59Z" fill="#012232"/>
<path d="M266.732 322.031C266.732 322.031 266.822 321.795 267.011 321.332C267.31 320.66 267.671 320.018 268.091 319.416C269.746 317.083 272.08 315.328 274.769 314.395C276.695 313.692 278.749 313.42 280.79 313.596C283.22 313.834 285.562 314.639 287.63 315.948C290.018 317.432 292.035 319.452 293.525 321.85C295.248 324.526 296.107 327.677 295.982 330.866C295.879 332.587 295.35 334.254 294.443 335.715C293.493 337.23 292.228 338.519 290.735 339.492C287.556 341.549 283.813 342.537 280.043 342.316C278.068 342.209 276.124 341.783 274.283 341.054C272.368 340.299 270.646 339.12 269.243 337.603C268.546 336.806 267.959 335.917 267.497 334.961C267.057 333.985 266.754 332.952 266.597 331.892C266.298 329.72 266.486 327.508 267.146 325.418C268.522 321.06 271.506 317.403 275.48 315.203C277.54 314.061 279.832 313.411 282.18 313.303C284.528 313.194 286.87 313.63 289.025 314.577C291.258 315.526 293.213 317.035 294.704 318.962C296.197 320.941 297.13 323.291 297.404 325.763C297.716 328.27 297.313 330.815 296.243 333.1C295.694 334.246 294.971 335.3 294.101 336.223C293.216 337.133 292.218 337.924 291.131 338.575C288.939 339.793 286.522 340.542 284.031 340.776C281.54 341.011 279.027 340.725 276.65 339.937C274.309 339.212 272.158 337.971 270.35 336.305C268.558 334.637 267.332 332.442 266.849 330.031C266.342 327.66 266.676 325.186 267.794 323.039C268.361 321.981 269.139 321.053 270.08 320.315C271.006 319.61 272.04 319.061 273.14 318.69C275.301 317.99 277.568 317.683 279.836 317.782C282.044 317.798 284.24 318.103 286.37 318.69C288.476 319.249 290.421 320.3 292.049 321.759C293.609 323.227 294.672 325.151 295.091 327.261C295.504 329.3 295.383 331.413 294.74 333.39C294.103 335.297 293.027 337.024 291.599 338.43C288.888 341.104 285.298 342.681 281.51 342.861C279.737 342.955 277.963 342.696 276.29 342.098C274.684 341.517 273.239 340.554 272.078 339.292C270.979 338.088 270.148 336.661 269.639 335.106C269.138 333.649 268.915 332.108 268.982 330.566C269.11 327.712 270.24 324.996 272.168 322.903C273.817 321.083 275.903 319.722 278.225 318.953C280.174 318.312 282.239 318.114 284.273 318.372C287.084 318.724 289.755 319.81 292.022 321.523C292.611 321.959 293.167 322.439 293.687 322.957C294.038 323.311 294.209 323.502 294.209 323.502C294.209 323.502 294.011 323.33 293.66 322.994C293.125 322.493 292.56 322.026 291.968 321.595C289.697 319.934 287.041 318.887 284.255 318.554C282.058 318.297 279.832 318.575 277.763 319.365C275.695 320.155 273.844 321.434 272.366 323.094C270.488 325.141 269.393 327.797 269.279 330.585C269.218 332.096 269.441 333.606 269.936 335.034C270.438 336.542 271.251 337.925 272.321 339.093C273.449 340.315 274.85 341.249 276.407 341.817C278.039 342.389 279.766 342.636 281.492 342.543C285.189 342.359 288.69 340.811 291.329 338.194C292.708 336.833 293.748 335.162 294.362 333.318C294.978 331.406 295.09 329.366 294.686 327.397C294.281 325.371 293.258 323.524 291.761 322.113C290.178 320.709 288.292 319.695 286.253 319.153C284.158 318.574 281.999 318.269 279.827 318.245C277.613 318.16 275.402 318.468 273.293 319.153C271.142 319.817 269.321 321.281 268.199 323.248C267.134 325.301 266.815 327.666 267.299 329.931C267.766 332.247 268.947 334.354 270.674 335.951C272.425 337.583 274.516 338.8 276.794 339.51C279.108 340.278 281.553 340.557 283.978 340.329C286.403 340.101 288.755 339.371 290.888 338.185C291.941 337.561 292.907 336.797 293.759 335.915C294.595 335.029 295.29 334.018 295.82 332.918C296.856 330.714 297.246 328.256 296.945 325.836C296.688 323.449 295.795 321.178 294.362 319.262C292.92 317.399 291.03 315.94 288.872 315.021C286.781 314.1 284.508 313.674 282.229 313.778C279.949 313.882 277.723 314.513 275.723 315.621C271.861 317.766 268.962 321.325 267.623 325.563C266.981 327.591 266.794 329.737 267.074 331.847C267.236 332.871 267.539 333.867 267.974 334.807C268.42 335.724 268.982 336.579 269.648 337.349C271.005 338.818 272.673 339.959 274.526 340.691C276.326 341.409 278.228 341.832 280.16 341.944C283.849 342.171 287.516 341.218 290.636 339.22C292.078 338.329 293.293 337.109 294.182 335.658C295.072 334.207 295.611 332.566 295.757 330.866C295.883 327.746 295.05 324.664 293.372 322.04C291.916 319.673 289.939 317.675 287.594 316.202C285.563 314.905 283.262 314.1 280.871 313.85C278.861 313.658 276.833 313.912 274.931 314.595C272.266 315.503 269.942 317.215 268.271 319.498C267.84 320.09 267.467 320.722 267.155 321.387C266.849 321.804 266.732 322.031 266.732 322.031Z" fill="#16181B"/>
<path d="M291.112 347.101C291.193 347.201 284.056 353.357 275.164 360.857C266.272 368.357 258.964 374.341 258.91 374.241C258.856 374.141 265.966 367.985 274.858 360.494C283.75 353.003 291.031 347.001 291.112 347.101Z" fill="#012232"/>
<path d="M292.671 373.433C292.248 373.182 291.847 372.893 291.474 372.571L288.306 370.083C285.651 367.958 282.006 364.998 277.992 361.711C273.978 358.424 270.369 355.427 267.768 353.239L264.699 350.624C264.31 350.325 263.949 349.99 263.619 349.625C264.041 349.879 264.441 350.168 264.816 350.488L267.975 352.976C270.63 355.101 274.275 358.061 278.289 361.348C282.303 364.635 285.912 367.631 288.522 369.819L291.582 372.425C291.969 372.734 292.333 373.071 292.671 373.433Z" fill="#012232"/>
<path d="M366.245 347.455C366.317 347.555 359.495 352.831 350.99 359.259C342.485 365.688 335.537 370.764 335.456 370.655C335.375 370.546 342.206 365.279 350.711 358.851C359.216 352.422 366.164 347.346 366.245 347.455Z" fill="#012232"/>
<path d="M368.891 369.792C368.828 369.901 361.574 365.37 352.691 359.659C343.808 353.947 336.689 349.244 336.752 349.126C336.815 349.008 344.069 353.557 352.952 359.259C361.835 364.961 368.999 369.683 368.891 369.792Z" fill="#012232"/>
<path d="M292.282 413.894C292.183 413.803 299.275 406.303 308.113 397.159C316.951 388.016 324.196 380.652 324.313 380.743C324.43 380.833 317.32 388.333 308.482 397.486C299.644 406.639 292.372 413.984 292.282 413.894Z" fill="#16181B"/>
<path d="M322.262 413.884C322.262 413.884 322.145 413.785 321.965 413.567L321.209 412.659C320.507 411.751 319.571 410.579 318.428 409.145C316.079 406.185 312.749 402.162 308.888 397.886C305.027 393.609 301.364 389.895 298.664 387.262L295.46 384.084L294.56 383.23C294.456 383.135 294.363 383.028 294.281 382.913C294.281 382.913 294.416 382.985 294.623 383.158L295.523 383.948C296.324 384.638 297.458 385.664 298.844 386.953C301.598 389.532 305.306 393.218 309.185 397.504C313.064 401.79 316.385 405.858 318.635 408.872C319.787 410.38 320.696 411.596 321.335 412.504L322.028 413.503C322.122 413.62 322.2 413.748 322.262 413.884Z" fill="#16181B"/>
<path d="M248.588 375.694C248.588 375.694 248.876 398.004 243.296 411.36L209.285 405.513C209.285 405.513 219.527 384.375 216.737 372.625L248.588 375.694Z" fill="#EBEBEB"/>
<path d="M248.578 374.859C248.578 374.859 244.312 402.244 241.702 410.416L207.898 403.642C207.898 403.642 214.855 377.165 214.765 369.792L248.578 374.859Z" fill="#16181B"/>
<path d="M218.195 382.068C218.195 382.195 223.217 383.376 229.472 384.701C235.727 386.027 240.812 386.999 240.839 386.881C240.866 386.763 235.817 385.573 229.562 384.247C223.307 382.922 218.222 381.941 218.195 382.068Z" fill="white"/>
<path d="M217.332 387.87C217.332 387.997 222.354 389.169 228.609 390.504C234.864 391.838 239.949 392.801 239.976 392.683C240.003 392.565 234.954 391.375 228.699 390.05C222.444 388.724 217.359 387.716 217.332 387.87Z" fill="white"/>
<path d="M222.299 394.435C222.875 394.688 223.48 394.871 224.099 394.98C225.26 395.261 226.871 395.634 228.644 396.015C230.417 396.396 232.046 396.705 233.225 396.923C233.855 397.083 234.502 397.162 235.151 397.159C234.552 396.905 233.927 396.719 233.288 396.605C232.136 396.315 230.525 395.942 228.743 395.57C226.961 395.198 225.341 394.871 224.171 394.662C223.558 394.511 222.93 394.434 222.299 394.435Z" fill="white"/>
<path d="M409.499 313.051C409.499 313.051 412.982 334.789 409.454 348.654L375.398 347.918C375.398 347.918 382.364 325.781 377.945 314.713L409.499 313.051Z" fill="#EBEBEB"/>
<path d="M409.347 312.234C409.347 312.234 409.122 339.574 407.745 347.918L373.752 346.293C373.752 346.293 376.731 319.416 375.552 312.234H409.347Z" fill="#455A64"/>
<path d="M380.375 324.401C380.375 324.528 385.487 324.637 391.796 324.646C398.105 324.655 403.226 324.565 403.226 324.437C403.226 324.31 398.114 324.201 391.796 324.192C385.478 324.183 380.375 324.274 380.375 324.401Z" fill="white"/>
<path d="M380.699 330.185C380.699 330.312 385.811 330.421 392.12 330.43C398.429 330.439 403.55 330.348 403.55 330.221C403.55 330.094 398.438 329.985 392.12 329.976C385.802 329.967 380.699 330.058 380.699 330.185Z" fill="white"/>
<path d="M386.793 335.515C387.42 335.651 388.06 335.709 388.701 335.688C389.88 335.688 391.509 335.751 393.309 335.76C395.109 335.769 396.729 335.76 397.908 335.697C398.548 335.723 399.188 335.671 399.816 335.542C399.189 335.407 398.548 335.352 397.908 335.379C396.729 335.333 395.109 335.306 393.309 335.297C391.509 335.288 389.88 335.297 388.701 335.361C388.061 335.335 387.421 335.387 386.793 335.515Z" fill="white"/>
<path d="M416.699 250.372C410.345 250.372 403.946 246.349 400.58 240.021C397.308 233.718 396.293 226.47 397.709 219.5C399.572 210.42 405.53 202.974 412.892 200.595C419.147 198.57 430.325 199.687 435.599 208.595C438.111 212.951 439.359 217.931 439.199 222.968C439.175 223.326 439.082 223.676 438.924 223.997C438.767 224.318 438.548 224.605 438.28 224.841C438.013 225.077 437.702 225.258 437.366 225.373C437.029 225.488 436.673 225.535 436.319 225.511C435.602 225.463 434.935 225.129 434.462 224.585C433.99 224.04 433.751 223.328 433.799 222.605C433.847 218.673 432.846 214.799 430.901 211.391C426.833 204.536 417.914 204.672 414.476 205.78C408.176 207.814 404.144 214.687 402.929 220.599C401.762 226.321 402.592 232.275 405.278 237.451C407.933 242.445 413.306 245.55 418.067 244.815C418.769 244.716 419.482 244.901 420.052 245.328C420.621 245.756 421 246.392 421.108 247.1C421.215 247.807 421.042 248.529 420.627 249.109C420.211 249.689 419.585 250.081 418.886 250.199C418.162 250.313 417.431 250.37 416.699 250.372Z" fill="#012232"/>
<path d="M242.387 250.372C236.024 250.372 229.634 246.349 226.268 240.021C222.993 233.72 221.975 226.471 223.388 219.5C224.963 211.836 230.291 203.011 238.688 200.577C242.736 199.471 247.029 199.69 250.946 201.204L249.002 206.288C246.183 205.208 243.1 205.039 240.182 205.807C233.99 207.623 229.958 214.542 228.716 220.599C227.549 226.321 228.379 232.275 231.065 237.451C233.72 242.454 239.102 245.55 243.854 244.815L244.673 250.199C243.916 250.317 243.152 250.375 242.387 250.372Z" fill="#012232"/>
<path d="M414.476 223.105L411.992 236.824H448.541L451.79 223.241L414.476 223.105Z" fill="#16181B"/>
<path d="M251.648 248.202C251.649 249.363 251.31 250.498 250.671 251.464C250.033 252.43 249.125 253.183 248.063 253.628C247 254.073 245.83 254.19 244.701 253.964C243.573 253.738 242.536 253.179 241.722 252.358C240.909 251.538 240.355 250.492 240.131 249.353C239.907 248.214 240.023 247.034 240.464 245.962C240.905 244.89 241.652 243.974 242.609 243.33C243.567 242.686 244.692 242.343 245.843 242.345C247.381 242.348 248.857 242.965 249.945 244.063C251.033 245.161 251.645 246.649 251.648 248.202Z" fill="#012232"/>
<path d="M425.808 248.202C425.809 249.363 425.47 250.498 424.832 251.464C424.193 252.43 423.285 253.183 422.223 253.628C421.16 254.073 419.99 254.19 418.862 253.964C417.733 253.738 416.696 253.179 415.883 252.358C415.069 251.538 414.515 250.492 414.291 249.353C414.067 248.214 414.183 247.034 414.624 245.962C415.065 244.89 415.812 243.974 416.769 243.33C417.727 242.686 418.852 242.343 420.003 242.345C421.542 242.348 423.017 242.965 424.105 244.063C425.193 245.161 425.805 246.649 425.808 248.202Z" fill="#012232"/>
<path d="M329.894 134.675L320.336 171.249L287.342 174.826V180.728L333.701 182.372L342.413 141.339L329.894 134.675Z" fill="#FFBE9D"/>
<path d="M343.799 183.343C343.799 183.343 292.247 180.864 277.568 192.423C262.889 203.982 269.999 222.959 269.999 222.959L352.961 222.741L360.287 180.311L343.799 183.343Z" fill="#012232"/>
<path d="M352.574 211.337C352.323 211.343 352.073 211.325 351.827 211.283C351.341 211.228 350.63 211.155 349.712 211.037C347.912 210.81 345.212 210.429 341.972 209.875C333.465 208.415 325.051 206.454 316.772 204C311.93 202.557 307.349 201.104 303.119 200.041C299.385 199.067 295.566 198.458 291.716 198.225C289.118 198.079 286.512 198.231 283.949 198.679C283.049 198.788 282.356 199.025 281.87 199.106C281.629 199.166 281.386 199.211 281.141 199.242C281.37 199.143 281.608 199.067 281.852 199.015C282.528 198.803 283.216 198.63 283.913 198.498C286.482 197.974 289.106 197.77 291.725 197.89C295.63 198.077 299.508 198.658 303.299 199.624C307.556 200.659 312.146 202.112 316.97 203.555C325.204 205.988 333.558 207.985 341.999 209.539C345.248 210.138 347.885 210.565 349.712 210.856L351.818 211.192C352.073 211.219 352.326 211.267 352.574 211.337Z" fill="#455A64"/>
<path d="M304.659 199.76C303.227 198.568 301.7 197.496 300.096 196.555C298.414 195.761 296.671 195.105 294.885 194.593C295.439 194.545 295.998 194.6 296.532 194.757C297.848 195.043 299.119 195.507 300.312 196.137C301.502 196.771 302.604 197.561 303.588 198.489C304.02 198.842 304.383 199.273 304.659 199.76Z" fill="#455A64"/>
<path d="M349.263 296.398L349.956 318.254L345.6 335.706C345.529 336.005 345.52 336.315 345.574 336.618C345.627 336.92 345.742 337.208 345.911 337.464C346.08 337.719 346.299 337.937 346.555 338.103C346.812 338.27 347.099 338.381 347.4 338.43C347.748 338.494 348.106 338.473 348.444 338.369C348.782 338.264 349.091 338.08 349.344 337.83C352.62 334.598 364.644 322.649 364.491 321.06C364.329 319.244 365.274 297.942 365.274 297.942L349.263 296.398Z" fill="#16181B"/>
<g opacity="0.6">
<path d="M347.318 338.466L364.418 319.616V320.524C364.429 321.326 364.154 322.106 363.644 322.721C362.285 324.365 358.424 328.823 349.343 337.849C349.084 338.108 348.765 338.298 348.414 338.403C348.064 338.507 347.694 338.523 347.336 338.448L347.318 338.466Z" fill="white"/>
</g>
<g opacity="0.6">
<path d="M359.883 312.597C359.609 312.8 359.42 313.099 359.355 313.436C359.29 313.772 359.353 314.121 359.532 314.413C359.722 314.685 360.007 314.874 360.329 314.941C360.652 315.009 360.988 314.95 361.269 314.776C361.551 314.565 361.745 314.255 361.811 313.907C361.878 313.559 361.813 313.199 361.629 312.897C361.405 312.631 361.087 312.463 360.743 312.429C360.399 312.395 360.055 312.498 359.784 312.715" fill="white"/>
</g>
<path d="M352.187 328.859C352.061 328.923 351.557 327.788 350.27 327.18C349.473 326.864 348.623 326.71 347.768 326.726C347.768 326.671 348.02 326.499 348.524 326.417C349.191 326.335 349.869 326.448 350.475 326.743C351.081 327.037 351.591 327.501 351.944 328.079C352.196 328.523 352.232 328.841 352.187 328.859Z" fill="#012232"/>
<path d="M350.667 331.81C350.045 331.468 349.401 331.164 348.741 330.902C348.038 330.777 347.329 330.693 346.617 330.648C346.948 330.433 347.325 330.302 347.717 330.266C348.109 330.23 348.503 330.289 348.867 330.439C350.145 330.784 350.775 331.747 350.667 331.81Z" fill="#012232"/>
<path d="M355.022 325.064C354.102 324.452 353.14 323.909 352.142 323.439C351.088 323.113 350.011 322.871 348.92 322.712C350.053 322.473 351.231 322.567 352.313 322.984C353.395 323.401 354.335 324.123 355.022 325.064Z" fill="#012232"/>
<path d="M355.364 318.417C355.31 318.554 354.104 318.054 352.547 318.018C350.99 317.982 349.757 318.363 349.703 318.227C350.576 317.741 351.563 317.503 352.56 317.536C353.556 317.57 354.525 317.874 355.364 318.417Z" fill="#012232"/>
<path d="M355.32 311.998C354.372 311.697 353.388 311.529 352.395 311.498C351.411 311.614 350.448 311.868 349.533 312.252C349.533 312.207 349.731 311.925 350.226 311.635C350.889 311.257 351.63 311.043 352.391 311.01C353.151 310.977 353.908 311.126 354.6 311.444C355.095 311.689 355.356 311.943 355.32 311.998Z" fill="#012232"/>
<path d="M352.421 310.273C352.365 310 352.365 309.719 352.421 309.446C352.488 308.687 352.705 307.949 353.06 307.276C353.27 306.758 353.648 306.326 354.131 306.05C354.298 305.975 354.484 305.953 354.664 305.987C354.844 306.021 355.01 306.11 355.139 306.241C355.37 306.514 355.495 306.863 355.49 307.222C355.447 307.954 355.155 308.648 354.663 309.188C354.171 309.727 353.509 310.078 352.79 310.182C352.072 310.262 351.346 310.126 350.705 309.79C350.064 309.453 349.537 308.932 349.19 308.293C349.102 308.132 349.051 307.953 349.038 307.77C349.026 307.587 349.053 307.403 349.118 307.231C349.202 307.068 349.333 306.935 349.494 306.849C349.654 306.763 349.837 306.729 350.018 306.75C350.553 306.865 351.049 307.118 351.458 307.485C352.048 307.957 352.554 308.528 352.952 309.174C353.111 309.402 353.226 309.657 353.294 309.928C352.722 309.107 352.033 308.376 351.251 307.757C350.886 307.455 350.453 307.246 349.991 307.149C349.891 307.132 349.788 307.147 349.697 307.193C349.607 307.239 349.533 307.312 349.487 307.403C349.455 307.52 349.446 307.642 349.462 307.762C349.477 307.882 349.516 307.998 349.577 308.103C349.892 308.643 350.355 309.082 350.91 309.365C351.466 309.648 352.09 309.765 352.709 309.701C353.322 309.622 353.891 309.332 354.318 308.881C354.746 308.43 355.007 307.844 355.058 307.222C355.069 306.973 354.993 306.728 354.842 306.532C354.774 306.454 354.683 306.401 354.582 306.379C354.482 306.358 354.377 306.37 354.284 306.414C353.889 306.657 353.575 307.014 353.384 307.44C352.905 308.322 352.579 309.28 352.421 310.273Z" fill="#012232"/>
<path d="M360.243 180.311C360.243 180.311 337.95 222.832 337.644 230.251C337.338 237.669 337.644 306.05 337.644 306.05H372.15C373.05 306.05 378.225 275.242 377.172 268.151C376.119 261.059 372.402 222.941 372.402 222.941H392.256C392.256 222.941 397.701 217.066 397.503 209.612C397.386 205.499 394.722 197.09 392.103 192.632C390.402 189.772 379.503 174.799 379.503 174.799L360.243 180.311Z" fill="#012232"/>
<path d="M358.748 183.189C358.724 183.274 358.691 183.356 358.649 183.434C358.568 183.616 358.46 183.843 358.325 184.124L357.029 186.776C356.444 187.929 355.751 189.327 354.941 190.952L353.645 193.558L352.286 196.527L345.599 211.137C344.33 213.861 342.998 216.776 341.612 219.763L339.515 224.303C338.837 225.873 338.325 227.51 337.985 229.188C337.643 230.871 337.465 232.583 337.454 234.3C337.4 235.998 337.364 237.678 337.337 239.322C337.337 242.627 337.274 245.805 337.283 248.837C337.283 254.903 337.355 260.369 337.418 264.954C337.481 269.54 337.535 273.217 337.58 275.85C337.58 277.103 337.58 278.093 337.58 278.801C337.58 279.119 337.58 279.373 337.58 279.573C337.58 279.773 337.58 279.836 337.58 279.836C337.565 279.749 337.565 279.66 337.58 279.573C337.58 279.373 337.58 279.119 337.58 278.81C337.58 278.093 337.508 277.112 337.454 275.85C337.364 273.29 337.247 269.576 337.148 264.954C337.049 260.333 336.941 254.912 336.914 248.837C336.914 245.805 336.914 242.618 336.914 239.322C336.914 237.669 336.968 235.989 337.031 234.282C337.04 232.538 337.218 230.798 337.562 229.088C337.911 227.379 338.435 225.711 339.128 224.113L341.234 219.573L345.248 210.965L352.07 196.391L353.456 193.431C353.933 192.523 354.356 191.615 354.788 190.843L356.939 186.703C357.524 185.586 357.992 184.714 358.316 184.088C358.469 183.815 358.595 183.598 358.685 183.416C358.775 183.234 358.739 183.18 358.748 183.189Z" fill="#455A64"/>
<path d="M351.53 197.672C350.815 195.943 350.213 194.168 349.73 192.36C349.098 190.599 348.584 188.797 348.191 186.966C349.031 188.645 349.694 190.406 350.171 192.224C350.809 193.988 351.264 195.813 351.53 197.672Z" fill="#455A64"/>
<path d="M377.243 266.816C377.185 266.661 377.149 266.499 377.135 266.335C377.093 265.965 377.03 265.502 376.946 264.945C376.784 263.665 376.577 261.922 376.316 259.806C375.821 255.411 375.155 249.446 374.417 242.854C373.679 236.262 373.076 230.223 372.707 225.874C372.536 223.749 372.392 222.006 372.284 220.726C372.284 220.154 372.212 219.691 372.185 219.318C372.173 219.155 372.173 218.991 372.185 218.828C372.241 218.983 372.275 219.145 372.284 219.309C372.329 219.682 372.392 220.145 372.464 220.708C372.608 221.988 372.806 223.722 373.04 225.847C373.517 230.242 374.165 236.216 374.84 242.808C375.515 249.4 376.154 255.366 376.64 259.77C376.838 261.894 377.009 263.638 377.126 264.918C377.171 265.481 377.207 265.953 377.234 266.325C377.25 266.488 377.253 266.652 377.243 266.816Z" fill="#455A64"/>
<path d="M368.478 66.4292C367.947 62.7972 371.034 59.3014 374.598 58.8747C378.162 58.4479 381.753 60.6907 383.391 63.9685C384.153 65.617 384.57 67.4063 384.617 69.2247C384.663 71.0432 384.338 72.8518 383.661 74.5377C382.761 76.8349 381.096 79.1594 378.675 79.341C376.254 79.5226 374.4 77.6612 372.798 75.9451" fill="#012232"/>
<path d="M343.142 84.444C335.942 68.5268 353.042 60.5273 362.339 63.1786C371.087 65.6756 374.822 70.0704 376.262 75.9724C377.839 81.8936 377.524 88.1661 375.362 93.8963C374.228 96.6748 372.194 99.4895 369.242 99.8346" fill="#012232"/>
<path d="M367.92 72.0134C368.66 72.0908 369.345 72.4469 369.837 73.0106C370.329 73.5743 370.592 74.3043 370.575 75.0552L368.892 115.57C368.829 120.355 361.908 123.061 356.823 122.952C351.702 122.843 351.531 120.301 351.423 115.752C351.306 108.152 351.306 105.292 351.306 105.337C351.306 105.382 344.826 104.247 343.485 95.7213C342.81 91.4809 343.026 84.5257 343.377 78.8416C343.701 73.7296 347.058 67.4462 352.116 67.9456L367.92 72.0134Z" fill="#FFBE9D"/>
<path d="M346.688 83.6903C346.683 83.9762 346.79 84.2526 346.985 84.4598C347.18 84.6671 347.448 84.7886 347.732 84.798C347.87 84.8092 348.009 84.7922 348.14 84.7481C348.272 84.704 348.393 84.6337 348.497 84.5414C348.601 84.4491 348.686 84.3367 348.746 84.2107C348.806 84.0848 348.841 83.948 348.848 83.8083C348.85 83.5231 348.743 83.248 348.548 83.0412C348.353 82.8345 348.086 82.7123 347.804 82.7006C347.666 82.6895 347.527 82.7064 347.395 82.7505C347.264 82.7946 347.142 82.8649 347.038 82.9572C346.934 83.0495 346.849 83.1619 346.789 83.2879C346.729 83.4138 346.694 83.5506 346.688 83.6903Z" fill="#012232"/>
<path d="M344.896 82.4646C345.031 82.6008 345.859 81.9924 347.02 81.9924C348.181 81.9924 349.045 82.5826 349.171 82.4373C349.297 82.292 349.099 82.1195 348.721 81.8471C348.216 81.4952 347.616 81.3082 347.002 81.3114C346.396 81.3055 345.805 81.5 345.319 81.8653C344.959 82.1377 344.833 82.401 344.896 82.4646Z" fill="#012232"/>
<path d="M358.092 83.6904C358.089 83.9697 358.191 84.2397 358.379 84.4455C358.566 84.6513 358.824 84.7774 359.1 84.7981C359.238 84.8092 359.377 84.7922 359.508 84.7482C359.64 84.7041 359.761 84.6338 359.865 84.5415C359.97 84.4492 360.054 84.3367 360.114 84.2108C360.175 84.0849 360.209 83.948 360.216 83.8084C360.218 83.5231 360.111 83.248 359.916 83.0413C359.721 82.8346 359.454 82.7124 359.172 82.7006C358.899 82.6883 358.632 82.7854 358.43 82.9708C358.227 83.1563 358.106 83.4149 358.092 83.6904Z" fill="#012232"/>
<path d="M356.399 82.6824C356.534 82.8186 357.353 82.2103 358.514 82.2103C359.675 82.2103 360.539 82.8005 360.665 82.6643C360.791 82.5281 360.593 82.3374 360.215 82.065C359.71 81.7114 359.11 81.5242 358.496 81.5293C357.891 81.5292 357.301 81.7232 356.813 82.0832C356.399 82.3556 356.3 82.628 356.399 82.6824Z" fill="#012232"/>
<path d="M352.134 91.4083C351.52 91.2173 350.885 91.1015 350.244 91.0632C349.947 91.0632 349.659 90.9724 349.614 90.7727C349.586 90.4567 349.655 90.1396 349.812 89.8647C350.091 89.1383 350.379 88.3755 350.712 87.5765C351.528 85.6379 352.19 83.637 352.692 81.5928C351.717 83.459 350.895 85.4025 350.235 87.404L349.389 89.7103C349.203 90.0737 349.149 90.4913 349.236 90.8907C349.281 90.9962 349.348 91.0902 349.434 91.1657C349.52 91.2412 349.621 91.2961 349.731 91.3265C349.895 91.3705 350.065 91.3948 350.235 91.3992C350.865 91.4814 351.503 91.4844 352.134 91.4083Z" fill="#012232"/>
<path d="M351.332 105.328C355.328 105.401 359.265 104.348 362.699 102.286C362.699 102.286 359.945 108.152 351.485 107.353L351.332 105.328Z" fill="#EB996E"/>
<path d="M352.628 94.2412C352.851 93.9614 353.14 93.743 353.469 93.6065C353.798 93.47 354.155 93.4197 354.509 93.4604C354.768 93.4822 355.019 93.5571 355.248 93.6804C355.477 93.8038 355.679 93.973 355.841 94.1777C355.996 94.3735 356.087 94.6126 356.103 94.8626C356.12 95.1126 356.059 95.3616 355.931 95.576C355.744 95.7883 355.498 95.939 355.225 96.0086C354.953 96.0782 354.665 96.0635 354.401 95.9664C353.847 95.7696 353.338 95.4606 352.907 95.0584C352.776 94.9646 352.663 94.8477 352.574 94.7134C352.532 94.6485 352.51 94.5728 352.51 94.4955C352.51 94.4181 352.532 94.3424 352.574 94.2776" fill="#EB996E"/>
<path d="M355.571 92.2255C355.382 92.2255 355.373 93.4877 354.293 94.3957C353.213 95.3037 351.863 95.1584 351.854 95.3037C351.845 95.4489 352.151 95.5488 352.754 95.567C353.497 95.5756 354.219 95.3218 354.797 94.8497C355.345 94.3946 355.699 93.7446 355.787 93.0337C355.796 92.5343 355.652 92.2165 355.571 92.2255Z" fill="#012232"/>
<path d="M355.841 80.6212C355.958 80.939 357.128 80.7847 358.496 80.9572C359.864 81.1297 360.971 81.4929 361.151 81.2114C361.232 81.0752 361.034 80.7756 360.593 80.4578C360 80.073 359.324 79.8364 358.622 79.7677C357.923 79.6796 357.212 79.7637 356.552 80.0129C356.048 80.2126 355.796 80.4669 355.841 80.6212Z" fill="#012232"/>
<path d="M345.33 79.0505C345.537 79.3229 346.338 79.0505 347.31 79.0505C348.282 79.0505 349.11 79.2321 349.281 78.9506C349.362 78.8144 349.281 78.542 348.876 78.2968C348.402 77.9823 347.841 77.8266 347.274 77.8519C346.707 77.8637 346.157 78.0507 345.699 78.3876C345.357 78.6509 345.24 78.9233 345.33 79.0505Z" fill="#012232"/>
<path d="M356.336 65.149C353.467 65.2966 350.681 66.171 348.236 67.6914C346.865 68.4083 345.647 69.3908 344.653 70.5827C343.658 71.7745 342.906 73.1524 342.44 74.6376C342.321 74.9465 342.267 75.2766 342.279 75.6076C342.291 75.9386 342.371 76.2635 342.512 76.5626C342.779 76.9045 343.157 77.1416 343.579 77.2327C344.001 77.3239 344.442 77.2635 344.825 77.062C345.588 76.6435 346.237 76.0415 346.715 75.3095C346.905 76.11 347.359 76.8216 348.003 77.3276C348.646 77.8335 349.441 78.104 350.257 78.0945C351.073 78.085 351.862 77.7961 352.493 77.2753C353.125 76.7545 353.563 76.0325 353.735 75.2278C353.799 76.0458 354.174 76.8072 354.781 77.3535C355.388 77.8998 356.18 78.1889 356.993 78.1606C357.804 78.0898 358.577 77.7814 359.216 77.2732C359.856 76.765 360.335 76.0793 360.593 75.3004C360.791 76.7769 361.297 78.1942 362.078 79.4591C362.477 80.0869 363.059 80.5753 363.743 80.858C364.428 81.1407 365.182 81.2039 365.903 81.039C365.6 82.2943 365.619 83.6065 365.957 84.8526C366.407 86.0512 368.198 106.563 369.404 106.145C370.61 105.728 370.565 84.8072 370.835 83.5905C371.434 81.2566 371.736 78.8553 371.735 76.4445C371.815 73.9609 371.018 71.5294 369.484 69.5848C367.951 67.6402 365.782 66.3093 363.365 65.83C360.952 65.2716 358.476 65.0426 356.003 65.149" fill="#012232"/>
<path d="M373.275 102.504C373.275 102.504 373.194 102.558 373.014 102.622C372.761 102.715 372.498 102.779 372.231 102.813C370.979 102.973 369.708 102.771 368.566 102.231C367.423 101.691 366.457 100.835 365.778 99.7619C364.858 98.1454 364.47 96.2759 364.671 94.4228C364.806 92.4706 365.256 90.6909 365.463 89.0565C365.667 87.6056 365.793 86.1446 365.841 84.68C365.841 83.4269 365.841 82.4191 365.841 81.7108C365.802 81.3487 365.802 80.9834 365.841 80.6212C365.948 80.9783 366.011 81.3473 366.03 81.7199C366.128 82.7125 366.176 83.7096 366.174 84.7072C366.172 86.1856 366.079 87.6625 365.895 89.1292C365.697 90.7999 365.274 92.5887 365.139 94.4682C364.946 96.2275 365.299 98.0037 366.147 99.553C366.887 100.786 368.024 101.726 369.369 102.213C370.272 102.561 371.239 102.71 372.204 102.649C372.897 102.604 373.266 102.459 373.275 102.504Z" fill="#012232"/>
<path d="M353.357 64.0503C353.685 64.672 353.837 65.3722 353.798 66.0751C353.83 67.7957 353.185 69.4588 352.004 70.7009C350.824 71.943 349.204 72.663 347.498 72.7035C346.806 72.7705 346.109 72.6449 345.482 72.3403C345.482 72.2586 346.256 72.4765 347.48 72.3403C349.08 72.2307 350.582 71.5251 351.695 70.3605C352.808 69.1959 353.452 67.6556 353.501 66.0388C353.528 64.8312 353.276 64.0685 353.357 64.0503Z" fill="#455A64"/>
<path d="M354.599 74.0927C354.644 74.0927 354.536 74.6738 353.888 75.3094C353.458 75.6997 352.954 75.9982 352.406 76.187C351.859 76.3758 351.279 76.451 350.702 76.4081C349.57 76.3062 348.48 75.9293 347.525 75.3094C346.796 74.8463 346.4 74.4922 346.436 74.4014C346.872 74.5398 347.289 74.732 347.678 74.9735C348.627 75.4714 349.663 75.7797 350.729 75.8815C351.786 75.9443 352.83 75.6221 353.672 74.9735C354.329 74.5558 354.545 74.0564 354.599 74.0927Z" fill="#455A64"/>
<path d="M374.985 71.4868C375.045 72.2685 374.991 73.0548 374.823 73.8204C374.569 75.7169 373.858 77.5218 372.753 79.0777C372.176 79.8492 371.449 80.4937 370.617 80.9715C369.784 81.4493 368.863 81.7504 367.911 81.8562C367.333 81.9087 366.749 81.8502 366.192 81.6837C365.805 81.5656 365.616 81.4476 365.625 81.4203C366.368 81.5543 367.124 81.5879 367.875 81.5202C369.666 81.227 371.276 80.252 372.375 78.7962C373.43 77.2918 374.151 75.5763 374.49 73.7659C374.609 72.9966 374.774 72.2355 374.985 71.4868Z" fill="#455A64"/>
<path d="M376.533 75.6182C376.616 75.8516 376.661 76.0968 376.668 76.3446C376.729 77.0056 376.744 77.67 376.713 78.3331C376.666 80.5674 375.873 82.7203 374.463 84.4439C373.667 85.3916 372.631 86.1039 371.466 86.5051C370.511 86.8205 369.491 86.883 368.505 86.6867C367.843 86.5591 367.214 86.2931 366.66 85.9058C366.282 85.6243 366.12 85.4155 366.138 85.3973C366.877 85.8713 367.699 86.198 368.559 86.3598C369.488 86.4944 370.435 86.4042 371.322 86.0965C372.403 85.694 373.363 85.0188 374.112 84.1352C375.449 82.4755 376.244 80.4394 376.389 78.3058C376.533 76.6624 376.452 75.6272 376.533 75.6182Z" fill="#455A64"/>
<path d="M257.903 185.368L241.568 223.059H264.059L280.079 185.068L257.903 185.368Z" fill="#455A64"/>
<path d="M246.023 145.28L264.446 181.836H322.55L320.201 177.06L303.371 176.551L289.646 145.734C289.229 144.795 288.552 143.998 287.696 143.439C286.84 142.88 285.842 142.583 284.822 142.583H247.661C247.343 142.572 247.027 142.646 246.746 142.798C246.465 142.95 246.229 143.175 246.062 143.449C245.895 143.724 245.804 144.038 245.797 144.359C245.79 144.681 245.869 144.999 246.023 145.28Z" fill="#E0E0E0"/>
<path d="M275.12 161.669C275.12 162.113 274.989 162.547 274.745 162.915C274.501 163.284 274.154 163.572 273.748 163.741C273.341 163.911 272.894 163.956 272.463 163.869C272.032 163.783 271.636 163.569 271.325 163.255C271.014 162.942 270.802 162.542 270.717 162.107C270.631 161.672 270.675 161.221 270.843 160.811C271.011 160.401 271.296 160.051 271.662 159.805C272.027 159.558 272.457 159.427 272.897 159.427C273.486 159.429 274.05 159.666 274.466 160.086C274.883 160.506 275.117 161.075 275.12 161.669Z" fill="#012232"/>
<path d="M328.743 181.909H257.715V185.404H328.743V181.909Z" fill="#455A64"/>
<path d="M306.863 183.661L328.472 223.096H338.804L341.054 218.583L343.124 213.834L328.742 185.404L306.863 183.661Z" fill="#455A64"/>
<path d="M344.412 116.051C344.412 116.051 331.866 120.51 329.166 134.674L342.414 141.339L344.412 116.051Z" fill="#16181B"/>
<path d="M344.412 116.051C344.412 116.051 335.637 135.9 335.97 146.742C336.087 150.51 338.535 160.362 338.535 160.362L343.098 184.751C343.098 184.751 378.027 179.984 378.801 179.984C379.575 179.984 377.631 159.962 377.631 159.962L383.328 121.49C383.328 121.49 380.718 116.251 368.928 114.435C361.863 113.318 344.412 116.051 344.412 116.051Z" fill="#16181B"/>
<path d="M341.1 127.574C341.181 127.619 340.263 129.099 339.156 131.66C338.514 133.159 337.973 134.7 337.536 136.273C337.01 138.199 336.628 140.163 336.393 142.147C336.185 144.135 336.122 146.135 336.204 148.131C336.285 149.761 336.475 151.384 336.771 152.989C337.275 155.713 337.851 157.384 337.761 157.411C337.572 157.049 337.421 156.669 337.311 156.276C337.15 155.826 337.012 155.369 336.897 154.905C336.753 154.36 336.564 153.752 336.438 153.089C336.1 151.473 335.877 149.834 335.772 148.186C335.664 146.163 335.715 144.135 335.925 142.12C336.164 140.108 336.564 138.119 337.122 136.173C337.584 134.59 338.165 133.045 338.859 131.551C339.111 130.971 339.394 130.404 339.705 129.853C339.92 129.426 340.157 129.011 340.416 128.609C340.608 128.242 340.837 127.895 341.1 127.574Z" fill="#012232"/>
<path d="M348.66 115.87L349.164 110.422C349.219 109.856 349.479 109.33 349.894 108.945C350.309 108.559 350.85 108.342 351.414 108.333L368.649 108.07C369.172 108.064 369.677 108.258 370.064 108.614C370.45 108.97 370.687 109.46 370.728 109.986L371.169 115.861C369.726 118.946 367.286 121.444 364.248 122.943C359.181 125.422 351.306 125.504 351.306 125.504L348.66 115.87Z" fill="#16181B"/>
<path d="M353.168 108.379C353.222 108.379 352.97 108.733 352.862 109.287C352.764 110.089 352.764 110.9 352.862 111.702C353.013 112.871 353.013 114.056 352.862 115.225C352.552 114.086 352.394 112.91 352.394 111.729C352.273 110.888 352.31 110.032 352.502 109.205C352.799 108.579 353.141 108.333 353.168 108.379Z" fill="#012232"/>
<path d="M357.299 115.116C356.998 114.004 356.852 112.855 356.867 111.702C356.8 110.886 356.8 110.066 356.867 109.251C356.957 108.597 357.218 108.261 357.272 108.343C357.326 108.424 357.191 108.724 357.2 109.323C357.209 109.922 357.299 110.776 357.299 111.684C357.45 112.823 357.45 113.977 357.299 115.116Z" fill="#012232"/>
<path d="M362.474 114.971C362.101 113.911 361.874 112.805 361.799 111.684C361.576 110.573 361.507 109.436 361.592 108.306C361.968 109.374 362.195 110.489 362.267 111.62C362.486 112.723 362.555 113.85 362.474 114.971Z" fill="#012232"/>
<path d="M366.938 115.316C366.527 114.149 366.308 112.922 366.29 111.684C366.117 110.449 366.148 109.195 366.38 107.97C366.616 109.167 366.742 110.382 366.758 111.602C366.933 112.832 366.993 114.075 366.938 115.316Z" fill="#012232"/>
<g opacity="0.3">
<path d="M370.358 136.118C369.665 142.229 370.124 152.762 372.266 158.528L382.328 141.757L370.358 136.118Z" fill="black"/>
</g>
<path d="M382.392 120.228L382.446 120.283C385.299 123.304 387.386 126.977 388.53 130.988L390.384 139.514L370.584 142.601C369.494 138.985 369.235 135.165 369.828 131.433C370.8 125.004 382.392 120.228 382.392 120.228Z" fill="#16181B"/>
<path d="M390.384 139.514C390.255 139.56 390.122 139.593 389.988 139.614L388.854 139.823L384.615 140.522L370.269 142.719H370.017V142.456C369.972 141.248 369.936 139.995 369.909 138.706C369.864 135.356 369.909 132.15 370.107 129.236C370.244 126.624 371.037 124.09 372.411 121.872C373.334 120.38 374.6 119.134 376.101 118.24C376.505 117.997 376.934 117.796 377.379 117.64C377.527 117.572 377.685 117.526 377.847 117.504C377.847 117.504 377.217 117.749 376.191 118.412C374.762 119.335 373.564 120.578 372.69 122.044C371.386 124.248 370.644 126.744 370.53 129.308C370.323 132.196 370.332 135.392 370.386 138.742C370.386 140.014 370.449 141.276 370.476 142.474L370.215 142.247L384.615 140.204L388.872 139.65L390.024 139.514C390.143 139.498 390.264 139.498 390.384 139.514Z" fill="#012232"/>
<path d="M348.559 126.993C347.552 126.401 346.626 125.677 345.805 124.841C344.881 124.121 344.057 123.278 343.357 122.335C345.29 123.646 347.039 125.213 348.559 126.993Z" fill="#FAFAFA"/>
<path d="M345.887 137.498C345.181 138.23 344.363 138.843 343.466 139.314C342.642 139.917 341.731 140.388 340.766 140.713C342.293 139.388 344.014 138.31 345.869 137.517L345.887 137.498Z" fill="#FAFAFA"/>
<path d="M356.931 140.086C356.771 138.796 356.771 137.49 356.931 136.2C356.937 134.903 357.094 133.61 357.399 132.35C357.556 133.637 357.556 134.94 357.399 136.227C357.395 137.528 357.238 138.823 356.931 140.086Z" fill="#FAFAFA"/>
<path d="M367.666 150.592C366.771 149.744 365.935 148.833 365.164 147.868C364.28 147.017 363.453 146.107 362.689 145.144C363.769 145.776 364.724 146.604 365.506 147.586C366.397 148.451 367.128 149.469 367.666 150.592Z" fill="#FAFAFA"/>
<path d="M369.18 128.627C368.407 129.438 367.526 130.135 366.561 130.697C365.677 131.384 364.705 131.946 363.672 132.368C364.446 131.556 365.331 130.859 366.3 130.298C367.183 129.615 368.151 129.053 369.18 128.627Z" fill="#FAFAFA"/>
<path d="M359.478 120.682C358.624 121.52 357.661 122.238 356.616 122.816C355.658 123.532 354.611 124.118 353.502 124.559C354.357 123.72 355.32 122.999 356.364 122.417C357.326 121.71 358.372 121.127 359.478 120.682Z" fill="#FAFAFA"/>
<path d="M368.225 123.842C367.635 122.963 367.175 122.003 366.857 120.991C366.414 120.029 366.111 119.008 365.957 117.958C366.554 118.836 367.015 119.801 367.325 120.818C367.773 121.775 368.077 122.794 368.225 123.842Z" fill="#FAFAFA"/>
<path d="M380.258 127.828C378.819 126.821 377.57 125.564 376.568 124.115C377.331 124.554 378.01 125.126 378.575 125.803C379.253 126.37 379.824 127.056 380.258 127.828Z" fill="#FAFAFA"/>
<path d="M375.299 136.681C375.013 135.784 374.882 134.844 374.912 133.903C374.778 132.973 374.805 132.026 374.993 131.106C375.406 132.934 375.51 134.819 375.299 136.681Z" fill="#FAFAFA"/>
<path d="M385.298 134.847C384.251 135.015 383.182 134.978 382.148 134.738C381.094 134.651 380.065 134.365 379.115 133.894C380.161 133.905 381.202 134.033 382.22 134.275C383.264 134.355 384.295 134.546 385.298 134.847Z" fill="#FAFAFA"/>
<path d="M344.979 153.143C344.245 152.118 343.64 151.005 343.179 149.829C342.576 148.719 342.11 147.539 341.793 146.315C342.527 147.34 343.132 148.453 343.593 149.629C344.198 150.738 344.664 151.918 344.979 153.143Z" fill="#FAFAFA"/>
<path d="M358.2 167.471C357.354 166.696 356.618 165.807 356.013 164.829C355.29 163.937 354.685 162.954 354.213 161.905C355.06 162.681 355.799 163.57 356.409 164.548C357.135 165.435 357.738 166.419 358.2 167.471Z" fill="#FAFAFA"/>
<path d="M369.126 161.46C368.199 162.07 367.194 162.546 366.138 162.877C365.137 163.353 364.073 163.681 362.979 163.848C364.904 162.76 366.974 161.955 369.126 161.46Z" fill="#FAFAFA"/>
<path d="M342.207 173.065C342.639 171.352 343.367 169.729 344.358 168.271C344.206 169.15 343.901 169.995 343.458 170.768C343.178 171.601 342.754 172.379 342.207 173.065Z" fill="#FAFAFA"/>
<path d="M333.737 132.032C333.216 131.367 332.903 130.561 332.837 129.717C332.625 128.898 332.662 128.035 332.945 127.238C333.13 128.026 333.25 128.827 333.305 129.635C333.513 130.421 333.657 131.223 333.737 132.032Z" fill="#FAFAFA"/>
<path d="M348.777 163.876C347.816 163.62 346.904 163.206 346.077 162.65C345.18 162.239 344.354 161.688 343.629 161.016C344.588 161.275 345.5 161.689 346.329 162.241C347.222 162.659 348.047 163.21 348.777 163.876Z" fill="#FAFAFA"/>
<path d="M357.461 148.749C355.985 150.532 354.271 152.099 352.367 153.407C353.05 152.467 353.855 151.624 354.761 150.9C355.56 150.062 356.468 149.338 357.461 148.749Z" fill="#FAFAFA"/>
<g opacity="0.3">
<path d="M352.143 148.467C352.579 151.632 353.978 154.583 356.148 156.911C358.398 159.127 361.881 160.244 364.806 159.091C365.125 159.002 365.419 158.837 365.662 158.609C365.905 158.382 366.089 158.098 366.201 157.783C366.25 157.396 366.165 157.003 365.96 156.672C365.755 156.341 365.442 156.092 365.076 155.967C364.346 155.731 363.582 155.62 362.817 155.64C360.634 155.496 358.524 154.791 356.688 153.593C354.851 152.395 353.349 150.743 352.323 148.794" fill="black"/>
</g>
<path d="M363.842 155.786C363.842 155.786 363.635 155.858 363.239 155.894C362.682 155.951 362.121 155.951 361.565 155.894C360.738 155.797 359.925 155.601 359.144 155.313C357.214 154.613 355.501 153.414 354.176 151.836C353.638 151.196 353.175 150.495 352.799 149.747C352.533 149.249 352.325 148.722 352.178 148.176C352.105 147.982 352.066 147.776 352.061 147.568C352.151 147.568 352.394 148.385 353.087 149.584C353.492 150.283 353.965 150.94 354.5 151.545C355.161 152.281 355.901 152.942 356.705 153.516C357.517 154.071 358.386 154.537 359.297 154.905C360.044 155.201 360.819 155.42 361.61 155.559C362.969 155.758 363.842 155.695 363.842 155.786Z" fill="#012232"/>
<path d="M314.297 170.422L327.329 168.888L336.518 174.962L371.618 166.464L372.446 142.202L388.043 140.132V169.505C387.955 173.071 386.47 176.457 383.912 178.92C381.355 181.383 377.933 182.722 374.399 182.644L322.955 181.2L320.768 176.788L309.725 176.452L314.297 170.422Z" fill="#FFBE9D"/>
<path d="M371.205 166.418C370.989 166.505 370.766 166.575 370.539 166.627L368.631 167.126L361.584 168.888L338.292 174.581L336.123 175.108H336.033H335.961L326.781 169.015H326.907L313.866 170.541L313.956 170.486L310.5 174.908L309.6 176.07C309.5 176.209 309.385 176.337 309.258 176.452C309.342 176.303 309.435 176.161 309.537 176.025L310.437 174.826L313.785 170.341H313.839L326.862 168.697H326.934H326.988L336.186 174.763H336.024L338.193 174.236L361.512 168.661L368.595 167.017L370.521 166.591C370.744 166.515 370.973 166.458 371.205 166.418Z" fill="#EB996E"/>
<path d="M321.417 174.191C319.736 174.389 318.042 174.456 316.35 174.39H315.45L315.576 174.345C314.558 175.289 313.459 176.14 312.291 176.887C313.219 175.854 314.23 174.9 315.315 174.036L315.369 173.982H316.368C318.054 173.912 319.743 173.982 321.417 174.191Z" fill="#EB996E"/>
<path d="M377.676 170.386C377.005 169.318 376.134 168.393 375.111 167.662C374.026 167.043 372.829 166.648 371.592 166.5C371.956 166.373 372.346 166.341 372.726 166.409C373.645 166.507 374.529 166.818 375.31 167.317C376.09 167.816 376.746 168.491 377.226 169.287C377.469 169.607 377.624 169.986 377.676 170.386Z" fill="#EB996E"/>
<path d="M152.594 364.353H93.8242V372.498H152.594V364.353Z" fill="#012232"/>
<path d="M152.695 372.607H93.7266V364.253H152.695V372.607ZM93.9246 372.398H152.497V364.453H93.9246V372.398Z" fill="#012232"/>
<path d="M99.2793 369.792L107.73 411.896H139.032L147.213 372.507L99.2793 369.792Z" fill="#012232"/>
<path d="M99.2793 407.91L103.788 414.175H141.831L147.213 407.91H99.2793Z" fill="#455A64"/>
<path d="M121.005 371.018C120.888 371.018 120.744 351.514 120.672 327.434C120.6 303.354 120.672 283.85 120.762 283.85C120.852 283.85 121.023 303.354 121.095 327.434C121.167 351.514 121.122 371.018 121.005 371.018Z" fill="#012232"/>
<path d="M134.1 322.204C134.061 322.36 134.006 322.512 133.938 322.658C133.803 322.994 133.623 323.411 133.416 323.92C133.299 324.201 133.173 324.501 133.029 324.828C132.885 325.155 132.777 325.545 132.642 325.936L132.183 327.207C132.03 327.661 131.904 328.115 131.751 328.66C131.052 331.044 130.502 333.47 130.104 335.924C129.652 338.933 129.352 341.964 129.204 345.004C128.991 350.535 129.148 356.074 129.672 361.584C129.861 363.709 130.05 365.416 130.194 366.596C130.248 367.15 130.302 367.604 130.338 367.958C130.35 368.118 130.35 368.279 130.338 368.439C130.281 368.287 130.245 368.129 130.23 367.967C130.167 367.613 130.095 367.168 130.005 366.623C129.816 365.443 129.573 363.736 129.348 361.62C128.736 356.098 128.54 350.537 128.763 344.986C128.896 341.929 129.197 338.883 129.663 335.86C130.079 333.401 130.662 330.974 131.409 328.596C131.571 328.088 131.706 327.597 131.868 327.152L132.354 325.881L132.786 324.783C132.93 324.447 133.074 324.156 133.2 323.875L133.803 322.64C133.878 322.479 133.978 322.332 134.1 322.204Z" fill="#012232"/>
<path d="M132.597 306.432C132.547 306.65 132.484 306.866 132.408 307.077C132.255 307.521 132.048 308.13 131.796 308.893L131.346 310.2C131.202 310.69 131.04 311.217 130.869 311.78C130.527 312.906 130.131 314.186 129.78 315.63L129.186 317.891C129.006 318.681 128.826 319.507 128.637 320.352C128.223 322.049 127.926 323.893 127.548 325.8C126.9 329.668 126.333 333.972 125.937 338.466C125.541 342.961 125.406 347.31 125.352 351.242C125.298 355.173 125.352 358.715 125.55 361.684C125.595 363.173 125.694 364.508 125.766 365.688C125.838 366.868 125.91 367.885 125.982 368.712C126.054 369.538 126.09 370.146 126.126 370.627C126.138 370.848 126.138 371.07 126.126 371.29C126.068 371.077 126.032 370.858 126.018 370.637C125.964 370.155 125.892 369.529 125.793 368.73C125.694 367.931 125.595 366.914 125.505 365.706C125.415 364.498 125.298 363.191 125.226 361.702C125.028 358.724 124.947 355.182 124.938 351.242C124.929 347.301 125.118 342.97 125.496 338.439C125.874 333.908 126.477 329.613 127.143 325.727C127.53 323.793 127.845 321.95 128.268 320.279C128.466 319.425 128.664 318.599 128.844 317.809L129.465 315.557C129.834 314.114 130.257 312.833 130.626 311.707C130.806 311.144 130.977 310.627 131.13 310.137C131.283 309.646 131.463 309.229 131.616 308.838L132.3 307.022C132.376 306.815 132.476 306.617 132.597 306.432Z" fill="#012232"/>
<path d="M117.289 374.468C117.279 374.393 117.279 374.317 117.289 374.241C117.289 374.069 117.289 373.851 117.235 373.569C117.19 372.952 117.136 372.089 117.064 370.991C116.92 368.712 116.722 365.479 116.47 361.484C115.966 353.466 115.228 342.416 113.887 330.203C113.203 324.102 112.411 318.318 111.583 313.069C111.151 310.454 110.755 307.966 110.296 305.642C109.837 303.317 109.396 301.166 109.036 299.195C108.676 297.225 108.217 295.463 107.866 293.911C107.515 292.358 107.2 291.014 106.966 289.924C106.732 288.835 106.507 288.018 106.354 287.409C106.3 287.146 106.246 286.928 106.21 286.756C106.196 286.681 106.196 286.604 106.21 286.529C106.247 286.597 106.274 286.67 106.291 286.746L106.471 287.391C106.642 287.99 106.867 288.826 107.164 289.888C107.461 290.951 107.812 292.294 108.181 293.856C108.55 295.418 109 297.17 109.405 299.141C109.81 301.111 110.305 303.254 110.719 305.578C111.133 307.903 111.619 310.391 112.051 313.015C112.897 318.263 113.698 324.056 114.382 330.149C115.723 342.352 116.416 353.439 116.848 361.466C117.064 365.488 117.217 368.73 117.307 370.982C117.307 372.08 117.379 372.943 117.397 373.569C117.397 373.842 117.397 374.069 117.397 374.241C117.372 374.322 117.336 374.399 117.289 374.468Z" fill="#012232"/>
<path d="M120.528 293.284C120.267 290.56 117.504 288.435 114.75 288.408C113.372 288.469 112.027 288.846 110.815 289.51C109.603 290.174 108.557 291.107 107.757 292.24C106.172 294.519 105.028 297.079 104.382 299.785C102.528 306.296 101.52 313.133 102.312 319.861C103.104 326.589 105.804 333.209 110.592 337.958C111.366 338.739 112.392 339.51 113.445 339.274C114.014 339.106 114.532 338.794 114.948 338.366C119.634 334.037 123.348 328.747 125.841 322.851C128.334 316.955 129.548 310.589 129.402 304.18C129.33 301.629 128.997 298.959 127.602 296.834C126.207 294.71 122.922 292.44 120.537 293.293" fill="#16181B"/>
<path d="M99.9819 271.129L96.1119 278.211C96.0219 278.375 95.9049 278.565 95.7159 278.574C95.5269 278.583 95.3559 278.402 95.2479 278.229L85.0059 262.412L87.3639 261.059L99.9819 271.129Z" fill="#16181B"/>
<g opacity="0.2">
<path d="M99.9819 271.129L96.1119 278.211C96.0219 278.375 95.9049 278.565 95.7159 278.574C95.5269 278.583 95.3559 278.402 95.2479 278.229L85.0059 262.412L87.3639 261.059L99.9819 271.129Z" fill="black"/>
</g>
<path d="M120.762 283.886L85.824 263.084C85.6251 263.007 85.4433 262.891 85.2888 262.743C85.1344 262.595 85.0104 262.418 84.924 262.221C84.789 261.704 85.176 261.195 85.545 260.805C87.949 258.291 90.8612 256.33 94.0836 255.053C97.306 253.776 100.763 253.214 104.22 253.405C107.675 253.655 111.018 254.751 113.96 256.598C116.902 258.444 119.354 260.985 121.104 264.001C124.47 270.076 124.587 278.12 120.717 283.886" fill="#16181B"/>
<path d="M90.9004 256.447C91.0497 256.405 91.2045 256.387 91.3594 256.392C91.6564 256.392 92.1064 256.319 92.6824 256.328C94.3045 256.306 95.9253 256.434 97.5244 256.71C99.9067 257.122 102.229 257.833 104.436 258.825C108.247 260.555 111.631 263.114 114.346 266.317C117.061 269.521 119.04 273.292 120.141 277.358C120.592 278.936 120.894 280.553 121.041 282.188C121.113 282.76 121.095 283.214 121.113 283.523C121.129 283.677 121.129 283.832 121.113 283.986C121.113 283.986 121.032 283.351 120.888 282.17C120.689 280.557 120.361 278.963 119.907 277.403C118.442 272.227 115.568 267.57 111.612 263.958C107.656 260.347 102.775 257.927 97.5244 256.973C95.9419 256.67 94.3377 256.497 92.7274 256.456C91.4944 256.465 90.9004 256.483 90.9004 256.447Z" fill="#012232"/>
<path d="M116.028 269.531C115.465 269.877 114.86 270.149 114.228 270.339C113.112 270.784 111.528 271.347 109.818 271.91C108.108 272.473 106.488 272.909 105.318 273.199C104.697 273.39 104.057 273.512 103.41 273.562C103.986 273.281 104.589 273.062 105.21 272.909L109.656 271.501L114.093 270.057C114.719 269.818 115.367 269.641 116.028 269.531Z" fill="#012232"/>
<path d="M110.528 254.621C110.841 255.907 110.98 257.23 110.942 258.553C111.045 259.874 110.972 261.202 110.726 262.503C110.558 261.197 110.491 259.879 110.528 258.562C110.425 257.251 110.425 255.933 110.528 254.621Z" fill="#012232"/>
<path d="M85.5 262.694C86.3174 262.315 87.1668 262.011 88.038 261.786C89.622 261.286 91.836 260.66 94.338 260.06C96.84 259.461 99.054 259.007 100.638 258.716C101.526 258.516 102.429 258.395 103.338 258.353C102.484 258.63 101.612 258.849 100.728 259.007C99.108 259.37 96.876 259.915 94.428 260.478C91.98 261.041 89.757 261.649 88.128 262.067C87.2667 262.334 86.3888 262.544 85.5 262.694Z" fill="#012232"/>
<path d="M104.652 286.728C101.646 284.431 98.4691 284.004 94.6981 284.122C90.9265 284.365 87.2331 285.316 83.8081 286.928C77.9131 289.525 72.3781 293.366 68.8591 298.796C65.3401 304.226 64.1071 311.417 66.7441 317.337C66.9516 317.956 67.3777 318.476 67.9411 318.799C68.5956 318.983 69.2935 318.928 69.9121 318.645C76.6171 316.438 83.3581 314.213 89.5231 310.763C95.6881 307.313 101.295 302.509 104.598 296.235C105.444 294.771 105.989 293.149 106.2 291.468C106.29 290.617 106.2 289.757 105.934 288.944C105.669 288.132 105.235 287.386 104.661 286.756" fill="#16181B"/>
<path d="M104.706 286.02C104.556 286.106 104.396 286.174 104.229 286.22L102.825 286.71L101.808 287.046C101.439 287.182 101.043 287.346 100.62 287.518C99.7745 287.863 98.8205 288.208 97.7495 288.717L96.1115 289.47C95.5355 289.734 94.9685 290.061 94.3655 290.378C93.1505 290.978 91.9265 291.75 90.6125 292.53C85.0001 296.041 80.0059 300.469 75.8345 305.633C74.9345 306.84 73.9895 307.975 73.2425 309.12C72.8555 309.683 72.4685 310.209 72.1265 310.745L71.2265 312.288C70.5965 313.26 70.1285 314.204 69.6785 315.012C69.4625 315.412 69.2465 315.784 69.0665 316.138C68.8865 316.493 68.7425 316.81 68.6075 317.11L67.9415 318.454C67.8787 318.616 67.7939 318.769 67.6895 318.908C67.7333 318.739 67.7936 318.575 67.8695 318.417L68.4545 317.037C68.5895 316.738 68.7335 316.411 68.8865 316.048C69.0395 315.684 69.2645 315.312 69.4715 314.903C69.9035 314.077 70.3715 313.088 70.9655 312.134C71.2715 311.635 71.5775 311.108 71.8655 310.563C72.1535 310.018 72.5855 309.492 72.9635 308.92C73.7015 307.758 74.6105 306.613 75.5375 305.388C77.635 302.786 79.9343 300.357 82.4135 298.124C84.9202 295.927 87.599 293.938 90.4235 292.176C91.7465 291.395 92.9885 290.633 94.2125 290.042C94.8245 289.734 95.4005 289.416 96.0125 289.134L97.6775 288.408C98.7305 287.909 99.7205 287.582 100.584 287.255C101.016 287.101 101.412 286.946 101.79 286.819L102.816 286.51L104.247 286.102C104.398 286.063 104.552 286.036 104.706 286.02Z" fill="#012232"/>
<path d="M81.2342 298.841C78.8414 299.761 76.402 300.552 73.9262 301.211C71.4877 302.011 69.0056 302.669 66.4922 303.181C68.885 302.262 71.3244 301.47 73.8002 300.811C76.2402 300.016 78.722 299.359 81.2342 298.841Z" fill="#012232"/>
<path d="M80.9281 315.076C80.8053 314.317 80.7511 313.548 80.7661 312.779C80.7661 311.362 80.7661 309.392 80.7661 307.231C80.7661 305.07 80.9461 303.1 81.0631 301.683C81.0814 300.912 81.1779 300.146 81.3511 299.395C81.4117 300.162 81.4117 300.934 81.3511 301.701C81.2971 303.254 81.2431 305.143 81.1801 307.24C81.1171 309.337 81.0811 311.226 81.0361 312.779C81.0698 313.546 81.0336 314.315 80.9281 315.076Z" fill="#012232"/>
<path d="M94.7529 308.012C94.6359 308.012 94.2669 304.026 93.9339 299.095C93.6009 294.165 93.4119 290.161 93.5289 290.161C93.6459 290.161 94.0059 294.138 94.3479 299.068C94.6899 303.998 94.8699 308.003 94.7529 308.012Z" fill="#012232"/>
<path d="M77.5527 289.77C78.3287 289.671 79.1122 289.647 79.8927 289.697C81.3327 289.697 83.3307 289.752 85.5357 289.825C87.7407 289.897 89.7297 289.988 91.1697 290.07C91.9516 290.08 92.7313 290.156 93.5007 290.297C92.7248 290.396 91.9413 290.42 91.1607 290.369C89.7207 290.369 87.7227 290.324 85.5177 290.242C83.3127 290.16 81.3237 290.079 79.8747 289.997C79.0958 289.988 78.3189 289.912 77.5527 289.77Z" fill="#012232"/>
<path d="M112.095 339.846C112.055 339.686 112.036 339.521 112.041 339.356C112.041 339.002 112.041 338.539 111.978 337.976C111.924 336.768 111.915 335.034 111.978 332.873C112.041 330.712 112.158 328.16 112.41 325.327C112.662 322.494 113.076 319.38 113.643 316.138C114.21 312.897 114.912 309.855 115.623 307.058C116.334 304.262 117.108 301.856 117.81 299.794C118.512 297.733 119.106 296.162 119.61 295.018C119.826 294.492 119.997 294.11 120.141 293.738C120.196 293.587 120.265 293.441 120.348 293.302C120.328 293.463 120.282 293.619 120.213 293.765L119.7 295.1C119.286 296.226 118.719 297.824 118.062 299.912C117.405 302.001 116.685 304.452 115.974 307.176C115.263 309.9 114.597 312.97 114.021 316.202C113.445 319.434 113.058 322.558 112.77 325.346C112.482 328.133 112.32 330.721 112.248 332.864C112.176 335.007 112.131 336.75 112.131 337.958C112.131 338.521 112.131 338.975 112.131 339.338C112.13 339.508 112.118 339.678 112.095 339.846Z" fill="#012232"/>
<path d="M113.932 315.793C113.523 316.357 113.055 316.875 112.537 317.337C111.637 318.245 110.35 319.462 108.892 320.76C107.434 322.059 106.057 323.175 105.04 323.965C104.519 324.422 103.952 324.821 103.348 325.155C103.806 324.632 104.312 324.155 104.86 323.729L108.613 320.442L112.339 317.119C112.827 316.627 113.36 316.183 113.932 315.793Z" fill="#012232"/>
<path d="M124.992 324.773C124.445 324.123 123.948 323.431 123.507 322.703L120.06 317.618L116.532 312.588C116.009 311.917 115.537 311.206 115.119 310.463C115.728 311.057 116.28 311.707 116.766 312.406C117.738 313.65 119.034 315.394 120.366 317.382C121.698 319.371 122.904 321.196 123.723 322.54C124.214 323.243 124.639 323.99 124.992 324.773Z" fill="#012232"/>
<path d="M119.195 296.507C119.258 296.607 115.595 299.104 110.996 302.083C106.397 305.061 102.626 307.403 102.563 307.304C102.5 307.204 106.163 304.707 110.771 301.728C115.379 298.75 119.141 296.417 119.195 296.507Z" fill="#012232"/>
<path d="M129.599 307.812C127.66 306.183 125.806 304.452 124.046 302.627C122.193 300.911 120.435 299.092 118.781 297.179C120.728 298.804 122.584 300.535 124.343 302.364C126.198 304.077 127.953 305.896 129.599 307.812Z" fill="#012232"/>
<path d="M132.166 307.567L135.316 307.304C137.556 307.118 139.73 306.446 141.688 305.333C142.646 304.77 143.638 304.266 144.658 303.826C148.555 302.255 152.911 302.537 157.105 302.319C163.977 301.969 170.709 300.234 176.905 297.216C177.277 297.05 177.591 296.775 177.805 296.426C178.453 295.236 177.247 294.174 176.212 293.529C170.893 290.224 165.484 286.883 159.463 285.239C153.442 283.596 146.593 283.877 141.463 287.446C135.433 291.641 133.228 300.248 132.211 307.567" fill="#16181B"/>
<path d="M177.83 296.008C177.649 295.933 177.472 295.848 177.299 295.754L175.805 294.964C174.509 294.274 172.646 293.257 170.279 292.122C167.538 290.756 164.679 289.643 161.738 288.799C158.142 287.755 154.375 287.447 150.659 287.891C146.938 288.308 143.423 289.831 140.561 292.267C138.326 294.363 136.537 296.896 135.305 299.713C134.198 302.101 133.505 304.135 133.019 305.515L132.452 307.122C132.397 307.313 132.324 307.498 132.236 307.676C132.262 307.478 132.307 307.283 132.371 307.095C132.497 306.686 132.659 306.141 132.857 305.469C133.458 303.486 134.173 301.539 134.999 299.64C136.212 296.758 138.008 294.163 140.273 292.022C143.176 289.5 146.763 287.918 150.569 287.482C154.336 287.023 158.155 287.331 161.801 288.39C164.759 289.266 167.63 290.415 170.378 291.822C172.727 293.003 174.572 294.056 175.85 294.791L177.308 295.654C177.496 295.749 177.672 295.868 177.83 296.008Z" fill="#012232"/>
<path d="M170.261 300.139C170.198 300.23 166.067 297.543 161.045 294.128C156.023 290.714 152 287.863 152.045 287.772C152.09 287.682 156.23 290.369 161.252 293.783C166.274 297.198 170.324 300.04 170.261 300.139Z" fill="#012232"/>
<path d="M166.302 287.364C164.2 288.03 161.982 288.238 159.795 287.972C160.865 287.748 161.952 287.62 163.044 287.591C164.121 287.421 165.211 287.345 166.302 287.364Z" fill="#012232"/>
<path d="M147.807 284.022C147.02 285.902 145.988 287.667 144.738 289.271C145.06 288.304 145.515 287.387 146.088 286.547C146.54 285.627 147.118 284.777 147.807 284.022Z" fill="#012232"/>
<path d="M151.498 302.591C150.802 302.299 150.138 301.933 149.518 301.501C148.321 300.775 146.71 299.685 145.018 298.441C143.326 297.198 141.787 295.99 140.689 295.118C140.074 294.68 139.501 294.184 138.979 293.638C139.647 293.99 140.28 294.406 140.869 294.882L145.27 298.106C146.98 299.359 148.555 300.457 149.707 301.256C150.341 301.648 150.94 302.094 151.498 302.591Z" fill="#012232"/>
<path d="M136.8 321.087C133.794 320.279 130.203 323.23 129.6 326.308C128.997 329.386 130.131 332.528 131.463 335.388C134.329 341.739 138.581 347.354 143.901 351.814C149.266 356.253 155.962 358.733 162.9 358.851C161.631 352.894 163.233 346.665 162.531 340.609C161.904 335.275 159.502 330.313 155.717 326.534C151.932 322.755 146.989 320.384 141.696 319.807C139.779 319.598 137.556 319.298 136.791 321.087" fill="#16181B"/>
<path d="M162.899 358.851C162.748 358.8 162.603 358.733 162.467 358.651C162.073 358.427 161.697 358.172 161.342 357.888C160.082 356.781 159.069 355.416 158.372 353.884C157.895 352.976 157.355 351.923 156.833 350.788C156.311 349.653 155.789 348.454 155.213 347.156C154.636 345.826 153.971 344.537 153.224 343.297C152.423 341.975 151.52 340.718 150.524 339.538C148.472 337.104 146.258 334.998 144.341 332.973C142.608 331.211 141.03 329.3 139.625 327.261C138.684 325.88 137.911 324.389 137.321 322.821C137.132 322.267 136.988 321.823 136.916 321.523C136.866 321.373 136.836 321.217 136.826 321.06C136.826 321.06 137.033 321.677 137.474 322.767C138.116 324.293 138.919 325.745 139.868 327.098C141.3 329.092 142.889 330.965 144.62 332.7C146.546 334.698 148.769 336.805 150.848 339.265C151.867 340.461 152.791 341.736 153.611 343.079C154.355 344.34 155.02 345.647 155.6 346.992L157.184 350.624C157.688 351.75 158.21 352.785 158.678 353.721C159.335 355.239 160.29 356.607 161.486 357.743C162.35 358.524 162.944 358.814 162.899 358.851Z" fill="#012232"/>
<path d="M147.357 353.902C147.375 353.213 147.469 352.528 147.636 351.859C147.87 350.606 148.257 348.89 148.779 347.019C149.301 345.149 149.859 343.487 150.309 342.298C150.506 341.637 150.781 341.003 151.128 340.409C151.007 341.084 150.826 341.746 150.588 342.389C150.21 343.605 149.688 345.276 149.184 347.137C148.68 348.999 148.284 350.688 147.924 351.923C147.8 352.6 147.61 353.263 147.357 353.902Z" fill="#012232"/>
<path d="M162.351 339.274C161.631 339.168 160.92 339 160.227 338.775C158.931 338.439 157.14 337.967 155.151 337.513C153.162 337.059 151.344 336.714 150.03 336.459C149.31 336.366 148.599 336.208 147.906 335.987C148.634 335.969 149.361 336.03 150.075 336.169C151.407 336.341 153.243 336.65 155.241 337.077C157.239 337.504 159.03 338.048 160.308 338.466C161.015 338.663 161.7 338.934 162.351 339.274Z" fill="#012232"/>
<path d="M136.197 343.524C136.231 342.725 136.34 341.932 136.521 341.154C136.791 339.71 137.205 337.712 137.772 335.542C138.339 333.372 138.933 331.42 139.401 330.022C139.632 329.254 139.934 328.509 140.301 327.797C140.171 328.583 139.978 329.357 139.725 330.113C139.329 331.529 138.771 333.481 138.213 335.642C137.655 337.803 137.187 339.792 136.854 341.217C136.701 342.004 136.481 342.775 136.197 343.524Z" fill="#012232"/>
<path d="M155.448 326.526C155.448 326.635 151.677 326.335 147.06 325.836C142.443 325.336 138.699 324.846 138.717 324.737C141.523 324.819 144.322 325.046 147.105 325.418C149.903 325.644 152.687 326.014 155.448 326.526Z" fill="#012232"/>
<path d="M152.695 372.471C152.695 372.589 139.492 372.68 123.211 372.68C106.93 372.68 93.7266 372.589 93.7266 372.471C93.7266 372.353 106.93 372.262 123.211 372.262C139.492 372.262 152.695 372.353 152.695 372.471Z" fill="#455A64"/>
<path d="M143.514 389.605C143.514 389.723 134.613 389.823 123.642 389.823C112.671 389.823 103.779 389.723 103.779 389.605C103.779 389.487 112.671 389.396 123.642 389.396C134.613 389.396 143.514 389.532 143.514 389.605Z" fill="#455A64"/>
<path d="M143.857 392.056C143.857 392.174 134.965 392.265 123.994 392.265C113.023 392.265 104.131 392.174 104.131 392.056C104.131 391.938 113.023 391.847 123.994 391.847C134.965 391.847 143.857 391.938 143.857 392.056Z" fill="#455A64"/>
<path d="M143.856 387.589C143.856 387.707 134.658 387.798 123.309 387.798C111.96 387.798 102.762 387.707 102.762 387.589C102.762 387.471 111.96 387.38 123.309 387.38C134.658 387.38 143.856 387.471 143.856 387.589Z" fill="#455A64"/>
</svg>
