<svg xmlns="http://www.w3.org/2000/svg" version="1.1" xmlns:xlink="http://www.w3.org/1999/xlink" xmlns:svgjs="http://svgjs.dev/svgjs" width="1500" height="253" viewBox="0 0 1500 253"><g transform="matrix(1,0,0,1,-0.9090909090909918,0.757305874147093)"><svg viewBox="0 0 396 67" data-background-color="#ffffff" preserveAspectRatio="xMidYMid meet" height="253" width="1500" xmlns="http://www.w3.org/2000/svg" xmlns:xlink="http://www.w3.org/1999/xlink"><g id="tight-bounds" transform="matrix(1,0,0,1,0.2400000000000091,-0.2005513579757121)"><svg viewBox="0 0 395.52 67.40109511310742" height="67.40109511310742" width="395.52"><g><svg viewBox="0 0 494.10437185797446 84.20099050212767" height="67.40109511310742" width="395.52"><g transform="matrix(1,0,0,1,98.58437185797449,11.637039931914899)"><svg viewBox="0 0 395.52 60.92691063829787" height="60.92691063829787" width="395.52"><g id="textblocktransform"><svg viewBox="0 0 395.52 60.92691063829787" height="60.92691063829787" width="395.52" id="textblock"><g><svg viewBox="0 0 395.52 60.92691063829787" height="60.92691063829787" width="395.52"><g transform="matrix(1,0,0,1,0,0)"><svg width="395.52" viewBox="1.15 -35.6 235.93 36.2" height="60.92691063829787" data-palette-color="#000000"><g class="wordmark-text-0" data-fill-palette-color="primary" id="text-0"><path d="M13.05 0L8.1 0 1.15-32.8 5.45-32.8 8.9-14.95Q9.35-12.25 9.85-9.65 10.35-7.05 10.8-4.35L10.8-4.35 11-4.35Q11.55-7.05 12.15-9.68 12.75-12.3 13.3-14.95L13.3-14.95 17.85-32.8 21.65-32.8 26.2-14.95Q26.8-12.35 27.4-9.7 28-7.05 28.6-4.35L28.6-4.35 28.8-4.35Q29.25-7.05 29.7-9.68 30.15-12.3 30.65-14.95L30.65-14.95 34.1-32.8 38.1-32.8 31.3 0 26.3 0 21.35-19.75Q20.9-21.65 20.53-23.48 20.15-25.3 19.75-27.2L19.75-27.2 19.55-27.2Q19.15-25.3 18.73-23.48 18.3-21.65 17.9-19.75L17.9-19.75 13.05 0ZM49 0.6L49 0.6Q45.95 0.6 43.92-1.2 41.9-3 41.9-6.3L41.9-6.3Q41.9-10.3 45.45-12.43 49-14.55 56.8-15.4L56.8-15.4Q56.8-16.55 56.57-17.65 56.35-18.75 55.8-19.6 55.25-20.45 54.27-20.98 53.3-21.5 51.8-21.5L51.8-21.5Q49.7-21.5 47.85-20.7 46-19.9 44.55-18.9L44.55-18.9 42.95-21.75Q44.65-22.85 47.1-23.88 49.55-24.9 52.5-24.9L52.5-24.9Q56.95-24.9 58.95-22.18 60.95-19.45 60.95-14.9L60.95-14.9 60.95 0 57.55 0 57.2-2.9 57.05-2.9Q55.3-1.45 53.3-0.43 51.3 0.6 49 0.6ZM50.2-2.7L50.2-2.7Q51.95-2.7 53.5-3.53 55.05-4.35 56.8-5.95L56.8-5.95 56.8-12.7Q53.75-12.3 51.67-11.75 49.6-11.2 48.32-10.45 47.05-9.7 46.47-8.72 45.9-7.75 45.9-6.6L45.9-6.6Q45.9-4.5 47.15-3.6 48.4-2.7 50.2-2.7ZM78.65 0L73.84 0 65.09-24.3 69.34-24.3 73.95-10.5Q74.5-8.7 75.07-6.9 75.65-5.1 76.2-3.35L76.2-3.35 76.4-3.35Q76.95-5.1 77.5-6.9 78.05-8.7 78.59-10.5L78.59-10.5 83.2-24.3 87.25-24.3 78.65 0ZM101.79 0.6L101.79 0.6Q99.34 0.6 97.22-0.28 95.09-1.15 93.52-2.78 91.94-4.4 91.04-6.75 90.14-9.1 90.14-12.1L90.14-12.1Q90.14-15.1 91.07-17.48 91.99-19.85 93.52-21.5 95.04-23.15 96.99-24.03 98.94-24.9 101.04-24.9L101.04-24.9Q103.34-24.9 105.17-24.1 106.99-23.3 108.22-21.8 109.44-20.3 110.09-18.2 110.74-16.1 110.74-13.5L110.74-13.5Q110.74-12.85 110.72-12.23 110.69-11.6 110.59-11.15L110.59-11.15 94.19-11.15Q94.44-7.25 96.62-4.98 98.79-2.7 102.29-2.7L102.29-2.7Q104.04-2.7 105.52-3.23 106.99-3.75 108.34-4.6L108.34-4.6 109.79-1.9Q108.19-0.9 106.24-0.15 104.29 0.6 101.79 0.6ZM94.14-14.1L94.14-14.1 107.14-14.1Q107.14-17.8 105.57-19.73 103.99-21.65 101.14-21.65L101.14-21.65Q99.84-21.65 98.67-21.15 97.49-20.65 96.54-19.68 95.59-18.7 94.97-17.3 94.34-15.9 94.14-14.1ZM125.39 0L120.59 0 113.84-24.3 118.04-24.3 121.64-10.25Q122.04-8.5 122.39-6.85 122.74-5.2 123.09-3.5L123.09-3.5 123.29-3.5Q123.69-5.2 124.09-6.88 124.49-8.55 124.94-10.25L124.94-10.25 128.69-24.3 132.69-24.3 136.49-10.25Q136.94-8.5 137.37-6.85 137.79-5.2 138.19-3.5L138.19-3.5 138.39-3.5Q138.79-5.2 139.14-6.85 139.49-8.5 139.89-10.25L139.89-10.25 143.44-24.3 147.34-24.3 140.84 0 135.84 0 132.34-13.05Q131.89-14.8 131.51-16.5 131.14-18.2 130.69-20.05L130.69-20.05 130.49-20.05Q130.09-18.2 129.69-16.48 129.29-14.75 128.79-13L128.79-13 125.39 0ZM162.09 0.6L162.09 0.6Q159.84 0.6 157.81-0.25 155.79-1.1 154.24-2.73 152.69-4.35 151.76-6.73 150.84-9.1 150.84-12.1L150.84-12.1Q150.84-15.15 151.76-17.53 152.69-19.9 154.24-21.55 155.79-23.2 157.81-24.05 159.84-24.9 162.09-24.9L162.09-24.9Q164.34-24.9 166.36-24.05 168.39-23.2 169.94-21.55 171.49-19.9 172.41-17.53 173.34-15.15 173.34-12.1L173.34-12.1Q173.34-9.1 172.41-6.73 171.49-4.35 169.94-2.73 168.39-1.1 166.36-0.25 164.34 0.6 162.09 0.6ZM162.09-2.8L162.09-2.8Q163.64-2.8 164.94-3.48 166.24-4.15 167.16-5.38 168.09-6.6 168.59-8.3 169.09-10 169.09-12.1L169.09-12.1Q169.09-14.2 168.59-15.93 168.09-17.65 167.16-18.9 166.24-20.15 164.94-20.83 163.64-21.5 162.09-21.5L162.09-21.5Q160.54-21.5 159.24-20.83 157.94-20.15 157.01-18.9 156.09-17.65 155.59-15.93 155.09-14.2 155.09-12.1L155.09-12.1Q155.09-10 155.59-8.3 156.09-6.6 157.01-5.38 157.94-4.15 159.24-3.48 160.54-2.8 162.09-2.8ZM183.83 0L179.73 0 179.73-24.3 183.13-24.3 183.48-19.9 183.63-19.9Q184.88-22.2 186.66-23.55 188.44-24.9 190.53-24.9L190.53-24.9Q191.98-24.9 193.13-24.4L193.13-24.4 192.33-20.8Q191.73-21 191.23-21.1 190.73-21.2 189.98-21.2L189.98-21.2Q188.44-21.2 186.76-19.95 185.08-18.7 183.83-15.6L183.83-15.6 183.83 0ZM201.13 0L197.08 0 197.08-35.6 201.13-35.6 201.13-11.5 201.28-11.5 211.63-24.3 216.18-24.3 208.03-14.55 217.28 0 212.78 0 205.68-11.7 201.13-6.4 201.13 0ZM228.18 0.6L228.18 0.6Q225.58 0.6 223.23-0.35 220.88-1.3 219.13-2.75L219.13-2.75 221.18-5.5Q222.78-4.2 224.45-3.4 226.13-2.6 228.33-2.6L228.33-2.6Q230.73-2.6 231.93-3.7 233.13-4.8 233.13-6.4L233.13-6.4Q233.13-7.35 232.63-8.05 232.13-8.75 231.35-9.28 230.58-9.8 229.58-10.2 228.58-10.6 227.58-11L227.58-11Q226.28-11.45 224.98-12.03 223.68-12.6 222.66-13.43 221.63-14.25 220.98-15.35 220.33-16.45 220.33-18L220.33-18Q220.33-19.45 220.91-20.73 221.48-22 222.55-22.93 223.63-23.85 225.18-24.38 226.73-24.9 228.68-24.9L228.68-24.9Q230.98-24.9 232.91-24.1 234.83-23.3 236.23-22.15L236.23-22.15 234.28-19.55Q233.03-20.5 231.68-21.1 230.33-21.7 228.73-21.7L228.73-21.7Q226.43-21.7 225.35-20.65 224.28-19.6 224.28-18.2L224.28-18.2Q224.28-17.35 224.73-16.73 225.18-16.1 225.93-15.63 226.68-15.15 227.66-14.78 228.63-14.4 229.68-14L229.68-14Q230.98-13.5 232.3-12.95 233.63-12.4 234.68-11.58 235.73-10.75 236.41-9.55 237.08-8.35 237.08-6.65L237.08-6.65Q237.08-5.15 236.5-3.85 235.93-2.55 234.8-1.55 233.68-0.55 232 0.03 230.33 0.6 228.18 0.6Z" fill="#000000" data-fill-palette-color="primary"></path></g></svg></g></svg></g></svg></g></svg></g><g><svg viewBox="0 0 84.20099050212768 84.20099050212767" height="84.20099050212767" width="84.20099050212768"><g><svg></svg></g><g id="icon-0"><svg viewBox="0 0 84.20099050212768 84.20099050212767" height="84.20099050212767" width="84.20099050212768"><g><path transform="scale(0.84201,0.84201)" d="M30 100c-16.569 0-30-13.431-30-30v-40c0-16.569 13.431-30 30-30h40c16.569 0 30 13.431 30 30v40c0 16.569-13.431 30-30 30z" fill="#8dbdff" fill-rule="nonzero" stroke="none" stroke-width="1" stroke-linecap="butt" stroke-linejoin="miter" stroke-miterlimit="10" stroke-dasharray="" stroke-dashoffset="0" font-family="none" font-weight="none" font-size="none" text-anchor="none" style="mix-blend-mode: normal" data-fill-palette-color="accent"></path></g><g transform="matrix(1,0,0,1,17.234890243404266,16.840198100425535)"><svg viewBox="0 0 49.73121001531915 50.520594301276596" height="50.520594301276596" width="49.73121001531915"><g><svg xmlns="http://www.w3.org/2000/svg" xmlns:xlink="http://www.w3.org/1999/xlink" version="1.1" x="0" y="0" viewBox="2.5 1.5 94.5 96" enable-background="new 0 0 100 100" xml:space="preserve" height="50.520594301276596" width="49.73121001531915" class="icon-cg-0" data-fill-palette-color="quaternary" id="cg-0"><g fill="#ffffff" data-fill-palette-color="quaternary"><path d="M9 63.5c4.795 0.629 9.841-3.832 13.756-6.056 3.757-2.134 7.005-5.056 8.919-9 3.79-7.807 11.726-18.139 21.032-18.7 5.219-0.315 12.486-0.783 14.759 4.949-10.27 1.884-9.515 16.543-0.446 19.75 3.287 1.163 8.518 1.193 12.055 0.819 4.912-0.52 9.464-4.603 14.381-3.975 1.923 3.363-1.767 10.557-2.518 14.144-0.949 4.536-3.941 9.078-6.486 12.508-2.781 3.749-6.969 8.078-10.897 10.817-4.564 3.183-11.179 4.619-16.597 5.806-10.334 2.265-20.018-1.06-28.895-5.569-3.495-1.775-7.822-3.951-10.501-7.07-1.568-1.826-2.625-4.216-3.555-6.355-1.138-2.617-3.125-4.941-4.257-7.568C9.244 66.823 8.863 65.036 9 64.25" fill="#ffffff" data-fill-palette-color="quaternary"></path></g><g fill="#ffffff" data-fill-palette-color="quaternary"><g fill="#ffffff" data-fill-palette-color="quaternary"><path d="M49.75 97.5c-26.054 0-47.25-21.532-47.25-48 0-26.467 21.196-48 47.25-48S97 23.033 97 49.5C97 75.968 75.804 97.5 49.75 97.5zM49.75 6.5C26.453 6.5 7.5 25.79 7.5 49.5c0 23.71 18.953 43 42.25 43S92 73.21 92 49.5C92 25.79 73.047 6.5 49.75 6.5z" fill="#ffffff" data-fill-palette-color="quaternary"></path></g><g fill="#ffffff" data-fill-palette-color="quaternary"><path d="M10.934 65.486c-1.819 0-3.748-0.341-5.841-1.157l1.815-4.658c5.084 1.979 8.781-0.023 13.899-2.795 0.662-0.358 1.336-0.724 2.029-1.088 4.718-2.484 8.913-10.874 10.929-14.906 4.642-9.283 15.195-15.906 24.505-15.412 6.015 0.32 10.647 3.672 12.709 9.195l1.457 3.903-4.129-0.55c-1.671-0.225-3.078 0.154-4.184 1.119-1.45 1.266-2.321 3.479-2.329 5.921-0.017 5.202 4.14 7.111 7.629 7.798 4.238 0.835 9.725 0.384 14.68-1.204 1.48-0.475 2.806-1.1 4.087-1.706 2.229-1.053 4.535-2.142 7.57-2.435l0.48 4.977c-2.168 0.209-3.904 1.029-5.915 1.979-1.361 0.643-2.904 1.372-4.697 1.946-5.723 1.834-12.142 2.337-17.17 1.349-7.325-1.44-11.686-6.195-11.664-12.721 0.013-3.917 1.486-7.442 4.042-9.672 1.087-0.948 2.321-1.624 3.665-2.014-1.897-2.14-4.438-2.783-6.498-2.893-6.407-0.334-15.588 4.297-19.767 12.655-3.599 7.199-7.674 14.252-13.071 17.094-0.675 0.355-1.332 0.712-1.977 1.061C19.22 63.422 15.408 65.486 10.934 65.486z" fill="#ffffff" data-fill-palette-color="quaternary"></path></g></g></svg></g></svg></g></svg></g></svg></g></svg></g><defs></defs></svg><rect width="395.52" height="67.40109511310742" fill="none" stroke="none" visibility="hidden"></rect></g></svg></g></svg>