<svg width="135" height="24" viewBox="0 0 135 24" fill="none" xmlns="http://www.w3.org/2000/svg">
<g clip-path="url(#clip0_334_1199)">
<g clip-path="url(#clip1_334_1199)">
<g clip-path="url(#clip2_334_1199)">
<g clip-path="url(#clip3_334_1199)">
<g clip-path="url(#clip4_334_1199)">
<g clip-path="url(#clip5_334_1199)">
<g clip-path="url(#clip6_334_1199)">
<g clip-path="url(#clip7_334_1199)">
<path d="M32.4545 20.484H30.197L27.0273 4.71717H28.9884L30.5618 13.2976C30.6986 14.1629 30.8431 15.0121 30.9951 15.8453C31.1471 16.6785 31.2915 17.5277 31.4283 18.393H31.5195C31.6868 17.5277 31.8616 16.6737 32.044 15.8309C32.2264 14.9913 32.4013 14.1468 32.5685 13.2976L34.6436 4.71717H36.3766L38.4517 13.2976C38.6341 14.1308 38.8165 14.972 38.9989 15.8213C39.1814 16.6705 39.3638 17.5277 39.5462 18.393H39.6374C39.7743 17.5277 39.9111 16.6737 40.0479 15.8309C40.1847 14.9913 40.3291 14.1468 40.4811 13.2976L42.0546 4.71717H43.8788L40.7776 20.484H38.4973L36.2398 10.9903C36.103 10.3814 35.9783 9.78371 35.8658 9.19726C35.7503 8.61402 35.6317 8.01795 35.5101 7.40907H35.4189C35.2973 8.01795 35.1726 8.61402 35.0449 9.19726C34.9142 9.78371 34.788 10.3814 34.6664 10.9903L32.4545 20.484ZM48.8499 20.7724C47.9225 20.7724 47.1503 20.484 46.5331 19.9072C45.9189 19.3304 45.6118 18.5132 45.6118 17.4556C45.6118 16.1738 46.1515 15.1916 47.2309 14.509C48.3102 13.8296 50.0356 13.3537 52.4071 13.0813C52.4071 12.7128 52.3722 12.3522 52.3023 11.9997C52.2354 11.6472 52.1183 11.3348 51.9511 11.0624C51.7839 10.79 51.5513 10.5689 51.2533 10.399C50.9584 10.2324 50.5829 10.149 50.1268 10.149C49.4884 10.149 48.8879 10.2772 48.3254 10.5336C47.7629 10.79 47.2613 11.0784 46.8204 11.3989L46.0907 10.0289C46.6076 9.67636 47.2385 9.33506 47.9834 9.00499C48.7283 8.67811 49.5492 8.51467 50.4461 8.51467C51.7991 8.51467 52.7796 8.95051 53.3877 9.82217C53.9958 10.697 54.2998 11.8635 54.2998 13.3216V20.484H52.7492L52.5896 19.09H52.5212C51.9891 19.5547 51.419 19.9505 50.8109 20.2773C50.2028 20.6074 49.5492 20.7724 48.8499 20.7724ZM49.3971 19.1861C49.9292 19.1861 50.4309 19.0532 50.9021 18.7872C51.3734 18.5244 51.8751 18.1366 52.4071 17.6239V14.3792C51.4798 14.5074 50.7 14.6596 50.0676 14.8358C49.4382 15.0121 48.9289 15.2204 48.5397 15.4607C48.1536 15.7011 47.8724 15.9783 47.696 16.2924C47.5227 16.6032 47.4361 16.9429 47.4361 17.3114C47.4361 17.9844 47.6261 18.4651 48.0062 18.7535C48.3862 19.0419 48.8499 19.1861 49.3971 19.1861ZM62.3721 20.484H60.1784L56.1879 8.80309H58.1261L60.2286 15.4367C60.3958 16.0135 60.5661 16.5904 60.7394 17.1672C60.9157 17.7441 61.0875 18.3129 61.2547 18.8737H61.3459C61.5132 18.3129 61.6804 17.7441 61.8476 17.1672C62.0148 16.5904 62.1805 16.0135 62.3447 15.4367L64.4472 8.80309H66.2942L62.3721 20.484ZM72.9253 20.7724C72.1804 20.7724 71.4857 20.6314 70.8411 20.3494C70.1935 20.0706 69.6311 19.6701 69.1537 19.1477C68.6733 18.6285 68.2963 17.9924 68.0227 17.2393C67.749 16.4862 67.6122 15.629 67.6122 14.6676C67.6122 13.7062 67.7536 12.8442 68.0364 12.0814C68.3161 11.3219 68.6885 10.6778 69.1537 10.149C69.6158 9.62028 70.1434 9.21489 70.7362 8.93288C71.3291 8.65408 71.9448 8.51467 72.5833 8.51467C73.2826 8.51467 73.9104 8.64286 74.4668 8.89923C75.0202 9.1556 75.4838 9.52414 75.8578 10.0048C76.2287 10.4855 76.513 11.0624 76.7106 11.7353C76.9083 12.4083 77.0071 13.1614 77.0071 13.9946C77.0071 14.2029 77.004 14.4064 76.998 14.6051C76.9888 14.807 76.9691 14.9801 76.9387 15.1243H69.4593C69.5353 16.3741 69.9047 17.3627 70.5675 18.0902C71.2273 18.8208 72.0892 19.1861 73.1534 19.1861C73.6854 19.1861 74.1765 19.1012 74.6264 18.9314C75.0734 18.7647 75.5021 18.5452 75.9125 18.2728L76.5738 19.5707C76.0874 19.8912 75.5477 20.1716 74.9548 20.4119C74.3619 20.6523 73.6854 20.7724 72.9253 20.7724ZM69.4365 13.7062H75.3653C75.3653 12.5205 75.1266 11.6184 74.6492 10.9999C74.1689 10.3846 73.4954 10.0769 72.6289 10.0769C72.2336 10.0769 71.8582 10.1571 71.5024 10.3173C71.1437 10.4775 70.8199 10.7131 70.531 11.0239C70.2422 11.338 70.0035 11.7193 69.815 12.168C69.6235 12.6166 69.4973 13.1294 69.4365 13.7062ZM83.6884 20.484H81.4993L78.4209 8.80309H80.3363L81.9781 15.5569C82.0998 16.1177 82.2138 16.6625 82.3202 17.1913C82.4266 17.72 82.533 18.2568 82.6394 18.8016H82.7306C82.8523 18.2568 82.9739 17.7152 83.0955 17.1768C83.2171 16.6417 83.3463 16.1017 83.4832 15.5569L85.1934 8.80309H87.0176L88.7507 15.5569C88.8875 16.1177 89.0213 16.6625 89.152 17.1913C89.2797 17.72 89.4043 18.2568 89.526 18.8016H89.6172C89.7388 18.2568 89.8528 17.72 89.9592 17.1913C90.0656 16.6625 90.1797 16.1177 90.3013 15.5569L91.9203 8.80309H93.6989L90.7345 20.484H88.4542L86.858 14.2109C86.7212 13.6501 86.595 13.0973 86.4795 12.5525C86.367 12.0077 86.2423 11.4389 86.1055 10.8461H86.0143C85.8927 11.4389 85.7711 12.0109 85.6494 12.5621C85.5278 13.1165 85.391 13.6742 85.239 14.235L83.6884 20.484ZM100.426 20.7724C99.7417 20.7724 99.0911 20.6363 98.4739 20.3639C97.8597 20.0915 97.317 19.6941 96.8457 19.1717C96.3745 18.6526 95.9975 18.0116 95.7147 17.2489C95.435 16.4894 95.2951 15.629 95.2951 14.6676C95.2951 13.6902 95.435 12.8201 95.7147 12.0574C95.9975 11.2979 96.3745 10.6538 96.8457 10.125C97.317 9.59624 97.8597 9.19566 98.4739 8.92327C99.0911 8.65087 99.7417 8.51467 100.426 8.51467C101.11 8.51467 101.759 8.65087 102.373 8.92327C102.99 9.19566 103.535 9.59624 104.006 10.125C104.477 10.6538 104.853 11.2979 105.132 12.0574C105.415 12.8201 105.557 13.6902 105.557 14.6676C105.557 15.629 105.415 16.4894 105.132 17.2489C104.853 18.0116 104.477 18.6526 104.006 19.1717C103.535 19.6941 102.99 20.0915 102.373 20.3639C101.759 20.6363 101.11 20.7724 100.426 20.7724ZM100.426 19.1381C100.897 19.1381 101.33 19.0291 101.726 18.8112C102.121 18.5965 102.458 18.2921 102.738 17.8979C103.021 17.5069 103.238 17.039 103.39 16.4942C103.542 15.9495 103.618 15.3406 103.618 14.6676C103.618 13.9946 103.542 13.3809 103.39 12.8265C103.238 12.2753 103.021 11.7994 102.738 11.3989C102.458 10.9983 102.121 10.689 101.726 10.4711C101.33 10.2564 100.897 10.149 100.426 10.149C99.9546 10.149 99.5213 10.2564 99.1261 10.4711C98.7308 10.689 98.3918 10.9983 98.109 11.3989C97.8293 11.7994 97.6134 12.2753 97.4614 12.8265C97.3094 13.3809 97.2334 13.9946 97.2334 14.6676C97.2334 15.3406 97.3094 15.9495 97.4614 16.4942C97.6134 17.039 97.8293 17.5069 98.109 17.8979C98.3918 18.2921 98.7308 18.5965 99.1261 18.8112C99.5213 19.0291 99.9546 19.1381 100.426 19.1381ZM110.341 20.484H108.471V8.80309H110.021L110.181 10.9182H110.249C110.629 10.1811 111.09 9.59624 111.631 9.16362C112.172 8.73099 112.761 8.51467 113.396 8.51467C113.837 8.51467 114.232 8.59479 114.582 8.75502L114.217 10.4855C114.035 10.4214 113.867 10.3734 113.715 10.3413C113.563 10.3093 113.373 10.2933 113.145 10.2933C112.677 10.2933 112.188 10.4935 111.677 10.8941C111.166 11.2947 110.721 11.9917 110.341 12.9852V20.484ZM118.23 20.484H116.383V3.37122H118.23V14.956H118.299L123.019 8.80309H125.094L121.377 13.4899L125.596 20.484H123.544L120.306 14.8599L118.23 17.4076V20.484ZM130.567 20.7724C129.776 20.7724 129.024 20.6202 128.309 20.3158C127.595 20.0113 126.972 19.6268 126.44 19.1621L127.374 17.8402C127.861 18.2568 128.358 18.5933 128.866 18.8497C129.377 19.106 129.966 19.2342 130.635 19.2342C131.365 19.2342 131.912 19.058 132.277 18.7055C132.642 18.3529 132.824 17.9203 132.824 17.4076C132.824 17.1031 132.748 16.8387 132.596 16.6144C132.444 16.3901 132.25 16.193 132.013 16.0232C131.779 15.8565 131.509 15.7091 131.205 15.5809C130.901 15.4527 130.597 15.3245 130.293 15.1964C129.898 15.0522 129.503 14.8871 129.108 14.7012C128.712 14.5186 128.36 14.2943 128.049 14.0283C127.736 13.7655 127.481 13.4578 127.283 13.1053C127.086 12.7528 126.987 12.3282 126.987 11.8315C126.987 11.3668 127.075 10.9294 127.251 10.5192C127.425 10.1122 127.674 9.75968 127.999 9.46165C128.328 9.16682 128.727 8.93448 129.199 8.76464C129.67 8.598 130.202 8.51467 130.795 8.51467C131.494 8.51467 132.137 8.64286 132.724 8.89923C133.308 9.1556 133.813 9.46806 134.238 9.83659L133.349 11.0864C132.969 10.782 132.574 10.5336 132.163 10.3413C131.753 10.149 131.304 10.0529 130.818 10.0529C130.118 10.0529 129.605 10.2211 129.276 10.5576C128.951 10.8941 128.788 11.2867 128.788 11.7353C128.788 12.0077 128.857 12.2433 128.993 12.442C129.13 12.6439 129.313 12.8201 129.541 12.9707C129.769 13.1246 130.032 13.2608 130.33 13.3793C130.625 13.5011 130.932 13.6261 131.251 13.7543C131.646 13.9145 132.045 14.0827 132.446 14.259C132.85 14.4353 133.212 14.6548 133.531 14.9176C133.851 15.1835 134.114 15.5088 134.32 15.8934C134.524 16.2779 134.626 16.7426 134.626 17.2874C134.626 17.7681 134.538 18.2167 134.361 18.6333C134.188 19.05 133.93 19.4185 133.586 19.739C133.246 20.0594 132.82 20.3126 132.309 20.4985C131.801 20.6811 131.221 20.7724 130.567 20.7724Z" fill="black"/>
</g>
</g>
</g>
</g>
<g clip-path="url(#clip8_334_1199)">
<g clip-path="url(#clip9_334_1199)">
<path d="M7.08088 24.1437C3.28553 24.1437 0.208984 20.9009 0.208984 16.9006V7.2431C0.208984 3.24274 3.28553 0 7.08088 0H16.2434C20.0388 0 23.1153 3.24274 23.1153 7.2431V16.9006C23.1153 20.9009 20.0388 24.1437 16.2434 24.1437H7.08088Z" fill="#8DBDFF"/>
<g clip-path="url(#clip10_334_1199)">
<g clip-path="url(#clip11_334_1199)">
<path d="M5.82825 14.1844C6.51472 14.2793 7.23713 13.6061 7.79762 13.2706C8.33549 12.9485 8.80049 12.5076 9.07451 11.9125C9.6171 10.7344 10.7533 9.17533 12.0855 9.09068C12.8327 9.04314 13.8731 8.97252 14.1985 9.83747C12.7282 10.1218 12.8363 12.3338 14.1347 12.8177C14.6052 12.9932 15.3541 12.9977 15.8605 12.9413C16.5637 12.8628 17.2154 12.2467 17.9194 12.3415C18.1947 12.8489 17.6664 13.9345 17.5589 14.4758C17.423 15.1602 16.9947 15.8456 16.6303 16.3632C16.2322 16.9289 15.6326 17.5822 15.0702 17.9955C14.4168 18.4758 13.4698 18.6925 12.6941 18.8716C11.2147 19.2134 9.82827 18.7116 8.5574 18.0312C8.05704 17.7634 7.43756 17.435 7.05403 16.9644C6.82954 16.6888 6.67822 16.3282 6.54508 16.0054C6.38215 15.6105 6.09769 15.2598 5.93562 14.8634C5.86318 14.6858 5.80864 14.4162 5.82825 14.2976" fill="white"/>
<path d="M11.663 19.3149C7.93295 19.3149 4.89844 16.0658 4.89844 12.0718C4.89844 8.07802 7.93295 4.82874 11.663 4.82874C15.393 4.82874 18.4275 8.07802 18.4275 12.0718C18.4275 16.0658 15.393 19.3149 11.663 19.3149ZM11.663 5.58323C8.32766 5.58323 5.61426 8.49405 5.61426 12.0718C5.61426 15.6496 8.32766 18.5605 11.663 18.5605C14.9983 18.5605 17.7117 15.6496 17.7117 12.0718C17.7117 8.49405 14.9983 5.58323 11.663 5.58323Z" fill="white"/>
<path d="M6.10576 14.4841C5.84534 14.4841 5.56917 14.4326 5.26953 14.3095L5.52937 13.6066C6.25722 13.9052 6.7865 13.6031 7.51922 13.1848C7.61399 13.1308 7.71049 13.0756 7.8097 13.0207C8.48515 12.6458 9.08573 11.3798 9.37435 10.7714C10.0389 9.3706 11.5497 8.3712 12.8826 8.44574C13.7437 8.49403 14.4069 8.99984 14.7021 9.83325L14.9107 10.4222L14.3195 10.3392C14.0803 10.3053 13.8789 10.3624 13.7205 10.5081C13.5129 10.6991 13.3883 11.033 13.3871 11.4015C13.3847 12.1865 13.9798 12.4746 14.4793 12.5782C15.086 12.7042 15.8716 12.6362 16.581 12.3966C16.7928 12.3249 16.9827 12.2306 17.1661 12.1391C17.4852 11.9802 17.8153 11.8159 18.2498 11.7717L18.3186 12.5227C18.0082 12.5542 17.7596 12.678 17.4717 12.8213C17.2769 12.9184 17.056 13.0284 16.7993 13.115C15.98 13.3917 15.061 13.4676 14.3412 13.3185C13.2925 13.1012 12.6681 12.3837 12.6713 11.399C12.6731 10.8079 12.884 10.276 13.25 9.93948C13.4056 9.79643 13.5822 9.69442 13.7747 9.63557C13.5031 9.31265 13.1393 9.21562 12.8444 9.19903C11.9271 9.14863 10.6127 9.84743 10.0144 11.1086C9.49919 12.195 8.91579 13.2592 8.14313 13.6881C8.04649 13.7417 7.95244 13.7955 7.86009 13.8482C7.29202 14.1726 6.74627 14.4841 6.10576 14.4841Z" fill="white"/>
</g>
</g>
</g>
</g>
</g>
</g>
</g>
</g>
<defs>
<clipPath id="clip0_334_1199">
<rect width="135" height="24" fill="white"/>
</clipPath>
<clipPath id="clip1_334_1199">
<rect width="135" height="24" fill="white" transform="translate(-0.0820312 0.0718384)"/>
</clipPath>
<clipPath id="clip2_334_1199">
<rect width="134.418" height="24.1437" fill="white" transform="translate(0.208984)"/>
</clipPath>
<clipPath id="clip3_334_1199">
<rect width="134.418" height="24.1437" fill="white" transform="translate(0.208984)"/>
</clipPath>
<clipPath id="clip4_334_1199">
<rect width="107.599" height="17.4701" fill="white" transform="translate(27.0273 3.33679)"/>
</clipPath>
<clipPath id="clip5_334_1199">
<rect width="107.599" height="17.4701" fill="white" transform="translate(27.0273 3.33679)"/>
</clipPath>
<clipPath id="clip6_334_1199">
<rect width="107.599" height="17.4701" fill="white" transform="translate(27.0273 3.33679)"/>
</clipPath>
<clipPath id="clip7_334_1199">
<rect width="107.599" height="17.4701" fill="white" transform="translate(27.0273 3.33679)"/>
</clipPath>
<clipPath id="clip8_334_1199">
<rect width="22.9063" height="24.1437" fill="white" transform="translate(0.208984)"/>
</clipPath>
<clipPath id="clip9_334_1199">
<rect width="22.9063" height="24.1437" fill="white" transform="translate(0.208984)"/>
</clipPath>
<clipPath id="clip10_334_1199">
<rect width="13.5291" height="14.4862" fill="white" transform="translate(4.89844 4.82874)"/>
</clipPath>
<clipPath id="clip11_334_1199">
<rect width="13.5291" height="14.4862" fill="white" transform="translate(4.89844 4.82874)"/>
</clipPath>
</defs>
</svg>
