<svg width="28" height="29" viewBox="0 0 28 29" fill="none" xmlns="http://www.w3.org/2000/svg">
<g clip-path="url(#clip0_360_3196)">
<path d="M8.4 29C3.76068 29 0 25.105 0 20.3V8.7C0 3.89499 3.76068 0 8.4 0H19.6C24.2393 0 28 3.89499 28 8.7V20.3C28 25.105 24.2393 29 19.6 29H8.4Z" fill="#45AEEA"/>
<g clip-path="url(#clip1_360_3196)">
<g clip-path="url(#clip2_360_3196)">
<path d="M6.86821 17.0375C7.70733 17.1515 8.59039 16.3429 9.27551 15.9398C9.93299 15.553 10.5014 15.0234 10.8363 14.3086C11.4996 12.8935 12.8884 11.0209 14.5169 10.9192C15.4303 10.8621 16.702 10.7773 17.0998 11.8162C15.3025 12.1577 15.4346 14.8146 17.0217 15.3959C17.5969 15.6067 18.5124 15.6121 19.1313 15.5443C19.9909 15.4501 20.7875 14.71 21.648 14.8239C21.9845 15.4334 21.3388 16.7373 21.2074 17.3875C21.0413 18.2096 20.5177 19.0328 20.0723 19.6545C19.5856 20.334 18.8527 21.1187 18.1653 21.6151C17.3666 22.192 16.209 22.4523 15.2609 22.6675C13.4524 23.078 11.7577 22.4753 10.2042 21.6581C9.59261 21.3364 8.83539 20.942 8.36656 20.3766C8.09216 20.0457 7.90718 19.6125 7.74443 19.2248C7.54528 18.7505 7.19756 18.3292 6.99946 17.8531C6.91091 17.6398 6.84423 17.3159 6.86821 17.1734" fill="white"/>
<path d="M13.9992 23.2C9.43977 23.2 5.73047 19.2973 5.73047 14.5C5.73047 9.70284 9.43977 5.79999 13.9992 5.79999C18.5587 5.79999 22.268 9.70284 22.268 14.5C22.268 19.2973 18.5587 23.2 13.9992 23.2ZM13.9992 6.70624C9.92225 6.70624 6.60547 10.2026 6.60547 14.5C6.60547 18.7974 9.92225 22.2937 13.9992 22.2937C18.0762 22.2937 21.393 18.7974 21.393 14.5C21.393 10.2026 18.0762 6.70624 13.9992 6.70624Z" fill="white"/>
<path d="M7.20577 17.3974C6.88744 17.3974 6.54987 17.3356 6.18359 17.1877L6.50122 16.3435C7.39092 16.7022 8.03789 16.3393 8.93354 15.8369C9.04939 15.772 9.16734 15.7056 9.28862 15.6397C10.1143 15.1894 10.8484 13.6688 11.2012 12.938C12.0135 11.2554 13.8603 10.055 15.4896 10.1445C16.5422 10.2025 17.3528 10.8101 17.7136 11.8111L17.9686 12.5185L17.246 12.4189C16.9536 12.3781 16.7074 12.4468 16.5138 12.6217C16.2601 12.8511 16.1077 13.2522 16.1063 13.6949C16.1033 14.6377 16.8308 14.9837 17.4413 15.1082C18.183 15.2596 19.1432 15.1778 20.0103 14.89C20.2693 14.8039 20.5014 14.6906 20.7256 14.5808C21.1156 14.3899 21.5192 14.1926 22.0503 14.1395L22.1343 15.0415C21.7549 15.0794 21.4511 15.228 21.0992 15.4002C20.861 15.5168 20.591 15.6489 20.2772 15.7529C19.2757 16.0854 18.1524 16.1765 17.2725 15.9975C15.9906 15.7365 15.2274 14.8746 15.2313 13.6918C15.2335 12.9818 15.4913 12.3429 15.9386 11.9387C16.1288 11.7669 16.3448 11.6444 16.58 11.5737C16.248 11.1858 15.8033 11.0693 15.4428 11.0493C14.3216 10.9888 12.7149 11.8282 11.9836 13.343C11.3538 14.6479 10.6407 15.9262 9.69619 16.4413C9.57807 16.5057 9.46309 16.5704 9.35022 16.6336C8.65582 17.0233 7.98872 17.3974 7.20577 17.3974Z" fill="white"/>
</g>
</g>
</g>
<defs>
<clipPath id="clip0_360_3196">
<rect width="28" height="29" fill="white"/>
</clipPath>
<clipPath id="clip1_360_3196">
<rect width="16.5375" height="17.4" fill="white" transform="translate(5.73047 5.79999)"/>
</clipPath>
<clipPath id="clip2_360_3196">
<rect width="16.5375" height="17.4" fill="white" transform="translate(5.73047 5.79999)"/>
</clipPath>
</defs>
</svg>
