<svg width="135" height="24" viewBox="0 0 135 24" fill="none" xmlns="http://www.w3.org/2000/svg">
<g clip-path="url(#clip0_334_11187)">
<g clip-path="url(#clip1_334_11187)">
<g clip-path="url(#clip2_334_11187)">
<g clip-path="url(#clip3_334_11187)">
<g clip-path="url(#clip4_334_11187)">
<g clip-path="url(#clip5_334_11187)">
<g clip-path="url(#clip6_334_11187)">
<g clip-path="url(#clip7_334_11187)">
<path d="M32.4545 20.4839H30.197L27.0273 4.71705H28.9884L30.5618 13.2975C30.6986 14.1627 30.8431 15.012 30.9951 15.8452C31.1471 16.6784 31.2915 17.5276 31.4283 18.3929H31.5195C31.6868 17.5276 31.8616 16.6736 32.044 15.8308C32.2264 14.9911 32.4013 14.1467 32.5685 13.2975L34.6436 4.71705H36.3766L38.4517 13.2975C38.6341 14.1307 38.8165 14.9719 38.9989 15.8211C39.1814 16.6704 39.3638 17.5276 39.5462 18.3929H39.6374C39.7743 17.5276 39.9111 16.6736 40.0479 15.8308C40.1847 14.9911 40.3291 14.1467 40.4811 13.2975L42.0546 4.71705H43.8788L40.7776 20.4839H38.4973L36.2398 10.9901C36.103 10.3813 35.9783 9.78359 35.8658 9.19714C35.7503 8.6139 35.6317 8.01783 35.5101 7.40895H35.4189C35.2973 8.01783 35.1726 8.6139 35.0449 9.19714C34.9142 9.78359 34.788 10.3813 34.6664 10.9901L32.4545 20.4839ZM48.8499 20.7723C47.9225 20.7723 47.1503 20.4839 46.5331 19.9071C45.9189 19.3302 45.6118 18.5131 45.6118 17.4555C45.6118 16.1737 46.1515 15.1914 47.2309 14.5088C48.3102 13.8295 50.0356 13.3536 52.4071 13.0812C52.4071 12.7126 52.3722 12.3521 52.3022 11.9996C52.2354 11.6471 52.1183 11.3346 51.9511 11.0622C51.7839 10.7899 51.5513 10.5687 51.2533 10.3989C50.9584 10.2322 50.5829 10.1489 50.1268 10.1489C49.4884 10.1489 48.8879 10.2771 48.3254 10.5335C47.7629 10.7899 47.2613 11.0783 46.8204 11.3987L46.0907 10.0287C46.6076 9.67624 47.2385 9.33494 47.9834 9.00486C48.7283 8.67799 49.5492 8.51455 50.4461 8.51455C51.7991 8.51455 52.7796 8.95038 53.3877 9.82205C53.9958 10.6969 54.2998 11.8634 54.2998 13.3215V20.4839H52.7492L52.5896 19.0899H52.5212C51.9891 19.5546 51.419 19.9503 50.8109 20.2772C50.2028 20.6073 49.5492 20.7723 48.8499 20.7723ZM49.3971 19.186C49.9292 19.186 50.4309 19.053 50.9021 18.787C51.3734 18.5243 51.8751 18.1365 52.4071 17.6238V14.3791C51.4798 14.5072 50.7 14.6595 50.0676 14.8357C49.4382 15.012 48.9289 15.2203 48.5397 15.4606C48.1536 15.701 47.8724 15.9782 47.696 16.2922C47.5227 16.6031 47.4361 16.9428 47.4361 17.3113C47.4361 17.9843 47.6261 18.465 48.0062 18.7534C48.3862 19.0418 48.8499 19.186 49.3971 19.186ZM62.3721 20.4839H60.1784L56.1879 8.80297H58.1262L60.2286 15.4366C60.3958 16.0134 60.5661 16.5903 60.7394 17.1671C60.9157 17.7439 61.0875 18.3128 61.2547 18.8736H61.3459C61.5132 18.3128 61.6804 17.7439 61.8476 17.1671C62.0148 16.5903 62.1805 16.0134 62.3447 15.4366L64.4472 8.80297H66.2942L62.3721 20.4839ZM72.9253 20.7723C72.1804 20.7723 71.4857 20.6313 70.8411 20.3493C70.1935 20.0705 69.6311 19.6699 69.1537 19.1476C68.6733 18.6284 68.2963 17.9923 68.0227 17.2392C67.749 16.4861 67.6122 15.6289 67.6122 14.6675C67.6122 13.7061 67.7536 12.844 68.0364 12.0813C68.3161 11.3218 68.6885 10.6777 69.1537 10.1489C69.6158 9.62016 70.1434 9.21477 70.7362 8.93276C71.3291 8.65395 71.9448 8.51455 72.5833 8.51455C73.2826 8.51455 73.9104 8.64274 74.4668 8.89911C75.0202 9.15548 75.4838 9.52402 75.8578 10.0047C76.2287 10.4854 76.513 11.0622 76.7106 11.7352C76.9083 12.4082 77.0071 13.1613 77.0071 13.9945C77.0071 14.2028 77.004 14.4063 76.998 14.605C76.9888 14.8069 76.9691 14.9799 76.9387 15.1241H69.4593C69.5353 16.374 69.9047 17.3626 70.5675 18.09C71.2273 18.8207 72.0892 19.186 73.1534 19.186C73.6854 19.186 74.1765 19.1011 74.6264 18.9313C75.0734 18.7646 75.5021 18.5451 75.9125 18.2727L76.5738 19.5706C76.0874 19.891 75.5477 20.1715 74.9548 20.4118C74.3619 20.6522 73.6854 20.7723 72.9253 20.7723ZM69.4365 13.7061H75.3653C75.3653 12.5204 75.1266 11.6183 74.6492 10.9998C74.1689 10.3845 73.4954 10.0768 72.6289 10.0768C72.2336 10.0768 71.8582 10.1569 71.5024 10.3172C71.1437 10.4774 70.8199 10.7129 70.531 11.0238C70.2422 11.3378 70.0035 11.7192 69.815 12.1679C69.6235 12.6165 69.4973 13.1292 69.4365 13.7061ZM83.6884 20.4839H81.4993L78.4209 8.80297H80.3363L81.9781 15.5568C82.0998 16.1176 82.2138 16.6624 82.3202 17.1911C82.4266 17.7199 82.533 18.2567 82.6394 18.8015H82.7306C82.8523 18.2567 82.9739 17.7151 83.0955 17.1767C83.2171 16.6415 83.3463 16.1016 83.4832 15.5568L85.1934 8.80297H87.0176L88.7507 15.5568C88.8875 16.1176 89.0213 16.6624 89.152 17.1911C89.2797 17.7199 89.4043 18.2567 89.526 18.8015H89.6172C89.7388 18.2567 89.8528 17.7199 89.9592 17.1911C90.0656 16.6624 90.1796 16.1176 90.3013 15.5568L91.9203 8.80297H93.6989L90.7345 20.4839H88.4542L86.858 14.2108C86.7212 13.65 86.595 13.0972 86.4795 12.5524C86.367 12.0076 86.2423 11.4388 86.1055 10.8459H86.0143C85.8927 11.4388 85.7711 12.0108 85.6494 12.562C85.5278 13.1164 85.391 13.674 85.239 14.2348L83.6884 20.4839ZM100.426 20.7723C99.7417 20.7723 99.0911 20.6361 98.4739 20.3637C97.8597 20.0913 97.317 19.694 96.8457 19.1716C96.3745 18.6525 95.9975 18.0115 95.7147 17.2488C95.435 16.4893 95.2951 15.6289 95.2951 14.6675C95.2951 13.6901 95.435 12.82 95.7147 12.0573C95.9975 11.2978 96.3745 10.6537 96.8457 10.1249C97.317 9.59612 97.8597 9.19554 98.4739 8.92314C99.0911 8.65075 99.7417 8.51455 100.426 8.51455C101.11 8.51455 101.759 8.65075 102.373 8.92314C102.99 9.19554 103.535 9.59612 104.006 10.1249C104.477 10.6537 104.853 11.2978 105.132 12.0573C105.415 12.82 105.557 13.6901 105.557 14.6675C105.557 15.6289 105.415 16.4893 105.132 17.2488C104.853 18.0115 104.477 18.6525 104.006 19.1716C103.535 19.694 102.99 20.0913 102.373 20.3637C101.759 20.6361 101.11 20.7723 100.426 20.7723ZM100.426 19.138C100.897 19.138 101.33 19.029 101.726 18.8111C102.121 18.5964 102.458 18.2919 102.738 17.8978C103.021 17.5068 103.238 17.0389 103.39 16.4941C103.542 15.9493 103.618 15.3405 103.618 14.6675C103.618 13.9945 103.542 13.3808 103.39 12.8264C103.238 12.2752 103.021 11.7993 102.738 11.3987C102.458 10.9982 102.121 10.6889 101.726 10.471C101.33 10.2563 100.897 10.1489 100.426 10.1489C99.9546 10.1489 99.5213 10.2563 99.1261 10.471C98.7308 10.6889 98.3918 10.9982 98.109 11.3987C97.8293 11.7993 97.6134 12.2752 97.4614 12.8264C97.3094 13.3808 97.2334 13.9945 97.2334 14.6675C97.2334 15.3405 97.3094 15.9493 97.4614 16.4941C97.6134 17.0389 97.8293 17.5068 98.109 17.8978C98.3918 18.2919 98.7308 18.5964 99.1261 18.8111C99.5213 19.029 99.9546 19.138 100.426 19.138ZM110.341 20.4839H108.471V8.80297H110.021L110.181 10.918H110.249C110.629 10.181 111.09 9.59612 111.631 9.16349C112.172 8.73087 112.761 8.51455 113.396 8.51455C113.837 8.51455 114.232 8.59467 114.582 8.7549L114.217 10.4854C114.035 10.4213 113.867 10.3732 113.715 10.3412C113.563 10.3092 113.373 10.2931 113.145 10.2931C112.677 10.2931 112.188 10.4934 111.677 10.894C111.166 11.2946 110.721 11.9916 110.341 12.985V20.4839ZM118.23 20.4839H116.383V3.37109H118.23V14.9559H118.299L123.019 8.80297H125.094L121.377 13.4898L125.596 20.4839H123.544L120.306 14.8598L118.23 17.4074V20.4839ZM130.567 20.7723C129.776 20.7723 129.024 20.6201 128.309 20.3157C127.595 20.0112 126.972 19.6267 126.44 19.162L127.374 17.8401C127.861 18.2567 128.358 18.5932 128.866 18.8495C129.377 19.1059 129.966 19.2341 130.635 19.2341C131.365 19.2341 131.912 19.0578 132.277 18.7053C132.642 18.3528 132.824 17.9202 132.824 17.4074C132.824 17.103 132.748 16.8386 132.596 16.6143C132.444 16.39 132.25 16.1929 132.013 16.023C131.779 15.8564 131.509 15.709 131.205 15.5808C130.901 15.4526 130.597 15.3244 130.293 15.1962C129.898 15.052 129.503 14.887 129.108 14.7011C128.712 14.5185 128.36 14.2941 128.049 14.0281C127.736 13.7654 127.481 13.4577 127.283 13.1052C127.086 12.7527 126.987 12.3281 126.987 11.8314C126.987 11.3667 127.075 10.9293 127.251 10.5191C127.425 10.1121 127.674 9.75956 127.999 9.46152C128.328 9.1667 128.727 8.93436 129.199 8.76451C129.67 8.59787 130.202 8.51455 130.795 8.51455C131.494 8.51455 132.137 8.64274 132.724 8.89911C133.308 9.15548 133.813 9.46793 134.238 9.83647L133.349 11.0863C132.969 10.7818 132.574 10.5335 132.163 10.3412C131.753 10.1489 131.304 10.0528 130.818 10.0528C130.118 10.0528 129.605 10.221 129.276 10.5575C128.951 10.894 128.788 11.2866 128.788 11.7352C128.788 12.0076 128.857 12.2432 128.993 12.4418C129.13 12.6437 129.313 12.82 129.541 12.9706C129.769 13.1244 130.032 13.2606 130.33 13.3792C130.625 13.501 130.932 13.626 131.251 13.7542C131.646 13.9144 132.045 14.0826 132.446 14.2589C132.85 14.4351 133.212 14.6547 133.531 14.9174C133.851 15.1834 134.114 15.5087 134.32 15.8933C134.524 16.2778 134.626 16.7425 134.626 17.2873C134.626 17.768 134.538 18.2166 134.361 18.6332C134.188 19.0498 133.93 19.4184 133.586 19.7388C133.246 20.0593 132.82 20.3125 132.309 20.4983C131.801 20.681 131.221 20.7723 130.567 20.7723Z" fill="white"/>
</g>
</g>
</g>
</g>
<g clip-path="url(#clip8_334_11187)">
<g clip-path="url(#clip9_334_11187)">
<path d="M7.08088 24.1437C3.28553 24.1437 0.208984 20.9009 0.208984 16.9006V7.2431C0.208984 3.24274 3.28553 0 7.08088 0H16.2434C20.0388 0 23.1153 3.24274 23.1153 7.2431V16.9006C23.1153 20.9009 20.0388 24.1437 16.2434 24.1437H7.08088Z" fill="#45AEE9"/>
<g clip-path="url(#clip10_334_11187)">
<g clip-path="url(#clip11_334_11187)">
<path d="M5.82825 14.1846C6.51472 14.2795 7.23713 13.6064 7.79762 13.2708C8.33549 12.9488 8.80049 12.5079 9.07451 11.9127C9.6171 10.7347 10.7533 9.17557 12.0855 9.09092C12.8327 9.04339 13.8731 8.97277 14.1985 9.83771C12.7282 10.122 12.8363 12.334 14.1347 12.818C14.6052 12.9934 15.3541 12.998 15.8605 12.9415C16.5637 12.8631 17.2154 12.247 17.9194 12.3417C18.1947 12.8492 17.6664 13.9347 17.5589 14.476C17.423 15.1605 16.9947 15.8459 16.6303 16.3635C16.2322 16.9292 15.6326 17.5824 15.0702 17.9957C14.4168 18.476 13.4698 18.6927 12.6941 18.8718C11.2147 19.2136 9.82827 18.7119 8.5574 18.0315C8.05704 17.7636 7.43756 17.4353 7.05403 16.9646C6.82954 16.6891 6.67822 16.3284 6.54508 16.0057C6.38215 15.6108 6.09769 15.2601 5.93562 14.8637C5.86318 14.6861 5.80864 14.4164 5.82825 14.2978" fill="white"/>
<path d="M11.663 19.3151C7.93295 19.3151 4.89844 16.0659 4.89844 12.072C4.89844 8.07814 7.93295 4.82886 11.663 4.82886C15.393 4.82886 18.4275 8.07814 18.4275 12.072C18.4275 16.0659 15.393 19.3151 11.663 19.3151ZM11.663 5.58335C8.32766 5.58335 5.61426 8.49417 5.61426 12.072C5.61426 15.6498 8.32766 18.5606 11.663 18.5606C14.9983 18.5606 17.7117 15.6498 17.7117 12.072C17.7117 8.49417 14.9983 5.58335 11.663 5.58335Z" fill="white"/>
<path d="M6.10576 14.4841C5.84534 14.4841 5.56917 14.4327 5.26953 14.3095L5.52937 13.6067C6.25722 13.9053 6.7865 13.6032 7.51922 13.1849C7.61399 13.1309 7.71049 13.0757 7.8097 13.0207C8.48515 12.6459 9.08573 11.3799 9.37435 10.7714C10.0389 9.37066 11.5497 8.37126 12.8826 8.4458C13.7437 8.49409 14.4069 8.9999 14.7021 9.83331L14.9107 10.4223L14.3195 10.3393C14.0803 10.3053 13.8789 10.3625 13.7205 10.5081C13.5129 10.6992 13.3883 11.0331 13.3871 11.4016C13.3847 12.1866 13.9798 12.4746 14.4793 12.5783C15.086 12.7043 15.8716 12.6362 16.581 12.3966C16.7928 12.3249 16.9827 12.2306 17.1661 12.1392C17.4852 11.9803 17.8153 11.816 18.2498 11.7717L18.3186 12.5228C18.0082 12.5543 17.7596 12.678 17.4717 12.8214C17.2769 12.9184 17.056 13.0284 16.7993 13.115C15.98 13.3918 15.061 13.4677 14.3412 13.3186C13.2925 13.1013 12.6681 12.3838 12.6713 11.399C12.6731 10.808 12.884 10.276 13.25 9.93954C13.4056 9.79649 13.5822 9.69448 13.7747 9.63563C13.5031 9.31271 13.1393 9.21569 12.8444 9.19909C11.9271 9.14869 10.6127 9.84749 10.0144 11.1087C9.49919 12.195 8.91579 13.2593 8.14313 13.6881C8.04649 13.7417 7.95244 13.7956 7.86009 13.8483C7.29202 14.1727 6.74627 14.4841 6.10576 14.4841Z" fill="white"/>
</g>
</g>
</g>
</g>
</g>
</g>
</g>
</g>
<defs>
<clipPath id="clip0_334_11187">
<rect width="135" height="24" fill="white"/>
</clipPath>
<clipPath id="clip1_334_11187">
<rect width="135" height="24" fill="white" transform="translate(-0.0820312 0.0717773)"/>
</clipPath>
<clipPath id="clip2_334_11187">
<rect width="134.418" height="24.1437" fill="white" transform="translate(0.208984)"/>
</clipPath>
<clipPath id="clip3_334_11187">
<rect width="134.418" height="24.1437" fill="white" transform="translate(0.208984)"/>
</clipPath>
<clipPath id="clip4_334_11187">
<rect width="107.599" height="17.4701" fill="white" transform="translate(27.0273 3.33667)"/>
</clipPath>
<clipPath id="clip5_334_11187">
<rect width="107.599" height="17.4701" fill="white" transform="translate(27.0273 3.33667)"/>
</clipPath>
<clipPath id="clip6_334_11187">
<rect width="107.599" height="17.4701" fill="white" transform="translate(27.0273 3.33667)"/>
</clipPath>
<clipPath id="clip7_334_11187">
<rect width="107.599" height="17.4701" fill="white" transform="translate(27.0273 3.33667)"/>
</clipPath>
<clipPath id="clip8_334_11187">
<rect width="22.9063" height="24.1437" fill="white" transform="translate(0.208984)"/>
</clipPath>
<clipPath id="clip9_334_11187">
<rect width="22.9063" height="24.1437" fill="white" transform="translate(0.208984)"/>
</clipPath>
<clipPath id="clip10_334_11187">
<rect width="13.5291" height="14.4862" fill="white" transform="translate(4.89844 4.82886)"/>
</clipPath>
<clipPath id="clip11_334_11187">
<rect width="13.5291" height="14.4862" fill="white" transform="translate(4.89844 4.82886)"/>
</clipPath>
</defs>
</svg>
