<svg width="34" height="34" viewBox="0 0 34 34" fill="none" xmlns="http://www.w3.org/2000/svg">
<path d="M23.6673 13.6667C23.6673 15.4348 22.9649 17.1305 21.7147 18.3807C20.4645 19.631 18.7688 20.3333 17.0007 20.3333C15.2325 20.3333 13.5368 19.631 12.2866 18.3807C11.0364 17.1305 10.334 15.4348 10.334 13.6667C10.334 11.8986 11.0364 10.2029 12.2866 8.95262C13.5368 7.70238 15.2325 7 17.0007 7C18.7688 7 20.4645 7.70238 21.7147 8.95262C22.9649 10.2029 23.6673 11.8986 23.6673 13.6667Z" fill="#8F8F8F"/>
<path fill-rule="evenodd" clip-rule="evenodd" d="M16.3207 33.6533C7.43148 33.2967 0.333984 25.9766 0.333984 17C0.333984 7.79498 7.79565 0.333313 17.0007 0.333313C26.2057 0.333313 33.6673 7.79498 33.6673 17C33.6673 26.205 26.2057 33.6667 17.0007 33.6667C16.9245 33.6671 16.8484 33.6671 16.7723 33.6667C16.6215 33.6667 16.4707 33.6617 16.3207 33.6533ZM6.30565 27.5166C6.18104 27.1588 6.13862 26.7775 6.18155 26.401C6.22448 26.0245 6.35166 25.6625 6.55363 25.3419C6.75561 25.0213 7.0272 24.7502 7.34825 24.549C7.6693 24.3477 8.03157 24.2213 8.40815 24.1792C14.9048 23.46 19.1365 23.525 25.6015 24.1941C25.9786 24.2334 26.3417 24.3582 26.6633 24.5591C26.9849 24.7599 27.2564 25.0315 27.4571 25.3531C27.6579 25.6747 27.7826 26.0379 27.8217 26.415C27.8609 26.7921 27.8135 27.1731 27.6832 27.5291C30.4539 24.7257 32.0056 20.9416 32.0007 17C32.0007 8.71581 25.2848 1.99998 17.0007 1.99998C8.71648 1.99998 2.00065 8.71581 2.00065 17C2.00065 21.0966 3.64315 24.81 6.30565 27.5166Z" fill="#8F8F8F"/>
</svg>
