<svg width="28" height="34" viewBox="0 0 28 34" fill="none" xmlns="http://www.w3.org/2000/svg">
<path d="M19.9375 18C19.9375 18.2486 19.8387 18.4871 19.6629 18.6629C19.4871 18.8387 19.2486 18.9375 19 18.9375H9C8.75136 18.9375 8.5129 18.8387 8.33709 18.6629C8.16127 18.4871 8.0625 18.2486 8.0625 18C8.0625 17.7514 8.16127 17.5129 8.33709 17.3371C8.5129 17.1613 8.75136 17.0625 9 17.0625H19C19.2486 17.0625 19.4871 17.1613 19.6629 17.3371C19.8387 17.5129 19.9375 17.7514 19.9375 18ZM19 22.0625H9C8.75136 22.0625 8.5129 22.1613 8.33709 22.3371C8.16127 22.5129 8.0625 22.7514 8.0625 23C8.0625 23.2486 8.16127 23.4871 8.33709 23.6629C8.5129 23.8387 8.75136 23.9375 9 23.9375H19C19.2486 23.9375 19.4871 23.8387 19.6629 23.6629C19.8387 23.4871 19.9375 23.2486 19.9375 23C19.9375 22.7514 19.8387 22.5129 19.6629 22.3371C19.4871 22.1613 19.2486 22.0625 19 22.0625ZM27.4375 5.5V29.25C27.4375 30.4932 26.9436 31.6855 26.0646 32.5646C25.1855 33.4436 23.9932 33.9375 22.75 33.9375H5.25C4.0068 33.9375 2.81451 33.4436 1.93544 32.5646C1.05636 31.6855 0.5625 30.4932 0.5625 29.25V5.5C0.5625 4.91984 0.792968 4.36344 1.2032 3.9532C1.61344 3.54297 2.16984 3.3125 2.75 3.3125H5.5625V1.75C5.5625 1.50136 5.66127 1.2629 5.83709 1.08709C6.0129 0.911272 6.25136 0.8125 6.5 0.8125C6.74864 0.8125 6.9871 0.911272 7.16291 1.08709C7.33873 1.2629 7.4375 1.50136 7.4375 1.75V3.3125H13.0625V1.75C13.0625 1.50136 13.1613 1.2629 13.3371 1.08709C13.5129 0.911272 13.7514 0.8125 14 0.8125C14.2486 0.8125 14.4871 0.911272 14.6629 1.08709C14.8387 1.2629 14.9375 1.50136 14.9375 1.75V3.3125H20.5625V1.75C20.5625 1.50136 20.6613 1.2629 20.8371 1.08709C21.0129 0.911272 21.2514 0.8125 21.5 0.8125C21.7486 0.8125 21.9871 0.911272 22.1629 1.08709C22.3387 1.2629 22.4375 1.50136 22.4375 1.75V3.3125H25.25C25.8302 3.3125 26.3866 3.54297 26.7968 3.9532C27.207 4.36344 27.4375 4.91984 27.4375 5.5ZM25.5625 5.5C25.5625 5.41712 25.5296 5.33763 25.471 5.27903C25.4124 5.22042 25.3329 5.1875 25.25 5.1875H22.4375V6.75C22.4375 6.99864 22.3387 7.2371 22.1629 7.41291C21.9871 7.58873 21.7486 7.6875 21.5 7.6875C21.2514 7.6875 21.0129 7.58873 20.8371 7.41291C20.6613 7.2371 20.5625 6.99864 20.5625 6.75V5.1875H14.9375V6.75C14.9375 6.99864 14.8387 7.2371 14.6629 7.41291C14.4871 7.58873 14.2486 7.6875 14 7.6875C13.7514 7.6875 13.5129 7.58873 13.3371 7.41291C13.1613 7.2371 13.0625 6.99864 13.0625 6.75V5.1875H7.4375V6.75C7.4375 6.99864 7.33873 7.2371 7.16291 7.41291C6.9871 7.58873 6.74864 7.6875 6.5 7.6875C6.25136 7.6875 6.0129 7.58873 5.83709 7.41291C5.66127 7.2371 5.5625 6.99864 5.5625 6.75V5.1875H2.75C2.66712 5.1875 2.58763 5.22042 2.52903 5.27903C2.47042 5.33763 2.4375 5.41712 2.4375 5.5V29.25C2.4375 29.9959 2.73382 30.7113 3.26126 31.2387C3.78871 31.7662 4.50408 32.0625 5.25 32.0625H22.75C23.4959 32.0625 24.2113 31.7662 24.7387 31.2387C25.2662 30.7113 25.5625 29.9959 25.5625 29.25V5.5Z" fill="#8F8F8F"/>
</svg>
