<svg width="34" height="34" viewBox="0 0 34 34" fill="none" xmlns="http://www.w3.org/2000/svg">
<path d="M6 8C6 5.87827 6.84285 3.84344 8.34315 2.34315C9.84344 0.842855 11.8783 0 14 0C16.1217 0 18.1566 0.842855 19.6569 2.34315C21.1571 3.84344 22 5.87827 22 8C22 10.1217 21.1571 12.1566 19.6569 13.6569C18.1566 15.1571 16.1217 16 14 16C11.8783 16 9.84344 15.1571 8.34315 13.6569C6.84285 12.1566 6 10.1217 6 8ZM14 2C12.4087 2 10.8826 2.63214 9.75736 3.75736C8.63214 4.88258 8 6.4087 8 8C8 9.5913 8.63214 11.1174 9.75736 12.2426C10.8826 13.3679 12.4087 14 14 14C15.5913 14 17.1174 13.3679 18.2426 12.2426C19.3679 11.1174 20 9.5913 20 8C20 6.4087 19.3679 4.88258 18.2426 3.75736C17.1174 2.63214 15.5913 2 14 2ZM0 22C0 19.774 1.806 18 4.018 18H16.514C16.0046 18.6169 15.564 19.2876 15.2 20H4.018C2.896 20 2 20.894 2 22C2 24.618 3.244 26.568 5.346 27.906C7.486 29.272 10.53 30 14 30C14.4 30 14.796 29.99 15.184 29.97C15.53 30.654 15.946 31.294 16.42 31.886C15.63 31.962 14.82 32 14 32C10.29 32 6.834 31.228 4.27 29.594C1.666 27.934 0 25.38 0 22ZM34 25C34 27.3869 33.0518 29.6761 31.364 31.364C29.6761 33.0518 27.3869 34 25 34C22.6131 34 20.3239 33.0518 18.636 31.364C16.9482 29.6761 16 27.3869 16 25C16 22.6131 16.9482 20.3239 18.636 18.636C20.3239 16.9482 22.6131 16 25 16C27.3869 16 29.6761 16.9482 31.364 18.636C33.0518 20.3239 34 22.6131 34 25ZM29.708 21.292C29.6151 21.1989 29.5048 21.125 29.3833 21.0746C29.2618 21.0242 29.1315 20.9982 29 20.9982C28.8685 20.9982 28.7382 21.0242 28.6167 21.0746C28.4952 21.125 28.3849 21.1989 28.292 21.292L23 26.586L21.708 25.292C21.5202 25.1042 21.2656 24.9987 21 24.9987C20.7344 24.9987 20.4798 25.1042 20.292 25.292C20.1042 25.4798 19.9987 25.7344 19.9987 26C19.9987 26.2656 20.1042 26.5202 20.292 26.708L22.292 28.708C22.3849 28.8011 22.4952 28.875 22.6167 28.9254C22.7382 28.9758 22.8685 29.0018 23 29.0018C23.1315 29.0018 23.2618 28.9758 23.3833 28.9254C23.5048 28.875 23.6151 28.8011 23.708 28.708L29.708 22.708C29.8011 22.6151 29.875 22.5048 29.9254 22.3833C29.9758 22.2618 30.0018 22.1315 30.0018 22C30.0018 21.8685 29.9758 21.7382 29.9254 21.6167C29.875 21.4952 29.8011 21.3849 29.708 21.292Z" fill="#8F8F8F"/>
</svg>
