<svg class="svg-icon" style="width: 1em; height: 1em;vertical-align: middle;fill: currentColor;overflow: hidden;" viewBox="0 0 1024 1024" version="1.1" xmlns="http://www.w3.org/2000/svg"><path d="M926 264H767.3v-85.7c0-8.8-7.2-16-16-16h-32c-8.8 0-16 7.2-16 16V264H544.1v-85.7c0-8.8-7.2-16-16-16h-32c-8.8 0-16 7.2-16 16V264H321v-85.7c0-8.8-7.2-16-16-16h-32c-8.8 0-16 7.2-16 16V264H94c-17.6 0-32 14.4-32 32v536c0 17.6 14.4 32 32 32h832c17.6 0 32-14.4 32-32V296c0-17.6-14.4-32-32-32z m-40 528H134V336h123v60.3c0 8.8 7.2 16 16 16h32c8.8 0 16-7.2 16-16V336h159.1v60.3c0 8.8 7.2 16 16 16h32c8.8 0 16-7.2 16-16V336h159.1v60.3c0 8.8 7.2 16 16 16h32c8.8 0 16-7.2 16-16V336H886v456z"  /><path d="M377 514H221c-8.8 0-16 7.2-16 16v32c0 8.8 7.2 16 16 16h156c8.8 0 16-7.2 16-16v-32c0-8.8-7.2-16-16-16zM377 636H221c-8.8 0-16 7.2-16 16v32c0 8.8 7.2 16 16 16h156c8.8 0 16-7.2 16-16v-32c0-8.8-7.2-16-16-16zM765.5 505.8c-7.3 0-14.7 2.7-20.4 8l-150 139.7-75-80.5c-5.9-6.3-13.9-9.5-22-9.5-7.3 0-14.7 2.7-20.4 8-12.1 11.2-12.8 30.3-1.5 42.4l95.4 102.4c5.9 6.3 13.9 9.5 22 9.5 7.3 0 14.7-2.7 20.4-8l172-160.2c12.1-11.2 12.8-30.3 1.5-42.4-5.9-6.2-13.9-9.4-22-9.4z"  /></svg>