<svg width="64" height="64" viewBox="0 0 64 64" fill="none" xmlns="http://www.w3.org/2000/svg">
<path d="M47.6312 56.9081L43.4243 23.3375H44.4274C45.483 23.3375 46.3387 22.4819 46.3387 21.4263V16.34C46.3387 10.5025 41.6068 5.77063 35.7693 5.77063H29.8112C26.9962 5.77063 24.7137 8.05313 24.7137 10.8681V10.8863C24.7137 11.2381 24.9987 11.5231 25.3505 11.5231H25.6824C25.6824 11.5231 23.848 22.2238 29.2899 22.31V22.7C29.2899 23.0519 29.5749 23.3369 29.9268 23.3369H30.2599L28.3949 31.225C28.3324 31.4906 28.1074 31.6875 27.8362 31.7125C22.6262 32.1869 18.5449 36.5669 18.5449 41.9C18.5449 45.3394 20.2424 48.3819 22.8455 50.2369C23.0287 50.3675 23.1318 50.5838 23.1137 50.8081L22.6174 57.0231C22.4993 58.5063 23.6705 59.775 25.158 59.775H45.1018C46.6355 59.7744 47.8218 58.43 47.6312 56.9081ZM31.2324 38.6863L29.9868 40.8413L27.968 44.3338C27.4868 45.1663 26.2849 45.1663 25.8037 44.3338L23.7849 40.8413L22.5393 38.6863C21.9405 37.65 22.9999 36.4456 24.1043 36.9075L26.403 37.8694C26.5558 37.9334 26.7199 37.9664 26.8855 37.9664C27.0512 37.9664 27.2152 37.9334 27.368 37.8694L29.6668 36.9075C30.7718 36.445 31.8318 37.65 31.2324 38.6863Z" fill="#FFFA9F"/>
<path d="M47.5263 56.5969L43.47 24.2306H43.8875C45.1969 24.2306 46.2625 23.165 46.2625 21.8556V16.8669C46.2625 10.875 41.3875 6 35.3956 6H29.5513C26.5188 6 24.0513 8.4675 24.0513 11.5V11.5181C24.0513 12.0525 24.4263 12.5 24.9263 12.6144C24.6988 14.3238 24.2169 19.475 26.2338 21.9056C26.8406 22.6369 27.6163 23.0662 28.5438 23.1875C28.5781 23.6694 28.9169 24.0669 29.3687 24.1906L27.675 31.3525C27.6625 31.4044 27.6194 31.4431 27.5681 31.4475C24.9619 31.685 22.5488 32.8813 20.7719 34.8163C18.9844 36.7638 18 39.2931 18 41.9381C18 45.3375 19.6556 48.5469 22.4281 50.5225C22.4656 50.5494 22.4863 50.5919 22.4831 50.6356L21.9963 56.7319C21.93 57.5637 22.2163 58.3925 22.7825 59.0056C23.3488 59.6187 24.1519 59.9706 24.9869 59.9706H44.5494C45.4094 59.9706 46.2294 59.6006 46.7987 58.9556C47.0802 58.6364 47.2906 58.2611 47.416 57.8544C47.5414 57.4478 47.579 57.0191 47.5263 56.5969ZM25.0513 11.4994C25.0513 9.01813 27.07 6.99937 29.5513 6.99937H35.3956C40.8362 6.99937 45.2625 11.4256 45.2625 16.8663V21.855C45.2625 22.6131 44.6456 23.23 43.8875 23.23H29.665C29.5963 23.23 29.54 23.1737 29.54 23.105V14.6425C29.54 12.9881 28.1944 11.6425 26.54 11.6425H25.1763C25.1075 11.6425 25.0513 11.5862 25.0513 11.5175V11.4994ZM27.0037 21.2669C25.2194 19.1169 25.7344 14.1156 25.9331 12.6425H26.54C27.6431 12.6425 28.54 13.5394 28.54 14.6425V22.175C27.9238 22.065 27.4181 21.7656 27.0037 21.2669ZM46.0494 58.2931C45.8617 58.5058 45.631 58.6761 45.3725 58.7928C45.114 58.9095 44.8336 58.9699 44.55 58.97H24.9875C24.4231 58.97 23.9013 58.7412 23.5181 58.3269C23.135 57.9125 22.9487 57.3737 22.9937 56.8112L23.4806 50.715C23.5119 50.3231 23.3312 49.9375 23.0094 49.7081C20.4994 47.9194 19.0013 45.015 19.0013 41.9381C19.0013 39.5438 19.8925 37.255 21.51 35.4925C23.1181 33.7406 25.3019 32.6581 27.66 32.4431C28.1406 32.3994 28.5381 32.0531 28.6494 31.5825L30.3881 24.2313H42.4638L46.535 56.7219C46.6056 57.29 46.4288 57.8631 46.0494 58.2931Z" fill="#00AC97"/>
<path d="M37.419 25.0025C37.309 24.7494 37.0146 24.6338 36.7615 24.7431C36.5083 24.8531 36.3921 25.1475 36.5021 25.4006C36.524 25.4506 38.664 30.4725 36.994 34.1013C36.2708 35.6725 34.9171 36.7738 32.9702 37.3738C32.8558 37.409 32.7578 37.4841 32.694 37.5854C32.6302 37.6868 32.605 37.8076 32.6227 37.926C32.6405 38.0444 32.7002 38.1525 32.7909 38.2307C32.8816 38.3088 32.9973 38.3518 33.1171 38.3519C33.1658 38.3519 33.2158 38.3444 33.2646 38.3294C35.4965 37.6413 37.0571 36.3581 37.904 34.5156C38.6771 32.8331 38.8365 30.6506 38.3652 28.2038C38.0127 26.38 37.4427 25.0575 37.419 25.0025Z" fill="#00AC97"/>
<path d="M26.8942 44.9011C26.3073 44.9011 25.7811 44.5974 25.4873 44.0893L22.223 38.4424C21.868 37.8286 21.9417 37.088 22.4098 36.5555C22.878 36.023 23.603 35.8561 24.2573 36.1299L26.5567 37.0918C26.7711 37.1818 27.0173 37.1818 27.2323 37.0918L29.5317 36.1299C30.1855 35.8561 30.9111 36.023 31.3792 36.5555C31.8473 37.088 31.9211 37.8286 31.5661 38.4424L28.3017 44.0893C28.0073 44.5974 27.4811 44.9011 26.8942 44.9011ZM23.6205 36.7486C23.3455 36.7486 23.1167 36.8874 22.973 37.0505C22.7723 37.2786 22.6405 37.6649 22.8723 38.0661L26.1367 43.713C26.2948 43.9868 26.578 44.1499 26.8942 44.1499C27.2105 44.1499 27.4936 43.9868 27.6517 43.713L30.9161 38.0661C31.148 37.6649 31.0161 37.2786 30.8155 37.0505C30.6148 36.8224 30.248 36.6424 29.8205 36.8211L27.5211 37.783C27.1223 37.9499 26.6648 37.9499 26.2667 37.783L23.9673 36.8211C23.8461 36.7705 23.7298 36.7486 23.6205 36.7486Z" fill="#F09595"/>
</svg>
