<svg width="24" height="24" viewBox="0 0 24 24" fill="none" xmlns="http://www.w3.org/2000/svg">
<path d="M17.2629 2.17698C17.5911 1.84906 18.036 1.66486 18.4999 1.66486C18.9638 1.66486 19.4087 1.84906 19.7369 2.17698L22.3229 4.76298C22.6508 5.09114 22.835 5.53607 22.835 5.99998C22.835 6.4639 22.6508 6.90883 22.3229 7.23698L19.5299 10.03L19.5179 10.043L8.6899 20.378C8.49202 20.567 8.25263 20.7071 7.9909 20.787L2.4679 22.467C2.33805 22.5063 2.19993 22.5096 2.06834 22.4765C1.93675 22.4434 1.81665 22.3751 1.7209 22.279C1.62476 22.1832 1.55647 22.0631 1.52335 21.9315C1.49024 21.8 1.49354 21.6618 1.5329 21.532L3.2059 16.032C3.29364 15.7441 3.45415 15.4837 3.6719 15.276L14.4759 4.96298L17.2629 2.17698ZM4.7079 16.361C4.67698 16.3909 4.65396 16.428 4.6409 16.469L3.3769 20.623L7.5539 19.352C7.59136 19.3403 7.62559 19.3201 7.6539 19.293L17.9269 9.48698L14.9869 6.54798L4.7079 16.361ZM18.9999 8.43998L21.2629 6.17798C21.2862 6.15476 21.3047 6.12717 21.3173 6.0968C21.3299 6.06643 21.3363 6.03387 21.3363 6.00098C21.3363 5.9681 21.3299 5.93554 21.3173 5.90517C21.3047 5.87479 21.2862 5.84721 21.2629 5.82398L18.6769 3.23798C18.6537 3.2147 18.6261 3.19623 18.5957 3.18363C18.5653 3.17102 18.5328 3.16454 18.4999 3.16454C18.467 3.16454 18.4345 3.17102 18.4041 3.18363C18.3737 3.19623 18.3461 3.2147 18.3229 3.23798L16.0609 5.49998L18.9999 8.43998Z" fill="#040404"/>
</svg>
