<svg class="svg-icon" style="width: 1em; height: 1em;vertical-align: middle;fill: currentColor;overflow: hidden;" viewBox="0 0 1024 1024" version="1.1" xmlns="http://www.w3.org/2000/svg"><path d="M342.272 256a42.666667 42.666667 0 1 1 0-85.333333h339.456a42.666667 42.666667 0 0 1 0 85.333333H342.272z m470.784 0a42.666667 42.666667 0 0 1 0-85.333333H938.666667a85.333333 85.333333 0 0 1 85.333333 85.333333v640a85.333333 85.333333 0 0 1-85.333333 85.333333H85.333333a85.333333 85.333333 0 0 1-85.333333-85.333333V256a85.333333 85.333333 0 0 1 85.333333-85.333333h128.725334a42.666667 42.666667 0 1 1 0 85.333333H85.333333v640h853.333334V256h-125.610667z"  /><path d="M298.666667 128a42.666667 42.666667 0 1 1 85.333333 0v170.666667a42.666667 42.666667 0 1 1-85.333333 0V128z m341.333333 0a42.666667 42.666667 0 0 1 85.333333 0v170.666667a42.666667 42.666667 0 0 1-85.333333 0V128z m-85.333333 452.437333a41.386667 41.386667 0 0 1 5.162666 4.394667l120.704 120.704a42.666667 42.666667 0 0 1-60.330666 60.330667l-120.704-120.704a42.666667 42.666667 0 0 1-7.509334-10.154667A42.666667 42.666667 0 0 1 469.333333 597.333333v-170.666666a42.666667 42.666667 0 0 1 85.333334 0v153.770666z"  /></svg>