<svg width="24" height="24" viewBox="0 0 24 24" fill="none" xmlns="http://www.w3.org/2000/svg">
<path d="M13.8273 21.8355C14.0289 21.7971 14.2304 21.7587 14.4222 21.7107C14.547 21.6819 14.6621 21.5956 14.7293 21.4901C14.7965 21.3749 14.8158 21.2406 14.7869 21.1158C14.7293 20.8951 14.5374 20.7416 14.3071 20.7416C14.2687 20.7416 14.2304 20.7511 14.192 20.7608C14.0097 20.8087 13.837 20.8471 13.6546 20.876C13.386 20.9239 13.2132 21.183 13.2613 21.4516C13.2804 21.5763 13.3572 21.6914 13.4627 21.7683C13.5491 21.8259 13.6451 21.8546 13.7411 21.8546C13.7698 21.8451 13.7985 21.8451 13.8273 21.8355ZM21.0239 9.54381C21.0718 9.54381 21.1294 9.5342 21.1773 9.515C21.4365 9.42863 21.5804 9.15034 21.494 8.89128C21.4269 8.69938 21.3597 8.50749 21.2829 8.31559C21.2062 8.12368 21.0239 8.00853 20.8224 8.00853C20.7553 8.00853 20.6977 8.01814 20.6401 8.04695C20.5154 8.09488 20.4194 8.19088 20.3714 8.306C20.3234 8.42115 20.3138 8.56506 20.3714 8.6802C20.4386 8.85291 20.5057 9.02565 20.5633 9.19836C20.5921 9.29429 20.6593 9.38068 20.7456 9.44788C20.8224 9.51505 20.9183 9.54381 21.0239 9.54381ZM16.7636 20.7319C16.8499 20.7319 16.9362 20.7128 17.0131 20.6649C17.1858 20.5593 17.3681 20.4537 17.5312 20.3481C17.6367 20.2714 17.7135 20.1659 17.7423 20.0315C17.7711 19.9068 17.7423 19.7724 17.6752 19.6573C17.5791 19.523 17.4256 19.4366 17.2625 19.4366C17.1666 19.4366 17.0706 19.4654 16.9939 19.523C16.8403 19.6285 16.6868 19.7245 16.5237 19.8108C16.2838 19.9452 16.2071 20.2522 16.3414 20.4825C16.3798 20.5497 16.4277 20.5976 16.4854 20.636C16.562 20.6936 16.658 20.7319 16.7636 20.7319ZM21.2158 12.6431C21.2925 12.7006 21.3885 12.7295 21.4845 12.7295H21.494C21.7627 12.7295 21.9835 12.5088 21.9835 12.2497C21.9835 12.0482 21.9835 11.8467 21.9738 11.6452C21.9643 11.3765 21.7436 11.175 21.4845 11.175H21.4653C21.1966 11.1845 20.9855 11.4149 20.9951 11.6835C21.0047 11.8658 21.0047 12.0481 20.9951 12.2305C21.0047 12.3936 21.0815 12.5471 21.2158 12.6431ZM19.9012 17.3256C19.8149 17.2585 19.7093 17.2297 19.6038 17.2297C19.4502 17.2297 19.3063 17.3065 19.2104 17.4312C19.1048 17.5752 18.9897 17.7191 18.865 17.863C18.6923 18.0742 18.7114 18.3812 18.9225 18.554C18.9321 18.5635 18.9417 18.5731 18.9609 18.5827C19.0473 18.6403 19.1432 18.6691 19.2488 18.6691C19.3927 18.6691 19.5271 18.6019 19.623 18.4964C19.7573 18.3429 19.8821 18.1797 20.0068 18.0166C20.1603 17.8054 20.1123 17.4888 19.9012 17.3256ZM21.2158 14.3799C21.1678 14.3607 21.1198 14.3607 21.0718 14.3607C20.8512 14.3607 20.6688 14.495 20.6016 14.7061C20.5441 14.8788 20.4865 15.0515 20.4194 15.2243C20.3426 15.4354 20.4098 15.6752 20.592 15.7999C20.6208 15.8191 20.6592 15.8383 20.6976 15.8575C20.7551 15.8767 20.8127 15.8863 20.8703 15.8863C21.0718 15.8863 21.2541 15.7616 21.3309 15.5696C21.3981 15.3873 21.4652 15.1954 21.5324 14.9939C21.6188 14.7445 21.4749 14.4662 21.2158 14.3799ZM19.2008 5.60009C19.2487 5.60009 19.2967 5.57136 19.3158 5.54255C19.335 5.51375 19.3446 5.46577 19.3254 5.41782L18.6058 2.82704L17.8478 3.92091L17.5695 3.73859C15.9191 2.63518 14.0097 2.0498 12.033 2.0498C11.4573 2.0498 10.8816 2.0978 10.3059 2.20332C10.0563 2.25132 9.79729 2.2993 9.54785 2.36645L9.51904 2.37605C7.30254 2.94219 5.4026 4.21836 4.03054 6.0511L4.01137 6.07984C4.01137 6.08945 4.00176 6.08945 4.00176 6.09903C3.95376 6.16623 3.90576 6.22377 3.86744 6.29094C3.79066 6.39648 3.72351 6.50206 3.65632 6.6076L3.63712 6.64597C2.50493 8.3923 1.96755 10.4073 2.0539 12.4799C2.0539 12.4895 2.0539 12.4991 2.0539 12.5087C2.06346 12.7006 2.0827 12.9021 2.10187 13.1037L2.11148 13.1421C2.13068 13.3531 2.15948 13.5547 2.1979 13.7466C2.55288 15.7999 3.52204 17.6614 4.99015 19.1103L4.99976 19.1199C5.39315 19.5037 5.82492 19.8684 6.2759 20.185C7.47536 21.0293 8.81868 21.5956 10.2484 21.845C10.2772 21.8546 10.3059 21.8546 10.3348 21.8546C10.5746 21.8546 10.7761 21.6819 10.8145 21.4516C10.8337 21.3173 10.8049 21.1925 10.7377 21.0869C10.661 20.9814 10.5459 20.9046 10.4211 20.8854C9.65346 20.7511 8.91464 20.5112 8.21414 20.1849L8.2046 20.1754C8.19499 20.1754 8.19499 20.1658 8.18543 20.1658C8.02233 20.0891 7.85918 20.0123 7.71522 19.9259H7.70561L7.65761 19.8971C7.37936 19.7436 7.11072 19.5709 6.85167 19.3885C4.89417 18.0068 3.58922 15.9438 3.1766 13.5738C2.76401 11.2037 3.30133 8.82409 4.68311 6.86661C5.28764 6.00303 6.036 5.26421 6.88999 4.66925L6.91879 4.65013C8.43485 3.60418 10.2004 3.05727 12.0427 3.05727C13.8178 3.05727 15.5354 3.57545 17.0131 4.56373L17.301 4.75564L16.5429 5.8591L19.2008 5.60009ZM17.2625 15.5793C17.3872 15.5793 17.5023 15.5121 17.5599 15.397C17.6463 15.2339 17.5791 15.0324 17.416 14.946L11.8507 12.0674V5.99354C11.8507 5.81124 11.6972 5.6577 11.5148 5.6577C11.3325 5.6577 11.1791 5.81122 11.1791 5.99354V12.4704L17.1089 15.5409C17.157 15.5697 17.2049 15.5793 17.2625 15.5793Z" fill="#EBAF84"/>
</svg>
