<svg width="34" height="40" viewBox="0 0 34 40" fill="none" xmlns="http://www.w3.org/2000/svg">
<path d="M36.25 8.67188V33C36.2501 33.4268 36.166 33.8495 36.0027 34.2438C35.8394 34.6381 35.6 34.9964 35.2982 35.2982C34.9964 35.6 34.6381 35.8394 34.2438 36.0027C33.8495 36.166 33.4268 36.2501 33 36.25H8.67188C7.36651 36.25 6.11461 35.7314 5.19158 34.8084C4.26855 33.8854 3.75 32.6335 3.75 31.3281V8.67188C3.74964 8.02542 3.8767 7.38524 4.12392 6.78793C4.37114 6.19062 4.73367 5.64789 5.19078 5.19078C5.64789 4.73367 6.19062 4.37114 6.78793 4.12392C7.38524 3.8767 8.02542 3.74964 8.67188 3.75H31.3281C32.6335 3.75 33.8854 4.26855 34.8084 5.19158C35.7314 6.11461 36.25 7.36651 36.25 8.67188Z" fill="#03A9F5"/>
<path opacity="0.2" d="M28.5586 36.25H8.67188C7.36651 36.25 6.11461 35.7314 5.19158 34.8084C4.26855 33.8854 3.75 32.6335 3.75 31.3281V14.4531C4.07344 14.4401 4.39896 14.4336 4.72656 14.4336C5.11875 14.4336 5.50846 14.443 5.8957 14.4617C17.3949 15.0164 26.7664 23.6902 28.3984 34.8762C28.4648 35.3301 28.5182 35.788 28.5586 36.25Z" fill="white"/>
<path opacity="0.14" d="M36.2496 8.67188V33C36.2502 33.4396 36.1613 33.8748 35.9883 34.2789C34.1117 34.7229 32.1897 34.9465 30.2613 34.9453C29.6348 34.9453 29.0138 34.9223 28.3984 34.8762C17.0312 34.0297 7.80429 25.5012 5.89336 14.4629C5.31656 11.1233 5.42608 7.70131 6.21523 4.40547C6.96209 3.97477 7.80933 3.74868 8.67148 3.75001H31.3277C32.6331 3.75001 33.885 4.26856 34.808 5.19159C35.7311 6.11462 36.2496 7.36652 36.2496 8.67188Z" fill="white"/>
<path d="M17.5195 8.94531H20.8008C21.7383 8.94531 22.207 9.41406 22.207 10.3516C22.207 11.2891 21.7383 11.7578 20.8008 11.7578H17.5195C16.582 11.7578 16.1133 11.2891 16.1133 10.3516C16.1133 9.41406 16.582 8.94531 17.5195 8.94531Z" fill="white"/>
<path d="M25.843 22.2266C26.2573 22.2262 26.67 22.2802 27.0703 22.3871V12.6766C27.0688 12.164 26.8645 11.6729 26.502 11.3105C26.1396 10.948 25.6485 10.7437 25.1359 10.7422H23.2609C23.2502 11.2524 23.0404 11.7382 22.6764 12.0959C22.3123 12.4535 21.8228 12.6546 21.3125 12.6562H17.0082C16.4978 12.6547 16.0082 12.4537 15.6441 12.096C15.2799 11.7384 15.0701 11.2525 15.0594 10.7422H13.1844C12.6718 10.7437 12.1807 10.948 11.8183 11.3105C11.4558 11.6729 11.2515 12.164 11.25 12.6766V26.9734C11.252 27.4857 11.4564 27.9764 11.8188 28.3385C12.1812 28.7006 12.6721 28.9047 13.1844 28.9062H21.5074C21.1856 28.1834 21.0495 27.3916 21.1116 26.6029C21.1736 25.8141 21.4317 25.0533 21.8625 24.3896C22.2933 23.726 22.8831 23.1805 23.5783 22.8027C24.2735 22.4249 25.0521 22.2269 25.8434 22.2266H25.843ZM14.375 15.7031H23.9453C24.1007 15.7031 24.2497 15.7649 24.3596 15.8747C24.4695 15.9846 24.5312 16.1337 24.5312 16.2891C24.5312 16.4445 24.4695 16.5935 24.3596 16.7034C24.2497 16.8133 24.1007 16.875 23.9453 16.875H14.375C14.2196 16.875 14.0706 16.8133 13.9607 16.7034C13.8508 16.5935 13.7891 16.4445 13.7891 16.2891C13.7891 16.1337 13.8508 15.9846 13.9607 15.8747C14.0706 15.7649 14.2196 15.7031 14.375 15.7031ZM13.7891 19.8215C13.7894 19.6806 13.8454 19.5457 13.945 19.446C14.0445 19.3464 14.1795 19.2903 14.3203 19.2898H22.0891C22.2299 19.2903 22.3648 19.3464 22.4644 19.446C22.5639 19.5457 22.62 19.6806 22.6203 19.8215V19.9305C22.6199 20.0712 22.5638 20.2061 22.4643 20.3057C22.3647 20.4052 22.2298 20.4613 22.0891 20.4617H14.3203C14.1795 20.4613 14.0447 20.4052 13.9451 20.3057C13.8456 20.2061 13.7895 20.0712 13.7891 19.9305V19.8215ZM19.4562 23.4934C19.4558 23.6406 19.3972 23.7816 19.2931 23.8857C19.189 23.9898 19.048 24.0484 18.9008 24.0488H14.3441C14.197 24.0483 14.0561 23.9896 13.9521 23.8855C13.8481 23.7815 13.7895 23.6405 13.7891 23.4934V23.4324C13.7895 23.2853 13.8481 23.1443 13.9521 23.0402C14.0561 22.9362 14.197 22.8775 14.3441 22.877H18.9008C19.048 22.8774 19.189 22.936 19.2931 23.0401C19.3972 23.1442 19.4558 23.2852 19.4562 23.4324V23.4934ZM27.5473 28.0824C27.3785 27.6805 26.8984 27.7742 26.8953 28.2406C26.8953 28.4969 27.1238 28.5922 27.277 28.6949C27.4301 28.7977 27.5316 28.9293 27.548 28.9879C27.5621 28.9313 27.6801 28.7926 27.8176 28.6922C27.968 28.5836 28.2012 28.4941 28.1992 28.2379C28.1961 27.7703 27.7082 27.6953 27.5473 28.0824Z" fill="white"/>
<path d="M26.4873 23.125C25.622 23.125 24.7762 23.3816 24.0567 23.8623C23.3372 24.3431 22.7765 25.0263 22.4453 25.8258C22.1142 26.6252 22.0276 27.5049 22.1964 28.3535C22.3652 29.2022 22.7819 29.9817 23.3937 30.5936C24.0056 31.2054 24.7851 31.6221 25.6338 31.7909C26.4825 31.9597 27.3621 31.8731 28.1615 31.542C28.961 31.2108 29.6443 30.6501 30.125 29.9306C30.6057 29.2112 30.8623 28.3653 30.8623 27.5C30.8623 26.3397 30.4014 25.2269 29.5809 24.4064C28.7604 23.5859 27.6476 23.125 26.4873 23.125ZM25.8768 24.3395C26.608 23.6594 27.1842 24.1941 27.1842 24.1941C27.6307 24.7879 27.1842 25.5016 27.1842 25.5016C26.4029 25.998 25.4408 25.7922 25.4408 25.7922C25.376 24.7313 25.8768 24.3395 25.8768 24.3395ZM28.6893 28.848C28.1932 29.5867 26.9119 29.6156 26.9119 29.6156V30.5859H25.8455V29.6156H24.4236C25.1115 29.3879 24.9568 27.3129 24.9568 27.3129C24.9611 26.0238 26.0232 26.0852 26.0232 26.0852C27.1272 26.0289 27.0896 27.0059 27.0896 27.0059C27.9732 27.0039 28.3338 27.3129 28.3338 27.3129C29.2186 28.0168 28.6897 28.848 28.6897 28.848H28.6893Z" fill="white"/>
</svg>
