<svg width="30" height="30" viewBox="0 0 30 30" fill="none" xmlns="http://www.w3.org/2000/svg">
<path d="M20.6673 12.1667C20.6673 13.6696 20.0703 15.1109 19.0076 16.1736C17.9449 17.2363 16.5035 17.8333 15.0006 17.8333C13.4978 17.8333 12.0564 17.2363 10.9937 16.1736C9.93101 15.1109 9.33398 13.6696 9.33398 12.1667C9.33398 10.6638 9.93101 9.22243 10.9937 8.15973C12.0564 7.09702 13.4978 6.5 15.0006 6.5C16.5035 6.5 17.9449 7.09702 19.0076 8.15973C20.0703 9.22243 20.6673 10.6638 20.6673 12.1667Z" fill="#777777"/>
<path fill-rule="evenodd" clip-rule="evenodd" d="M14.4227 29.1553C6.86686 28.8521 0.833984 22.6301 0.833984 14.9999C0.833984 7.17567 7.1764 0.833252 15.0007 0.833252C22.8249 0.833252 29.1673 7.17567 29.1673 14.9999C29.1673 22.8242 22.8249 29.1666 15.0007 29.1666C14.936 29.167 14.8713 29.167 14.8066 29.1666C14.6784 29.1666 14.5502 29.1623 14.4227 29.1553ZM5.9099 23.9391C5.80398 23.6349 5.76793 23.3108 5.80442 22.9908C5.84091 22.6707 5.94901 22.3631 6.12069 22.0905C6.29237 21.818 6.52322 21.5876 6.79611 21.4165C7.06901 21.2455 7.37693 21.138 7.69703 21.1022C13.2192 20.4909 16.8161 20.5462 22.3114 21.115C22.6319 21.1483 22.9406 21.2544 23.2139 21.4251C23.4872 21.5958 23.718 21.8267 23.8886 22.1C24.0593 22.3734 24.1653 22.6821 24.1986 23.0027C24.2319 23.3232 24.1916 23.6471 24.0808 23.9497C26.4359 21.5668 27.7549 18.3503 27.7507 14.9999C27.7507 7.95838 22.0422 2.24992 15.0007 2.24992C7.95911 2.24992 2.25065 7.95838 2.25065 14.9999C2.25065 18.4821 3.64678 21.6384 5.9099 23.9391Z" fill="#777777"/>
</svg>
