<svg class="svg-icon" style="width: 1em;height: 1em;vertical-align: middle;fill: currentColor;overflow: hidden;" viewBox="0 0 1024 1024" version="1.1" xmlns="http://www.w3.org/2000/svg"><path d="M512 983.466667C251.733333 983.466667 40.533333 772.266667 40.533333 512S251.733333 40.533333 512 40.533333 983.466667 251.733333 983.466667 512C981.333333 772.266667 772.266667 981.333333 512 983.466667z m0-878.933334C288 104.533333 104.533333 288 104.533333 512S288 919.466667 512 919.466667 919.466667 736 919.466667 512C917.333333 288 736 106.666667 512 104.533333z"  /><path d="M640 672c-8.533333 0-17.066667-4.266667-21.333333-8.533333l-256-256c-10.666667-12.8-10.666667-34.133333 4.266666-44.8 12.8-10.666667 29.866667-10.666667 42.666667 0l256 256c12.8 12.8 12.8 32 0 44.8-8.533333 6.4-17.066667 8.533333-25.6 8.533333z"  /><path d="M384 672c-8.533333 0-17.066667-4.266667-23.466667-8.533333-12.8-12.8-12.8-32 0-44.8l256-256c12.8-12.8 34.133333-10.666667 44.8 2.133333s10.666667 32 0 42.666667l-256 256c-4.266667 4.266667-12.8 8.533333-21.333333 8.533333z"  /></svg>