<svg width="21" height="20" viewBox="0 0 21 20" fill="none" xmlns="http://www.w3.org/2000/svg">
<path d="M18.7893 1.25H2.21074C0.990527 1.25 0 2.19336 0 3.35547V16.584C0 17.748 0.990527 18.6914 2.21074 18.6914H18.7872C20.0095 18.6914 20.9979 17.748 20.9979 16.5859V3.35547C21 2.19336 20.0095 1.25 18.7893 1.25ZM19.6875 16.5859C19.6875 17.0586 19.2835 17.4414 18.7893 17.4414H2.21074C1.7165 17.4414 1.3125 17.0566 1.3125 16.5859V3.35547C1.3125 2.88281 1.7165 2.5 2.21074 2.5H18.7872C19.2835 2.5 19.6854 2.88477 19.6854 3.35547V16.5859H19.6875Z" fill="white"/>
<path d="M11.7913 5.625C11.7913 5.9707 12.0845 6.25 12.4475 6.25H16.1266L11.135 10.9746L8.38289 8.28516C8.25984 8.16602 8.09373 8.09766 7.91736 8.0957C7.91531 8.0957 7.91531 8.0957 7.91326 8.0957C7.73894 8.0957 7.57283 8.16211 7.44978 8.2793L2.82117 12.6836C2.56482 12.9277 2.56482 13.3242 2.82117 13.5684C2.95037 13.6914 3.11648 13.752 3.28464 13.752C3.45281 13.752 3.62097 13.6914 3.74812 13.5684L7.9071 9.61133L10.6593 12.2988C10.7823 12.418 10.9484 12.4863 11.1248 12.4883C11.2991 12.4902 11.4693 12.4238 11.5924 12.3066L17.0618 7.12695V10.6445C17.0618 10.9902 17.3551 11.2695 17.718 11.2695C18.081 11.2695 18.3743 10.9902 18.3743 10.6445V5H12.4475C12.0845 5 11.7913 5.2793 11.7913 5.625Z" fill="white"/>
</svg>
