<svg width="24" height="24" viewBox="0 0 24 24" fill="none" xmlns="http://www.w3.org/2000/svg">
<g clip-path="url(#clip0_33_79)">
<path d="M22.5 2.24738L16.4948 2.24741V0.752655C16.4948 0.33828 16.1591 0.00265503 15.7448 0.00265503C15.3304 0.00265503 14.9948 0.33828 14.9948 0.752655V2.24703H8.99475V0.752655C8.99475 0.33828 8.65913 0.00265503 8.24475 0.00265503C7.83038 0.00265503 7.49475 0.33828 7.49475 0.752655V2.24703H1.5C0.671625 2.24703 0 2.91865 0 3.74703V22.497C0 23.3254 0.671625 23.997 1.5 23.997H22.5C23.3284 23.997 24 23.3254 24 22.497V3.74703C24 2.91901 23.3284 2.24738 22.5 2.24738ZM22.5 22.497H1.5V3.74703H7.49475V4.50266C7.49475 4.91701 7.83038 5.25266 8.24475 5.25266C8.65913 5.25266 8.99475 4.91701 8.99475 4.50266V3.74741H14.9948V4.50303C14.9948 4.9174 15.3304 5.25303 15.7448 5.25303C16.1591 5.25303 16.4948 4.9174 16.4948 4.50303V3.74741H22.5V22.497ZM17.25 11.9974H18.75C19.164 11.9974 19.5 11.6614 19.5 11.2474V9.74738C19.5 9.33338 19.164 8.99738 18.75 8.99738H17.25C16.836 8.99738 16.5 9.33338 16.5 9.74738V11.2474C16.5 11.6614 16.836 11.9974 17.25 11.9974ZM17.25 17.997H18.75C19.164 17.997 19.5 17.6614 19.5 17.247V15.747C19.5 15.333 19.164 14.997 18.75 14.997H17.25C16.836 14.997 16.5 15.333 16.5 15.747V17.247C16.5 17.6618 16.836 17.997 17.25 17.997ZM12.75 14.997H11.25C10.836 14.997 10.5 15.333 10.5 15.747V17.247C10.5 17.6614 10.836 17.997 11.25 17.997H12.75C13.164 17.997 13.5 17.6614 13.5 17.247V15.747C13.5 15.3334 13.164 14.997 12.75 14.997ZM12.75 8.99738H11.25C10.836 8.99738 10.5 9.33338 10.5 9.74738V11.2474C10.5 11.6614 10.836 11.9974 11.25 11.9974H12.75C13.164 11.9974 13.5 11.6614 13.5 11.2474V9.74738C13.5 9.33301 13.164 8.99738 12.75 8.99738ZM6.75 8.99738H5.25C4.836 8.99738 4.5 9.33338 4.5 9.74738V11.2474C4.5 11.6614 4.836 11.9974 5.25 11.9974H6.75C7.164 11.9974 7.5 11.6614 7.5 11.2474V9.74738C7.5 9.33301 7.164 8.99738 6.75 8.99738ZM6.75 14.997H5.25C4.836 14.997 4.5 15.333 4.5 15.747V17.247C4.5 17.6614 4.836 17.997 5.25 17.997H6.75C7.164 17.997 7.5 17.6614 7.5 17.247V15.747C7.5 15.3334 7.164 14.997 6.75 14.997Z" fill="#777777"/>
</g>
<defs>
<clipPath id="clip0_33_79">
<rect width="24" height="24" fill="white"/>
</clipPath>
</defs>
</svg>
