<svg width="24" height="24" viewBox="0 0 24 24" fill="none" xmlns="http://www.w3.org/2000/svg">
<path d="M10.657 17.8922V19.507H11.9836V17.8922H12.8461C13.2211 17.8922 13.5094 17.6039 13.5094 17.2289C13.5094 16.8539 13.2211 16.5656 12.8461 16.5656H4.81641C3.71016 16.5656 2.82656 15.682 2.82656 14.5758V6.48047C2.82656 5.37422 3.71016 4.49063 4.81641 4.49063H17.8641C18.9023 4.49063 19.7648 5.2875 19.8539 6.32578V6.92344C19.8539 7.29844 20.1422 7.58672 20.5172 7.58672C20.8922 7.58672 21.1805 7.29844 21.1805 6.92344V6.21563C21.0281 4.51172 19.5914 3.16406 17.8664 3.16406H4.81641C2.98125 3.16406 1.5 4.64531 1.5 6.48047V14.5734C1.5 16.4086 2.98125 17.8898 4.81641 17.8898H10.657V17.8922ZM17.2898 19.507H5.34844C4.97344 19.507 4.68516 19.7953 4.68516 20.1703C4.68516 20.5453 4.97344 20.8336 5.34844 20.8336H17.2898C17.6648 20.8336 17.9531 20.5453 17.9531 20.1703C17.9531 19.793 17.6672 19.507 17.2898 19.507Z" fill="white"/>
<path d="M22.1787 11.1023L21.117 10.8375C21.0959 10.793 21.0725 10.7719 21.0725 10.7273L21.6256 9.79921C21.7357 9.62108 21.7147 9.40077 21.56 9.26952L20.3881 8.07421C20.2334 7.91952 20.0131 7.89608 19.835 8.00858L18.8834 8.60624L18.6842 7.69921C18.6396 7.49999 18.4639 7.36639 18.2646 7.36639H16.6053C16.4061 7.36639 16.2303 7.49999 16.1857 7.69921L15.9865 8.56171L14.9904 7.94296C14.7701 7.85389 14.5475 7.89843 14.3928 8.03202L13.1975 9.22733C13.0428 9.38202 13.0217 9.60233 13.1318 9.78046L13.7506 10.7976L12.4451 11.107C12.2459 11.1516 12.1123 11.3273 12.1123 11.5266V13.207C12.1123 13.4062 12.2459 13.582 12.4451 13.6266L13.7271 13.9359L13.1295 14.932C13.0193 15.1101 13.0404 15.3305 13.1951 15.4851L14.367 16.657C14.5217 16.8117 14.742 16.8351 14.9201 16.7226L15.8037 16.193L16.092 17.4094C16.1365 17.6086 16.3123 17.7422 16.5115 17.7422H18.192C18.3912 17.7422 18.567 17.6086 18.6115 17.4094L18.8998 16.1719L19.8068 16.725C19.9826 16.8351 20.2053 16.8141 20.36 16.6594L21.5107 15.4875C21.6443 15.3328 21.6865 15.1125 21.5764 14.9578L21.0467 14.0742C21.0678 14.0086 21.0912 13.9406 21.1357 13.8961L22.1529 13.6523C22.3521 13.6078 22.4857 13.432 22.4857 13.2328V11.5523C22.5092 11.3226 22.3756 11.1469 22.1787 11.1023ZM21.6256 12.8719L20.7186 13.0922C20.5639 13.1367 20.4537 13.2469 20.4092 13.3805C20.3436 13.5562 20.2756 13.7344 20.1889 13.8891C20.1232 14.0226 20.1232 14.1984 20.21 14.332L20.6975 15.1289L20.0342 15.8156L19.1928 15.3047C19.0592 15.2156 18.9045 15.2156 18.7732 15.2836C18.6631 15.3281 18.5529 15.3726 18.4639 15.4172C18.3303 15.4617 18.2201 15.593 18.1756 15.7266L17.8662 16.875H16.8701L16.5818 15.6586C16.5373 15.525 16.4482 15.3937 16.317 15.3492C16.2279 15.3281 16.1389 15.2836 16.0732 15.2391C15.9396 15.1734 15.785 15.1734 15.6537 15.2601L14.7701 15.7898L14.0834 15.1031L14.6131 14.2195C14.7021 14.0859 14.7021 13.9312 14.6342 13.8C14.5686 13.6898 14.524 13.5562 14.4795 13.4461C14.435 13.3125 14.3014 13.2023 14.1701 13.1578L12.9982 12.8695V11.8734L14.2146 11.5851C14.3482 11.5406 14.4795 11.4516 14.524 11.3203C14.5686 11.2101 14.6131 11.1 14.6787 10.9875C14.7443 10.8539 14.7443 10.6781 14.6576 10.5445L14.0834 9.59296L14.7701 8.90624L15.8084 9.54843C15.942 9.61405 16.0732 9.63749 16.2068 9.56952L16.4061 9.50389H16.4271C16.5607 9.45936 16.6709 9.32577 16.7154 9.19452L16.9357 8.26639H17.8639L18.0631 9.17343C18.1076 9.32811 18.2178 9.43827 18.3514 9.50624C18.4404 9.52733 18.5506 9.57186 18.6162 9.61639C18.7498 9.68202 18.9045 9.66093 19.0146 9.5953L19.9451 9.02343L20.6318 9.71014L20.1232 10.5516C20.0342 10.6851 20.0342 10.8609 20.1232 10.9945C20.2123 11.1281 20.2779 11.2828 20.3225 11.4375C20.367 11.5711 20.5006 11.6812 20.6318 11.7258L21.5834 11.9461V12.8742H21.6256V12.8719Z" fill="white"/>
<path d="M17.3131 10.35C16.0967 10.35 15.1006 11.3461 15.1006 12.5625C15.1006 13.7789 16.0967 14.775 17.3131 14.775C18.5295 14.775 19.5256 13.7789 19.5256 12.5625C19.5232 11.3461 18.5506 10.35 17.3131 10.35ZM17.3131 13.8891C16.5842 13.8891 15.9865 13.2914 15.9865 12.5625C15.9865 11.8336 16.5842 11.2359 17.3131 11.2359C18.042 11.2359 18.6396 11.8336 18.6396 12.5625C18.6607 13.2914 18.0631 13.8891 17.3131 13.8891Z" fill="white"/>
</svg>
