<svg width="40" height="40" viewBox="0 0 40 40" fill="none" xmlns="http://www.w3.org/2000/svg">
<g clip-path="url(#clip0_521_2698)">
<path d="M36.4716 26.9065V13.3533C37.1713 12.9735 37.5911 12.2539 37.5911 11.4543C37.5911 10.2549 36.6116 9.27536 35.4122 9.27536C35.1123 9.27536 34.8324 9.33533 34.5526 9.45527L22.1188 2.27886V2.17891C22.1188 0.97951 21.1393 0 19.9399 0C18.7405 0 17.761 0.97951 17.761 2.17891V2.31884L5.36718 9.43528C5.10731 9.33533 4.84744 9.27536 4.56758 9.27536C3.36818 9.27536 2.38867 10.2549 2.38867 11.4543C2.38867 12.2139 2.78847 12.9135 3.42815 13.2934V26.9465C2.78847 27.3463 2.38867 28.046 2.38867 28.7856C2.38867 29.985 3.36818 30.9645 4.56758 30.9645C4.90741 30.9645 5.22725 30.8846 5.5271 30.7446L17.761 37.8011C17.761 38.3808 17.9809 38.9205 18.4007 39.3403C18.8205 39.7601 19.3602 39.98 19.9399 39.98C20.5196 39.98 21.0593 39.7601 21.4791 39.3403C21.8989 38.9205 22.1188 38.3808 22.1188 37.8011V37.7011L34.3127 30.6647C34.6525 30.8646 35.0124 30.9645 35.4122 30.9645C36.6116 30.9645 37.5911 29.985 37.5911 28.7856C37.5911 28.006 37.1513 27.3063 36.4716 26.9065ZM33.2332 11.4743L21.0993 18.2109C21.0194 18.1709 20.9394 18.1109 20.8394 18.071V4.17791C20.9394 4.13793 21.0194 4.07796 21.1193 4.03798L33.2932 11.0545C33.2532 11.1944 33.2332 11.3343 33.2332 11.4743ZM20.9194 21.989C20.9794 21.949 21.0593 21.909 21.1193 21.8691L33.2332 28.8056V28.9855L21.0993 35.982C21.0393 35.942 20.9794 35.902 20.9194 35.8821V21.989ZM22.1188 19.91L34.1928 13.2734C34.2327 13.3133 34.2927 13.3333 34.3527 13.3733V26.9265L34.1728 27.0465L22.1188 20.1499V20.07C22.1388 20.01 22.1188 19.97 22.1188 19.91ZM6.70651 10.9945L18.8005 4.03798C18.8404 4.05797 18.8604 4.07796 18.9004 4.09795V18.1709C18.8804 18.1909 18.8604 18.1909 18.8205 18.2109L6.76648 11.5542V11.4543C6.76648 11.3143 6.74649 11.1544 6.70651 10.9945ZM17.781 19.99V20.1499L5.78697 27.0265C5.70701 26.9665 5.62705 26.9265 5.54709 26.8866V13.4133C5.60706 13.3933 5.64704 13.3533 5.70701 13.3333L17.781 19.99ZM6.74649 28.6857L18.7005 21.8491C18.7805 21.909 18.8804 21.969 18.9604 22.009V35.902C18.9004 35.942 18.8404 35.962 18.7805 36.002L6.7265 29.0455C6.7265 28.9655 6.74649 28.8856 6.74649 28.8256C6.76648 28.7656 6.76648 28.7256 6.74649 28.6857Z" fill="#8C8C8C"/>
</g>
<defs>
<clipPath id="clip0_521_2698">
<rect width="40" height="40" fill="white"/>
</clipPath>
</defs>
</svg>
