<svg width="40" height="40" viewBox="0 0 40 40" fill="none" xmlns="http://www.w3.org/2000/svg">
<path d="M20.4669 18.1222C19.2172 18.1091 17.9993 17.7265 16.9666 17.0226C15.9339 16.3187 15.1325 15.3251 14.6634 14.1667C14.1942 13.0084 14.0783 11.7371 14.3301 10.513C14.582 9.28883 15.1904 8.16659 16.0787 7.28751C16.967 6.40843 18.0956 5.81183 19.3223 5.57281C20.549 5.33379 21.819 5.46305 22.9723 5.9443C24.1257 6.42555 25.1109 7.23729 25.804 8.2773C26.497 9.31732 26.8668 10.5391 26.8669 11.7889C26.8551 13.4765 26.1749 15.0907 24.9753 16.2778C23.7757 17.4649 22.1545 18.1281 20.4669 18.1222ZM20.4669 7.67778C19.6567 7.69092 18.8685 7.94315 18.2013 8.4028C17.5341 8.86245 17.0175 9.50901 16.7166 10.2613C16.4156 11.0135 16.3436 11.838 16.5097 12.631C16.6758 13.424 17.0725 14.1503 17.65 14.7186C18.2275 15.2869 18.9601 15.6719 19.7557 15.8252C20.5513 15.9785 21.3745 15.8933 22.1218 15.5803C22.8691 15.2672 23.5073 14.7404 23.9562 14.0658C24.405 13.3913 24.6445 12.5991 24.6446 11.7889C24.6329 10.6906 24.1869 9.64167 23.404 8.87131C22.6212 8.10095 21.5652 7.67184 20.4669 7.67778Z" fill="#8C8C8C"/>
<path d="M20.4673 18.1222C19.2176 18.1091 17.9998 17.7265 16.9671 17.0226C15.9344 16.3187 15.133 15.3251 14.6638 14.1667C14.1947 13.0084 14.0787 11.7371 14.3306 10.513C14.5824 9.28883 15.1908 8.16659 16.0791 7.28751C16.9675 6.40843 18.096 5.81183 19.3227 5.57281C20.5494 5.33379 21.8194 5.46305 22.9728 5.9443C24.1262 6.42555 25.1114 7.23729 25.8044 8.2773C26.4974 9.31732 26.8672 10.5391 26.8673 11.7889C26.8556 13.4765 26.1754 15.0907 24.9758 16.2778C23.7762 17.4649 22.155 18.1281 20.4673 18.1222ZM20.4673 7.67778C19.6572 7.69092 18.869 7.94315 18.2018 8.4028C17.5345 8.86245 17.018 9.50901 16.717 10.2613C16.416 11.0135 16.3441 11.838 16.5102 12.631C16.6762 13.424 17.0729 14.1503 17.6505 14.7186C18.228 15.2869 18.9605 15.6719 19.7561 15.8252C20.5518 15.9785 21.3749 15.8933 22.1222 15.5803C22.8696 15.2672 23.5078 14.7404 23.9566 14.0658C24.4055 13.3913 24.645 12.5991 24.6451 11.7889C24.6334 10.6906 24.1873 9.64167 23.4045 8.87131C22.6216 8.10095 21.5656 7.67184 20.4673 7.67778ZM24.3451 19.6111C19.4168 18.7535 14.3433 19.5341 9.90065 21.8333C9.58529 22.0084 9.32416 22.2669 9.14582 22.5804C8.96749 22.894 8.87883 23.2506 8.88954 23.6111V27.5667C8.88954 27.8614 9.0066 28.144 9.21498 28.3523C9.42335 28.5607 9.70596 28.6778 10.0006 28.6778C10.2953 28.6778 10.578 28.5607 10.7863 28.3523C10.9947 28.144 11.1118 27.8614 11.1118 27.5667V23.7556C15.2314 21.6885 19.9162 21.0326 24.4451 21.8889L24.3451 19.6111Z" fill="#8C8C8C"/>
<path d="M36.6672 24.4445H29.2228V22.8C29.2228 22.5053 29.1057 22.2227 28.8973 22.0143C28.689 21.806 28.4063 21.6889 28.1117 21.6889C27.817 21.6889 27.5344 21.806 27.326 22.0143C27.1176 22.2227 27.0005 22.5053 27.0005 22.8V24.4445H18.8894C18.5947 24.4445 18.3121 24.5615 18.1038 24.7699C17.8954 24.9783 17.7783 25.2609 17.7783 25.5556V36.6667C17.7783 36.9614 17.8954 37.244 18.1038 37.4524C18.3121 37.6607 18.5947 37.7778 18.8894 37.7778H36.6672C36.9619 37.7778 37.2445 37.6607 37.4529 37.4524C37.6613 37.244 37.7783 36.9614 37.7783 36.6667V25.5556C37.7783 25.2609 37.6613 24.9783 37.4529 24.7699C37.2445 24.5615 36.9619 24.4445 36.6672 24.4445ZM35.5561 35.5556H20.0005V26.6667H27.0005V27.1222C27.0005 27.4169 27.1176 27.6995 27.326 27.9079C27.5344 28.1163 27.817 28.2333 28.1117 28.2333C28.4063 28.2333 28.689 28.1163 28.8973 27.9079C29.1057 27.6995 29.2228 27.4169 29.2228 27.1222V26.6667H35.5561V35.5556Z" fill="#8C8C8C"/>
<path d="M24.2338 30.4667H30.856V32.0222H24.2338V30.4667ZM12.0449 13.6C8.96871 13.6515 5.94587 14.4119 3.21155 15.8222C2.91417 15.9793 2.66508 16.2142 2.49089 16.5019C2.31671 16.7896 2.224 17.1193 2.22266 17.4556V20.9C2.22266 21.1947 2.33972 21.4773 2.54809 21.6857C2.75647 21.8941 3.03908 22.0111 3.33377 22.0111C3.62845 22.0111 3.91107 21.8941 4.11944 21.6857C4.32782 21.4773 4.44488 21.1947 4.44488 20.9V17.6778C7.05743 16.3774 9.94995 15.7401 12.8671 15.8222C12.4854 15.1259 12.2084 14.3771 12.0449 13.6ZM36.7893 15.8111C34.3369 14.5247 31.6417 13.7676 28.8782 13.5889C28.7155 14.3646 28.4423 15.113 28.0671 15.8111C30.6705 15.8734 33.2279 16.5109 35.556 17.6778V20.9C35.556 21.1947 35.6731 21.4773 35.8814 21.6857C36.0898 21.8941 36.3724 22.0111 36.6671 22.0111C36.9618 22.0111 37.2444 21.8941 37.4528 21.6857C37.6612 21.4773 37.7782 21.1947 37.7782 20.9V17.4556C37.7789 17.1174 37.6871 16.7854 37.5128 16.4956C37.3385 16.2058 37.0884 15.9691 36.7893 15.8111ZM11.8449 11.7889V11.0445C10.9745 10.928 10.1825 10.4803 9.63385 9.79456C9.0852 9.10884 8.82216 8.23795 8.89947 7.36318C8.97679 6.4884 9.3885 5.67715 10.0489 5.09829C10.7093 4.51943 11.5675 4.21758 12.4449 4.25556C13.3575 4.25391 14.2346 4.60875 14.8893 5.24445C15.467 4.76798 16.1014 4.36492 16.7782 4.04445C16.0222 3.17518 15.0206 2.55538 13.9053 2.26675C12.79 1.97812 11.6135 2.0342 10.5307 2.42761C9.44794 2.82101 8.50979 3.53327 7.83991 4.47051C7.17003 5.40775 6.79987 6.52597 6.77821 7.67778C6.80153 9.08751 7.34954 10.4379 8.31521 11.4652C9.28088 12.4925 10.5948 13.123 12.0004 13.2333C11.9062 12.7574 11.8541 12.274 11.8449 11.7889ZM27.5227 2.03334C26.7591 2.03351 26.0032 2.1859 25.2992 2.48161C24.5953 2.77732 23.9573 3.21041 23.4227 3.75556C24.1738 4.02775 24.8841 4.4016 25.5338 4.86667C26.0525 4.50659 26.6592 4.29404 27.2892 4.25168C27.9193 4.20932 28.549 4.33874 29.1112 4.62614C29.6735 4.91354 30.1472 5.34814 30.4819 5.88361C30.8165 6.41908 30.9996 7.03534 31.0115 7.66667C31.0046 8.31516 30.814 8.9484 30.4621 9.49309C30.1101 10.0378 29.611 10.4716 29.0227 10.7445C29.0674 11.0871 29.0896 11.4323 29.0893 11.7778C29.0863 12.2244 29.0492 12.6702 28.9782 13.1111C30.1886 12.7999 31.2623 12.0973 32.0319 11.1126C32.8016 10.1279 33.2241 8.91643 33.2338 7.66667C33.2191 6.16368 32.6102 4.72756 31.5401 3.67205C30.47 2.61653 29.0257 2.0274 27.5227 2.03334Z" fill="#8C8C8C"/>
</svg>
