<svg width="24" height="24" viewBox="0 0 24 24" fill="none" xmlns="http://www.w3.org/2000/svg">
<path d="M19.4343 21.8578L19.4601 21.8414C19.7132 21.6656 19.8093 21.3211 19.6851 21.0422C19.6757 21.0211 19.6054 20.8453 19.6054 20.693C19.6054 20.1891 20.0155 19.7789 20.5194 19.7789H20.5616C20.8194 19.7789 21.0233 19.5727 21.0843 19.2539C21.0843 19.2492 21.1757 18.7805 21.1757 18.4055C21.1757 18.0492 21.096 17.6063 21.0866 17.557C21.0257 17.2383 20.8218 17.032 20.5569 17.032H20.5194C20.0155 17.032 19.6054 16.6219 19.6054 16.118C19.6054 15.9867 19.664 15.8227 19.6851 15.7734C19.8093 15.4922 19.7132 15.1477 19.4366 14.9555L18.3679 14.3672C18.2835 14.332 18.1944 14.3133 18.0983 14.3133C17.9038 14.3133 17.714 14.393 17.5874 14.5242C17.4538 14.6625 17.1022 14.9438 16.8585 14.9438C16.6124 14.9438 16.2585 14.6555 16.1249 14.5172C15.9983 14.3836 15.8038 14.3016 15.6093 14.3016C15.5155 14.3016 15.4265 14.3203 15.3468 14.3531L15.3257 14.3602L14.2382 14.9578L14.2124 14.9742C13.9593 15.15 13.8632 15.4945 13.9874 15.7734C13.9968 15.7945 14.0694 15.9703 14.0694 16.1227C14.0694 16.6266 13.6593 17.0367 13.1554 17.0367H13.1132C12.8554 17.0367 12.6515 17.243 12.5905 17.5641C12.5812 17.6133 12.5015 18.0539 12.5015 18.4125C12.5015 18.7688 12.5835 19.2117 12.5905 19.2609C12.6515 19.5797 12.8554 19.786 13.1202 19.786H13.1554C13.6593 19.786 14.0694 20.1961 14.0694 20.7C14.0694 20.8313 14.0108 20.9953 13.9897 21.0445C13.8655 21.3258 13.9616 21.668 14.2358 21.8625L15.2835 22.4461C15.3679 22.4813 15.4569 22.5 15.553 22.5C15.7499 22.5 15.9421 22.418 16.0687 22.2797C16.1976 22.1391 16.5632 21.832 16.814 21.832C17.0671 21.832 17.4304 22.1391 17.564 22.2891C17.6905 22.4297 17.8851 22.5117 18.0843 22.5117C18.178 22.5117 18.2671 22.493 18.3749 22.4461L19.4343 21.8578ZM16.814 21C16.5093 21 16.1835 21.1242 15.8483 21.3703C15.7382 21.4524 15.6351 21.5391 15.5366 21.6352L14.8054 21.2274C14.8476 21.0961 14.8991 20.9016 14.8991 20.6977C14.8991 19.8164 14.2429 19.0805 13.3827 18.968C13.3616 18.825 13.3288 18.593 13.3288 18.4102C13.3288 18.225 13.3593 17.9953 13.3827 17.8524C14.2429 17.7399 14.8991 17.0039 14.8991 16.1227C14.8991 15.9188 14.8499 15.7266 14.8077 15.5953L15.5976 15.1617C15.6655 15.2274 15.7757 15.3235 15.9116 15.4195C16.2421 15.6563 16.5632 15.7758 16.8608 15.7758C17.1562 15.7758 17.4726 15.6586 17.803 15.4266C17.9366 15.3328 18.0444 15.2391 18.1147 15.1735L18.8694 15.593C18.8272 15.7242 18.7757 15.9188 18.7757 16.1227C18.7757 17.0039 19.4319 17.7399 20.2921 17.8524C20.3155 17.9977 20.346 18.2274 20.346 18.4102C20.346 18.593 20.3155 18.8227 20.2921 18.968C19.4272 19.0781 18.7733 19.8141 18.7733 20.6953C18.7733 20.8992 18.8226 21.0914 18.8647 21.2227L18.1007 21.6445C18.0327 21.5766 17.9226 21.4758 17.7866 21.375C17.4491 21.1266 17.121 21 16.814 21Z" fill="white"/>
<path d="M18.4314 18.4031C18.4314 17.5149 17.7072 16.7906 16.8189 16.7906C15.9307 16.7906 15.2064 17.5149 15.2064 18.4031C15.2064 19.2938 15.9307 20.0156 16.8189 20.0156C17.7072 20.0156 18.4314 19.2914 18.4314 18.4031ZM16.8189 19.186C16.3877 19.186 16.0361 18.8344 16.0361 18.4031C16.0361 17.9719 16.3877 17.6203 16.8189 17.6203C17.2502 17.6203 17.6018 17.9719 17.6018 18.4031C17.5994 18.8344 17.2502 19.186 16.8189 19.186ZM17.7072 7.55158C17.7072 4.20939 14.9979 1.49767 11.6557 1.49532V1.49298C10.0479 1.49298 8.50801 2.13048 7.37129 3.2672C6.23457 4.40626 5.59473 5.94611 5.59707 7.55392C5.59707 9.82032 6.85566 11.7727 8.7002 12.8109C5.35332 14.0156 2.94395 17.175 2.91113 20.9274V21.0492C2.91582 21.2649 2.95801 21.4688 2.97676 21.6844H2.99082C3.02598 22.0195 3.30957 22.2727 3.64473 22.2727C3.98223 22.2727 4.26348 22.0195 4.29863 21.6844H4.31973C4.30098 21.457 4.25176 21.2391 4.25176 21.0094C4.25176 19.0453 5.02988 17.1633 6.41738 15.7735C7.80488 14.386 9.68926 13.6055 11.6533 13.6055L12.326 13.5375C15.3471 13.2024 17.7072 10.6664 17.7072 7.55158ZM11.6533 12.2649C9.05176 12.2649 6.94238 10.1555 6.94238 7.55392C6.94238 4.95236 9.05176 2.84298 11.6533 2.84298C14.2549 2.84298 16.3643 4.95236 16.3643 7.55392C16.3643 10.1555 14.2572 12.2649 11.6533 12.2649Z" fill="white"/>
</svg>
