<svg width="40" height="40" viewBox="0 0 40 40" fill="none" xmlns="http://www.w3.org/2000/svg">
<path d="M19.9047 2.08334H22.4997C22.8312 2.08334 23.1491 2.21504 23.3836 2.44946C23.618 2.68388 23.7497 3.00182 23.7497 3.33334C23.7497 3.66486 23.618 3.98281 23.3836 4.21723C23.1491 4.45165 22.8312 4.58334 22.4997 4.58334H19.9997C16.0363 4.58334 13.1897 4.58668 11.023 4.87668C8.89134 5.16334 7.60634 5.71001 6.65634 6.65834C5.70801 7.60834 5.16301 8.89168 4.87634 11.0233C4.58634 13.19 4.58301 16.0367 4.58301 20C4.58301 23.9633 4.58634 26.81 4.87634 28.9767C5.16301 31.1083 5.70967 32.3933 6.65801 33.3433C7.60801 34.2917 8.89134 34.8367 11.023 35.1233C13.1897 35.4133 16.0363 35.4167 19.9997 35.4167C23.963 35.4167 26.8097 35.4133 28.9763 35.1233C31.108 34.8367 32.393 34.29 33.343 33.3417C34.2913 32.3917 34.8363 31.1083 35.123 28.9767C35.413 26.81 35.4163 23.9633 35.4163 20V17.5C35.4163 17.1685 35.548 16.8505 35.7825 16.6161C36.0169 16.3817 36.3348 16.25 36.6663 16.25C36.9979 16.25 37.3158 16.3817 37.5502 16.6161C37.7846 16.8505 37.9163 17.1685 37.9163 17.5V20.095C37.9163 23.9433 37.9163 26.9583 37.5997 29.3117C37.2763 31.7183 36.5997 33.6183 35.1097 35.11C33.618 36.6017 31.718 37.2767 29.3097 37.6C26.958 37.9167 23.943 37.9167 20.0947 37.9167H19.9047C16.0563 37.9167 13.0413 37.9167 10.688 37.6C8.28134 37.2767 6.38134 36.6 4.88967 35.11C3.39801 33.6183 2.72301 31.7183 2.39967 29.31C2.08301 26.9583 2.08301 23.9433 2.08301 20.095V19.905C2.08301 16.0567 2.08301 13.0417 2.39967 10.6883C2.72301 8.28168 3.39967 6.38168 4.88967 4.89001C6.38134 3.39834 8.28134 2.72334 10.6897 2.40001C13.0413 2.08334 16.0563 2.08334 19.9047 2.08334Z" fill="#8C8C8C"/>
<path fill-rule="evenodd" clip-rule="evenodd" d="M25.416 8.33334C25.416 6.67574 26.0745 5.08603 27.2466 3.91393C28.4187 2.74182 30.0084 2.08334 31.666 2.08334C33.3236 2.08334 34.9133 2.74182 36.0854 3.91393C37.2575 5.08603 37.916 6.67574 37.916 8.33334C37.916 9.99095 37.2575 11.5807 36.0854 12.7528C34.9133 13.9249 33.3236 14.5833 31.666 14.5833C30.0084 14.5833 28.4187 13.9249 27.2466 12.7528C26.0745 11.5807 25.416 9.99095 25.416 8.33334ZM31.666 4.58334C31.1736 4.58334 30.6859 4.68034 30.231 4.8688C29.776 5.05725 29.3626 5.33347 29.0144 5.68169C28.6661 6.02991 28.3899 6.44331 28.2015 6.89828C28.013 7.35325 27.916 7.84089 27.916 8.33334C27.916 8.8258 28.013 9.31344 28.2015 9.76841C28.3899 10.2234 28.6661 10.6368 29.0144 10.985C29.3626 11.3332 29.776 11.6094 30.231 11.7979C30.6859 11.9863 31.1736 12.0833 31.666 12.0833C32.6606 12.0833 33.6144 11.6883 34.3177 10.985C35.0209 10.2817 35.416 9.32791 35.416 8.33334C35.416 7.33878 35.0209 6.38495 34.3177 5.68169C33.6144 4.97843 32.6606 4.58334 31.666 4.58334Z" fill="#8C8C8C"/>
<path d="M22.9159 16.6667C22.9159 17.3567 23.4759 17.9167 24.1659 17.9167H25.3159L21.9609 21.2717C21.9222 21.3105 21.8763 21.3413 21.8256 21.3623C21.775 21.3833 21.7208 21.3941 21.6659 21.3941C21.6111 21.3941 21.5569 21.3833 21.5063 21.3623C21.4556 21.3413 21.4097 21.3105 21.3709 21.2717L18.7276 18.6284C18.1807 18.0818 17.4391 17.7748 16.6659 17.7748C15.8928 17.7748 15.1512 18.0818 14.6043 18.6284L10.7826 22.45C10.6598 22.5645 10.5613 22.7025 10.493 22.8558C10.4247 23.0091 10.3879 23.1746 10.385 23.3425C10.382 23.5103 10.4129 23.677 10.4757 23.8327C10.5386 23.9883 10.6322 24.1297 10.7509 24.2484C10.8696 24.3671 11.011 24.4607 11.1666 24.5236C11.3223 24.5864 11.489 24.6173 11.6568 24.6143C11.8247 24.6114 11.9902 24.5746 12.1435 24.5063C12.2968 24.438 12.4348 24.3395 12.5493 24.2167L16.3709 20.395C16.4097 20.3562 16.4556 20.3254 16.5063 20.3044C16.5569 20.2834 16.6111 20.2726 16.6659 20.2726C16.7208 20.2726 16.775 20.2834 16.8256 20.3044C16.8763 20.3254 16.9222 20.3562 16.9609 20.395L19.6043 23.0384C20.1512 23.5849 20.8928 23.8919 21.6659 23.8919C22.4391 23.8919 23.1807 23.5849 23.7276 23.0384L27.0826 19.685V20.8334C27.0826 21.1649 27.2143 21.4828 27.4487 21.7172C27.6831 21.9517 28.0011 22.0834 28.3326 22.0834C28.6641 22.0834 28.9821 21.9517 29.2165 21.7172C29.4509 21.4828 29.5826 21.1649 29.5826 20.8334V16.6667C29.5826 16.3352 29.4509 16.0172 29.2165 15.7828C28.9821 15.5484 28.6641 15.4167 28.3326 15.4167H24.1659C23.8344 15.4167 23.5165 15.5484 23.2821 15.7828C23.0476 16.0172 22.9159 16.3352 22.9159 16.6667Z" fill="#8C8C8C"/>
</svg>
