<svg width="22" height="16" viewBox="0 0 22 16" fill="none" xmlns="http://www.w3.org/2000/svg">
<path d="M5.5 16C3.98333 16 2.68733 15.475 1.612 14.425C0.536667 13.375 -0.000666047 12.0917 6.19579e-07 10.575C6.19579e-07 9.275 0.391667 8.11667 1.175 7.1C1.95833 6.08333 2.98333 5.43333 4.25 5.15C4.66667 3.61667 5.5 2.375 6.75 1.425C8 0.475 9.41667 0 11 0C12.95 0 14.6043 0.679333 15.963 2.038C17.3217 3.39667 18.0007 5.05067 18 7C19.15 7.13333 20.1043 7.62933 20.863 8.488C21.6217 9.34667 22.0007 10.3507 22 11.5C22 12.75 21.5623 13.8127 20.687 14.688C19.8117 15.5633 18.7493 16.0007 17.5 16H12C11.45 16 10.979 15.804 10.587 15.412C10.195 15.02 9.99933 14.5493 10 14V8.85L8.4 10.4L7 9L11 5L15 9L13.6 10.4L12 8.85V14H17.5C18.2 14 18.7917 13.7583 19.275 13.275C19.7583 12.7917 20 12.2 20 11.5C20 10.8 19.7583 10.2083 19.275 9.725C18.7917 9.24167 18.2 9 17.5 9H16V7C16 5.61667 15.5123 4.43733 14.537 3.462C13.5617 2.48667 12.3827 1.99933 11 2C9.61667 2 8.43733 2.48767 7.462 3.463C6.48667 4.43833 5.99933 5.61733 6 7H5.5C4.53333 7 3.70833 7.34167 3.025 8.025C2.34167 8.70833 2 9.53333 2 10.5C2 11.4667 2.34167 12.2917 3.025 12.975C3.70833 13.6583 4.53333 14 5.5 14H8V16H5.5Z" fill="#4D4D4D"/>
</svg>
