<svg width="43" height="42" viewBox="0 0 43 42" fill="none" xmlns="http://www.w3.org/2000/svg">
<path d="M20.3666 38.8498C20.3666 38.8498 16.2682 38.3248 15.9994 39.3748C15.7307 40.4248 15.865 39.5717 13.4463 40.0311C11.0275 40.4904 13.5135 42.3936 17.8135 41.8686C22.1135 41.3436 21.7103 41.4748 23.9275 41.6717C26.1447 41.8686 30.4447 41.7373 29.1682 40.8186C27.8916 39.8998 29.101 38.6529 26.7494 38.8498C24.3978 39.0467 22.9869 38.2592 20.3666 38.8498ZM16.3353 13.9123C30.5119 12.0748 32.9307 26.1186 32.9307 26.1186C29.9744 24.2811 27.8244 24.6092 26.0775 27.2998C23.0541 25.4623 20.501 25.7904 18.5525 28.5467L18.1494 28.6779C15.5963 26.7748 11.4978 27.4967 9.75097 30.1873C7.86972 28.3498 5.65253 28.3498 3.30097 31.3029C3.30097 31.3029 1.0166 17.7842 14.1853 14.5029L14.5885 11.8779L16.3353 13.9123Z" fill="#FDDFDF"/>
<path d="M9.616 30.122C9.41443 30.122 9.28006 29.9908 9.21287 29.7939C8.67537 19.4252 14.6551 14.3064 14.9238 14.1095C15.0582 13.9783 15.3269 13.9783 15.4613 14.1752C15.5957 14.3064 15.5957 14.5689 15.3941 14.7002C15.3269 14.7658 9.48162 19.8189 9.95193 29.7939C10.0191 29.9908 9.81756 30.122 9.616 30.122Z" fill="#EE9B9B"/>
<path d="M26.0102 27.3658C25.8086 27.3658 25.6742 27.2346 25.607 27.0377C25.2039 18.7033 15.1258 14.7658 14.9914 14.7658C14.7898 14.7002 14.7227 14.5033 14.7898 14.3064C14.857 14.1096 15.0586 14.0439 15.2602 14.1096C15.3945 14.1752 25.8758 18.2439 26.3461 27.0377C26.4133 27.1689 26.2789 27.3658 26.0102 27.3658Z" fill="#E59797"/>
<path d="M21.9788 40.9499C21.6429 40.9499 21.4413 40.6874 21.4413 40.4249C21.4413 37.9312 21.1726 35.1749 20.7695 32.8124C20.0976 29.2687 18.821 26.1843 18.821 26.1843C18.6866 25.9218 18.821 25.5937 19.157 25.4624C19.4257 25.3312 19.7616 25.4624 19.896 25.7905C19.9632 25.9218 21.2398 29.0062 21.9116 32.6812C22.382 35.1749 22.5835 37.9312 22.5835 40.4905C22.5163 40.6874 22.2476 40.9499 21.9788 40.9499Z" fill="#FDDFDF"/>
<path d="M18.2838 28.8096C18.0822 28.8096 17.9479 28.6783 17.8807 28.4814C17.8807 28.4158 17.6119 24.2814 17.0072 21.2627C16.4025 18.2439 14.8572 14.5689 14.8572 14.5689C14.79 14.3721 14.8572 14.1752 15.0588 14.1096C15.2604 14.0439 15.4619 14.1096 15.5291 14.3064C15.5963 14.4377 17.1416 18.0471 17.7463 21.1314C18.351 24.1502 18.6197 28.3502 18.6197 28.4158C18.6869 28.6127 18.4854 28.7439 18.2838 28.8096Z" fill="#E59797"/>
<path d="M31.4525 0H32.1916V2.23125H31.4525V0ZM37.0963 1.70625L37.6338 2.23125L36.0213 3.80625L35.4838 3.28125L37.0963 1.70625ZM39.851 6.75938V7.48125H37.5666V6.75938H39.851ZM38.1713 12.2063L37.6338 12.7312L36.0213 11.1562L36.5588 10.6313L38.1713 12.2063ZM32.9307 14.8969H32.1916V12.6656H32.9307V14.8969ZM27.2869 13.2563L26.7494 12.7312L28.3619 11.1562L28.8994 11.6812L27.2869 13.2563ZM24.5322 8.20312V7.48125H26.8166V8.20312H24.5322ZM26.2791 2.69062L26.8166 2.16562L28.4291 3.74062L27.8916 4.26562L26.2791 2.69062ZM32.2588 3.74062C34.4088 3.74062 36.0885 5.38125 36.0885 7.48125C36.0885 9.58125 34.3416 11.2219 32.2588 11.2219C30.1088 11.2219 28.4291 9.58125 28.4291 7.48125C28.4291 5.38125 30.1088 3.74062 32.2588 3.74062Z" fill="#EE9B9B"/>
</svg>
